<svg version="1.0" preserveAspectRatio="xMidYMid meet" viewBox="21.543307086614174 257.01300047595 236.4904386951631 182.52000033800002" zoomAndPan="magnify" xmlns:xlink="http://www.w3.org/1999/xlink" xmlns="http://www.w3.org/2000/svg" style="max-height: 500px" width="236.4904386951631" height="182.52000033800002"><defs><g/><clipPath id="87fadfff33"><path clip-rule="nonzero" d="M 0.886719 0 L 959.113281 0 L 959.113281 539 L 0.886719 539 Z M 0.886719 0"/></clipPath><clipPath id="2520aae2d3"><path clip-rule="nonzero" d="M 24.144531 260.859375 L 249 260.859375 L 249 421 L 24.144531 421 Z M 24.144531 260.859375"/></clipPath><clipPath id="19173b0b5c"><path clip-rule="nonzero" d="M 28 265 L 253.21875 265 L 253.21875 425 L 28 425 Z M 28 265"/></clipPath><clipPath id="6baa429b21"><path clip-rule="nonzero" d="M 37 401 L 72 401 L 72 434.539062 L 37 434.539062 Z M 37 401"/></clipPath><clipPath id="aa80a10515"><path clip-rule="nonzero" d="M 62 404 L 75 404 L 75 434.539062 L 62 434.539062 Z M 62 404"/></clipPath></defs><g clip-path="url(#87fadfff33)"><path fill-rule="nonzero" fill-opacity="1" d="M 0.886719 0 L 959.113281 0 L 959.113281 539 L 0.886719 539 Z M 0.886719 0" fill="transparent"/><path fill-rule="nonzero" fill-opacity="1" d="M 0.886719 0 L 959.113281 0 L 959.113281 539 L 0.886719 539 Z M 0.886719 0" fill="transparent"/></g><path fill-rule="nonzero" fill-opacity="1" d="M 86.363281 270.445312 C 109.976562 304.335938 137.515625 295.070312 142.96875 265.648438 C 150.726562 296.445312 165.765625 298.683594 186.089844 280.175781 C 182.5625 307.554688 193.730469 317.246094 216.984375 312.390625 C 198.101562 333.855469 205.765625 345.191406 239.292969 346.65625 C 210.21875 351.789062 197.289062 361.957031 217.917969 382.597656 C 183.171875 372.492188 170.09375 379.898438 188.984375 413.140625 C 161.730469 393.152344 144.308594 392.980469 138.675781 416.585938 C 128.976562 387.542969 112.480469 385.761719 88.648438 413.417969 C 97.316406 384.089844 77.148438 381.070312 31.992188 400.847656 C 68.054688 374.074219 74.738281 353.582031 31.433594 343.769531 C 64.835938 332.597656 65.585938 311.515625 43.332031 291.765625 C 84.402344 311.132812 99.707031 303.125 86.359375 270.445312 Z M 86.363281 270.445312" fill="#000000"/><g clip-path="url(#2520aae2d3)"><path fill-rule="nonzero" fill-opacity="1" d="M 138.839844 420.300781 L 137.707031 416.90625 C 135.488281 410.265625 132.890625 405.042969 129.984375 401.386719 C 127.140625 397.808594 123.933594 395.648438 120.445312 394.964844 C 112.1875 393.34375 101.753906 399.777344 89.425781 414.082031 L 86.324219 417.679688 L 87.667969 413.128906 C 89.207031 407.921875 89.828125 403.507812 89.515625 400.007812 C 89.214844 396.679688 88.058594 394.105469 86.066406 392.359375 C 82.570312 389.289062 76.296875 388.503906 67.425781 390.035156 C 58.457031 391.578125 46.675781 395.53125 32.40625 401.78125 L 24.164062 405.394531 L 31.382812 400.03125 C 41.789062 392.304688 49.5 385.257812 54.296875 379.074219 C 59.242188 372.710938 61.242188 367.09375 60.246094 362.386719 C 59.457031 358.667969 56.75 355.328125 52.203125 352.46875 C 47.347656 349.414062 40.285156 346.820312 31.207031 344.765625 L 27.652344 343.960938 L 31.109375 342.804688 C 46.304688 337.722656 55.3125 330.300781 57.148438 321.339844 C 58.957031 312.515625 53.945312 302.550781 42.65625 292.53125 L 37.34375 287.816406 L 43.769531 290.847656 C 55.101562 296.191406 64.585938 299.492188 71.960938 300.664062 C 79.003906 301.785156 84.050781 300.960938 86.957031 298.214844 C 89.179688 296.113281 90.207031 292.804688 90.015625 288.375 C 89.816406 283.714844 88.265625 277.8125 85.414062 270.828125 L 81.933594 262.300781 L 87.203125 269.863281 C 98.089844 285.488281 110.847656 293.054688 122.203125 290.613281 C 132.050781 288.496094 139.4375 279.09375 141.964844 265.464844 L 142.820312 260.863281 L 143.960938 265.398438 C 145.828125 272.8125 148.167969 278.691406 150.921875 282.871094 C 153.53125 286.835938 156.574219 289.363281 159.96875 290.382812 C 163.3125 291.386719 167.148438 290.96875 171.375 289.144531 C 175.597656 287.324219 180.316406 284.050781 185.402344 279.421875 L 187.460938 277.546875 L 187.105469 280.304688 C 185.371094 293.734375 187.230469 303.066406 192.625 308.042969 C 197.550781 312.585938 205.671875 313.710938 216.773438 311.394531 L 219.773438 310.765625 L 217.753906 313.0625 C 209.460938 322.488281 206.382812 329.902344 208.605469 335.097656 C 211.261719 341.316406 221.601562 344.859375 239.335938 345.636719 L 248.628906 346.042969 L 239.46875 347.660156 C 230.671875 349.210938 223.695312 351.191406 218.730469 353.539062 C 213.519531 356.007812 210.335938 358.960938 209.273438 362.324219 C 208.492188 364.789062 208.808594 367.605469 210.214844 370.691406 C 211.738281 374.042969 214.574219 377.808594 218.640625 381.878906 L 221.449219 384.6875 L 217.632812 383.578125 C 198.921875 378.136719 187.328125 378.035156 183.171875 383.277344 C 179.3125 388.144531 181.566406 398.019531 189.871094 412.636719 L 192.230469 416.785156 L 188.378906 413.960938 C 180.191406 407.957031 172.898438 403.773438 166.703125 401.527344 C 160.53125 399.285156 155.300781 398.917969 151.167969 400.433594 C 145.652344 402.449219 141.785156 407.964844 139.671875 416.820312 Z M 117.890625 392.683594 C 118.894531 392.683594 119.878906 392.777344 120.839844 392.964844 C 124.816406 393.746094 128.433594 396.152344 131.585938 400.121094 C 134.167969 403.371094 136.507812 407.753906 138.554688 413.179688 C 139.605469 409.828125 140.949219 406.996094 142.570312 404.726562 C 144.699219 401.746094 147.355469 399.65625 150.464844 398.519531 C 155.0625 396.835938 160.761719 397.203125 167.402344 399.609375 C 172.84375 401.582031 179.070312 404.980469 185.960938 409.734375 C 182.804688 403.707031 180.753906 398.496094 179.855469 394.203125 C 178.75 388.941406 179.328125 384.839844 181.570312 382.011719 C 186.066406 376.34375 196.898438 375.882812 214.636719 380.625 C 211.738281 377.390625 209.628906 374.34375 208.355469 371.539062 C 206.734375 367.976562 206.386719 364.671875 207.324219 361.710938 C 207.964844 359.683594 209.222656 357.792969 211.058594 356.089844 C 212.777344 354.496094 215.066406 353.019531 217.855469 351.699219 C 221.554688 349.949219 226.140625 348.441406 231.757812 347.140625 C 225.996094 346.546875 221.179688 345.574219 217.382812 344.238281 C 211.84375 342.285156 208.257812 339.480469 206.726562 335.898438 C 205.421875 332.851562 205.59375 329.230469 207.242188 325.144531 C 208.589844 321.789062 210.976562 318.023438 214.34375 313.921875 C 209.71875 314.675781 205.597656 314.8125 202.0625 314.316406 C 197.648438 313.699219 194.007812 312.09375 191.238281 309.539062 C 188.277344 306.808594 186.257812 302.933594 185.234375 298.03125 C 184.351562 293.777344 184.199219 288.628906 184.777344 282.699219 C 180.277344 286.554688 176.050781 289.347656 172.1875 291.015625 C 167.507812 293.039062 163.199219 293.480469 159.378906 292.332031 C 155.515625 291.171875 152.09375 288.363281 149.210938 283.988281 C 146.851562 280.402344 144.789062 275.65625 143.0625 269.851562 C 141.589844 275.285156 139.273438 280.054688 136.277344 283.804688 C 132.566406 288.441406 127.847656 291.484375 122.632812 292.605469 C 116.871094 293.84375 110.582031 292.707031 104.449219 289.324219 C 99.328125 286.5 94.378906 282.207031 89.683594 276.515625 C 93.273438 287.6875 92.835938 295.46875 88.363281 299.691406 C 84.972656 302.894531 79.34375 303.898438 71.636719 302.675781 C 65.300781 301.667969 57.484375 299.144531 48.347656 295.164062 C 51.964844 298.9375 54.738281 302.734375 56.628906 306.496094 C 59.289062 311.800781 60.140625 316.929688 59.152344 321.742188 C 58.171875 326.519531 55.398438 330.882812 50.90625 334.71875 C 46.925781 338.117188 41.585938 341.089844 35.007812 343.578125 C 42.726562 345.550781 48.863281 347.953125 53.292969 350.738281 C 58.328125 353.90625 61.339844 357.683594 62.246094 361.964844 C 64.207031 371.222656 56.554688 382.660156 38.886719 396.824219 C 50.074219 392.277344 59.535156 389.324219 67.078125 388.023438 C 71.757812 387.214844 75.820312 387.027344 79.144531 387.460938 C 82.601562 387.910156 85.386719 389.042969 87.417969 390.828125 C 89.8125 392.933594 91.203125 395.960938 91.550781 399.828125 C 91.800781 402.597656 91.511719 405.863281 90.699219 409.574219 C 96.027344 403.777344 101.046875 399.433594 105.65625 396.644531 C 110.007812 394.007812 114.109375 392.679688 117.890625 392.679688 Z M 117.890625 392.683594" fill="#000000"/></g><path fill-rule="nonzero" fill-opacity="1" d="M 90.9375 274.632812 C 114.550781 308.527344 142.089844 299.261719 147.542969 269.839844 C 155.300781 300.636719 170.339844 302.875 190.664062 284.363281 C 187.136719 311.742188 198.304688 321.4375 221.558594 316.582031 C 202.675781 338.046875 210.339844 349.378906 243.867188 350.847656 C 214.792969 355.976562 201.863281 366.144531 222.492188 386.789062 C 187.746094 376.683594 174.667969 384.089844 193.558594 417.328125 C 166.304688 397.34375 148.882812 397.171875 143.25 420.773438 C 133.550781 391.730469 117.054688 389.949219 93.222656 417.609375 C 101.890625 388.277344 81.722656 385.261719 36.566406 405.039062 C 72.628906 378.265625 79.3125 357.769531 36.007812 347.960938 C 69.410156 336.789062 70.160156 315.707031 47.90625 295.957031 C 88.976562 315.324219 104.28125 307.316406 90.933594 274.632812 Z M 90.9375 274.632812" fill="#f7941d"/><g clip-path="url(#19173b0b5c)"><path fill-rule="nonzero" fill-opacity="1" d="M 143.414062 424.492188 L 142.28125 421.097656 C 140.0625 414.457031 137.464844 409.234375 134.558594 405.578125 C 131.714844 402 128.507812 399.839844 125.019531 399.15625 C 116.761719 397.535156 106.328125 403.96875 93.996094 418.273438 L 90.898438 421.871094 L 92.242188 417.320312 C 93.78125 412.113281 94.402344 407.699219 94.089844 404.199219 C 93.789062 400.871094 92.628906 398.296875 90.640625 396.550781 C 87.144531 393.476562 80.871094 392.695312 72 394.222656 C 63.03125 395.769531 51.25 399.722656 36.980469 405.972656 L 28.734375 409.582031 L 35.957031 404.21875 C 46.363281 396.496094 54.070312 389.445312 58.871094 383.265625 C 63.816406 376.898438 65.816406 371.285156 64.820312 366.578125 C 64.03125 362.855469 61.324219 359.519531 56.773438 356.65625 C 51.921875 353.601562 44.859375 351.011719 35.78125 348.953125 L 32.226562 348.148438 L 35.683594 346.992188 C 50.878906 341.910156 59.882812 334.488281 61.722656 325.527344 C 63.53125 316.703125 58.519531 306.742188 47.230469 296.71875 L 41.914062 292.003906 L 48.34375 295.035156 C 59.675781 300.378906 69.160156 303.683594 76.53125 304.855469 C 83.578125 305.972656 88.625 305.148438 91.53125 302.402344 C 93.753906 300.304688 94.78125 296.992188 94.589844 292.5625 C 94.390625 287.902344 92.839844 282 89.988281 275.019531 L 86.507812 266.488281 L 91.777344 274.050781 C 101.320312 287.75 112.300781 295.253906 122.511719 295.253906 C 123.949219 295.253906 125.375 295.105469 126.777344 294.800781 C 136.625 292.683594 144.011719 283.285156 146.539062 269.652344 L 147.394531 265.050781 L 148.535156 269.589844 C 150.402344 277 152.746094 282.878906 155.496094 287.058594 C 158.105469 291.023438 161.148438 293.550781 164.542969 294.570312 C 167.886719 295.574219 171.722656 295.160156 175.949219 293.335938 C 180.171875 291.511719 184.890625 288.242188 189.976562 283.609375 L 192.035156 281.734375 L 191.679688 284.492188 C 189.949219 297.925781 191.804688 307.257812 197.203125 312.234375 C 202.125 316.773438 210.25 317.898438 221.351562 315.582031 L 224.347656 314.957031 L 222.328125 317.253906 C 214.035156 326.675781 210.957031 334.089844 213.179688 339.289062 C 215.839844 345.503906 226.179688 349.050781 243.910156 349.828125 L 253.203125 350.234375 L 244.042969 351.847656 C 235.246094 353.402344 228.269531 355.378906 223.304688 357.730469 C 218.09375 360.195312 214.910156 363.152344 213.847656 366.515625 C 213.066406 368.976562 213.382812 371.792969 214.789062 374.882812 C 216.3125 378.234375 219.148438 381.996094 223.214844 386.066406 L 226.023438 388.875 L 222.207031 387.765625 C 203.5 382.324219 191.90625 382.222656 187.746094 387.46875 C 183.886719 392.332031 186.144531 402.210938 194.449219 416.824219 L 196.808594 420.976562 L 192.953125 418.148438 C 184.769531 412.148438 177.476562 407.964844 171.28125 405.714844 C 165.105469 403.476562 159.878906 403.105469 155.742188 404.621094 C 150.226562 406.640625 146.359375 412.152344 144.246094 421.011719 Z M 122.464844 396.871094 C 123.46875 396.871094 124.453125 396.964844 125.414062 397.15625 C 129.390625 397.9375 133.007812 400.34375 136.160156 404.3125 C 138.742188 407.5625 141.082031 411.945312 143.128906 417.371094 C 144.179688 414.019531 145.523438 411.1875 147.144531 408.917969 C 149.273438 405.933594 151.929688 403.847656 155.039062 402.707031 C 159.636719 401.023438 165.335938 401.394531 171.976562 403.800781 C 177.417969 405.773438 183.644531 409.171875 190.535156 413.925781 C 187.378906 407.894531 185.328125 402.683594 184.429688 398.394531 C 183.324219 393.132812 183.902344 389.03125 186.144531 386.203125 C 190.640625 380.535156 201.472656 380.070312 219.210938 384.8125 C 216.3125 381.582031 214.203125 378.535156 212.929688 375.726562 C 211.308594 372.164062 210.960938 368.859375 211.898438 365.902344 C 212.539062 363.875 213.796875 361.984375 215.632812 360.28125 C 217.351562 358.6875 219.640625 357.210938 222.425781 355.890625 C 226.128906 354.140625 230.714844 352.632812 236.332031 351.332031 C 230.570312 350.738281 225.753906 349.765625 221.953125 348.429688 C 216.417969 346.476562 212.832031 343.671875 211.300781 340.089844 C 209.996094 337.042969 210.167969 333.421875 211.816406 329.335938 C 213.164062 325.980469 215.550781 322.214844 218.917969 318.113281 C 214.296875 318.867188 210.175781 319.003906 206.636719 318.507812 C 202.222656 317.890625 198.582031 316.285156 195.816406 313.730469 C 192.851562 311 190.828125 307.125 189.808594 302.222656 C 188.925781 297.96875 188.773438 292.820312 189.351562 286.890625 C 184.851562 290.746094 180.625 293.539062 176.761719 295.207031 C 172.082031 297.230469 167.773438 297.671875 163.953125 296.523438 C 160.089844 295.363281 156.667969 292.554688 153.785156 288.179688 C 151.425781 284.59375 149.363281 279.847656 147.636719 274.042969 C 146.160156 279.476562 143.847656 284.246094 140.851562 287.996094 C 137.140625 292.632812 132.421875 295.675781 127.207031 296.796875 C 121.445312 298.035156 115.15625 296.902344 109.023438 293.515625 C 103.902344 290.691406 98.953125 286.398438 94.257812 280.707031 C 97.847656 291.878906 97.410156 299.660156 92.9375 303.882812 C 89.542969 307.085938 83.917969 308.089844 76.210938 306.867188 C 69.875 305.859375 62.058594 303.335938 52.921875 299.355469 C 56.539062 303.128906 59.3125 306.925781 61.199219 310.6875 C 63.863281 315.988281 64.714844 321.121094 63.726562 325.933594 C 62.746094 330.710938 59.972656 335.074219 55.480469 338.90625 C 51.5 342.308594 46.160156 345.28125 39.582031 347.769531 C 47.300781 349.742188 53.441406 352.144531 57.867188 354.929688 C 62.902344 358.097656 65.914062 361.875 66.820312 366.15625 C 68.78125 375.410156 61.128906 386.851562 43.460938 401.015625 C 54.648438 396.46875 64.109375 393.515625 71.652344 392.214844 C 76.332031 391.40625 80.394531 391.21875 83.71875 391.652344 C 87.175781 392.101562 89.960938 393.234375 91.992188 395.019531 C 94.386719 397.125 95.777344 400.152344 96.125 404.015625 C 96.375 406.789062 96.085938 410.054688 95.273438 413.765625 C 100.601562 407.96875 105.621094 403.625 110.230469 400.835938 C 114.582031 398.199219 118.683594 396.871094 122.464844 396.871094 Z M 122.464844 396.871094" fill="#000000"/></g><path fill-rule="nonzero" fill-opacity="1" d="M 53.375 433.523438 L 70.808594 402.457031 L 38.800781 427.367188 Z M 53.375 433.523438" fill="#f7941d"/><g clip-path="url(#6baa429b21)"><path fill-rule="nonzero" fill-opacity="1" d="M 53.375 434.542969 C 53.238281 434.542969 53.105469 434.515625 52.976562 434.460938 L 38.402344 428.304688 C 38.066406 428.164062 37.832031 427.855469 37.785156 427.5 C 37.738281 427.140625 37.886719 426.785156 38.171875 426.5625 L 70.179688 401.652344 C 70.5625 401.351562 71.105469 401.363281 71.472656 401.679688 C 71.84375 401.996094 71.9375 402.53125 71.699219 402.953125 L 54.265625 434.019531 C 54.082031 434.351562 53.734375 434.542969 53.375 434.542969 Z M 40.796875 427.101562 L 52.929688 432.226562 L 67.441406 406.371094 Z M 40.796875 427.101562" fill="#000000"/></g><path fill-rule="nonzero" fill-opacity="1" d="M 63.699219 427.632812 L 73.777344 405.6875 L 72.90625 433.128906 Z M 63.699219 427.632812" fill="#f7941d"/><g clip-path="url(#aa80a10515)"><path fill-rule="nonzero" fill-opacity="1" d="M 72.90625 434.148438 C 72.726562 434.148438 72.542969 434.101562 72.382812 434.003906 L 63.175781 428.507812 C 62.726562 428.238281 62.554688 427.679688 62.769531 427.207031 L 72.851562 405.261719 C 73.050781 404.820312 73.539062 404.582031 74.011719 404.695312 C 74.484375 404.804688 74.816406 405.234375 74.800781 405.71875 L 73.929688 433.164062 C 73.917969 433.523438 73.714844 433.851562 73.398438 434.023438 C 73.242188 434.109375 73.074219 434.148438 72.90625 434.148438 Z M 65.011719 427.226562 L 71.941406 431.363281 L 72.597656 410.707031 Z M 65.011719 427.226562" fill="#000000"/></g><path fill-rule="nonzero" fill-opacity="1" d="M 225.699219 270.824219 L 205.339844 300.070312 L 239.609375 278.355469 Z M 225.699219 270.824219" fill="#f7941d"/><path fill-rule="nonzero" fill-opacity="1" d="M 205.34375 301.089844 C 205.070312 301.089844 204.804688 300.980469 204.605469 300.777344 C 204.269531 300.425781 204.226562 299.886719 204.503906 299.488281 L 224.859375 270.242188 C 225.15625 269.816406 225.730469 269.679688 226.1875 269.929688 L 240.097656 277.460938 C 240.417969 277.632812 240.621094 277.960938 240.632812 278.320312 C 240.644531 278.683594 240.464844 279.023438 240.160156 279.21875 L 205.890625 300.929688 C 205.722656 301.035156 205.53125 301.089844 205.34375 301.089844 Z M 226.015625 272.15625 L 209.074219 296.5 L 237.59375 278.425781 Z M 226.015625 272.15625" fill="#000000"/><path fill-rule="nonzero" fill-opacity="1" d="M 214.851562 275.695312 L 202.699219 296.566406 L 206.21875 269.335938 Z M 214.851562 275.695312" fill="#f7941d"/><path fill-rule="nonzero" fill-opacity="1" d="M 202.699219 297.585938 C 202.589844 297.585938 202.476562 297.570312 202.367188 297.535156 C 201.90625 297.378906 201.621094 296.917969 201.683594 296.4375 L 205.207031 269.207031 C 205.253906 268.847656 205.484375 268.539062 205.820312 268.398438 C 206.152344 268.257812 206.535156 268.300781 206.828125 268.515625 L 215.460938 274.875 C 215.878906 275.183594 216 275.757812 215.738281 276.207031 L 203.582031 297.078125 C 203.394531 297.402344 203.054688 297.585938 202.699219 297.585938 Z M 207.011719 271.1875 L 204.359375 291.683594 L 213.507812 275.972656 Z M 207.011719 271.1875" fill="#000000"/><g fill-opacity="1" fill="#000000"><g transform="translate(374.884009, 304.758181)"><g><path d="M 0.234375 0.046875 C 1.742188 -7.859375 2.847656 -14.15625 3.546875 -18.84375 L 7.78125 -19.140625 C 7.101562 -16.285156 6.550781 -13.71875 6.125 -11.4375 L 8.703125 -11.75 C 8.941406 -12.96875 9.160156 -14.160156 9.359375 -15.328125 C 9.554688 -16.492188 9.804688 -17.691406 10.109375 -18.921875 C 10.785156 -19.035156 11.503906 -19.125 12.265625 -19.1875 C 13.035156 -19.25 13.566406 -19.285156 13.859375 -19.296875 L 14.296875 -19.34375 C 13.460938 -16.625 12.644531 -12.804688 11.84375 -7.890625 C 11.457031 -5.671875 11.097656 -3.40625 10.765625 -1.09375 L 6.6875 -0.640625 C 6.90625 -1.679688 7.101562 -2.660156 7.28125 -3.578125 C 7.46875 -4.492188 7.648438 -5.398438 7.828125 -6.296875 C 8.003906 -7.203125 8.148438 -7.976562 8.265625 -8.625 L 5.71875 -8.40625 C 5.320312 -6.238281 4.835938 -3.703125 4.265625 -0.796875 Z M 0.234375 0.046875"/></g></g></g><g fill-opacity="1" fill="#000000"><g transform="translate(387.646537, 304.758181)"><g><path d="M 4.984375 -4.46875 L 3.9375 -0.71875 C 3.539062 -0.664062 3.082031 -0.601562 2.5625 -0.53125 C 2.039062 -0.46875 1.523438 -0.40625 1.015625 -0.34375 C 0.503906 -0.28125 -0.0195312 -0.21875 -0.5625 -0.15625 C 0.132812 -2.46875 0.722656 -4.421875 1.203125 -6.015625 C 1.691406 -7.617188 2.085938 -8.9375 2.390625 -9.96875 C 2.703125 -11 3.003906 -12.019531 3.296875 -13.03125 C 3.597656 -14.039062 3.890625 -15.019531 4.171875 -15.96875 C 4.453125 -16.914062 4.703125 -17.78125 4.921875 -18.5625 C 8.078125 -18.78125 10.476562 -19.050781 12.125 -19.375 C 11.96875 -17.6875 11.84375 -15.695312 11.75 -13.40625 C 11.519531 -8.820312 11.332031 -4.597656 11.1875 -0.734375 C 10.675781 -0.648438 10.175781 -0.570312 9.6875 -0.5 C 9.195312 -0.4375 8.691406 -0.363281 8.171875 -0.28125 C 7.660156 -0.195312 7.191406 -0.117188 6.765625 -0.046875 C 6.953125 -1.679688 7.113281 -3.15625 7.25 -4.46875 Z M 5.59375 -7.078125 L 7.484375 -7.203125 C 7.484375 -7.304688 7.492188 -7.476562 7.515625 -7.71875 C 7.546875 -7.96875 7.578125 -8.253906 7.609375 -8.578125 C 7.742188 -10.398438 7.890625 -12.09375 8.046875 -13.65625 L 8.21875 -15.921875 L 7.8125 -15.90625 Z M 5.59375 -7.078125"/></g></g></g><g fill-opacity="1" fill="#000000"><g transform="translate(400.153877, 304.758181)"><g><path d="M 11.109375 -1.421875 C 10.898438 -1.421875 10.195312 -1.273438 9 -0.984375 C 7.800781 -0.703125 7.082031 -0.519531 6.84375 -0.4375 C 6.65625 -2.71875 6.492188 -4.378906 6.359375 -5.421875 C 6.234375 -6.472656 6.140625 -7.257812 6.078125 -7.78125 C 6.003906 -8.519531 5.882812 -9.40625 5.71875 -10.4375 C 5.664062 -10.113281 5.597656 -9.726562 5.515625 -9.28125 C 5.429688 -8.832031 5.347656 -8.34375 5.265625 -7.8125 C 4.984375 -6.175781 4.554688 -3.828125 3.984375 -0.765625 L 0.15625 0.125 C 2.039062 -9.28125 3.160156 -15.632812 3.515625 -18.9375 C 4.066406 -18.976562 4.578125 -19.019531 5.046875 -19.0625 C 5.523438 -19.101562 6.003906 -19.132812 6.484375 -19.15625 C 6.960938 -19.1875 7.378906 -19.21875 7.734375 -19.25 C 7.953125 -17.90625 8.128906 -16.796875 8.265625 -15.921875 C 8.398438 -15.046875 8.515625 -14.328125 8.609375 -13.765625 C 8.703125 -13.203125 8.796875 -12.65625 8.890625 -12.125 C 9.054688 -11.082031 9.234375 -10.164062 9.421875 -9.375 C 9.484375 -9.726562 9.554688 -10.140625 9.640625 -10.609375 C 9.734375 -11.085938 9.828125 -11.59375 9.921875 -12.125 C 10.023438 -12.664062 10.132812 -13.210938 10.25 -13.765625 C 10.375 -14.328125 10.523438 -15.046875 10.703125 -15.921875 C 10.890625 -16.796875 11.117188 -17.894531 11.390625 -19.21875 L 14.578125 -19.609375 C 12.703125 -11.109375 11.546875 -5.046875 11.109375 -1.421875 Z M 11.109375 -1.421875"/></g></g></g><g fill-opacity="1" fill="#000000"><g transform="translate(413.197113, 304.758181)"><g><path d="M 4.671875 -3.171875 C 5.859375 -3.929688 6.957031 -5.519531 7.96875 -7.9375 C 8.53125 -9.28125 8.90625 -10.410156 9.09375 -11.328125 C 9.28125 -12.253906 9.375 -12.976562 9.375 -13.5 C 9.375 -14.03125 9.191406 -14.476562 8.828125 -14.84375 C 8.472656 -15.207031 7.910156 -15.390625 7.140625 -15.390625 C 6.859375 -13.929688 6.53125 -12.359375 6.15625 -10.671875 C 5.519531 -7.804688 5.023438 -5.304688 4.671875 -3.171875 Z M 0.109375 0 C 1.960938 -9.34375 3.09375 -15.507812 3.5 -18.5 C 4.25 -18.644531 5.003906 -18.78125 5.765625 -18.90625 C 6.535156 -19.03125 7.359375 -19.09375 8.234375 -19.09375 C 9.109375 -19.09375 9.875 -18.941406 10.53125 -18.640625 C 11.1875 -18.347656 11.71875 -17.9375 12.125 -17.40625 C 12.90625 -16.40625 13.296875 -15.050781 13.296875 -13.34375 C 13.296875 -11.476562 12.800781 -9.503906 11.8125 -7.421875 C 10.78125 -5.265625 9.421875 -3.503906 7.734375 -2.140625 C 5.804688 -0.628906 3.75 0.125 1.5625 0.125 C 1.1875 0.125 0.703125 0.0820312 0.109375 0 Z M 0.109375 0"/></g></g></g><g fill-opacity="1" fill="#000000"><g transform="translate(425.934123, 304.758181)"><g><path d="M 9.546875 -13.34375 C 9.628906 -13.6875 9.671875 -14.046875 9.671875 -14.421875 C 9.671875 -14.796875 9.578125 -15.097656 9.390625 -15.328125 C 9.203125 -15.554688 9 -15.671875 8.78125 -15.671875 C 8.570312 -15.671875 8.363281 -15.617188 8.15625 -15.515625 C 7.957031 -15.421875 7.757812 -15.285156 7.5625 -15.109375 C 7.082031 -14.722656 6.84375 -14.300781 6.84375 -13.84375 C 6.84375 -13.394531 6.960938 -13.03125 7.203125 -12.75 C 7.441406 -12.46875 7.734375 -12.207031 8.078125 -11.96875 C 8.429688 -11.726562 8.8125 -11.476562 9.21875 -11.21875 C 9.625 -10.96875 10.003906 -10.648438 10.359375 -10.265625 C 11.179688 -9.304688 11.59375 -8.035156 11.59375 -6.453125 C 11.59375 -4.546875 10.894531 -2.972656 9.5 -1.734375 C 8.164062 -0.546875 6.488281 0.046875 4.46875 0.046875 C 2.96875 0.046875 1.597656 -0.734375 0.359375 -2.296875 L 2.296875 -6.09375 C 2.535156 -5.625 2.992188 -5.191406 3.671875 -4.796875 C 4.359375 -4.390625 4.867188 -4.1875 5.203125 -4.1875 C 5.546875 -4.1875 5.832031 -4.21875 6.0625 -4.28125 C 6.289062 -4.351562 6.5 -4.457031 6.6875 -4.59375 C 7.113281 -4.894531 7.328125 -5.265625 7.328125 -5.703125 C 7.328125 -6.140625 7.191406 -6.535156 6.921875 -6.890625 C 6.648438 -7.242188 6.3125 -7.582031 5.90625 -7.90625 C 5.507812 -8.238281 5.078125 -8.566406 4.609375 -8.890625 C 4.140625 -9.222656 3.707031 -9.578125 3.3125 -9.953125 C 2.363281 -10.804688 1.890625 -11.703125 1.890625 -12.640625 C 1.890625 -13.578125 2.15625 -14.4375 2.6875 -15.21875 C 3.226562 -16 3.898438 -16.671875 4.703125 -17.234375 C 5.515625 -17.804688 6.398438 -18.257812 7.359375 -18.59375 C 8.328125 -18.925781 9.140625 -19.09375 9.796875 -19.09375 C 10.460938 -19.09375 11.003906 -19.03125 11.421875 -18.90625 C 11.835938 -18.789062 12.203125 -18.613281 12.515625 -18.375 C 13.171875 -17.832031 13.5 -17.035156 13.5 -15.984375 C 13.5 -15.722656 13.476562 -15.472656 13.4375 -15.234375 C 13.394531 -14.992188 13.359375 -14.734375 13.328125 -14.453125 Z M 9.546875 -13.34375"/></g></g></g><g fill-opacity="1" fill="#000000"><g transform="translate(438.364907, 304.758181)"><g><path d="M 9.546875 -6.234375 C 7.097656 -6.296875 5.597656 -6.328125 5.046875 -6.328125 C 4.078125 -6.328125 3.285156 -6.3125 2.671875 -6.28125 C 2.066406 -6.257812 1.535156 -6.25 1.078125 -6.25 L 2.328125 -10.875 C 4.234375 -10.800781 5.421875 -10.765625 5.890625 -10.765625 C 7.566406 -10.765625 9.082031 -10.8125 10.4375 -10.90625 Z M 9.546875 -6.234375"/></g></g></g><g fill-opacity="1" fill="#000000"><g transform="translate(448.983852, 304.758181)"><g><path d="M 11 -11.953125 C 11 -13.359375 10.59375 -14.0625 9.78125 -14.0625 C 8.738281 -14.0625 7.800781 -13.550781 6.96875 -12.53125 C 6.300781 -11.71875 5.734375 -10.601562 5.265625 -9.1875 C 4.890625 -8.03125 4.703125 -6.941406 4.703125 -5.921875 C 4.703125 -5.242188 4.988281 -4.734375 5.5625 -4.390625 C 5.738281 -4.273438 5.9375 -4.21875 6.15625 -4.21875 C 6.9375 -4.21875 7.628906 -4.484375 8.234375 -5.015625 C 8.835938 -5.554688 9.34375 -6.21875 9.75 -7 C 10.15625 -7.78125 10.460938 -8.613281 10.671875 -9.5 C 10.890625 -10.394531 11 -11.210938 11 -11.953125 Z M 14.625 -13.5625 C 14.625 -12.519531 14.472656 -11.367188 14.171875 -10.109375 C 13.878906 -8.847656 13.476562 -7.6875 12.96875 -6.625 C 12.457031 -5.570312 11.863281 -4.628906 11.1875 -3.796875 C 10.519531 -2.960938 9.820312 -2.257812 9.09375 -1.6875 C 7.570312 -0.488281 6.113281 0.109375 4.71875 0.109375 C 3.550781 0.109375 2.625 -0.316406 1.9375 -1.171875 C 1.1875 -2.109375 0.8125 -3.472656 0.8125 -5.265625 C 0.8125 -7.203125 1.265625 -9.289062 2.171875 -11.53125 C 3.066406 -13.78125 4.25 -15.65625 5.71875 -17.15625 C 7.300781 -18.75 8.960938 -19.546875 10.703125 -19.546875 C 12.128906 -19.546875 13.175781 -18.96875 13.84375 -17.8125 C 14.363281 -16.882812 14.625 -15.46875 14.625 -13.5625 Z M 14.625 -13.5625"/></g></g></g><g fill-opacity="1" fill="#000000"><g transform="translate(463.073361, 304.758181)"><g><path d="M 11.109375 -1.421875 C 10.898438 -1.421875 10.195312 -1.273438 9 -0.984375 C 7.800781 -0.703125 7.082031 -0.519531 6.84375 -0.4375 C 6.65625 -2.71875 6.492188 -4.378906 6.359375 -5.421875 C 6.234375 -6.472656 6.140625 -7.257812 6.078125 -7.78125 C 6.003906 -8.519531 5.882812 -9.40625 5.71875 -10.4375 C 5.664062 -10.113281 5.597656 -9.726562 5.515625 -9.28125 C 5.429688 -8.832031 5.347656 -8.34375 5.265625 -7.8125 C 4.984375 -6.175781 4.554688 -3.828125 3.984375 -0.765625 L 0.15625 0.125 C 2.039062 -9.28125 3.160156 -15.632812 3.515625 -18.9375 C 4.066406 -18.976562 4.578125 -19.019531 5.046875 -19.0625 C 5.523438 -19.101562 6.003906 -19.132812 6.484375 -19.15625 C 6.960938 -19.1875 7.378906 -19.21875 7.734375 -19.25 C 7.953125 -17.90625 8.128906 -16.796875 8.265625 -15.921875 C 8.398438 -15.046875 8.515625 -14.328125 8.609375 -13.765625 C 8.703125 -13.203125 8.796875 -12.65625 8.890625 -12.125 C 9.054688 -11.082031 9.234375 -10.164062 9.421875 -9.375 C 9.484375 -9.726562 9.554688 -10.140625 9.640625 -10.609375 C 9.734375 -11.085938 9.828125 -11.59375 9.921875 -12.125 C 10.023438 -12.664062 10.132812 -13.210938 10.25 -13.765625 C 10.375 -14.328125 10.523438 -15.046875 10.703125 -15.921875 C 10.890625 -16.796875 11.117188 -17.894531 11.390625 -19.21875 L 14.578125 -19.609375 C 12.703125 -11.109375 11.546875 -5.046875 11.109375 -1.421875 Z M 11.109375 -1.421875"/></g></g></g><g fill-opacity="1" fill="#000000"><g transform="translate(361.514237, 340.691636)"><g><path d="M 7.53125 -18.96875 C 7.53125 -18.9375 6.914062 -15.085938 5.6875 -7.421875 L 6.09375 -7.421875 C 6.59375 -9.234375 7.070312 -10.914062 7.53125 -12.46875 C 7.988281 -14.03125 8.300781 -15.097656 8.46875 -15.671875 C 8.8125 -16.960938 9.085938 -17.941406 9.296875 -18.609375 L 9.515625 -18.609375 C 10.367188 -18.609375 11.289062 -18.71875 12.28125 -18.9375 C 12.25 -18.789062 12.207031 -18.472656 12.15625 -17.984375 C 12.113281 -17.492188 12.054688 -16.90625 11.984375 -16.21875 C 11.921875 -15.53125 11.851562 -14.773438 11.78125 -13.953125 C 11.71875 -13.128906 11.65625 -12.316406 11.59375 -11.515625 C 11.46875 -10.066406 11.335938 -8.703125 11.203125 -7.421875 L 11.6875 -7.421875 L 14.171875 -18.65625 C 14.765625 -18.738281 15.332031 -18.816406 15.875 -18.890625 C 17.300781 -19.078125 18.316406 -19.226562 18.921875 -19.34375 C 18.234375 -17.375 17.601562 -15.25 17.03125 -12.96875 C 15.664062 -7.59375 14.710938 -3.6875 14.171875 -1.25 L 8.265625 -0.25 L 9.421875 -10.34375 L 9.09375 -10.34375 L 6.515625 -0.875 L 1.078125 0.109375 L 3.0625 -18.453125 C 3.875 -18.484375 4.640625 -18.5625 5.359375 -18.6875 C 6.085938 -18.820312 6.8125 -18.914062 7.53125 -18.96875 Z M 7.53125 -18.96875"/></g></g></g><g fill-opacity="1" fill="#000000"><g transform="translate(378.410818, 340.691636)"><g><path d="M 11 -11.953125 C 11 -13.359375 10.59375 -14.0625 9.78125 -14.0625 C 8.738281 -14.0625 7.800781 -13.550781 6.96875 -12.53125 C 6.300781 -11.71875 5.734375 -10.601562 5.265625 -9.1875 C 4.890625 -8.03125 4.703125 -6.941406 4.703125 -5.921875 C 4.703125 -5.242188 4.988281 -4.734375 5.5625 -4.390625 C 5.738281 -4.273438 5.9375 -4.21875 6.15625 -4.21875 C 6.9375 -4.21875 7.628906 -4.484375 8.234375 -5.015625 C 8.835938 -5.554688 9.34375 -6.21875 9.75 -7 C 10.15625 -7.78125 10.460938 -8.613281 10.671875 -9.5 C 10.890625 -10.394531 11 -11.210938 11 -11.953125 Z M 14.625 -13.5625 C 14.625 -12.519531 14.472656 -11.367188 14.171875 -10.109375 C 13.878906 -8.847656 13.476562 -7.6875 12.96875 -6.625 C 12.457031 -5.570312 11.863281 -4.628906 11.1875 -3.796875 C 10.519531 -2.960938 9.820312 -2.257812 9.09375 -1.6875 C 7.570312 -0.488281 6.113281 0.109375 4.71875 0.109375 C 3.550781 0.109375 2.625 -0.316406 1.9375 -1.171875 C 1.1875 -2.109375 0.8125 -3.472656 0.8125 -5.265625 C 0.8125 -7.203125 1.265625 -9.289062 2.171875 -11.53125 C 3.066406 -13.78125 4.25 -15.65625 5.71875 -17.15625 C 7.300781 -18.75 8.960938 -19.546875 10.703125 -19.546875 C 12.128906 -19.546875 13.175781 -18.96875 13.84375 -17.8125 C 14.363281 -16.882812 14.625 -15.46875 14.625 -13.5625 Z M 14.625 -13.5625"/></g></g></g><g fill-opacity="1" fill="#000000"><g transform="translate(392.500327, 340.691636)"><g><path d="M 7.96875 -0.40625 C 6.65625 -5.039062 5.972656 -7.671875 5.921875 -8.296875 L 5.59375 -8.1875 C 5.03125 -5.0625 4.613281 -2.691406 4.34375 -1.078125 L 0.109375 0.03125 C 1.867188 -8.53125 2.945312 -14.609375 3.34375 -18.203125 C 5.320312 -18.816406 7.535156 -19.125 9.984375 -19.125 C 11.816406 -19.125 12.90625 -18.484375 13.25 -17.203125 C 13.351562 -16.816406 13.40625 -16.332031 13.40625 -15.75 C 13.40625 -15.164062 13.285156 -14.535156 13.046875 -13.859375 C 12.804688 -13.191406 12.484375 -12.554688 12.078125 -11.953125 C 11.222656 -10.703125 10.175781 -9.75 8.9375 -9.09375 C 9.601562 -7.65625 10.191406 -6.300781 10.703125 -5.03125 C 11.222656 -3.769531 11.664062 -2.707031 12.03125 -1.84375 Z M 8.21875 -15.5 L 7.09375 -15.46875 L 6.25 -11.3125 C 6.9375 -11.375 7.796875 -11.804688 8.828125 -12.609375 C 9.898438 -13.429688 10.4375 -14.101562 10.4375 -14.625 C 10.4375 -15.125 9.96875 -15.40625 9.03125 -15.46875 C 8.757812 -15.488281 8.488281 -15.5 8.21875 -15.5 Z M 8.21875 -15.5"/></g></g></g><g fill-opacity="1" fill="#000000"><g transform="translate(405.313893, 340.691636)"><g><path d="M 12.640625 -0.765625 C 11.816406 -0.796875 10.957031 -0.8125 10.0625 -0.8125 C 9.175781 -0.8125 8.238281 -0.796875 7.25 -0.765625 C 6.90625 -2.960938 6.566406 -5.335938 6.234375 -7.890625 L 5.75 -7.359375 C 5.625 -6.828125 5.488281 -6.175781 5.34375 -5.40625 C 5.195312 -4.644531 5.046875 -3.875 4.890625 -3.09375 C 4.742188 -2.320312 4.585938 -1.492188 4.421875 -0.609375 L 0.171875 0.03125 C 2.015625 -8.476562 3.113281 -14.84375 3.46875 -19.0625 C 3.875 -19.019531 4.328125 -18.984375 4.828125 -18.953125 C 5.335938 -18.929688 5.828125 -18.898438 6.296875 -18.859375 C 6.773438 -18.828125 7.28125 -18.8125 7.8125 -18.8125 C 7.789062 -18.75 7.765625 -18.625 7.734375 -18.4375 C 7.703125 -18.25 7.660156 -18.015625 7.609375 -17.734375 C 7.554688 -17.460938 7.5 -17.160156 7.4375 -16.828125 C 7.382812 -16.503906 7.300781 -16.0625 7.1875 -15.5 C 7.070312 -14.945312 6.929688 -14.195312 6.765625 -13.25 L 6.921875 -13.28125 C 7.398438 -14.007812 7.894531 -14.78125 8.40625 -15.59375 C 9.425781 -17.207031 10.140625 -18.320312 10.546875 -18.9375 C 12.503906 -19.09375 14.238281 -19.289062 15.75 -19.53125 C 12.789062 -15.507812 10.765625 -12.625 9.671875 -10.875 C 10.046875 -9.125 10.492188 -7.425781 11.015625 -5.78125 C 11.546875 -4.132812 12.085938 -2.460938 12.640625 -0.765625 Z M 12.640625 -0.765625"/></g></g></g><g fill-opacity="1" fill="#000000"><g transform="translate(418.586798, 340.691636)"><g><path d="M 9.546875 -13.34375 C 9.628906 -13.6875 9.671875 -14.046875 9.671875 -14.421875 C 9.671875 -14.796875 9.578125 -15.097656 9.390625 -15.328125 C 9.203125 -15.554688 9 -15.671875 8.78125 -15.671875 C 8.570312 -15.671875 8.363281 -15.617188 8.15625 -15.515625 C 7.957031 -15.421875 7.757812 -15.285156 7.5625 -15.109375 C 7.082031 -14.722656 6.84375 -14.300781 6.84375 -13.84375 C 6.84375 -13.394531 6.960938 -13.03125 7.203125 -12.75 C 7.441406 -12.46875 7.734375 -12.207031 8.078125 -11.96875 C 8.429688 -11.726562 8.8125 -11.476562 9.21875 -11.21875 C 9.625 -10.96875 10.003906 -10.648438 10.359375 -10.265625 C 11.179688 -9.304688 11.59375 -8.035156 11.59375 -6.453125 C 11.59375 -4.546875 10.894531 -2.972656 9.5 -1.734375 C 8.164062 -0.546875 6.488281 0.046875 4.46875 0.046875 C 2.96875 0.046875 1.597656 -0.734375 0.359375 -2.296875 L 2.296875 -6.09375 C 2.535156 -5.625 2.992188 -5.191406 3.671875 -4.796875 C 4.359375 -4.390625 4.867188 -4.1875 5.203125 -4.1875 C 5.546875 -4.1875 5.832031 -4.21875 6.0625 -4.28125 C 6.289062 -4.351562 6.5 -4.457031 6.6875 -4.59375 C 7.113281 -4.894531 7.328125 -5.265625 7.328125 -5.703125 C 7.328125 -6.140625 7.191406 -6.535156 6.921875 -6.890625 C 6.648438 -7.242188 6.3125 -7.582031 5.90625 -7.90625 C 5.507812 -8.238281 5.078125 -8.566406 4.609375 -8.890625 C 4.140625 -9.222656 3.707031 -9.578125 3.3125 -9.953125 C 2.363281 -10.804688 1.890625 -11.703125 1.890625 -12.640625 C 1.890625 -13.578125 2.15625 -14.4375 2.6875 -15.21875 C 3.226562 -16 3.898438 -16.671875 4.703125 -17.234375 C 5.515625 -17.804688 6.398438 -18.257812 7.359375 -18.59375 C 8.328125 -18.925781 9.140625 -19.09375 9.796875 -19.09375 C 10.460938 -19.09375 11.003906 -19.03125 11.421875 -18.90625 C 11.835938 -18.789062 12.203125 -18.613281 12.515625 -18.375 C 13.171875 -17.832031 13.5 -17.035156 13.5 -15.984375 C 13.5 -15.722656 13.476562 -15.472656 13.4375 -15.234375 C 13.394531 -14.992188 13.359375 -14.734375 13.328125 -14.453125 Z M 9.546875 -13.34375"/></g></g></g><g fill-opacity="1" fill="#000000"><g transform="translate(431.017581, 340.691636)"><g><path d="M 0.234375 0.046875 C 1.742188 -7.859375 2.847656 -14.15625 3.546875 -18.84375 L 7.78125 -19.140625 C 7.101562 -16.285156 6.550781 -13.71875 6.125 -11.4375 L 8.703125 -11.75 C 8.941406 -12.96875 9.160156 -14.160156 9.359375 -15.328125 C 9.554688 -16.492188 9.804688 -17.691406 10.109375 -18.921875 C 10.785156 -19.035156 11.503906 -19.125 12.265625 -19.1875 C 13.035156 -19.25 13.566406 -19.285156 13.859375 -19.296875 L 14.296875 -19.34375 C 13.460938 -16.625 12.644531 -12.804688 11.84375 -7.890625 C 11.457031 -5.671875 11.097656 -3.40625 10.765625 -1.09375 L 6.6875 -0.640625 C 6.90625 -1.679688 7.101562 -2.660156 7.28125 -3.578125 C 7.46875 -4.492188 7.648438 -5.398438 7.828125 -6.296875 C 8.003906 -7.203125 8.148438 -7.976562 8.265625 -8.625 L 5.71875 -8.40625 C 5.320312 -6.238281 4.835938 -3.703125 4.265625 -0.796875 Z M 0.234375 0.046875"/></g></g></g><g fill-opacity="1" fill="#000000"><g transform="translate(443.78011, 340.691636)"><g><path d="M 11 -11.953125 C 11 -13.359375 10.59375 -14.0625 9.78125 -14.0625 C 8.738281 -14.0625 7.800781 -13.550781 6.96875 -12.53125 C 6.300781 -11.71875 5.734375 -10.601562 5.265625 -9.1875 C 4.890625 -8.03125 4.703125 -6.941406 4.703125 -5.921875 C 4.703125 -5.242188 4.988281 -4.734375 5.5625 -4.390625 C 5.738281 -4.273438 5.9375 -4.21875 6.15625 -4.21875 C 6.9375 -4.21875 7.628906 -4.484375 8.234375 -5.015625 C 8.835938 -5.554688 9.34375 -6.21875 9.75 -7 C 10.15625 -7.78125 10.460938 -8.613281 10.671875 -9.5 C 10.890625 -10.394531 11 -11.210938 11 -11.953125 Z M 14.625 -13.5625 C 14.625 -12.519531 14.472656 -11.367188 14.171875 -10.109375 C 13.878906 -8.847656 13.476562 -7.6875 12.96875 -6.625 C 12.457031 -5.570312 11.863281 -4.628906 11.1875 -3.796875 C 10.519531 -2.960938 9.820312 -2.257812 9.09375 -1.6875 C 7.570312 -0.488281 6.113281 0.109375 4.71875 0.109375 C 3.550781 0.109375 2.625 -0.316406 1.9375 -1.171875 C 1.1875 -2.109375 0.8125 -3.472656 0.8125 -5.265625 C 0.8125 -7.203125 1.265625 -9.289062 2.171875 -11.53125 C 3.066406 -13.78125 4.25 -15.65625 5.71875 -17.15625 C 7.300781 -18.75 8.960938 -19.546875 10.703125 -19.546875 C 12.128906 -19.546875 13.175781 -18.96875 13.84375 -17.8125 C 14.363281 -16.882812 14.625 -15.46875 14.625 -13.5625 Z M 14.625 -13.5625"/></g></g></g><g fill-opacity="1" fill="#000000"><g transform="translate(457.869619, 340.691636)"><g><path d="M -0.078125 0.03125 C 1.710938 -7.914062 2.9375 -14.078125 3.59375 -18.453125 C 5.46875 -19.015625 6.875 -19.296875 7.8125 -19.296875 C 8.75 -19.296875 9.484375 -19.160156 10.015625 -18.890625 C 10.554688 -18.628906 10.992188 -18.28125 11.328125 -17.84375 C 11.929688 -17.039062 12.234375 -15.882812 12.234375 -14.375 C 12.234375 -13.40625 12.050781 -12.460938 11.6875 -11.546875 C 11.332031 -10.640625 10.859375 -9.832031 10.265625 -9.125 C 9.671875 -8.414062 8.976562 -7.851562 8.1875 -7.4375 C 7.40625 -7.019531 6.597656 -6.8125 5.765625 -6.8125 L 5.484375 -6.8125 C 5.160156 -5.382812 4.8125 -3.40625 4.4375 -0.875 Z M 7.21875 -16.140625 C 6.78125 -13.671875 6.382812 -11.484375 6.03125 -9.578125 C 6.632812 -9.722656 7.203125 -10.210938 7.734375 -11.046875 C 8.316406 -11.972656 8.609375 -13.015625 8.609375 -14.171875 C 8.609375 -14.816406 8.460938 -15.304688 8.171875 -15.640625 C 7.878906 -15.972656 7.5625 -16.140625 7.21875 -16.140625 Z M 7.21875 -16.140625"/></g></g></g><g fill-opacity="1" fill="#000000"><g transform="translate(468.973422, 340.691636)"><g><path d="M 9.546875 -13.34375 C 9.628906 -13.6875 9.671875 -14.046875 9.671875 -14.421875 C 9.671875 -14.796875 9.578125 -15.097656 9.390625 -15.328125 C 9.203125 -15.554688 9 -15.671875 8.78125 -15.671875 C 8.570312 -15.671875 8.363281 -15.617188 8.15625 -15.515625 C 7.957031 -15.421875 7.757812 -15.285156 7.5625 -15.109375 C 7.082031 -14.722656 6.84375 -14.300781 6.84375 -13.84375 C 6.84375 -13.394531 6.960938 -13.03125 7.203125 -12.75 C 7.441406 -12.46875 7.734375 -12.207031 8.078125 -11.96875 C 8.429688 -11.726562 8.8125 -11.476562 9.21875 -11.21875 C 9.625 -10.96875 10.003906 -10.648438 10.359375 -10.265625 C 11.179688 -9.304688 11.59375 -8.035156 11.59375 -6.453125 C 11.59375 -4.546875 10.894531 -2.972656 9.5 -1.734375 C 8.164062 -0.546875 6.488281 0.046875 4.46875 0.046875 C 2.96875 0.046875 1.597656 -0.734375 0.359375 -2.296875 L 2.296875 -6.09375 C 2.535156 -5.625 2.992188 -5.191406 3.671875 -4.796875 C 4.359375 -4.390625 4.867188 -4.1875 5.203125 -4.1875 C 5.546875 -4.1875 5.832031 -4.21875 6.0625 -4.28125 C 6.289062 -4.351562 6.5 -4.457031 6.6875 -4.59375 C 7.113281 -4.894531 7.328125 -5.265625 7.328125 -5.703125 C 7.328125 -6.140625 7.191406 -6.535156 6.921875 -6.890625 C 6.648438 -7.242188 6.3125 -7.582031 5.90625 -7.90625 C 5.507812 -8.238281 5.078125 -8.566406 4.609375 -8.890625 C 4.140625 -9.222656 3.707031 -9.578125 3.3125 -9.953125 C 2.363281 -10.804688 1.890625 -11.703125 1.890625 -12.640625 C 1.890625 -13.578125 2.15625 -14.4375 2.6875 -15.21875 C 3.226562 -16 3.898438 -16.671875 4.703125 -17.234375 C 5.515625 -17.804688 6.398438 -18.257812 7.359375 -18.59375 C 8.328125 -18.925781 9.140625 -19.09375 9.796875 -19.09375 C 10.460938 -19.09375 11.003906 -19.03125 11.421875 -18.90625 C 11.835938 -18.789062 12.203125 -18.613281 12.515625 -18.375 C 13.171875 -17.832031 13.5 -17.035156 13.5 -15.984375 C 13.5 -15.722656 13.476562 -15.472656 13.4375 -15.234375 C 13.394531 -14.992188 13.359375 -14.734375 13.328125 -14.453125 Z M 9.546875 -13.34375"/></g></g></g><g fill-opacity="1" fill="#000000"><g transform="translate(481.404206, 340.691636)"><g><path d="M 10.15625 -19.53125 C 9.21875 -17.332031 8.363281 -15.125 7.59375 -12.90625 C 6.820312 -10.6875 6.050781 -8.453125 5.28125 -6.203125 C 4.769531 -6.203125 4.265625 -6.179688 3.765625 -6.140625 C 3.265625 -6.109375 2.757812 -6.078125 2.25 -6.046875 C 2.789062 -8.171875 3.316406 -10.296875 3.828125 -12.421875 C 4.335938 -14.554688 4.875 -16.695312 5.4375 -18.84375 C 5.757812 -18.894531 6.132812 -18.945312 6.5625 -19 C 7 -19.0625 7.4375 -19.125 7.875 -19.1875 C 8.3125 -19.257812 8.734375 -19.320312 9.140625 -19.375 C 9.546875 -19.425781 9.882812 -19.476562 10.15625 -19.53125 Z M 2.328125 0.609375 C 1.867188 0.609375 1.492188 0.535156 1.203125 0.390625 C 0.910156 0.242188 0.671875 0.0625 0.484375 -0.15625 C 0.0859375 -0.644531 -0.109375 -1.210938 -0.109375 -1.859375 C -0.109375 -2.960938 0.378906 -3.75 1.359375 -4.21875 C 1.679688 -4.363281 2.0625 -4.4375 2.5 -4.4375 C 3.519531 -4.4375 4.28125 -4.195312 4.78125 -3.71875 C 5.289062 -3.25 5.546875 -2.707031 5.546875 -2.09375 C 5.546875 -1.363281 5.265625 -0.742188 4.703125 -0.234375 C 4.066406 0.328125 3.273438 0.609375 2.328125 0.609375 Z M 2.328125 0.609375"/></g></g></g></svg>