<svg version="1.0" preserveAspectRatio="xMidYMid meet" viewBox="76.61642294713161 11.380500021075 225.6917885264342 185.760000344" zoomAndPan="magnify" xmlns:xlink="http://www.w3.org/1999/xlink" xmlns="http://www.w3.org/2000/svg" style="max-height: 500px" width="225.6917885264342" height="185.760000344"><defs><g/><clipPath id="4abcfcaca3"><path clip-rule="nonzero" d="M 0.886719 0 L 959.113281 0 L 959.113281 539 L 0.886719 539 Z M 0.886719 0"/></clipPath><clipPath id="09c4414748"><path clip-rule="nonzero" d="M 81 21 L 295.058594 21 L 295.058594 176 L 81 176 Z M 81 21"/></clipPath><clipPath id="dcf4df03e5"><path clip-rule="nonzero" d="M 136 17.171875 L 155 17.171875 L 155 43 L 136 43 Z M 136 17.171875"/></clipPath><clipPath id="694b38fd14"><path clip-rule="nonzero" d="M 206 153 L 218 153 L 218 190.851562 L 206 190.851562 Z M 206 153"/></clipPath><clipPath id="531fa87af0"><path clip-rule="nonzero" d="M 128 147 L 161 147 L 161 190.851562 L 128 190.851562 Z M 128 147"/></clipPath><clipPath id="bd3a067c9b"><path clip-rule="nonzero" d="M 192 17.171875 L 199 17.171875 L 199 35 L 192 35 Z M 192 17.171875"/></clipPath></defs><g clip-path="url(#4abcfcaca3)"><path fill-rule="nonzero" fill-opacity="1" d="M 0.886719 0 L 959.113281 0 L 959.113281 539 L 0.886719 539 Z M 0.886719 0" fill="transparent"/><path fill-rule="nonzero" fill-opacity="1" d="M 0.886719 0 L 959.113281 0 L 959.113281 539 L 0.886719 539 Z M 0.886719 0" fill="transparent"/></g><g clip-path="url(#09c4414748)"><path fill-rule="nonzero" fill-opacity="1" d="M 293.984375 78.847656 C 277.589844 78.6875 252.03125 76.605469 248.816406 71.519531 C 245.6875 66.570312 262.070312 41.351562 273.136719 26.617188 C 273.472656 26.164062 273.414062 25.535156 272.992188 25.15625 C 272.574219 24.78125 271.9375 24.78125 271.523438 25.164062 C 261.535156 34.363281 233.742188 57.140625 225.113281 52.15625 C 214.726562 46.148438 218.480469 27.6875 218.519531 27.5 C 218.632812 26.972656 218.339844 26.4375 217.828125 26.253906 C 217.320312 26.066406 216.753906 26.28125 216.492188 26.753906 C 216.378906 26.972656 204.714844 48.246094 192.644531 48.246094 C 192.558594 48.246094 192.464844 48.246094 192.378906 48.242188 C 180.230469 47.925781 168.410156 22.378906 168.292969 22.121094 C 168.0625 21.613281 167.484375 21.363281 166.960938 21.539062 C 166.433594 21.710938 166.121094 22.253906 166.238281 22.796875 C 166.292969 23.058594 171.660156 49.261719 160.828125 56.445312 C 152.253906 62.144531 121.75 48.824219 108.289062 42.027344 C 107.164062 41.433594 106.425781 41.0625 106.230469 40.96875 C 105.695312 40.707031 105.046875 40.921875 104.773438 41.453125 C 104.503906 41.988281 104.714844 42.636719 105.242188 42.914062 C 105.457031 43.023438 106.21875 43.421875 107.417969 44.027344 C 118.695312 49.957031 140.929688 64.207031 136.945312 74.441406 C 133.054688 84.4375 113.339844 83.789062 103.703125 82.832031 C 101.03125 82.433594 99.039062 82.21875 98.304688 82.148438 C 97.722656 82.085938 97.191406 82.503906 97.117188 83.085938 C 97.039062 83.671875 97.433594 84.210938 98.011719 84.308594 C 98.347656 84.367188 100.5 84.726562 103.667969 85.042969 C 113.796875 86.609375 129.046875 90.207031 129.546875 96.070312 C 129.683594 97.644531 127.695312 102.441406 106.351562 112.929688 C 94.363281 118.816406 82.117188 123.601562 81.992188 123.652344 C 81.433594 123.871094 81.15625 124.496094 81.371094 125.058594 C 81.582031 125.617188 82.210938 125.898438 82.769531 125.691406 C 96.210938 120.6875 132.621094 109.359375 139.59375 116.910156 C 147.8125 125.808594 131.542969 144.164062 131.378906 144.347656 C 131 144.773438 131.007812 145.425781 131.414062 145.835938 C 131.808594 146.246094 132.460938 146.277344 132.902344 145.90625 C 133.117188 145.722656 155.046875 127.339844 168.269531 134.941406 C 181.625 142.609375 182.292969 174.453125 182.300781 174.773438 C 182.3125 175.351562 182.761719 175.820312 183.339844 175.847656 C 183.355469 175.847656 183.375 175.847656 183.390625 175.847656 C 183.945312 175.847656 184.414062 175.425781 184.476562 174.871094 C 184.511719 174.535156 188.269531 141.160156 203.605469 137.429688 C 219.019531 133.6875 238.921875 156.953125 239.125 157.1875 C 239.464844 157.597656 240.054688 157.695312 240.507812 157.421875 C 240.964844 157.152344 241.160156 156.589844 240.972656 156.09375 C 240.863281 155.816406 230.460938 128.25 239.527344 120.328125 C 247.09375 113.714844 275.046875 123.851562 285.179688 128.324219 C 285.714844 128.558594 286.335938 128.328125 286.597656 127.808594 C 286.855469 127.285156 286.660156 126.65625 286.144531 126.371094 C 275.8125 120.675781 249.578125 104.132812 252.226562 96.050781 C 254.929688 87.796875 283.382812 82.410156 294.113281 81.03125 C 294.683594 80.960938 295.097656 80.460938 295.0625 79.886719 C 295.03125 79.300781 294.5625 78.851562 293.984375 78.847656 Z M 293.984375 78.847656" fill="#e2d81b"/></g><g clip-path="url(#dcf4df03e5)"><path fill-rule="nonzero" fill-opacity="1" d="M 152.855469 42.195312 C 153.066406 42.457031 153.382812 42.59375 153.699219 42.59375 C 153.917969 42.59375 154.136719 42.527344 154.328125 42.394531 C 154.796875 42.066406 154.925781 41.429688 154.632812 40.9375 L 140.667969 17.753906 C 140.488281 17.460938 140.183594 17.265625 139.839844 17.230469 C 139.492188 17.195312 139.15625 17.332031 138.929688 17.582031 L 136.296875 20.480469 C 135.929688 20.878906 135.914062 21.484375 136.257812 21.902344 Z M 152.855469 42.195312" fill="#e2d81b"/></g><g clip-path="url(#694b38fd14)"><path fill-rule="nonzero" fill-opacity="1" d="M 209.035156 154.808594 C 208.898438 154.257812 208.363281 153.898438 207.804688 153.988281 C 207.242188 154.082031 206.84375 154.589844 206.894531 155.15625 L 209.707031 189.582031 C 209.734375 189.902344 209.902344 190.199219 210.164062 190.382812 C 210.347656 190.515625 210.574219 190.585938 210.789062 190.585938 C 210.882812 190.585938 210.980469 190.574219 211.074219 190.546875 L 216.34375 189.140625 C 216.917969 188.988281 217.265625 188.40625 217.125 187.828125 Z M 209.035156 154.808594" fill="#e2d81b"/></g><path fill-rule="nonzero" fill-opacity="1" d="M 252.417969 131.839844 C 251.988281 131.476562 251.355469 131.5 250.953125 131.894531 C 250.546875 132.285156 250.515625 132.917969 250.863281 133.359375 L 266.410156 152.59375 C 266.617188 152.851562 266.925781 152.996094 267.257812 152.996094 C 267.257812 152.996094 267.265625 152.996094 267.265625 152.996094 C 267.597656 152.996094 267.910156 152.839844 268.117188 152.582031 L 271.015625 148.894531 C 271.378906 148.429688 271.308594 147.765625 270.863281 147.390625 Z M 252.417969 131.839844" fill="#e2d81b"/><path fill-rule="nonzero" fill-opacity="1" d="M 123.476562 151.835938 C 122.21875 152.554688 115.925781 156.304688 115.535156 159.625 C 115.425781 160.535156 115.730469 161.359375 116.421875 162.007812 C 116.945312 162.5 117.558594 162.753906 118.195312 162.753906 C 118.390625 162.753906 118.59375 162.734375 118.789062 162.683594 C 121.808594 161.9375 124.34375 155.1875 125.050781 153.140625 C 125.199219 152.707031 125.066406 152.234375 124.714844 151.945312 C 124.359375 151.65625 123.867188 151.613281 123.476562 151.835938 Z M 123.476562 151.835938" fill="#e2d81b"/><g clip-path="url(#531fa87af0)"><path fill-rule="nonzero" fill-opacity="1" d="M 159.566406 148.019531 C 159.089844 147.710938 158.457031 147.8125 158.109375 148.265625 L 129.128906 185.511719 C 128.925781 185.773438 128.851562 186.117188 128.925781 186.4375 C 129.003906 186.757812 129.226562 187.03125 129.527344 187.167969 L 136.640625 190.480469 C 136.785156 190.554688 136.945312 190.585938 137.097656 190.585938 C 137.484375 190.585938 137.859375 190.378906 138.058594 190.011719 L 159.925781 149.449219 C 160.199219 148.953125 160.039062 148.332031 159.566406 148.019531 Z M 159.566406 148.019531" fill="#e2d81b"/></g><g clip-path="url(#bd3a067c9b)"><path fill-rule="nonzero" fill-opacity="1" d="M 194.011719 17.226562 C 193.414062 17.226562 192.921875 17.71875 192.921875 18.316406 L 192.921875 33.863281 C 192.921875 34.421875 193.347656 34.890625 193.90625 34.945312 C 193.941406 34.953125 193.976562 34.953125 194.011719 34.953125 C 194.527344 34.953125 194.976562 34.59375 195.082031 34.082031 L 198.242188 18.535156 C 198.308594 18.214844 198.226562 17.882812 198.019531 17.628906 C 197.8125 17.378906 197.5 17.226562 197.175781 17.226562 Z M 194.011719 17.226562" fill="#e2d81b"/></g><g fill-opacity="1" fill="#133db0"><g transform="translate(649.523779, 351.406748)"><g><path d="M 5.207031 -3.636719 L 5.039062 -3.636719 C 4.992188 -4.152344 4.59375 -4.378906 3.765625 -4.378906 L 1.882812 -4.378906 L 1.882812 -0.9375 C 1.882812 -0.371094 1.992188 -0.214844 2.363281 -0.15625 L 2.363281 0 L 0.636719 0 L 0.636719 -0.15625 C 1.007812 -0.214844 1.117188 -0.371094 1.117188 -0.9375 L 1.117188 -7.066406 C 1.117188 -7.628906 1.007812 -7.785156 0.636719 -7.847656 L 0.636719 -8.003906 L 5.890625 -8.003906 L 6.023438 -6.429688 L 5.832031 -6.429688 C 5.675781 -7.332031 5.039062 -7.773438 3.921875 -7.773438 L 2.652344 -7.773438 C 2.085938 -7.773438 1.882812 -7.628906 1.882812 -7.234375 L 1.882812 -4.617188 L 3.765625 -4.617188 C 4.632812 -4.617188 4.953125 -4.824219 5.039062 -5.433594 L 5.207031 -5.433594 Z M 5.207031 -3.636719"/></g></g></g><g fill-opacity="1" fill="#133db0"><g transform="translate(655.340846, 351.406748)"><g><path d="M 3.910156 -8.207031 C 5.960938 -8.207031 7.355469 -6.503906 7.355469 -3.984375 C 7.355469 -2.484375 6.863281 -1.273438 6 -0.550781 C 5.386719 -0.046875 4.679688 0.203125 3.886719 0.203125 C 2.925781 0.203125 1.96875 -0.25 1.355469 -1.019531 C 0.792969 -1.703125 0.46875 -2.832031 0.46875 -4.066406 C 0.46875 -5.496094 0.960938 -6.730469 1.824219 -7.449219 C 2.398438 -7.929688 3.144531 -8.207031 3.910156 -8.207031 Z M 3.910156 -7.976562 C 3.035156 -7.976562 2.304688 -7.535156 1.835938 -6.707031 C 1.488281 -6.144531 1.273438 -5.050781 1.273438 -4.066406 C 1.273438 -2.566406 1.570312 -1.476562 2.171875 -0.816406 C 2.652344 -0.289062 3.226562 -0.0234375 3.898438 -0.0234375 C 4.761719 -0.0234375 5.519531 -0.46875 5.988281 -1.285156 C 6.3125 -1.859375 6.550781 -2.953125 6.550781 -3.984375 C 6.550781 -6.480469 5.554688 -7.976562 3.910156 -7.976562 Z M 3.910156 -7.976562"/></g></g></g><g fill-opacity="1" fill="#133db0"><g transform="translate(662.81315, 351.406748)"><g><path d="M 6.816406 0.46875 L 6.816406 0.636719 C 5.507812 -0.132812 4.296875 -1.871094 3.792969 -3.683594 C 3.597656 -3.671875 3.441406 -3.660156 3.335938 -3.660156 L 3.023438 -3.660156 C 2.675781 -3.660156 2.433594 -3.671875 1.894531 -3.730469 L 1.894531 -0.949219 C 1.894531 -0.382812 2.003906 -0.214844 2.375 -0.15625 L 2.375 0 L 0.636719 0 L 0.636719 -0.15625 C 1.007812 -0.214844 1.117188 -0.382812 1.117188 -0.949219 L 1.117188 -7.066406 C 1.117188 -7.628906 1.007812 -7.785156 0.636719 -7.847656 L 0.636719 -8.003906 L 1.414062 -8.003906 C 1.59375 -8.003906 1.882812 -8.015625 2.28125 -8.039062 C 2.746094 -8.074219 3.15625 -8.085938 3.527344 -8.085938 C 5.375 -8.085938 6.632812 -7.1875 6.632812 -5.902344 C 6.632812 -5.21875 6.296875 -4.605469 5.6875 -4.234375 C 5.457031 -4.089844 5.085938 -3.960938 4.59375 -3.828125 C 5.265625 -1.691406 5.867188 -0.574219 6.816406 0.46875 Z M 1.894531 -7.042969 L 1.894531 -4.019531 C 2.519531 -3.933594 2.796875 -3.921875 3.214844 -3.921875 C 5.039062 -3.921875 5.878906 -4.558594 5.878906 -5.960938 C 5.878906 -6.71875 5.519531 -7.292969 4.894531 -7.582031 C 4.523438 -7.761719 3.828125 -7.859375 3.15625 -7.859375 C 2.136719 -7.859375 1.894531 -7.703125 1.894531 -7.042969 Z M 1.894531 -7.042969"/></g></g></g><g fill-opacity="1" fill="#133db0"><g transform="translate(669.457829, 351.406748)"><g/></g></g><g fill-opacity="1" fill="#133db0"><g transform="translate(672.696081, 351.406748)"><g><path d="M 1.621094 -2.601562 L 1.078125 -0.949219 C 1.03125 -0.816406 1.007812 -0.683594 1.007812 -0.601562 C 1.007812 -0.324219 1.175781 -0.203125 1.609375 -0.15625 L 1.609375 0 L -0.0820312 0 L -0.0820312 -0.15625 C 0.324219 -0.203125 0.601562 -0.46875 0.742188 -0.949219 L 3.082031 -8.074219 L 3.683594 -8.074219 L 5.960938 -0.949219 C 6.117188 -0.457031 6.335938 -0.191406 6.597656 -0.15625 L 6.597656 0 L 4.824219 0 L 4.824219 -0.15625 C 5.097656 -0.191406 5.242188 -0.324219 5.242188 -0.574219 C 5.242188 -0.660156 5.230469 -0.753906 5.148438 -0.949219 L 4.605469 -2.601562 Z M 1.726562 -2.925781 L 4.5 -2.925781 L 3.121094 -7.125 Z M 1.726562 -2.925781"/></g></g></g><g fill-opacity="1" fill="#133db0"><g transform="translate(678.836988, 351.406748)"><g><path d="M 6.863281 -1.679688 L 7.066406 -1.523438 C 6.070312 -0.324219 5.148438 0.203125 4.042969 0.203125 C 2.855469 0.203125 1.65625 -0.480469 1.019531 -1.59375 C 0.648438 -2.230469 0.46875 -3 0.46875 -3.875 C 0.46875 -6.371094 2.015625 -8.207031 4.140625 -8.207031 C 4.835938 -8.207031 5.433594 -8.039062 6.585938 -7.460938 L 6.3125 -6.238281 L 6.167969 -6.238281 C 5.53125 -7.390625 4.859375 -7.847656 3.816406 -7.847656 C 2.21875 -7.847656 1.152344 -6.453125 1.152344 -4.390625 C 1.152344 -3.035156 1.621094 -1.738281 2.421875 -0.921875 C 2.855469 -0.480469 3.492188 -0.214844 4.101562 -0.214844 C 4.785156 -0.214844 5.53125 -0.503906 6.15625 -0.996094 C 6.335938 -1.140625 6.539062 -1.34375 6.863281 -1.679688 Z M 6.863281 -1.679688"/></g></g></g><g fill-opacity="1" fill="#133db0"><g transform="translate(685.853497, 351.406748)"><g><path d="M 6.863281 -1.679688 L 7.066406 -1.523438 C 6.070312 -0.324219 5.148438 0.203125 4.042969 0.203125 C 2.855469 0.203125 1.65625 -0.480469 1.019531 -1.59375 C 0.648438 -2.230469 0.46875 -3 0.46875 -3.875 C 0.46875 -6.371094 2.015625 -8.207031 4.140625 -8.207031 C 4.835938 -8.207031 5.433594 -8.039062 6.585938 -7.460938 L 6.3125 -6.238281 L 6.167969 -6.238281 C 5.53125 -7.390625 4.859375 -7.847656 3.816406 -7.847656 C 2.21875 -7.847656 1.152344 -6.453125 1.152344 -4.390625 C 1.152344 -3.035156 1.621094 -1.738281 2.421875 -0.921875 C 2.855469 -0.480469 3.492188 -0.214844 4.101562 -0.214844 C 4.785156 -0.214844 5.53125 -0.503906 6.15625 -0.996094 C 6.335938 -1.140625 6.539062 -1.34375 6.863281 -1.679688 Z M 6.863281 -1.679688"/></g></g></g><g fill-opacity="1" fill="#133db0"><g transform="translate(692.870005, 351.406748)"><g><path d="M 3.910156 -8.207031 C 5.960938 -8.207031 7.355469 -6.503906 7.355469 -3.984375 C 7.355469 -2.484375 6.863281 -1.273438 6 -0.550781 C 5.386719 -0.046875 4.679688 0.203125 3.886719 0.203125 C 2.925781 0.203125 1.96875 -0.25 1.355469 -1.019531 C 0.792969 -1.703125 0.46875 -2.832031 0.46875 -4.066406 C 0.46875 -5.496094 0.960938 -6.730469 1.824219 -7.449219 C 2.398438 -7.929688 3.144531 -8.207031 3.910156 -8.207031 Z M 3.910156 -7.976562 C 3.035156 -7.976562 2.304688 -7.535156 1.835938 -6.707031 C 1.488281 -6.144531 1.273438 -5.050781 1.273438 -4.066406 C 1.273438 -2.566406 1.570312 -1.476562 2.171875 -0.816406 C 2.652344 -0.289062 3.226562 -0.0234375 3.898438 -0.0234375 C 4.761719 -0.0234375 5.519531 -0.46875 5.988281 -1.285156 C 6.3125 -1.859375 6.550781 -2.953125 6.550781 -3.984375 C 6.550781 -6.480469 5.554688 -7.976562 3.910156 -7.976562 Z M 3.910156 -7.976562"/></g></g></g><g fill-opacity="1" fill="#133db0"><g transform="translate(700.342309, 351.406748)"><g><path d="M 4.5 0 L 4.257812 0 L 2.074219 -7.472656 L 1.222656 -0.9375 C 1.210938 -0.898438 1.210938 -0.875 1.210938 -0.851562 L 1.210938 -0.730469 C 1.210938 -0.347656 1.378906 -0.191406 1.859375 -0.132812 L 1.859375 0 L 0.277344 0 L 0.277344 -0.132812 C 0.648438 -0.191406 0.851562 -0.457031 0.898438 -0.9375 L 1.679688 -7.042969 L 1.703125 -7.304688 C 1.703125 -7.628906 1.523438 -7.796875 1.152344 -7.835938 L 1.152344 -8.003906 L 2.734375 -8.003906 L 4.59375 -1.582031 L 6.382812 -8.003906 L 7.941406 -8.003906 L 7.941406 -7.835938 C 7.570312 -7.785156 7.390625 -7.605469 7.390625 -7.304688 C 7.390625 -7.246094 7.402344 -7.152344 7.414062 -7.042969 L 8.277344 -0.9375 C 8.339844 -0.457031 8.519531 -0.191406 8.816406 -0.132812 L 8.816406 0 L 7.089844 0 L 7.089844 -0.132812 C 7.367188 -0.179688 7.511719 -0.335938 7.511719 -0.613281 C 7.511719 -0.71875 7.5 -0.804688 7.488281 -0.9375 L 6.550781 -7.472656 Z M 4.5 0"/></g></g></g><g fill-opacity="1" fill="#133db0"><g transform="translate(709.062032, 351.406748)"><g><path d="M 3.910156 -8.207031 C 5.960938 -8.207031 7.355469 -6.503906 7.355469 -3.984375 C 7.355469 -2.484375 6.863281 -1.273438 6 -0.550781 C 5.386719 -0.046875 4.679688 0.203125 3.886719 0.203125 C 2.925781 0.203125 1.96875 -0.25 1.355469 -1.019531 C 0.792969 -1.703125 0.46875 -2.832031 0.46875 -4.066406 C 0.46875 -5.496094 0.960938 -6.730469 1.824219 -7.449219 C 2.398438 -7.929688 3.144531 -8.207031 3.910156 -8.207031 Z M 3.910156 -7.976562 C 3.035156 -7.976562 2.304688 -7.535156 1.835938 -6.707031 C 1.488281 -6.144531 1.273438 -5.050781 1.273438 -4.066406 C 1.273438 -2.566406 1.570312 -1.476562 2.171875 -0.816406 C 2.652344 -0.289062 3.226562 -0.0234375 3.898438 -0.0234375 C 4.761719 -0.0234375 5.519531 -0.46875 5.988281 -1.285156 C 6.3125 -1.859375 6.550781 -2.953125 6.550781 -3.984375 C 6.550781 -6.480469 5.554688 -7.976562 3.910156 -7.976562 Z M 3.910156 -7.976562"/></g></g></g><g fill-opacity="1" fill="#133db0"><g transform="translate(716.534336, 351.406748)"><g><path d="M 1.105469 -0.9375 L 1.105469 -7.066406 C 1.105469 -7.628906 0.996094 -7.785156 0.625 -7.847656 L 0.625 -8.003906 L 1.621094 -8.003906 C 1.703125 -8.003906 1.957031 -8.015625 2.304688 -8.050781 C 2.542969 -8.074219 2.785156 -8.085938 3.035156 -8.085938 C 4.59375 -8.085938 5.746094 -7.640625 6.480469 -6.753906 C 7.101562 -6 7.460938 -4.953125 7.460938 -3.863281 C 7.460938 -2.566406 7.03125 -1.523438 6.25 -0.851562 C 5.578125 -0.289062 4.570312 0 3.238281 0 L 0.625 0 L 0.625 -0.15625 C 0.996094 -0.214844 1.105469 -0.371094 1.105469 -0.9375 Z M 1.882812 -6.996094 L 1.882812 -0.949219 C 1.882812 -0.660156 1.980469 -0.46875 2.171875 -0.382812 C 2.410156 -0.265625 2.757812 -0.203125 3.214844 -0.203125 C 4.269531 -0.203125 5.148438 -0.480469 5.675781 -0.960938 C 6.347656 -1.582031 6.683594 -2.578125 6.683594 -3.933594 C 6.683594 -5.53125 6.117188 -6.777344 5.160156 -7.390625 C 4.644531 -7.714844 3.933594 -7.882812 3.167969 -7.882812 C 2.722656 -7.882812 2.386719 -7.824219 2.160156 -7.703125 C 1.957031 -7.570312 1.882812 -7.414062 1.882812 -6.996094 Z M 1.882812 -6.996094"/></g></g></g><g fill-opacity="1" fill="#133db0"><g transform="translate(724.102594, 351.406748)"><g><path d="M 1.621094 -2.601562 L 1.078125 -0.949219 C 1.03125 -0.816406 1.007812 -0.683594 1.007812 -0.601562 C 1.007812 -0.324219 1.175781 -0.203125 1.609375 -0.15625 L 1.609375 0 L -0.0820312 0 L -0.0820312 -0.15625 C 0.324219 -0.203125 0.601562 -0.46875 0.742188 -0.949219 L 3.082031 -8.074219 L 3.683594 -8.074219 L 5.960938 -0.949219 C 6.117188 -0.457031 6.335938 -0.191406 6.597656 -0.15625 L 6.597656 0 L 4.824219 0 L 4.824219 -0.15625 C 5.097656 -0.191406 5.242188 -0.324219 5.242188 -0.574219 C 5.242188 -0.660156 5.230469 -0.753906 5.148438 -0.949219 L 4.605469 -2.601562 Z M 1.726562 -2.925781 L 4.5 -2.925781 L 3.121094 -7.125 Z M 1.726562 -2.925781"/></g></g></g><g fill-opacity="1" fill="#133db0"><g transform="translate(730.243501, 351.406748)"><g><path d="M 6.886719 -6.3125 L 6.742188 -6.3125 C 6.179688 -7.28125 5.519531 -7.714844 4.511719 -7.714844 C 4.019531 -7.714844 3.828125 -7.59375 3.828125 -7.269531 L 3.828125 -0.9375 C 3.828125 -0.371094 3.933594 -0.214844 4.308594 -0.15625 L 4.308594 0 L 2.566406 0 L 2.566406 -0.15625 C 2.9375 -0.214844 3.046875 -0.371094 3.046875 -0.9375 L 3.046875 -7.332031 C 3.046875 -7.605469 2.832031 -7.738281 2.386719 -7.738281 C 1.859375 -7.738281 1.296875 -7.582031 0.898438 -7.304688 C 0.527344 -7.054688 0.359375 -6.800781 0.132812 -6.3125 L -0.0234375 -6.3125 L 0.394531 -8.003906 L 6.464844 -8.003906 Z M 6.886719 -6.3125"/></g></g></g><g fill-opacity="1" fill="#133db0"><g transform="translate(736.756237, 351.406748)"><g><path d="M 2.015625 -7.066406 L 2.015625 -0.9375 C 2.015625 -0.371094 2.125 -0.214844 2.496094 -0.15625 L 2.496094 0 L 0.730469 0 L 0.730469 -0.15625 C 1.105469 -0.214844 1.210938 -0.371094 1.210938 -0.9375 L 1.210938 -7.066406 C 1.210938 -7.628906 1.105469 -7.785156 0.730469 -7.847656 L 0.730469 -8.003906 L 2.496094 -8.003906 L 2.496094 -7.847656 C 2.125 -7.785156 2.015625 -7.628906 2.015625 -7.066406 Z M 2.015625 -7.066406"/></g></g></g><g fill-opacity="1" fill="#133db0"><g transform="translate(739.634648, 351.406748)"><g><path d="M 3.910156 -8.207031 C 5.960938 -8.207031 7.355469 -6.503906 7.355469 -3.984375 C 7.355469 -2.484375 6.863281 -1.273438 6 -0.550781 C 5.386719 -0.046875 4.679688 0.203125 3.886719 0.203125 C 2.925781 0.203125 1.96875 -0.25 1.355469 -1.019531 C 0.792969 -1.703125 0.46875 -2.832031 0.46875 -4.066406 C 0.46875 -5.496094 0.960938 -6.730469 1.824219 -7.449219 C 2.398438 -7.929688 3.144531 -8.207031 3.910156 -8.207031 Z M 3.910156 -7.976562 C 3.035156 -7.976562 2.304688 -7.535156 1.835938 -6.707031 C 1.488281 -6.144531 1.273438 -5.050781 1.273438 -4.066406 C 1.273438 -2.566406 1.570312 -1.476562 2.171875 -0.816406 C 2.652344 -0.289062 3.226562 -0.0234375 3.898438 -0.0234375 C 4.761719 -0.0234375 5.519531 -0.46875 5.988281 -1.285156 C 6.3125 -1.859375 6.550781 -2.953125 6.550781 -3.984375 C 6.550781 -6.480469 5.554688 -7.976562 3.910156 -7.976562 Z M 3.910156 -7.976562"/></g></g></g><g fill-opacity="1" fill="#133db0"><g transform="translate(747.106952, 351.406748)"><g><path d="M 6.875 0 L 6.609375 0 L 1.59375 -7.175781 L 1.59375 -0.9375 C 1.59375 -0.417969 1.75 -0.203125 2.21875 -0.15625 L 2.21875 0 L 0.648438 0 L 0.648438 -0.15625 C 1.117188 -0.203125 1.273438 -0.417969 1.273438 -0.9375 L 1.273438 -7.066406 C 1.273438 -7.582031 1.117188 -7.796875 0.648438 -7.847656 L 0.648438 -8.003906 L 1.96875 -8.003906 L 6.539062 -1.488281 L 6.539062 -7.066406 C 6.539062 -7.582031 6.382812 -7.796875 5.914062 -7.847656 L 5.914062 -8.003906 L 7.5 -8.003906 L 7.5 -7.847656 C 7.03125 -7.796875 6.875 -7.582031 6.875 -7.066406 Z M 6.875 0"/></g></g></g><g fill-opacity="1" fill="#133db0"><g transform="translate(754.903108, 351.406748)"><g><path d="M 0.863281 1.859375 L 0.742188 1.714844 C 1.1875 1.175781 1.367188 0.839844 1.367188 0.46875 C 1.367188 0.289062 1.332031 0.25 1.140625 0.167969 C 0.863281 0.0585938 0.71875 -0.144531 0.71875 -0.417969 C 0.71875 -0.769531 0.960938 -1.007812 1.296875 -1.007812 C 1.691406 -1.007812 1.929688 -0.707031 1.929688 -0.214844 C 1.929688 0.46875 1.546875 1.222656 0.863281 1.859375 Z M 0.863281 1.859375"/></g></g></g><g fill-opacity="1" fill="#133db0"><g transform="translate(679.126256, 362.864122)"><g><path d="M 6.863281 -1.679688 L 7.066406 -1.523438 C 6.070312 -0.324219 5.148438 0.203125 4.042969 0.203125 C 2.855469 0.203125 1.65625 -0.480469 1.019531 -1.59375 C 0.648438 -2.230469 0.46875 -3 0.46875 -3.875 C 0.46875 -6.371094 2.015625 -8.207031 4.140625 -8.207031 C 4.835938 -8.207031 5.433594 -8.039062 6.585938 -7.460938 L 6.3125 -6.238281 L 6.167969 -6.238281 C 5.53125 -7.390625 4.859375 -7.847656 3.816406 -7.847656 C 2.21875 -7.847656 1.152344 -6.453125 1.152344 -4.390625 C 1.152344 -3.035156 1.621094 -1.738281 2.421875 -0.921875 C 2.855469 -0.480469 3.492188 -0.214844 4.101562 -0.214844 C 4.785156 -0.214844 5.53125 -0.503906 6.15625 -0.996094 C 6.335938 -1.140625 6.539062 -1.34375 6.863281 -1.679688 Z M 6.863281 -1.679688"/></g></g></g><g fill-opacity="1" fill="#133db0"><g transform="translate(686.142764, 362.864122)"><g><path d="M 3.910156 -8.207031 C 5.960938 -8.207031 7.355469 -6.503906 7.355469 -3.984375 C 7.355469 -2.484375 6.863281 -1.273438 6 -0.550781 C 5.386719 -0.046875 4.679688 0.203125 3.886719 0.203125 C 2.925781 0.203125 1.96875 -0.25 1.355469 -1.019531 C 0.792969 -1.703125 0.46875 -2.832031 0.46875 -4.066406 C 0.46875 -5.496094 0.960938 -6.730469 1.824219 -7.449219 C 2.398438 -7.929688 3.144531 -8.207031 3.910156 -8.207031 Z M 3.910156 -7.976562 C 3.035156 -7.976562 2.304688 -7.535156 1.835938 -6.707031 C 1.488281 -6.144531 1.273438 -5.050781 1.273438 -4.066406 C 1.273438 -2.566406 1.570312 -1.476562 2.171875 -0.816406 C 2.652344 -0.289062 3.226562 -0.0234375 3.898438 -0.0234375 C 4.761719 -0.0234375 5.519531 -0.46875 5.988281 -1.285156 C 6.3125 -1.859375 6.550781 -2.953125 6.550781 -3.984375 C 6.550781 -6.480469 5.554688 -7.976562 3.910156 -7.976562 Z M 3.910156 -7.976562"/></g></g></g><g fill-opacity="1" fill="#133db0"><g transform="translate(693.615068, 362.864122)"><g><path d="M 6.875 0 L 6.609375 0 L 1.59375 -7.175781 L 1.59375 -0.9375 C 1.59375 -0.417969 1.75 -0.203125 2.21875 -0.15625 L 2.21875 0 L 0.648438 0 L 0.648438 -0.15625 C 1.117188 -0.203125 1.273438 -0.417969 1.273438 -0.9375 L 1.273438 -7.066406 C 1.273438 -7.582031 1.117188 -7.796875 0.648438 -7.847656 L 0.648438 -8.003906 L 1.96875 -8.003906 L 6.539062 -1.488281 L 6.539062 -7.066406 C 6.539062 -7.582031 6.382812 -7.796875 5.914062 -7.847656 L 5.914062 -8.003906 L 7.5 -8.003906 L 7.5 -7.847656 C 7.03125 -7.796875 6.875 -7.582031 6.875 -7.066406 Z M 6.875 0"/></g></g></g><g fill-opacity="1" fill="#133db0"><g transform="translate(701.411225, 362.864122)"><g><path d="M 6.886719 -6.3125 L 6.742188 -6.3125 C 6.179688 -7.28125 5.519531 -7.714844 4.511719 -7.714844 C 4.019531 -7.714844 3.828125 -7.59375 3.828125 -7.269531 L 3.828125 -0.9375 C 3.828125 -0.371094 3.933594 -0.214844 4.308594 -0.15625 L 4.308594 0 L 2.566406 0 L 2.566406 -0.15625 C 2.9375 -0.214844 3.046875 -0.371094 3.046875 -0.9375 L 3.046875 -7.332031 C 3.046875 -7.605469 2.832031 -7.738281 2.386719 -7.738281 C 1.859375 -7.738281 1.296875 -7.582031 0.898438 -7.304688 C 0.527344 -7.054688 0.359375 -6.800781 0.132812 -6.3125 L -0.0234375 -6.3125 L 0.394531 -8.003906 L 6.464844 -8.003906 Z M 6.886719 -6.3125"/></g></g></g><g fill-opacity="1" fill="#133db0"><g transform="translate(707.923961, 362.864122)"><g><path d="M 1.621094 -2.601562 L 1.078125 -0.949219 C 1.03125 -0.816406 1.007812 -0.683594 1.007812 -0.601562 C 1.007812 -0.324219 1.175781 -0.203125 1.609375 -0.15625 L 1.609375 0 L -0.0820312 0 L -0.0820312 -0.15625 C 0.324219 -0.203125 0.601562 -0.46875 0.742188 -0.949219 L 3.082031 -8.074219 L 3.683594 -8.074219 L 5.960938 -0.949219 C 6.117188 -0.457031 6.335938 -0.191406 6.597656 -0.15625 L 6.597656 0 L 4.824219 0 L 4.824219 -0.15625 C 5.097656 -0.191406 5.242188 -0.324219 5.242188 -0.574219 C 5.242188 -0.660156 5.230469 -0.753906 5.148438 -0.949219 L 4.605469 -2.601562 Z M 1.726562 -2.925781 L 4.5 -2.925781 L 3.121094 -7.125 Z M 1.726562 -2.925781"/></g></g></g><g fill-opacity="1" fill="#133db0"><g transform="translate(714.064868, 362.864122)"><g><path d="M 6.863281 -1.679688 L 7.066406 -1.523438 C 6.070312 -0.324219 5.148438 0.203125 4.042969 0.203125 C 2.855469 0.203125 1.65625 -0.480469 1.019531 -1.59375 C 0.648438 -2.230469 0.46875 -3 0.46875 -3.875 C 0.46875 -6.371094 2.015625 -8.207031 4.140625 -8.207031 C 4.835938 -8.207031 5.433594 -8.039062 6.585938 -7.460938 L 6.3125 -6.238281 L 6.167969 -6.238281 C 5.53125 -7.390625 4.859375 -7.847656 3.816406 -7.847656 C 2.21875 -7.847656 1.152344 -6.453125 1.152344 -4.390625 C 1.152344 -3.035156 1.621094 -1.738281 2.421875 -0.921875 C 2.855469 -0.480469 3.492188 -0.214844 4.101562 -0.214844 C 4.785156 -0.214844 5.53125 -0.503906 6.15625 -0.996094 C 6.335938 -1.140625 6.539062 -1.34375 6.863281 -1.679688 Z M 6.863281 -1.679688"/></g></g></g><g fill-opacity="1" fill="#133db0"><g transform="translate(721.081376, 362.864122)"><g><path d="M 6.886719 -6.3125 L 6.742188 -6.3125 C 6.179688 -7.28125 5.519531 -7.714844 4.511719 -7.714844 C 4.019531 -7.714844 3.828125 -7.59375 3.828125 -7.269531 L 3.828125 -0.9375 C 3.828125 -0.371094 3.933594 -0.214844 4.308594 -0.15625 L 4.308594 0 L 2.566406 0 L 2.566406 -0.15625 C 2.9375 -0.214844 3.046875 -0.371094 3.046875 -0.9375 L 3.046875 -7.332031 C 3.046875 -7.605469 2.832031 -7.738281 2.386719 -7.738281 C 1.859375 -7.738281 1.296875 -7.582031 0.898438 -7.304688 C 0.527344 -7.054688 0.359375 -6.800781 0.132812 -6.3125 L -0.0234375 -6.3125 L 0.394531 -8.003906 L 6.464844 -8.003906 Z M 6.886719 -6.3125"/></g></g></g><g fill-opacity="1" fill="#133db0"><g transform="translate(727.60271, 362.864122)"><g/></g></g><g fill-opacity="1" fill="#133db0"><g transform="translate(651.147759, 374.321495)"><g><path d="M 1.105469 -0.9375 L 1.105469 -7.066406 C 1.105469 -7.628906 0.996094 -7.785156 0.625 -7.847656 L 0.625 -8.003906 L 1.621094 -8.003906 C 1.703125 -8.003906 1.957031 -8.015625 2.304688 -8.050781 C 2.542969 -8.074219 2.785156 -8.085938 3.035156 -8.085938 C 4.59375 -8.085938 5.746094 -7.640625 6.480469 -6.753906 C 7.101562 -6 7.460938 -4.953125 7.460938 -3.863281 C 7.460938 -2.566406 7.03125 -1.523438 6.25 -0.851562 C 5.578125 -0.289062 4.570312 0 3.238281 0 L 0.625 0 L 0.625 -0.15625 C 0.996094 -0.214844 1.105469 -0.371094 1.105469 -0.9375 Z M 1.882812 -6.996094 L 1.882812 -0.949219 C 1.882812 -0.660156 1.980469 -0.46875 2.171875 -0.382812 C 2.410156 -0.265625 2.757812 -0.203125 3.214844 -0.203125 C 4.269531 -0.203125 5.148438 -0.480469 5.675781 -0.960938 C 6.347656 -1.582031 6.683594 -2.578125 6.683594 -3.933594 C 6.683594 -5.53125 6.117188 -6.777344 5.160156 -7.390625 C 4.644531 -7.714844 3.933594 -7.882812 3.167969 -7.882812 C 2.722656 -7.882812 2.386719 -7.824219 2.160156 -7.703125 C 1.957031 -7.570312 1.882812 -7.414062 1.882812 -6.996094 Z M 1.882812 -6.996094"/></g></g></g><g fill-opacity="1" fill="#133db0"><g transform="translate(658.716017, 374.321495)"><g><path d="M 6.816406 0.46875 L 6.816406 0.636719 C 5.507812 -0.132812 4.296875 -1.871094 3.792969 -3.683594 C 3.597656 -3.671875 3.441406 -3.660156 3.335938 -3.660156 L 3.023438 -3.660156 C 2.675781 -3.660156 2.433594 -3.671875 1.894531 -3.730469 L 1.894531 -0.949219 C 1.894531 -0.382812 2.003906 -0.214844 2.375 -0.15625 L 2.375 0 L 0.636719 0 L 0.636719 -0.15625 C 1.007812 -0.214844 1.117188 -0.382812 1.117188 -0.949219 L 1.117188 -7.066406 C 1.117188 -7.628906 1.007812 -7.785156 0.636719 -7.847656 L 0.636719 -8.003906 L 1.414062 -8.003906 C 1.59375 -8.003906 1.882812 -8.015625 2.28125 -8.039062 C 2.746094 -8.074219 3.15625 -8.085938 3.527344 -8.085938 C 5.375 -8.085938 6.632812 -7.1875 6.632812 -5.902344 C 6.632812 -5.21875 6.296875 -4.605469 5.6875 -4.234375 C 5.457031 -4.089844 5.085938 -3.960938 4.59375 -3.828125 C 5.265625 -1.691406 5.867188 -0.574219 6.816406 0.46875 Z M 1.894531 -7.042969 L 1.894531 -4.019531 C 2.519531 -3.933594 2.796875 -3.921875 3.214844 -3.921875 C 5.039062 -3.921875 5.878906 -4.558594 5.878906 -5.960938 C 5.878906 -6.71875 5.519531 -7.292969 4.894531 -7.582031 C 4.523438 -7.761719 3.828125 -7.859375 3.15625 -7.859375 C 2.136719 -7.859375 1.894531 -7.703125 1.894531 -7.042969 Z M 1.894531 -7.042969"/></g></g></g><g fill-opacity="1" fill="#133db0"><g transform="translate(665.360697, 374.321495)"><g><path d="M 1.320312 -1.042969 C 1.65625 -1.042969 1.90625 -0.78125 1.90625 -0.457031 C 1.90625 -0.132812 1.644531 0.121094 1.320312 0.121094 C 0.996094 0.121094 0.742188 -0.132812 0.742188 -0.46875 C 0.742188 -0.792969 0.996094 -1.042969 1.320312 -1.042969 Z M 1.320312 -1.042969"/></g></g></g><g fill-opacity="1" fill="#133db0"><g transform="translate(667.651381, 374.321495)"><g/></g></g><g fill-opacity="1" fill="#133db0"><g transform="translate(670.889633, 374.321495)"><g><path d="M 6.886719 -6.3125 L 6.742188 -6.3125 C 6.179688 -7.28125 5.519531 -7.714844 4.511719 -7.714844 C 4.019531 -7.714844 3.828125 -7.59375 3.828125 -7.269531 L 3.828125 -0.9375 C 3.828125 -0.371094 3.933594 -0.214844 4.308594 -0.15625 L 4.308594 0 L 2.566406 0 L 2.566406 -0.15625 C 2.9375 -0.214844 3.046875 -0.371094 3.046875 -0.9375 L 3.046875 -7.332031 C 3.046875 -7.605469 2.832031 -7.738281 2.386719 -7.738281 C 1.859375 -7.738281 1.296875 -7.582031 0.898438 -7.304688 C 0.527344 -7.054688 0.359375 -6.800781 0.132812 -6.3125 L -0.0234375 -6.3125 L 0.394531 -8.003906 L 6.464844 -8.003906 Z M 6.886719 -6.3125"/></g></g></g><g fill-opacity="1" fill="#133db0"><g transform="translate(677.402369, 374.321495)"><g><path d="M 6.816406 0.46875 L 6.816406 0.636719 C 5.507812 -0.132812 4.296875 -1.871094 3.792969 -3.683594 C 3.597656 -3.671875 3.441406 -3.660156 3.335938 -3.660156 L 3.023438 -3.660156 C 2.675781 -3.660156 2.433594 -3.671875 1.894531 -3.730469 L 1.894531 -0.949219 C 1.894531 -0.382812 2.003906 -0.214844 2.375 -0.15625 L 2.375 0 L 0.636719 0 L 0.636719 -0.15625 C 1.007812 -0.214844 1.117188 -0.382812 1.117188 -0.949219 L 1.117188 -7.066406 C 1.117188 -7.628906 1.007812 -7.785156 0.636719 -7.847656 L 0.636719 -8.003906 L 1.414062 -8.003906 C 1.59375 -8.003906 1.882812 -8.015625 2.28125 -8.039062 C 2.746094 -8.074219 3.15625 -8.085938 3.527344 -8.085938 C 5.375 -8.085938 6.632812 -7.1875 6.632812 -5.902344 C 6.632812 -5.21875 6.296875 -4.605469 5.6875 -4.234375 C 5.457031 -4.089844 5.085938 -3.960938 4.59375 -3.828125 C 5.265625 -1.691406 5.867188 -0.574219 6.816406 0.46875 Z M 1.894531 -7.042969 L 1.894531 -4.019531 C 2.519531 -3.933594 2.796875 -3.921875 3.214844 -3.921875 C 5.039062 -3.921875 5.878906 -4.558594 5.878906 -5.960938 C 5.878906 -6.71875 5.519531 -7.292969 4.894531 -7.582031 C 4.523438 -7.761719 3.828125 -7.859375 3.15625 -7.859375 C 2.136719 -7.859375 1.894531 -7.703125 1.894531 -7.042969 Z M 1.894531 -7.042969"/></g></g></g><g fill-opacity="1" fill="#133db0"><g transform="translate(684.047048, 374.321495)"><g><path d="M 1.871094 -7.066406 L 1.871094 -2.28125 C 1.871094 -1.570312 1.96875 -1.128906 2.207031 -0.804688 C 2.53125 -0.335938 3.179688 -0.0703125 3.945312 -0.0703125 C 5.484375 -0.0703125 6.359375 -0.851562 6.359375 -2.230469 L 6.359375 -7.066406 C 6.359375 -7.582031 6.203125 -7.796875 5.734375 -7.847656 L 5.734375 -8.003906 L 7.304688 -8.003906 L 7.304688 -7.847656 C 6.839844 -7.796875 6.683594 -7.582031 6.683594 -7.066406 L 6.683594 -2.28125 C 6.683594 -0.730469 5.640625 0.203125 3.910156 0.203125 C 3.082031 0.203125 2.339844 -0.0234375 1.8125 -0.492188 C 1.320312 -0.910156 1.105469 -1.464844 1.105469 -2.316406 L 1.105469 -7.066406 C 1.105469 -7.628906 0.996094 -7.785156 0.625 -7.847656 L 0.625 -8.003906 L 2.351562 -8.003906 L 2.351562 -7.847656 C 1.980469 -7.785156 1.871094 -7.628906 1.871094 -7.066406 Z M 1.871094 -7.066406"/></g></g></g><g fill-opacity="1" fill="#133db0"><g transform="translate(691.411398, 374.321495)"><g><path d="M 4.929688 -6.203125 L 4.75 -6.203125 C 4.691406 -7.222656 3.898438 -7.964844 2.820312 -7.964844 C 1.90625 -7.964844 1.273438 -7.292969 1.273438 -6.371094 C 1.273438 -5.902344 1.453125 -5.433594 1.75 -5.160156 C 1.980469 -4.929688 2.484375 -4.667969 3.273438 -4.367188 C 4.320312 -3.972656 4.761719 -3.742188 5.039062 -3.492188 C 5.421875 -3.121094 5.625 -2.640625 5.625 -2.074219 C 5.625 -0.78125 4.546875 0.203125 3.058594 0.203125 C 2.050781 0.203125 1.222656 -0.0820312 0.394531 -0.753906 L 0.683594 -2.195312 L 0.875 -2.195312 C 0.886719 -1.714844 0.949219 -1.453125 1.175781 -1.117188 C 1.59375 -0.445312 2.339844 -0.046875 3.15625 -0.046875 C 4.222656 -0.046875 5.015625 -0.804688 5.015625 -1.8125 C 5.015625 -2.398438 4.761719 -2.855469 4.246094 -3.167969 C 4.078125 -3.261719 3.984375 -3.3125 2.9375 -3.71875 C 2.074219 -4.054688 1.414062 -4.414062 1.089844 -4.714844 C 0.769531 -5.003906 0.574219 -5.519531 0.574219 -6.035156 C 0.574219 -7.304688 1.546875 -8.207031 2.925781 -8.207031 C 3.707031 -8.207031 4.257812 -8.039062 5.183594 -7.460938 Z M 4.929688 -6.203125"/></g></g></g><g fill-opacity="1" fill="#133db0"><g transform="translate(697.060532, 374.321495)"><g><path d="M 1.882812 -3.984375 L 1.882812 -0.9375 C 1.882812 -0.371094 1.992188 -0.214844 2.363281 -0.15625 L 2.363281 0 L 0.625 0 L 0.625 -0.15625 C 0.996094 -0.214844 1.105469 -0.371094 1.105469 -0.9375 L 1.105469 -7.066406 C 1.105469 -7.628906 0.996094 -7.785156 0.625 -7.847656 L 0.625 -8.003906 L 2.363281 -8.003906 L 2.363281 -7.847656 C 1.992188 -7.785156 1.882812 -7.628906 1.882812 -7.066406 L 1.882812 -4.308594 L 5.878906 -4.308594 L 5.878906 -7.066406 C 5.878906 -7.628906 5.769531 -7.785156 5.398438 -7.847656 L 5.398438 -8.003906 L 7.152344 -8.003906 L 7.152344 -7.847656 C 6.777344 -7.785156 6.671875 -7.628906 6.671875 -7.066406 L 6.671875 -0.9375 C 6.671875 -0.371094 6.777344 -0.214844 7.152344 -0.15625 L 7.152344 0 L 5.398438 0 L 5.398438 -0.15625 C 5.769531 -0.214844 5.878906 -0.371094 5.878906 -0.9375 L 5.878906 -3.984375 Z M 1.882812 -3.984375"/></g></g></g><g fill-opacity="1" fill="#133db0"><g transform="translate(704.496847, 374.321495)"><g><path d="M 1.621094 -2.601562 L 1.078125 -0.949219 C 1.03125 -0.816406 1.007812 -0.683594 1.007812 -0.601562 C 1.007812 -0.324219 1.175781 -0.203125 1.609375 -0.15625 L 1.609375 0 L -0.0820312 0 L -0.0820312 -0.15625 C 0.324219 -0.203125 0.601562 -0.46875 0.742188 -0.949219 L 3.082031 -8.074219 L 3.683594 -8.074219 L 5.960938 -0.949219 C 6.117188 -0.457031 6.335938 -0.191406 6.597656 -0.15625 L 6.597656 0 L 4.824219 0 L 4.824219 -0.15625 C 5.097656 -0.191406 5.242188 -0.324219 5.242188 -0.574219 C 5.242188 -0.660156 5.230469 -0.753906 5.148438 -0.949219 L 4.605469 -2.601562 Z M 1.726562 -2.925781 L 4.5 -2.925781 L 3.121094 -7.125 Z M 1.726562 -2.925781"/></g></g></g><g fill-opacity="1" fill="#133db0"><g transform="translate(710.637754, 374.321495)"><g><path d="M 6.875 0 L 6.609375 0 L 1.59375 -7.175781 L 1.59375 -0.9375 C 1.59375 -0.417969 1.75 -0.203125 2.21875 -0.15625 L 2.21875 0 L 0.648438 0 L 0.648438 -0.15625 C 1.117188 -0.203125 1.273438 -0.417969 1.273438 -0.9375 L 1.273438 -7.066406 C 1.273438 -7.582031 1.117188 -7.796875 0.648438 -7.847656 L 0.648438 -8.003906 L 1.96875 -8.003906 L 6.539062 -1.488281 L 6.539062 -7.066406 C 6.539062 -7.582031 6.382812 -7.796875 5.914062 -7.847656 L 5.914062 -8.003906 L 7.5 -8.003906 L 7.5 -7.847656 C 7.03125 -7.796875 6.875 -7.582031 6.875 -7.066406 Z M 6.875 0"/></g></g></g><g fill-opacity="1" fill="#133db0"><g transform="translate(718.43391, 374.321495)"><g><path d="M 7.59375 -0.683594 L 7.59375 -0.492188 C 5.9375 0.046875 5.253906 0.203125 4.269531 0.203125 C 2.097656 0.203125 0.46875 -1.523438 0.46875 -3.863281 C 0.46875 -6.261719 2.265625 -8.207031 4.523438 -8.207031 C 5.316406 -8.207031 5.890625 -8.097656 7.257812 -7.617188 L 6.996094 -6.335938 L 6.839844 -6.335938 C 6.574219 -6.945312 6.40625 -7.210938 5.960938 -7.5 C 5.496094 -7.796875 4.992188 -7.953125 4.449219 -7.953125 C 3.347656 -7.953125 2.449219 -7.390625 1.859375 -6.335938 C 1.464844 -5.625 1.246094 -4.785156 1.246094 -3.933594 C 1.246094 -2.808594 1.644531 -1.621094 2.316406 -0.910156 C 2.832031 -0.335938 3.539062 -0.046875 4.4375 -0.046875 C 5.003906 -0.046875 5.542969 -0.179688 5.9375 -0.457031 C 6.238281 -0.648438 6.359375 -0.886719 6.359375 -1.285156 L 6.359375 -3.457031 C 6.359375 -4.019531 6.25 -4.175781 5.878906 -4.234375 L 5.878906 -4.390625 L 7.617188 -4.390625 L 7.617188 -4.234375 C 7.234375 -4.152344 7.136719 -3.996094 7.136719 -3.457031 L 7.136719 -1.273438 C 7.136719 -0.875 7.246094 -0.730469 7.59375 -0.683594 Z M 7.59375 -0.683594"/></g></g></g><g fill-opacity="1" fill="#133db0"><g transform="translate(726.266043, 374.321495)"><g/></g></g><g fill-opacity="1" fill="#133db0"><g transform="translate(729.504295, 374.321495)"><g><path d="M 4.929688 -6.203125 L 4.75 -6.203125 C 4.691406 -7.222656 3.898438 -7.964844 2.820312 -7.964844 C 1.90625 -7.964844 1.273438 -7.292969 1.273438 -6.371094 C 1.273438 -5.902344 1.453125 -5.433594 1.75 -5.160156 C 1.980469 -4.929688 2.484375 -4.667969 3.273438 -4.367188 C 4.320312 -3.972656 4.761719 -3.742188 5.039062 -3.492188 C 5.421875 -3.121094 5.625 -2.640625 5.625 -2.074219 C 5.625 -0.78125 4.546875 0.203125 3.058594 0.203125 C 2.050781 0.203125 1.222656 -0.0820312 0.394531 -0.753906 L 0.683594 -2.195312 L 0.875 -2.195312 C 0.886719 -1.714844 0.949219 -1.453125 1.175781 -1.117188 C 1.59375 -0.445312 2.339844 -0.046875 3.15625 -0.046875 C 4.222656 -0.046875 5.015625 -0.804688 5.015625 -1.8125 C 5.015625 -2.398438 4.761719 -2.855469 4.246094 -3.167969 C 4.078125 -3.261719 3.984375 -3.3125 2.9375 -3.71875 C 2.074219 -4.054688 1.414062 -4.414062 1.089844 -4.714844 C 0.769531 -5.003906 0.574219 -5.519531 0.574219 -6.035156 C 0.574219 -7.304688 1.546875 -8.207031 2.925781 -8.207031 C 3.707031 -8.207031 4.257812 -8.039062 5.183594 -7.460938 Z M 4.929688 -6.203125"/></g></g></g><g fill-opacity="1" fill="#133db0"><g transform="translate(735.153429, 374.321495)"><g><path d="M 1.882812 -3.984375 L 1.882812 -0.9375 C 1.882812 -0.371094 1.992188 -0.214844 2.363281 -0.15625 L 2.363281 0 L 0.625 0 L 0.625 -0.15625 C 0.996094 -0.214844 1.105469 -0.371094 1.105469 -0.9375 L 1.105469 -7.066406 C 1.105469 -7.628906 0.996094 -7.785156 0.625 -7.847656 L 0.625 -8.003906 L 2.363281 -8.003906 L 2.363281 -7.847656 C 1.992188 -7.785156 1.882812 -7.628906 1.882812 -7.066406 L 1.882812 -4.308594 L 5.878906 -4.308594 L 5.878906 -7.066406 C 5.878906 -7.628906 5.769531 -7.785156 5.398438 -7.847656 L 5.398438 -8.003906 L 7.152344 -8.003906 L 7.152344 -7.847656 C 6.777344 -7.785156 6.671875 -7.628906 6.671875 -7.066406 L 6.671875 -0.9375 C 6.671875 -0.371094 6.777344 -0.214844 7.152344 -0.15625 L 7.152344 0 L 5.398438 0 L 5.398438 -0.15625 C 5.769531 -0.214844 5.878906 -0.371094 5.878906 -0.9375 L 5.878906 -3.984375 Z M 1.882812 -3.984375"/></g></g></g><g fill-opacity="1" fill="#133db0"><g transform="translate(742.589744, 374.321495)"><g><path d="M 6.046875 -8.003906 L 6.167969 -6.429688 L 5.976562 -6.429688 C 5.613281 -7.4375 5.136719 -7.785156 4.066406 -7.785156 L 2.699219 -7.785156 C 2.113281 -7.785156 1.894531 -7.628906 1.894531 -7.210938 L 1.894531 -4.632812 L 3.765625 -4.632812 C 4.535156 -4.632812 4.917969 -4.835938 5.050781 -5.351562 L 5.207031 -5.351562 L 5.207031 -3.585938 L 5.050781 -3.585938 C 4.980469 -4.128906 4.546875 -4.390625 3.765625 -4.390625 L 1.894531 -4.390625 L 1.894531 -0.984375 C 1.894531 -0.394531 2.113281 -0.203125 2.734375 -0.203125 L 3.921875 -0.203125 C 4.703125 -0.203125 5.398438 -0.433594 5.832031 -0.828125 C 6.035156 -1.019531 6.167969 -1.210938 6.371094 -1.609375 L 6.550781 -1.546875 L 6.167969 0 L 0.636719 0 L 0.636719 -0.15625 C 1.007812 -0.214844 1.117188 -0.371094 1.117188 -0.9375 L 1.117188 -7.066406 C 1.117188 -7.628906 1.007812 -7.785156 0.636719 -7.847656 L 0.636719 -8.003906 Z M 6.046875 -8.003906"/></g></g></g><g fill-opacity="1" fill="#133db0"><g transform="translate(749.078492, 374.321495)"><g><path d="M 6.886719 -6.3125 L 6.742188 -6.3125 C 6.179688 -7.28125 5.519531 -7.714844 4.511719 -7.714844 C 4.019531 -7.714844 3.828125 -7.59375 3.828125 -7.269531 L 3.828125 -0.9375 C 3.828125 -0.371094 3.933594 -0.214844 4.308594 -0.15625 L 4.308594 0 L 2.566406 0 L 2.566406 -0.15625 C 2.9375 -0.214844 3.046875 -0.371094 3.046875 -0.9375 L 3.046875 -7.332031 C 3.046875 -7.605469 2.832031 -7.738281 2.386719 -7.738281 C 1.859375 -7.738281 1.296875 -7.582031 0.898438 -7.304688 C 0.527344 -7.054688 0.359375 -6.800781 0.132812 -6.3125 L -0.0234375 -6.3125 L 0.394531 -8.003906 L 6.464844 -8.003906 Z M 6.886719 -6.3125"/></g></g></g><g fill-opacity="1" fill="#133db0"><g transform="translate(676.376998, 385.778869)"><g><path d="M 2.410156 -4.089844 C 1.308594 -4.511719 0.804688 -5.148438 0.804688 -6.15625 C 0.804688 -7.34375 1.691406 -8.207031 2.914062 -8.207031 C 4.066406 -8.207031 4.96875 -7.425781 4.96875 -6.429688 C 4.96875 -5.820312 4.691406 -5.289062 4.199219 -4.941406 C 4.019531 -4.8125 3.839844 -4.703125 3.300781 -4.449219 C 4.773438 -3.71875 5.265625 -3.121094 5.265625 -2.097656 C 5.265625 -0.792969 4.246094 0.203125 2.902344 0.203125 C 2.28125 0.203125 1.609375 -0.046875 1.140625 -0.445312 C 0.71875 -0.816406 0.503906 -1.296875 0.503906 -1.871094 C 0.503906 -2.832031 1.105469 -3.527344 2.410156 -4.089844 Z M 3.121094 -4.582031 L 3.15625 -4.582031 C 3.289062 -4.617188 3.636719 -4.835938 3.863281 -5.0625 C 4.199219 -5.386719 4.390625 -5.878906 4.390625 -6.394531 C 4.390625 -7.355469 3.777344 -7.976562 2.867188 -7.976562 C 2.015625 -7.976562 1.367188 -7.332031 1.367188 -6.503906 C 1.367188 -5.640625 1.96875 -4.96875 3.121094 -4.582031 Z M 2.628906 -3.945312 L 2.601562 -3.945312 C 2.460938 -3.945312 1.96875 -3.609375 1.703125 -3.382812 C 1.414062 -3.105469 1.257812 -2.640625 1.257812 -2.074219 C 1.257812 -0.78125 1.847656 -0.0351562 2.902344 -0.0351562 C 3.863281 -0.0351562 4.523438 -0.753906 4.523438 -1.8125 C 4.523438 -2.785156 4.007812 -3.382812 2.628906 -3.945312 Z M 2.628906 -3.945312"/></g></g></g><g fill-opacity="1" fill="#133db0"><g transform="translate(681.774259, 385.778869)"><g><path d="M 2.722656 0 L 1.847656 0 C 2.421875 -3.5625 2.746094 -4.5 4.605469 -7.367188 L 1.90625 -7.367188 C 1.222656 -7.367188 0.949219 -7.152344 0.816406 -6.480469 L 0.613281 -6.480469 L 0.742188 -8.003906 L 5.136719 -8.003906 L 5.136719 -7.859375 C 3.792969 -5.445312 3.707031 -5.277344 3.226562 -3.804688 C 2.890625 -2.617188 2.734375 -1.476562 2.722656 0 Z M 2.722656 0"/></g></g></g><g fill-opacity="1" fill="#133db0"><g transform="translate(687.17152, 385.778869)"><g><path d="M 4.425781 -3.851562 C 4.078125 -2.84375 3.480469 -2.339844 2.628906 -2.339844 C 1.414062 -2.339844 0.539062 -3.515625 0.539062 -5.195312 C 0.539062 -6.921875 1.511719 -8.207031 2.84375 -8.207031 C 3.515625 -8.207031 4.113281 -7.871094 4.535156 -7.257812 C 5.003906 -6.550781 5.21875 -5.664062 5.21875 -4.378906 C 5.21875 -2.566406 4.691406 -0.851562 3.886719 -0.238281 C 3.515625 0.0585938 3.082031 0.203125 2.601562 0.203125 C 1.789062 0.203125 0.984375 -0.324219 0.984375 -0.863281 C 0.984375 -1.066406 1.175781 -1.234375 1.414062 -1.234375 C 1.703125 -1.234375 1.800781 -1.117188 2.160156 -0.503906 C 2.316406 -0.25 2.566406 -0.121094 2.914062 -0.121094 C 3.574219 -0.121094 4.007812 -0.585938 4.234375 -1.453125 C 4.367188 -2.027344 4.425781 -2.699219 4.425781 -3.851562 Z M 2.84375 -7.964844 C 1.835938 -7.964844 1.273438 -6.996094 1.273438 -5.277344 C 1.273438 -4.605469 1.367188 -4.03125 1.546875 -3.5625 C 1.789062 -2.925781 2.171875 -2.617188 2.699219 -2.617188 C 3.261719 -2.617188 3.816406 -2.988281 4.101562 -3.5625 C 4.320312 -3.996094 4.425781 -4.570312 4.425781 -5.277344 C 4.425781 -6.96875 3.851562 -7.964844 2.84375 -7.964844 Z M 2.84375 -7.964844"/></g></g></g><g fill-opacity="1" fill="#133db0"><g transform="translate(692.568781, 385.778869)"><g><path d="M 2.085938 -4.152344 L 2.085938 -4.296875 C 3.382812 -4.402344 4.03125 -5.074219 4.03125 -6.296875 C 4.03125 -7.34375 3.527344 -7.964844 2.675781 -7.964844 C 2.386719 -7.964844 2.160156 -7.894531 1.992188 -7.738281 C 1.835938 -7.582031 1.777344 -7.4375 1.726562 -7.007812 C 1.667969 -6.527344 1.488281 -6.285156 1.1875 -6.285156 C 0.949219 -6.285156 0.769531 -6.480469 0.769531 -6.730469 C 0.769531 -7.5 1.703125 -8.207031 2.734375 -8.207031 C 3.851562 -8.207031 4.785156 -7.355469 4.785156 -6.3125 C 4.785156 -5.792969 4.546875 -5.289062 4.152344 -4.941406 C 3.972656 -4.785156 3.777344 -4.667969 3.289062 -4.414062 C 3.828125 -4.269531 4.054688 -4.152344 4.355469 -3.875 C 4.824219 -3.40625 5.027344 -2.9375 5.027344 -2.316406 C 5.027344 -0.921875 3.910156 0.203125 2.519531 0.203125 C 1.511719 0.203125 0.574219 -0.492188 0.574219 -1.234375 C 0.574219 -1.558594 0.71875 -1.714844 1.007812 -1.714844 C 1.34375 -1.714844 1.476562 -1.523438 1.535156 -0.910156 C 1.609375 -0.3125 1.945312 -0.0117188 2.542969 -0.0117188 C 3.5625 -0.0117188 4.28125 -0.886719 4.28125 -2.171875 C 4.28125 -3.457031 3.574219 -4.152344 2.242188 -4.152344 Z M 2.085938 -4.152344"/></g></g></g><g fill-opacity="1" fill="#133db0"><g transform="translate(697.966042, 385.778869)"><g><path d="M 2.722656 0 L 1.847656 0 C 2.421875 -3.5625 2.746094 -4.5 4.605469 -7.367188 L 1.90625 -7.367188 C 1.222656 -7.367188 0.949219 -7.152344 0.816406 -6.480469 L 0.613281 -6.480469 L 0.742188 -8.003906 L 5.136719 -8.003906 L 5.136719 -7.859375 C 3.792969 -5.445312 3.707031 -5.277344 3.226562 -3.804688 C 2.890625 -2.617188 2.734375 -1.476562 2.722656 0 Z M 2.722656 0"/></g></g></g><g fill-opacity="1" fill="#133db0"><g transform="translate(703.363303, 385.778869)"><g><path d="M 5.472656 -1.917969 L 4.222656 -1.917969 L 4.222656 -0.984375 C 4.222656 -0.417969 4.332031 -0.238281 4.679688 -0.179688 L 4.679688 0 L 2.988281 0 L 2.988281 -0.179688 C 3.335938 -0.265625 3.46875 -0.46875 3.46875 -0.984375 L 3.46875 -1.917969 L 0.300781 -1.917969 L 0.300781 -2.304688 L 3.707031 -8.074219 L 4.222656 -8.074219 L 4.222656 -2.507812 L 5.472656 -2.507812 Z M 0.695312 -2.507812 L 3.46875 -2.507812 L 3.46875 -7.1875 Z M 0.695312 -2.507812"/></g></g></g><g fill-opacity="1" fill="#133db0"><g transform="translate(708.760564, 385.778869)"><g><path d="M 2.722656 0 L 1.847656 0 C 2.421875 -3.5625 2.746094 -4.5 4.605469 -7.367188 L 1.90625 -7.367188 C 1.222656 -7.367188 0.949219 -7.152344 0.816406 -6.480469 L 0.613281 -6.480469 L 0.742188 -8.003906 L 5.136719 -8.003906 L 5.136719 -7.859375 C 3.792969 -5.445312 3.707031 -5.277344 3.226562 -3.804688 C 2.890625 -2.617188 2.734375 -1.476562 2.722656 0 Z M 2.722656 0"/></g></g></g><g fill-opacity="1" fill="#133db0"><g transform="translate(714.157825, 385.778869)"><g><path d="M 4.425781 -3.851562 C 4.078125 -2.84375 3.480469 -2.339844 2.628906 -2.339844 C 1.414062 -2.339844 0.539062 -3.515625 0.539062 -5.195312 C 0.539062 -6.921875 1.511719 -8.207031 2.84375 -8.207031 C 3.515625 -8.207031 4.113281 -7.871094 4.535156 -7.257812 C 5.003906 -6.550781 5.21875 -5.664062 5.21875 -4.378906 C 5.21875 -2.566406 4.691406 -0.851562 3.886719 -0.238281 C 3.515625 0.0585938 3.082031 0.203125 2.601562 0.203125 C 1.789062 0.203125 0.984375 -0.324219 0.984375 -0.863281 C 0.984375 -1.066406 1.175781 -1.234375 1.414062 -1.234375 C 1.703125 -1.234375 1.800781 -1.117188 2.160156 -0.503906 C 2.316406 -0.25 2.566406 -0.121094 2.914062 -0.121094 C 3.574219 -0.121094 4.007812 -0.585938 4.234375 -1.453125 C 4.367188 -2.027344 4.425781 -2.699219 4.425781 -3.851562 Z M 2.84375 -7.964844 C 1.835938 -7.964844 1.273438 -6.996094 1.273438 -5.277344 C 1.273438 -4.605469 1.367188 -4.03125 1.546875 -3.5625 C 1.789062 -2.925781 2.171875 -2.617188 2.699219 -2.617188 C 3.261719 -2.617188 3.816406 -2.988281 4.101562 -3.5625 C 4.320312 -3.996094 4.425781 -4.570312 4.425781 -5.277344 C 4.425781 -6.96875 3.851562 -7.964844 2.84375 -7.964844 Z M 2.84375 -7.964844"/></g></g></g><g fill-opacity="1" fill="#133db0"><g transform="translate(719.555086, 385.778869)"><g><path d="M 4.476562 -8.242188 L 4.582031 -8.160156 C 3.910156 -7.449219 3.046875 -7.101562 1.980469 -7.101562 C 1.847656 -7.101562 1.644531 -7.101562 1.367188 -7.136719 L 1.320312 -4.726562 C 1.761719 -5.386719 2.339844 -5.710938 3.023438 -5.710938 C 4.308594 -5.710938 5.171875 -4.605469 5.171875 -3.011719 C 5.171875 -1.089844 4.140625 0.203125 2.566406 0.203125 C 1.535156 0.203125 0.601562 -0.480469 0.601562 -1.234375 C 0.601562 -1.558594 0.769531 -1.738281 1.019531 -1.738281 C 1.320312 -1.738281 1.488281 -1.535156 1.523438 -1.128906 C 1.570312 -0.707031 1.609375 -0.585938 1.789062 -0.382812 C 1.980469 -0.15625 2.253906 -0.0351562 2.628906 -0.0351562 C 3.683594 -0.0351562 4.414062 -1.175781 4.414062 -2.808594 C 4.414062 -4.378906 3.777344 -5.339844 2.734375 -5.339844 C 2.027344 -5.339844 1.59375 -4.980469 1.152344 -4.066406 L 1.019531 -4.066406 L 1.152344 -8.027344 C 1.777344 -7.847656 2.125 -7.808594 2.652344 -7.808594 C 3.503906 -7.808594 3.960938 -7.917969 4.476562 -8.242188 Z M 4.476562 -8.242188"/></g></g></g><g fill-opacity="1" fill="#133db0"><g transform="translate(724.952347, 385.778869)"><g><path d="M 4.476562 -8.242188 L 4.582031 -8.160156 C 3.910156 -7.449219 3.046875 -7.101562 1.980469 -7.101562 C 1.847656 -7.101562 1.644531 -7.101562 1.367188 -7.136719 L 1.320312 -4.726562 C 1.761719 -5.386719 2.339844 -5.710938 3.023438 -5.710938 C 4.308594 -5.710938 5.171875 -4.605469 5.171875 -3.011719 C 5.171875 -1.089844 4.140625 0.203125 2.566406 0.203125 C 1.535156 0.203125 0.601562 -0.480469 0.601562 -1.234375 C 0.601562 -1.558594 0.769531 -1.738281 1.019531 -1.738281 C 1.320312 -1.738281 1.488281 -1.535156 1.523438 -1.128906 C 1.570312 -0.707031 1.609375 -0.585938 1.789062 -0.382812 C 1.980469 -0.15625 2.253906 -0.0351562 2.628906 -0.0351562 C 3.683594 -0.0351562 4.414062 -1.175781 4.414062 -2.808594 C 4.414062 -4.378906 3.777344 -5.339844 2.734375 -5.339844 C 2.027344 -5.339844 1.59375 -4.980469 1.152344 -4.066406 L 1.019531 -4.066406 L 1.152344 -8.027344 C 1.777344 -7.847656 2.125 -7.808594 2.652344 -7.808594 C 3.503906 -7.808594 3.960938 -7.917969 4.476562 -8.242188 Z M 4.476562 -8.242188"/></g></g></g></svg>