<svg version="1.0" preserveAspectRatio="xMidYMid meet" viewBox="126.54614173228347 309.083040572376 130.6636670416198 72.360000134" zoomAndPan="magnify" xmlns:xlink="http://www.w3.org/1999/xlink" xmlns="http://www.w3.org/2000/svg" style="max-height: 500px" width="130.6636670416198" height="72.360000134"><defs><g/><clipPath id="7d1c7fb87f"><path clip-rule="nonzero" d="M 0.886719 0 L 959.113281 0 L 959.113281 539 L 0.886719 539 Z M 0.886719 0"/></clipPath><clipPath id="d82d3d6adc"><path clip-rule="nonzero" d="M 301 290.417969 L 504.59375 290.417969 L 504.59375 406.453125 L 301 406.453125 Z M 301 290.417969"/></clipPath></defs><g clip-path="url(#7d1c7fb87f)"><path fill-rule="nonzero" fill-opacity="1" d="M 0.886719 0 L 959.113281 0 L 959.113281 539 L 0.886719 539 Z M 0.886719 0" fill="transparent"/><path fill-rule="nonzero" fill-opacity="1" d="M 0.886719 0 L 959.113281 0 L 959.113281 539 L 0.886719 539 Z M 0.886719 0" fill="transparent"/></g><g fill-opacity="1" fill="#000000"><g transform="translate(131.891672, 338.531884)"><g><path d="M 7.828125 -19.296875 C 5.847656 -9.242188 4.644531 -2.984375 4.21875 -0.515625 C 3.726562 -0.515625 2.882812 -0.4375 1.6875 -0.28125 C 0.488281 -0.125 -0.125 -0.0390625 -0.15625 -0.03125 C 0.394531 -2.039062 0.90625 -4.234375 1.375 -6.609375 C 2.445312 -12.035156 3.210938 -16.050781 3.671875 -18.65625 Z M 7.828125 -19.296875"/></g></g></g><g fill-opacity="1" fill="#000000"><g transform="translate(138.449441, 338.531884)"><g><path d="M 11.3125 -1.453125 C 11.101562 -1.453125 10.390625 -1.304688 9.171875 -1.015625 C 7.953125 -0.722656 7.21875 -0.53125 6.96875 -0.4375 C 6.78125 -2.757812 6.617188 -4.453125 6.484375 -5.515625 C 6.359375 -6.585938 6.257812 -7.394531 6.1875 -7.9375 C 6.125 -8.675781 6.003906 -9.578125 5.828125 -10.640625 C 5.773438 -10.304688 5.703125 -9.910156 5.609375 -9.453125 C 5.523438 -8.992188 5.441406 -8.5 5.359375 -7.96875 C 5.078125 -6.300781 4.644531 -3.90625 4.0625 -0.78125 L 0.15625 0.125 C 2.082031 -9.457031 3.226562 -15.929688 3.59375 -19.296875 C 4.144531 -19.335938 4.660156 -19.378906 5.140625 -19.421875 C 5.628906 -19.460938 6.117188 -19.492188 6.609375 -19.515625 C 7.097656 -19.546875 7.523438 -19.578125 7.890625 -19.609375 C 8.109375 -18.242188 8.285156 -17.113281 8.421875 -16.21875 C 8.566406 -15.320312 8.6875 -14.585938 8.78125 -14.015625 C 8.875 -13.453125 8.960938 -12.898438 9.046875 -12.359375 C 9.222656 -11.296875 9.40625 -10.359375 9.59375 -9.546875 C 9.664062 -9.910156 9.742188 -10.332031 9.828125 -10.8125 C 9.921875 -11.300781 10.019531 -11.816406 10.125 -12.359375 C 10.226562 -12.910156 10.335938 -13.46875 10.453125 -14.03125 C 10.578125 -14.59375 10.726562 -15.320312 10.90625 -16.21875 C 11.09375 -17.113281 11.328125 -18.238281 11.609375 -19.59375 L 14.859375 -19.984375 C 12.953125 -11.328125 11.769531 -5.148438 11.3125 -1.453125 Z M 11.3125 -1.453125"/></g></g></g><g fill-opacity="1" fill="#000000"><g transform="translate(151.743807, 338.531884)"><g><path d="M 2.734375 -15.65625 L 2.859375 -19.0625 C 3.765625 -19 4.675781 -18.96875 5.59375 -18.96875 C 8.019531 -18.96875 10.390625 -19.113281 12.703125 -19.40625 L 12.40625 -17.984375 C 12.320312 -17.578125 12.238281 -17.160156 12.15625 -16.734375 C 12.082031 -16.316406 12.007812 -15.953125 11.9375 -15.640625 C 11.539062 -15.535156 11.140625 -15.457031 10.734375 -15.40625 C 10.335938 -15.363281 9.953125 -15.3125 9.578125 -15.25 C 9.265625 -13.914062 8.953125 -12.257812 8.640625 -10.28125 C 7.941406 -5.90625 7.457031 -2.722656 7.1875 -0.734375 L 2.390625 0.03125 C 3.796875 -6.5625 4.742188 -11.722656 5.234375 -15.453125 C 4.816406 -15.503906 4.398438 -15.519531 3.984375 -15.5 C 3.566406 -15.488281 3.148438 -15.539062 2.734375 -15.65625 Z M 2.734375 -15.65625"/></g></g></g><g fill-opacity="1" fill="#000000"><g transform="translate(162.619241, 338.531884)"><g><path d="M 0.203125 0.03125 L 3.6875 -18.90625 L 12.125 -19.640625 C 12 -19.242188 11.894531 -18.859375 11.8125 -18.484375 C 11.726562 -18.109375 11.640625 -17.738281 11.546875 -17.375 C 11.460938 -17.007812 11.394531 -16.691406 11.34375 -16.421875 C 10.820312 -16.367188 10.109375 -16.34375 9.203125 -16.34375 L 7.421875 -16.34375 L 6.484375 -11.546875 C 7.429688 -11.597656 8.222656 -11.632812 8.859375 -11.65625 C 9.503906 -11.675781 9.925781 -11.691406 10.125 -11.703125 C 10.050781 -11.203125 9.984375 -10.710938 9.921875 -10.234375 C 9.859375 -9.753906 9.785156 -9.265625 9.703125 -8.765625 C 9.515625 -8.742188 9.21875 -8.726562 8.8125 -8.71875 C 8.414062 -8.71875 8 -8.707031 7.5625 -8.6875 C 7.132812 -8.664062 6.648438 -8.648438 6.109375 -8.640625 L 5.203125 -3.71875 L 9.078125 -4.34375 L 8.8125 -1.296875 Z M 0.203125 0.03125"/></g></g></g><g fill-opacity="1" fill="#000000"><g transform="translate(172.922453, 338.531884)"><g><path d="M 8.109375 -0.421875 C 6.773438 -5.140625 6.082031 -7.816406 6.03125 -8.453125 L 5.703125 -8.34375 C 5.128906 -5.15625 4.703125 -2.738281 4.421875 -1.09375 L 0.109375 0.03125 C 1.910156 -8.695312 3.007812 -14.890625 3.40625 -18.546875 C 5.414062 -19.171875 7.671875 -19.484375 10.171875 -19.484375 C 12.046875 -19.484375 13.15625 -18.832031 13.5 -17.53125 C 13.601562 -17.132812 13.65625 -16.640625 13.65625 -16.046875 C 13.65625 -15.460938 13.535156 -14.828125 13.296875 -14.140625 C 13.054688 -13.453125 12.726562 -12.796875 12.3125 -12.171875 C 11.4375 -10.910156 10.367188 -9.941406 9.109375 -9.265625 C 9.785156 -7.804688 10.382812 -6.429688 10.90625 -5.140625 C 11.4375 -3.847656 11.882812 -2.757812 12.25 -1.875 Z M 8.375 -15.796875 L 7.234375 -15.765625 L 6.375 -11.53125 C 7.070312 -11.59375 7.945312 -12.035156 9 -12.859375 C 10.09375 -13.679688 10.640625 -14.363281 10.640625 -14.90625 C 10.640625 -15.40625 10.160156 -15.691406 9.203125 -15.765625 C 8.929688 -15.785156 8.65625 -15.796875 8.375 -15.796875 Z M 8.375 -15.796875"/></g></g></g><g fill-opacity="1" fill="#000000"><g transform="translate(185.982732, 338.531884)"><g><path d="M 5.078125 -4.546875 L 4 -0.734375 C 3.601562 -0.679688 3.140625 -0.617188 2.609375 -0.546875 C 2.085938 -0.472656 1.566406 -0.40625 1.046875 -0.34375 C 0.523438 -0.289062 -0.015625 -0.226562 -0.578125 -0.15625 C 0.140625 -2.507812 0.742188 -4.5 1.234375 -6.125 C 1.734375 -7.757812 2.132812 -9.101562 2.4375 -10.15625 C 2.75 -11.207031 3.054688 -12.25 3.359375 -13.28125 C 3.671875 -14.3125 3.96875 -15.304688 4.25 -16.265625 C 4.539062 -17.234375 4.796875 -18.113281 5.015625 -18.90625 C 8.222656 -19.132812 10.671875 -19.414062 12.359375 -19.75 C 12.203125 -18.03125 12.070312 -16 11.96875 -13.65625 C 11.738281 -8.988281 11.546875 -4.6875 11.390625 -0.75 C 10.867188 -0.664062 10.359375 -0.585938 9.859375 -0.515625 C 9.367188 -0.453125 8.859375 -0.375 8.328125 -0.28125 C 7.804688 -0.195312 7.328125 -0.117188 6.890625 -0.046875 C 7.085938 -1.710938 7.253906 -3.210938 7.390625 -4.546875 Z M 5.703125 -7.203125 L 7.625 -7.34375 C 7.625 -7.445312 7.632812 -7.625 7.65625 -7.875 C 7.6875 -8.125 7.71875 -8.410156 7.75 -8.734375 C 7.894531 -10.597656 8.039062 -12.328125 8.1875 -13.921875 L 8.375 -16.234375 L 7.96875 -16.203125 Z M 5.703125 -7.203125"/></g></g></g><g fill-opacity="1" fill="#000000"><g transform="translate(198.73089, 338.531884)"><g><path d="M 6.015625 -4.421875 C 6.441406 -4.421875 6.898438 -4.691406 7.390625 -5.234375 C 7.867188 -5.785156 8.179688 -6.359375 8.328125 -6.953125 L 11.375 -5.71875 C 10.59375 -3.894531 9.566406 -2.445312 8.296875 -1.375 C 7.171875 -0.425781 6.019531 0.046875 4.84375 0.046875 C 3.726562 0.046875 2.828125 -0.453125 2.140625 -1.453125 C 1.410156 -2.523438 1.046875 -3.9375 1.046875 -5.6875 C 1.046875 -7.445312 1.273438 -9.140625 1.734375 -10.765625 C 2.191406 -12.398438 2.835938 -13.863281 3.671875 -15.15625 C 4.503906 -16.445312 5.492188 -17.488281 6.640625 -18.28125 C 7.796875 -19.082031 9.0625 -19.484375 10.4375 -19.484375 C 11.320312 -19.484375 12.078125 -19.144531 12.703125 -18.46875 C 13.304688 -17.78125 13.609375 -16.867188 13.609375 -15.734375 L 13.609375 -15.40625 C 13.609375 -15.300781 13.597656 -15.1875 13.578125 -15.0625 L 10.09375 -14.125 C 9.882812 -14.5625 9.632812 -14.78125 9.34375 -14.78125 C 9.0625 -14.78125 8.765625 -14.613281 8.453125 -14.28125 C 8.140625 -13.945312 7.832031 -13.519531 7.53125 -13 C 7.226562 -12.488281 6.9375 -11.90625 6.65625 -11.25 C 6.382812 -10.601562 6.144531 -9.945312 5.9375 -9.28125 C 5.445312 -7.832031 5.203125 -6.660156 5.203125 -5.765625 C 5.203125 -4.867188 5.472656 -4.421875 6.015625 -4.421875 Z M 6.015625 -4.421875"/></g></g></g><g fill-opacity="1" fill="#000000"><g transform="translate(210.984858, 338.531884)"><g><path d="M 2.734375 -15.65625 L 2.859375 -19.0625 C 3.765625 -19 4.675781 -18.96875 5.59375 -18.96875 C 8.019531 -18.96875 10.390625 -19.113281 12.703125 -19.40625 L 12.40625 -17.984375 C 12.320312 -17.578125 12.238281 -17.160156 12.15625 -16.734375 C 12.082031 -16.316406 12.007812 -15.953125 11.9375 -15.640625 C 11.539062 -15.535156 11.140625 -15.457031 10.734375 -15.40625 C 10.335938 -15.363281 9.953125 -15.3125 9.578125 -15.25 C 9.265625 -13.914062 8.953125 -12.257812 8.640625 -10.28125 C 7.941406 -5.90625 7.457031 -2.722656 7.1875 -0.734375 L 2.390625 0.03125 C 3.796875 -6.5625 4.742188 -11.722656 5.234375 -15.453125 C 4.816406 -15.503906 4.398438 -15.519531 3.984375 -15.5 C 3.566406 -15.488281 3.148438 -15.539062 2.734375 -15.65625 Z M 2.734375 -15.65625"/></g></g></g><g fill-opacity="1" fill="#000000"><g transform="translate(221.860295, 338.531884)"><g><path d="M 7.828125 -19.296875 C 5.847656 -9.242188 4.644531 -2.984375 4.21875 -0.515625 C 3.726562 -0.515625 2.882812 -0.4375 1.6875 -0.28125 C 0.488281 -0.125 -0.125 -0.0390625 -0.15625 -0.03125 C 0.394531 -2.039062 0.90625 -4.234375 1.375 -6.609375 C 2.445312 -12.035156 3.210938 -16.050781 3.671875 -18.65625 Z M 7.828125 -19.296875"/></g></g></g><g fill-opacity="1" fill="#000000"><g transform="translate(228.418066, 338.531884)"><g><path d="M 1.5625 0.234375 C 2.351562 -7.929688 2.800781 -14.460938 2.90625 -19.359375 C 4.195312 -19.359375 5.441406 -19.410156 6.640625 -19.515625 L 7.046875 -19.5625 C 6.859375 -17.5 6.691406 -15.800781 6.546875 -14.46875 C 6.410156 -13.144531 6.300781 -12.070312 6.21875 -11.25 C 6.144531 -10.425781 6.078125 -9.632812 6.015625 -8.875 C 5.890625 -7.570312 5.757812 -6.304688 5.625 -5.078125 L 6.109375 -5.078125 L 9.078125 -19.21875 C 9.566406 -19.238281 10.046875 -19.265625 10.515625 -19.296875 C 10.984375 -19.335938 11.457031 -19.367188 11.9375 -19.390625 C 12.425781 -19.421875 12.878906 -19.460938 13.296875 -19.515625 C 12.546875 -17.097656 11.894531 -14.789062 11.34375 -12.59375 C 10.800781 -10.40625 10.328125 -8.492188 9.921875 -6.859375 C 9.515625 -5.234375 9.035156 -3.21875 8.484375 -0.8125 Z M 1.5625 0.234375"/></g></g></g><g fill-opacity="1" fill="#000000"><g transform="translate(239.735673, 338.531884)"><g><path d="M 0.203125 0.03125 L 3.6875 -18.90625 L 12.125 -19.640625 C 12 -19.242188 11.894531 -18.859375 11.8125 -18.484375 C 11.726562 -18.109375 11.640625 -17.738281 11.546875 -17.375 C 11.460938 -17.007812 11.394531 -16.691406 11.34375 -16.421875 C 10.820312 -16.367188 10.109375 -16.34375 9.203125 -16.34375 L 7.421875 -16.34375 L 6.484375 -11.546875 C 7.429688 -11.597656 8.222656 -11.632812 8.859375 -11.65625 C 9.503906 -11.675781 9.925781 -11.691406 10.125 -11.703125 C 10.050781 -11.203125 9.984375 -10.710938 9.921875 -10.234375 C 9.859375 -9.753906 9.785156 -9.265625 9.703125 -8.765625 C 9.515625 -8.742188 9.21875 -8.726562 8.8125 -8.71875 C 8.414062 -8.71875 8 -8.707031 7.5625 -8.6875 C 7.132812 -8.664062 6.648438 -8.648438 6.109375 -8.640625 L 5.203125 -3.71875 L 9.078125 -4.34375 L 8.8125 -1.296875 Z M 0.203125 0.03125"/></g></g></g><g fill-opacity="1" fill="#000000"><g transform="translate(141.296131, 375.213953)"><g><path d="M 5.046875 -3.75 C 5.703125 -3.800781 6.625 -3.828125 7.8125 -3.828125 C 7.84375 -3.148438 7.890625 -2.597656 7.953125 -2.171875 C 8.023438 -1.742188 8.070312 -1.429688 8.09375 -1.234375 C 8.125 -1.035156 8.148438 -0.898438 8.171875 -0.828125 L 7.359375 -0.859375 C 5.535156 -0.859375 3.722656 -0.691406 1.921875 -0.359375 C 1.335938 -0.242188 0.800781 -0.109375 0.3125 0.046875 C 0.726562 -3.160156 1.273438 -6.53125 1.953125 -10.0625 C 2.640625 -13.601562 3.226562 -16.578125 3.71875 -18.984375 L 8.40625 -19.609375 C 6.789062 -12.773438 5.847656 -8.578125 5.578125 -7.015625 C 5.304688 -5.460938 5.128906 -4.375 5.046875 -3.75 Z M 5.046875 -3.75"/></g></g></g><g fill-opacity="1" fill="#000000"><g transform="translate(150.558943, 375.213953)"><g><path d="M 0.203125 0.03125 L 3.6875 -18.90625 L 12.125 -19.640625 C 12 -19.242188 11.894531 -18.859375 11.8125 -18.484375 C 11.726562 -18.109375 11.640625 -17.738281 11.546875 -17.375 C 11.460938 -17.007812 11.394531 -16.691406 11.34375 -16.421875 C 10.820312 -16.367188 10.109375 -16.34375 9.203125 -16.34375 L 7.421875 -16.34375 L 6.484375 -11.546875 C 7.429688 -11.597656 8.222656 -11.632812 8.859375 -11.65625 C 9.503906 -11.675781 9.925781 -11.691406 10.125 -11.703125 C 10.050781 -11.203125 9.984375 -10.710938 9.921875 -10.234375 C 9.859375 -9.753906 9.785156 -9.265625 9.703125 -8.765625 C 9.515625 -8.742188 9.21875 -8.726562 8.8125 -8.71875 C 8.414062 -8.71875 8 -8.707031 7.5625 -8.6875 C 7.132812 -8.664062 6.648438 -8.648438 6.109375 -8.640625 L 5.203125 -3.71875 L 9.078125 -4.34375 L 8.8125 -1.296875 Z M 0.203125 0.03125"/></g></g></g><g fill-opacity="1" fill="#000000"><g transform="translate(160.862156, 375.213953)"><g><path d="M 6.015625 -4.421875 C 6.441406 -4.421875 6.898438 -4.691406 7.390625 -5.234375 C 7.867188 -5.785156 8.179688 -6.359375 8.328125 -6.953125 L 11.375 -5.71875 C 10.59375 -3.894531 9.566406 -2.445312 8.296875 -1.375 C 7.171875 -0.425781 6.019531 0.046875 4.84375 0.046875 C 3.726562 0.046875 2.828125 -0.453125 2.140625 -1.453125 C 1.410156 -2.523438 1.046875 -3.9375 1.046875 -5.6875 C 1.046875 -7.445312 1.273438 -9.140625 1.734375 -10.765625 C 2.191406 -12.398438 2.835938 -13.863281 3.671875 -15.15625 C 4.503906 -16.445312 5.492188 -17.488281 6.640625 -18.28125 C 7.796875 -19.082031 9.0625 -19.484375 10.4375 -19.484375 C 11.320312 -19.484375 12.078125 -19.144531 12.703125 -18.46875 C 13.304688 -17.78125 13.609375 -16.867188 13.609375 -15.734375 L 13.609375 -15.40625 C 13.609375 -15.300781 13.597656 -15.1875 13.578125 -15.0625 L 10.09375 -14.125 C 9.882812 -14.5625 9.632812 -14.78125 9.34375 -14.78125 C 9.0625 -14.78125 8.765625 -14.613281 8.453125 -14.28125 C 8.140625 -13.945312 7.832031 -13.519531 7.53125 -13 C 7.226562 -12.488281 6.9375 -11.90625 6.65625 -11.25 C 6.382812 -10.601562 6.144531 -9.945312 5.9375 -9.28125 C 5.445312 -7.832031 5.203125 -6.660156 5.203125 -5.765625 C 5.203125 -4.867188 5.472656 -4.421875 6.015625 -4.421875 Z M 6.015625 -4.421875"/></g></g></g><g fill-opacity="1" fill="#000000"><g transform="translate(173.116121, 375.213953)"><g><path d="M 2.734375 -15.65625 L 2.859375 -19.0625 C 3.765625 -19 4.675781 -18.96875 5.59375 -18.96875 C 8.019531 -18.96875 10.390625 -19.113281 12.703125 -19.40625 L 12.40625 -17.984375 C 12.320312 -17.578125 12.238281 -17.160156 12.15625 -16.734375 C 12.082031 -16.316406 12.007812 -15.953125 11.9375 -15.640625 C 11.539062 -15.535156 11.140625 -15.457031 10.734375 -15.40625 C 10.335938 -15.363281 9.953125 -15.3125 9.578125 -15.25 C 9.265625 -13.914062 8.953125 -12.257812 8.640625 -10.28125 C 7.941406 -5.90625 7.457031 -2.722656 7.1875 -0.734375 L 2.390625 0.03125 C 3.796875 -6.5625 4.742188 -11.722656 5.234375 -15.453125 C 4.816406 -15.503906 4.398438 -15.519531 3.984375 -15.5 C 3.566406 -15.488281 3.148438 -15.539062 2.734375 -15.65625 Z M 2.734375 -15.65625"/></g></g></g><g fill-opacity="1" fill="#000000"><g transform="translate(183.991554, 375.213953)"><g><path d="M 3.53125 -18.9375 C 3.914062 -18.96875 4.363281 -19.007812 4.875 -19.0625 C 5.382812 -19.113281 5.882812 -19.160156 6.375 -19.203125 C 6.875 -19.253906 7.394531 -19.304688 7.9375 -19.359375 C 7.488281 -17.222656 7.132812 -15.53125 6.875 -14.28125 C 6.613281 -13.03125 6.40625 -12.03125 6.25 -11.28125 C 6.09375 -10.539062 5.953125 -9.859375 5.828125 -9.234375 C 5.546875 -7.921875 5.363281 -7.0625 5.28125 -6.65625 C 5.019531 -5.457031 4.890625 -4.6875 4.890625 -4.34375 C 4.890625 -4 4.960938 -3.734375 5.109375 -3.546875 C 5.253906 -3.367188 5.453125 -3.28125 5.703125 -3.28125 C 5.960938 -3.28125 6.191406 -3.398438 6.390625 -3.640625 C 6.585938 -3.878906 6.75 -4.164062 6.875 -4.5 C 7.007812 -4.832031 7.109375 -5.171875 7.171875 -5.515625 C 7.242188 -5.859375 7.316406 -6.207031 7.390625 -6.5625 C 7.472656 -6.925781 7.578125 -7.421875 7.703125 -8.046875 C 7.835938 -8.679688 7.96875 -9.34375 8.09375 -10.03125 C 8.226562 -10.71875 8.363281 -11.414062 8.5 -12.125 C 8.863281 -13.945312 9.289062 -16.253906 9.78125 -19.046875 L 13.8125 -19.296875 L 13.6875 -18.625 C 13.476562 -17.53125 13.25 -16.269531 13 -14.84375 C 12.75 -13.414062 12.519531 -12.179688 12.3125 -11.140625 C 11.769531 -8.429688 11.367188 -6.507812 11.109375 -5.375 C 10.847656 -4.238281 10.488281 -3.3125 10.03125 -2.59375 C 9.570312 -1.882812 9.035156 -1.296875 8.421875 -0.828125 C 7.265625 0.0351562 5.921875 0.46875 4.390625 0.46875 C 3.453125 0.46875 2.648438 0.207031 1.984375 -0.3125 C 1.210938 -0.9375 0.828125 -1.757812 0.828125 -2.78125 C 0.828125 -2.851562 0.828125 -2.921875 0.828125 -2.984375 C 0.828125 -3.054688 0.847656 -3.289062 0.890625 -3.6875 C 0.941406 -4.09375 1.046875 -4.8125 1.203125 -5.84375 C 1.359375 -6.875 1.523438 -7.945312 1.703125 -9.0625 C 1.890625 -10.1875 2.085938 -11.3125 2.296875 -12.4375 C 2.503906 -13.5625 2.691406 -14.582031 2.859375 -15.5 C 3.242188 -17.476562 3.46875 -18.625 3.53125 -18.9375 Z M 3.53125 -18.9375"/></g></g></g><g fill-opacity="1" fill="#000000"><g transform="translate(196.375572, 375.213953)"><g><path d="M 8.109375 -0.421875 C 6.773438 -5.140625 6.082031 -7.816406 6.03125 -8.453125 L 5.703125 -8.34375 C 5.128906 -5.15625 4.703125 -2.738281 4.421875 -1.09375 L 0.109375 0.03125 C 1.910156 -8.695312 3.007812 -14.890625 3.40625 -18.546875 C 5.414062 -19.171875 7.671875 -19.484375 10.171875 -19.484375 C 12.046875 -19.484375 13.15625 -18.832031 13.5 -17.53125 C 13.601562 -17.132812 13.65625 -16.640625 13.65625 -16.046875 C 13.65625 -15.460938 13.535156 -14.828125 13.296875 -14.140625 C 13.054688 -13.453125 12.726562 -12.796875 12.3125 -12.171875 C 11.4375 -10.910156 10.367188 -9.941406 9.109375 -9.265625 C 9.785156 -7.804688 10.382812 -6.429688 10.90625 -5.140625 C 11.4375 -3.847656 11.882812 -2.757812 12.25 -1.875 Z M 8.375 -15.796875 L 7.234375 -15.765625 L 6.375 -11.53125 C 7.070312 -11.59375 7.945312 -12.035156 9 -12.859375 C 10.09375 -13.679688 10.640625 -14.363281 10.640625 -14.90625 C 10.640625 -15.40625 10.160156 -15.691406 9.203125 -15.765625 C 8.929688 -15.785156 8.65625 -15.796875 8.375 -15.796875 Z M 8.375 -15.796875"/></g></g></g><g fill-opacity="1" fill="#000000"><g transform="translate(209.435851, 375.213953)"><g><path d="M 0.203125 0.03125 L 3.6875 -18.90625 L 12.125 -19.640625 C 12 -19.242188 11.894531 -18.859375 11.8125 -18.484375 C 11.726562 -18.109375 11.640625 -17.738281 11.546875 -17.375 C 11.460938 -17.007812 11.394531 -16.691406 11.34375 -16.421875 C 10.820312 -16.367188 10.109375 -16.34375 9.203125 -16.34375 L 7.421875 -16.34375 L 6.484375 -11.546875 C 7.429688 -11.597656 8.222656 -11.632812 8.859375 -11.65625 C 9.503906 -11.675781 9.925781 -11.691406 10.125 -11.703125 C 10.050781 -11.203125 9.984375 -10.710938 9.921875 -10.234375 C 9.859375 -9.753906 9.785156 -9.265625 9.703125 -8.765625 C 9.515625 -8.742188 9.21875 -8.726562 8.8125 -8.71875 C 8.414062 -8.71875 8 -8.707031 7.5625 -8.6875 C 7.132812 -8.664062 6.648438 -8.648438 6.109375 -8.640625 L 5.203125 -3.71875 L 9.078125 -4.34375 L 8.8125 -1.296875 Z M 0.203125 0.03125"/></g></g></g><g fill-opacity="1" fill="#000000"><g transform="translate(219.739066, 375.213953)"><g><path d="M 9.734375 -13.609375 C 9.816406 -13.953125 9.859375 -14.3125 9.859375 -14.6875 C 9.859375 -15.070312 9.757812 -15.378906 9.5625 -15.609375 C 9.375 -15.847656 9.171875 -15.96875 8.953125 -15.96875 C 8.742188 -15.96875 8.535156 -15.914062 8.328125 -15.8125 C 8.117188 -15.707031 7.910156 -15.570312 7.703125 -15.40625 C 7.210938 -15 6.96875 -14.566406 6.96875 -14.109375 C 6.96875 -13.648438 7.085938 -13.273438 7.328125 -12.984375 C 7.578125 -12.703125 7.878906 -12.441406 8.234375 -12.203125 C 8.585938 -11.960938 8.972656 -11.710938 9.390625 -11.453125 C 9.804688 -11.191406 10.195312 -10.859375 10.5625 -10.453125 C 11.394531 -9.484375 11.8125 -8.191406 11.8125 -6.578125 C 11.8125 -4.640625 11.097656 -3.035156 9.671875 -1.765625 C 8.328125 -0.554688 6.617188 0.046875 4.546875 0.046875 C 3.023438 0.046875 1.628906 -0.75 0.359375 -2.34375 L 2.34375 -6.21875 C 2.582031 -5.726562 3.050781 -5.285156 3.75 -4.890625 C 4.4375 -4.472656 4.953125 -4.265625 5.296875 -4.265625 C 5.648438 -4.265625 5.941406 -4.296875 6.171875 -4.359375 C 6.410156 -4.429688 6.625 -4.539062 6.8125 -4.6875 C 7.25 -5 7.46875 -5.375 7.46875 -5.8125 C 7.46875 -6.257812 7.328125 -6.664062 7.046875 -7.03125 C 6.773438 -7.394531 6.429688 -7.738281 6.015625 -8.0625 C 5.609375 -8.394531 5.164062 -8.726562 4.6875 -9.0625 C 4.21875 -9.40625 3.78125 -9.765625 3.375 -10.140625 C 2.40625 -11.015625 1.921875 -11.925781 1.921875 -12.875 C 1.921875 -13.832031 2.191406 -14.707031 2.734375 -15.5 C 3.285156 -16.300781 3.972656 -16.992188 4.796875 -17.578125 C 5.617188 -18.160156 6.519531 -18.617188 7.5 -18.953125 C 8.476562 -19.285156 9.304688 -19.453125 9.984375 -19.453125 C 10.660156 -19.453125 11.210938 -19.390625 11.640625 -19.265625 C 12.066406 -19.148438 12.4375 -18.972656 12.75 -18.734375 C 13.425781 -18.179688 13.765625 -17.363281 13.765625 -16.28125 C 13.765625 -16.019531 13.738281 -15.769531 13.6875 -15.53125 C 13.644531 -15.289062 13.609375 -15.019531 13.578125 -14.71875 Z M 9.734375 -13.609375"/></g></g></g><g fill-opacity="1" fill="#000000"><g transform="translate(232.409195, 375.213953)"><g><path d="M 10.359375 -19.90625 C 9.398438 -17.664062 8.523438 -15.410156 7.734375 -13.140625 C 6.953125 -10.878906 6.171875 -8.609375 5.390625 -6.328125 C 4.867188 -6.328125 4.347656 -6.304688 3.828125 -6.265625 C 3.316406 -6.234375 2.804688 -6.203125 2.296875 -6.171875 C 2.847656 -8.335938 3.382812 -10.503906 3.90625 -12.671875 C 4.425781 -14.835938 4.972656 -17.015625 5.546875 -19.203125 C 5.867188 -19.253906 6.25 -19.304688 6.6875 -19.359375 C 7.132812 -19.421875 7.578125 -19.488281 8.015625 -19.5625 C 8.460938 -19.632812 8.894531 -19.695312 9.3125 -19.75 C 9.726562 -19.800781 10.078125 -19.851562 10.359375 -19.90625 Z M 2.375 0.625 C 1.90625 0.625 1.519531 0.550781 1.21875 0.40625 C 0.925781 0.257812 0.6875 0.0703125 0.5 -0.15625 C 0.09375 -0.65625 -0.109375 -1.238281 -0.109375 -1.90625 C -0.109375 -3.03125 0.382812 -3.828125 1.375 -4.296875 C 1.707031 -4.453125 2.097656 -4.53125 2.546875 -4.53125 C 3.585938 -4.53125 4.363281 -4.285156 4.875 -3.796875 C 5.382812 -3.304688 5.640625 -2.753906 5.640625 -2.140625 C 5.640625 -1.390625 5.351562 -0.753906 4.78125 -0.234375 C 4.144531 0.335938 3.34375 0.625 2.375 0.625 Z M 2.375 0.625"/></g></g></g><g clip-path="url(#d82d3d6adc)"><path fill-rule="evenodd" fill-opacity="1" d="M 304.820312 313.503906 C 304.820312 313.503906 305.21875 328.429688 323.882812 322.8125 C 342.519531 317.21875 346.683594 307.734375 346.683594 307.734375 C 346.683594 307.734375 366.648438 319.75 384.261719 312.183594 C 401.898438 304.617188 403.597656 299.753906 403.597656 299.753906 C 403.597656 299.753906 419.980469 308.6875 432.394531 305.496094 C 444.8125 302.304688 448.976562 294.191406 448.976562 294.191406 C 448.976562 294.191406 473.625 309.433594 483.105469 303.25 C 492.601562 297.089844 501.242188 290.417969 501.242188 290.417969 C 501.242188 290.417969 477.386719 318.933594 485.066406 330.144531 C 492.742188 341.339844 504.566406 347.878906 504.566406 347.878906 C 504.566406 347.878906 480.148438 368.714844 485.738281 384.710938 C 487.410156 389.488281 494.734375 400.609375 494.632812 400.519531 C 464.605469 378.378906 439.558594 406.414062 439.683594 406.453125 C 439.683594 406.453125 428.160156 393.6875 416.417969 395.234375 C 404.703125 396.78125 400.039062 404.019531 400.039062 404.019531 C 400.039062 404.019531 390.730469 393.136719 376.121094 396.175781 C 361.519531 399.195312 360.847656 404.246094 360.847656 404.246094 C 360.847656 404.246094 345.382812 393.136719 327.410156 395.148438 C 309.4375 397.136719 307.03125 402.460938 307.03125 402.460938 C 307.03125 402.460938 316.863281 387.808594 311.46875 377.152344 C 306.074219 366.5 304.371094 365.855469 304.371094 365.855469 C 313.867188 354.242188 312.660156 344.136719 301 333.84375 C 301.007812 333.859375 306.074219 325.933594 304.820312 313.503906 Z M 304.820312 313.503906" fill="#000000"/></g><path fill-rule="evenodd" fill-opacity="1" d="M 306.074219 319.6875 C 306.074219 319.6875 307.492188 329.414062 325.722656 324.070312 C 343.925781 318.742188 347.980469 309.707031 347.980469 309.707031 C 347.980469 309.707031 367.480469 321.15625 384.699219 313.941406 C 401.921875 306.753906 403.574219 302.117188 403.574219 302.117188 C 403.574219 302.117188 419.578125 310.628906 431.695312 307.585938 C 443.832031 304.546875 447.910156 296.828125 447.910156 296.828125 C 447.910156 296.828125 471.953125 311.320312 481.246094 305.449219 C 490.515625 299.578125 494.867188 296.726562 494.867188 296.726562 C 494.867188 296.726562 475.65625 320.378906 483.152344 331.023438 C 490.664062 341.695312 502.191406 347.925781 502.191406 347.925781 C 502.191406 347.925781 478.359375 367.742188 483.800781 382.976562 C 485.597656 387.941406 488.113281 392.261719 489.574219 396.058594 C 460.339844 374.882812 438.707031 403.609375 438.816406 403.648438 C 438.816406 403.648438 427.578125 391.484375 416.113281 392.976562 C 404.648438 394.449219 400.109375 401.347656 400.109375 401.347656 C 400.109375 401.347656 391.003906 390.992188 376.757812 393.882812 C 362.484375 396.757812 361.835938 401.558594 361.835938 401.558594 C 361.835938 401.558594 346.722656 390.992188 329.175781 392.898438 C 311.617188 394.785156 309.273438 399.863281 309.273438 399.863281 C 309.273438 399.863281 318.878906 385.9375 313.601562 375.792969 C 308.332031 365.667969 306.675781 365.039062 306.675781 365.039062 C 315.96875 353.992188 314.753906 344.367188 303.390625 334.574219 C 303.390625 334.574219 307.28125 331.511719 306.074219 319.6875 Z M 306.074219 319.6875" fill="#ffffff"/></svg>