<svg version="1.0" preserveAspectRatio="xMidYMid meet" viewBox="356.9493813273341 98.90100018315 253.76827896512938 52.920000098" zoomAndPan="magnify" xmlns:xlink="http://www.w3.org/1999/xlink" xmlns="http://www.w3.org/2000/svg" style="max-height: 500px" width="253.76827896512938" height="52.920000098"><defs><g/><clipPath id="59cbf7de09"><path clip-rule="nonzero" d="M 0.886719 0 L 959.113281 0 L 959.113281 539 L 0.886719 539 Z M 0.886719 0"/></clipPath><clipPath id="9d9da5a456"><path clip-rule="nonzero" d="M 361 111 L 407 111 L 407 146.539062 L 361 146.539062 Z M 361 111"/></clipPath><clipPath id="8f9bb1a378"><path clip-rule="nonzero" d="M 360.207031 111 L 407 111 L 407 146.539062 L 360.207031 146.539062 Z M 360.207031 111"/></clipPath><clipPath id="224f7d178b"><path clip-rule="nonzero" d="M 400 138 L 407 138 L 407 146.539062 L 400 146.539062 Z M 400 138"/></clipPath><clipPath id="04be96f827"><path clip-rule="nonzero" d="M 399 138 L 407 138 L 407 146.539062 L 399 146.539062 Z M 399 138"/></clipPath><clipPath id="0c17570826"><path clip-rule="nonzero" d="M 560 111 L 606 111 L 606 146.539062 L 560 146.539062 Z M 560 111"/></clipPath><clipPath id="db29042cf4"><path clip-rule="nonzero" d="M 560 111 L 606.5 111 L 606.5 146.539062 L 560 146.539062 Z M 560 111"/></clipPath><clipPath id="28720fe1a9"><path clip-rule="nonzero" d="M 560 138 L 568 138 L 568 146.539062 L 560 146.539062 Z M 560 138"/></clipPath><clipPath id="a8b3395802"><path clip-rule="nonzero" d="M 399 103.867188 L 568 103.867188 L 568 139 L 399 139 Z M 399 103.867188"/></clipPath></defs><g clip-path="url(#59cbf7de09)"><path fill-rule="nonzero" fill-opacity="1" d="M 0.886719 0 L 959.113281 0 L 959.113281 539 L 0.886719 539 Z M 0.886719 0" fill="transparent"/><path fill-rule="nonzero" fill-opacity="1" d="M 0.886719 0 L 959.113281 0 L 959.113281 539 L 0.886719 539 Z M 0.886719 0" fill="transparent"/></g><g clip-path="url(#9d9da5a456)"><path fill-rule="nonzero" fill-opacity="1" d="M 406.035156 146.167969 L 361.058594 146.167969 L 376.035156 129.019531 L 361.058594 111.867188 L 403.136719 111.867188 Z M 406.035156 146.167969" fill="#ffffff"/></g><g clip-path="url(#8f9bb1a378)"><path fill-rule="nonzero" fill-opacity="1" d="M 406.433594 146.535156 L 360.246094 146.535156 L 375.550781 129.015625 L 360.246094 111.496094 L 403.472656 111.496094 Z M 361.863281 145.800781 L 405.636719 145.800781 L 402.796875 112.234375 L 361.863281 112.234375 L 376.523438 129.019531 Z M 361.863281 145.800781" fill="#231f20"/></g><g clip-path="url(#224f7d178b)"><path fill-rule="nonzero" fill-opacity="1" d="M 400.117188 138.84375 L 406.035156 146.167969" fill="#ffffff"/></g><g clip-path="url(#04be96f827)"><path fill-rule="nonzero" fill-opacity="1" d="M 406.035156 146.535156 C 405.929688 146.535156 405.824219 146.488281 405.75 146.398438 L 399.832031 139.078125 C 399.707031 138.917969 399.730469 138.6875 399.886719 138.558594 C 400.042969 138.429688 400.273438 138.453125 400.402344 138.613281 L 406.320312 145.933594 C 406.449219 146.09375 406.425781 146.324219 406.265625 146.453125 C 406.199219 146.507812 406.117188 146.535156 406.035156 146.535156 Z M 406.035156 146.535156" fill="#231f20"/></g><g clip-path="url(#0c17570826)"><path fill-rule="nonzero" fill-opacity="1" d="M 560.679688 146.054688 L 605.65625 146.054688 L 590.664062 128.90625 L 605.65625 111.753906 L 563.574219 111.753906 Z M 560.679688 146.054688" fill="#ffffff"/></g><g clip-path="url(#db29042cf4)"><path fill-rule="nonzero" fill-opacity="1" d="M 606.457031 146.421875 L 560.269531 146.421875 L 563.234375 111.386719 L 606.457031 111.386719 L 591.15625 128.90625 Z M 561.070312 145.6875 L 604.839844 145.6875 L 590.179688 128.90625 L 604.839844 112.121094 L 563.90625 112.121094 Z M 561.070312 145.6875" fill="#231f20"/></g><path fill-rule="nonzero" fill-opacity="1" d="M 566.917969 138.742188 L 560.777344 145.925781" fill="#ffffff"/><g clip-path="url(#28720fe1a9)"><path fill-rule="nonzero" fill-opacity="1" d="M 560.777344 146.292969 C 560.691406 146.292969 560.609375 146.261719 560.539062 146.203125 C 560.386719 146.070312 560.367188 145.839844 560.5 145.683594 L 566.640625 138.5 C 566.773438 138.347656 567.003906 138.328125 567.160156 138.460938 C 567.3125 138.59375 567.328125 138.828125 567.199219 138.980469 L 561.054688 146.164062 C 560.984375 146.25 560.878906 146.292969 560.777344 146.292969 Z M 560.777344 146.292969" fill="#231f20"/></g><path fill-rule="nonzero" fill-opacity="1" d="M 400.117188 104.238281 L 566.878906 104.238281 L 566.878906 138.539062 L 400.117188 138.539062 Z M 400.117188 104.238281" fill="#ffffff"/><g clip-path="url(#a8b3395802)"><path fill-rule="nonzero" fill-opacity="1" d="M 567.253906 138.90625 L 399.75 138.90625 L 399.75 103.867188 L 567.253906 103.867188 Z M 400.496094 138.167969 L 566.523438 138.167969 L 566.523438 104.605469 L 400.496094 104.605469 Z M 400.496094 138.167969" fill="#231f20"/></g><g fill-opacity="1" fill="#000000"><g transform="translate(406.539867, 121.571602)"><g><path d="M 8.957031 0 L 7.433594 -2.410156 C 6.746094 -3.4375 5.886719 -3.789062 4.6875 -3.789062 L 4.667969 -3.789062 C 4.722656 -3.789062 4.789062 -3.789062 4.855469 -3.789062 C 4.914062 -3.789062 4.960938 -3.777344 5.027344 -3.789062 C 6.554688 -3.835938 8.75 -4.582031 8.75 -7.304688 C 8.75 -10.15625 7 -10.503906 5.46875 -10.503906 L 2.4375 -10.535156 C 2.4375 -10.535156 2.4375 -8.464844 4.335938 -8.464844 C 6.40625 -8.464844 6.574219 -7.851562 6.574219 -6.886719 C 6.574219 -6.121094 5.90625 -5.507812 4.488281 -5.507812 L 2.445312 -5.507812 L 2.4375 -8.117188 L 2.4375 -10.535156 C 1.21875 -10.476562 0 -9.4375 0 -8.199219 L 0 0 L 0.105469 0 C 0.140625 0 0.179688 0 0.21875 0 C 1.4375 -0.0585938 2.398438 -1.058594 2.398438 -2.296875 L 2.398438 -5.695312 C 2.429688 -4.722656 3.164062 -4.167969 3.941406 -3.929688 L 6.234375 0 Z M 8.957031 0"/></g></g></g><g fill-opacity="1" fill="#000000"><g transform="translate(415.960615, 121.571602)"><g><path d="M 2.410156 -10.355469 C 2.429688 -9.105469 3.449219 -8.464844 4.703125 -8.464844 L 7 -8.464844 L 7 -10.503906 L 2.296875 -10.503906 C 1.03125 -10.503906 0 -9.476562 0 -8.199219 L 0 -2.484375 C 0 -1.105469 1.105469 0 2.484375 0 L 6.785156 0 L 6.785156 -2.070312 L 4.542969 -2.070312 C 3.410156 -2.058594 2.484375 -1.144531 2.484375 0 L 2.4375 -5.773438 C 2.703125 -4.867188 3.078125 -4.316406 4.875 -4.316406 L 6.839844 -4.316406 L 6.839844 -6.214844 L 2.4375 -6.214844 Z M 2.410156 -10.355469"/></g></g></g><g fill-opacity="1" fill="#000000"><g transform="translate(423.436803, 121.571602)"><g><path d="M 2.410156 -10.421875 C 2.410156 -9.144531 3.4375 -8.457031 4.714844 -8.457031 L 8.777344 -8.457031 L 8.777344 -10.523438 L 2.296875 -10.523438 C 1.03125 -10.523438 0 -9.496094 0 -8.21875 L 0 -2.578125 C 0 -1.210938 1.058594 -0.09375 2.398438 0 C 2.410156 0 2.417969 0 2.429688 0 L 6.6875 0 C 7.964844 0 8.597656 -1.03125 8.597656 -2.296875 L 8.597656 -6.234375 L 3.949219 -6.234375 L 3.949219 -6.121094 C 3.949219 -4.847656 4.980469 -4.316406 6.253906 -4.316406 L 6.574219 -4.316406 L 6.574219 -0.433594 C 6.574219 -1.53125 5.667969 -2.078125 4.789062 -2.078125 L 2.410156 -2.070312 Z M 2.410156 -10.421875"/></g></g></g><g fill-opacity="1" fill="#000000"><g transform="translate(432.678199, 121.571602)"><g><path d="M 2.183594 -3.0625 C 0.964844 -3.003906 0 -1.992188 0 -0.765625 L 0 0 L 2.398438 0 L 2.398438 -10.554688 L 2.296875 -10.554688 C 1.019531 -10.554688 0 -9.523438 0 -8.246094 L 0 -3.0625 L 2.296875 -3.0625 C 2.257812 -3.0625 2.21875 -3.0625 2.183594 -3.0625 Z M 2.183594 -3.0625"/></g></g></g><g fill-opacity="1" fill="#000000"><g transform="translate(435.557282, 121.571602)"><g><path d="M 2.183594 -10.390625 C 2.183594 -9.125 2.910156 -8.464844 3.949219 -8.464844 L 7.21875 -8.464844 L 7.21875 -10.503906 L 2.183594 -10.503906 C 0.972656 -10.503906 0 -9.523438 0 -8.3125 L 0 -6.339844 C 0 -5.128906 0.972656 -4.15625 2.183594 -4.15625 L 5.035156 -4.15625 L 5.035156 -0.292969 C 5.007812 -1.511719 3.949219 -2.070312 2.910156 -2.070312 L 0.0390625 -2.078125 L 0 0 L 5.140625 0 C 6.414062 0 7.21875 -1.019531 7.21875 -2.296875 L 7.21875 -4.261719 C 7.21875 -5.535156 6.1875 -6.339844 4.921875 -6.339844 L 2.183594 -6.339844 Z M 2.183594 -10.390625"/></g></g></g><g fill-opacity="1" fill="#000000"><g transform="translate(443.250585, 121.571602)"><g><path d="M 5.960938 -10.523438 L 3.609375 -10.496094 L 3.609375 -8.265625 L 3.710938 0 C 5.273438 0 6.113281 -1.199219 6.113281 -2.378906 L 6.113281 -10.476562 C 6.113281 -9.210938 7.140625 -8.457031 8.410156 -8.457031 L 9.617188 -8.457031 L 9.589844 -10.523438 Z M 1.191406 -8.457031 C 2.457031 -8.457031 3.609375 -9.230469 3.609375 -10.496094 L 0.0078125 -10.496094 L 0 -8.457031 Z M 1.191406 -8.457031"/></g></g></g><g fill-opacity="1" fill="#000000"><g transform="translate(453.332116, 121.571602)"><g><path d="M 8.957031 0 L 7.433594 -2.410156 C 6.746094 -3.4375 5.886719 -3.789062 4.6875 -3.789062 L 4.667969 -3.789062 C 4.722656 -3.789062 4.789062 -3.789062 4.855469 -3.789062 C 4.914062 -3.789062 4.960938 -3.777344 5.027344 -3.789062 C 6.554688 -3.835938 8.75 -4.582031 8.75 -7.304688 C 8.75 -10.15625 7 -10.503906 5.46875 -10.503906 L 2.4375 -10.535156 C 2.4375 -10.535156 2.4375 -8.464844 4.335938 -8.464844 C 6.40625 -8.464844 6.574219 -7.851562 6.574219 -6.886719 C 6.574219 -6.121094 5.90625 -5.507812 4.488281 -5.507812 L 2.445312 -5.507812 L 2.4375 -8.117188 L 2.4375 -10.535156 C 1.21875 -10.476562 0 -9.4375 0 -8.199219 L 0 0 L 0.105469 0 C 0.140625 0 0.179688 0 0.21875 0 C 1.4375 -0.0585938 2.398438 -1.058594 2.398438 -2.296875 L 2.398438 -5.695312 C 2.429688 -4.722656 3.164062 -4.167969 3.941406 -3.929688 L 6.234375 0 Z M 8.957031 0"/></g></g></g><g fill-opacity="1" fill="#000000"><g transform="translate(462.752864, 121.571602)"><g><path d="M 3.484375 -3.496094 L 3.929688 -4.589844 C 4.628906 -6.734375 4.117188 -7.945312 3.941406 -8.636719 L 4.25 -7.90625 C 4.460938 -7.425781 4.808594 -6.046875 5.554688 -3.496094 Z M 2.105469 0 L 3.050781 -2.398438 L 3.46875 -3.4375 C 3.46875 -2.398438 4.308594 -1.558594 5.347656 -1.558594 L 6.234375 -1.558594 C 6.414062 -0.859375 6.753906 0 7.792969 0 L 9.183594 0 L 6.71875 -8.53125 C 6.300781 -9.9375 5.109375 -10.503906 3.65625 -10.503906 L 3.484375 -10.503906 L 0.433594 -2.410156 C 0 -1.246094 0.859375 0 2.105469 0 Z M 2.105469 0"/></g></g></g><g fill-opacity="1" fill="#000000"><g transform="translate(472.400163, 121.571602)"><g><path d="M 5.960938 -10.523438 L 3.609375 -10.496094 L 3.609375 -8.265625 L 3.710938 0 C 5.273438 0 6.113281 -1.199219 6.113281 -2.378906 L 6.113281 -10.476562 C 6.113281 -9.210938 7.140625 -8.457031 8.410156 -8.457031 L 9.617188 -8.457031 L 9.589844 -10.523438 Z M 1.191406 -8.457031 C 2.457031 -8.457031 3.609375 -9.230469 3.609375 -10.496094 L 0.0078125 -10.496094 L 0 -8.457031 Z M 1.191406 -8.457031"/></g></g></g><g fill-opacity="1" fill="#000000"><g transform="translate(482.481694, 121.571602)"><g><path d="M 2.183594 -3.0625 C 0.964844 -3.003906 0 -1.992188 0 -0.765625 L 0 0 L 2.398438 0 L 2.398438 -10.554688 L 2.296875 -10.554688 C 1.019531 -10.554688 0 -9.523438 0 -8.246094 L 0 -3.0625 L 2.296875 -3.0625 C 2.257812 -3.0625 2.21875 -3.0625 2.183594 -3.0625 Z M 2.183594 -3.0625"/></g></g></g><g fill-opacity="1" fill="#000000"><g transform="translate(485.360776, 121.571602)"><g><path d="M 2.183594 -2.070312 L 2.183594 -10.390625 C 2.191406 -9.144531 3.050781 -8.457031 4.082031 -8.457031 L 6.328125 -8.457031 L 6.386719 -0.171875 C 6.347656 -1.398438 5.320312 -2.070312 4.082031 -2.070312 Z M 2.183594 0 L 6.386719 0 C 7.597656 0 8.570312 -0.972656 8.570312 -2.183594 L 8.570312 -8.292969 C 8.570312 -9.484375 7.566406 -10.496094 6.386719 -10.523438 L 2.171875 -10.523438 C 0.972656 -10.523438 0 -9.503906 0 -8.292969 L 0 -2.183594 C 0 -0.972656 0.972656 0 2.171875 0 Z M 2.183594 0"/></g></g></g><g fill-opacity="1" fill="#000000"><g transform="translate(494.403939, 121.571602)"><g><path d="M 7.878906 -2.851562 L 8.050781 -10.515625 C 7.445312 -10.515625 5.867188 -10.582031 5.726562 -9.164062 C 5.546875 -7.445312 5.515625 -6.226562 5.695312 -4.496094 C 5.742188 -3.988281 6.246094 -2.257812 6.414062 -1.917969 C 5.546875 -2.609375 4.347656 -10.515625 2.296875 -10.515625 C 0.652344 -10.515625 0 -9.484375 0 -8.21875 L 0 -0.0078125 L 0.105469 -0.0078125 C 0.140625 -0.0078125 0.179688 -0.0078125 0.21875 -0.0078125 C 1.4375 -0.0664062 2.097656 -0.707031 2.265625 -2.089844 C 2.410156 -3.117188 2.34375 -5.734375 2.097656 -6.574219 C 1.898438 -7.265625 1.578125 -8.304688 1.40625 -8.644531 C 1.578125 -8.304688 2.285156 -7.765625 3.136719 -3.636719 C 3.695312 -0.917969 4.769531 0 5.726562 0 C 7.792969 0 7.878906 -1.871094 7.878906 -2.851562 Z M 7.878906 -2.851562"/></g></g></g><g fill-opacity="1" fill="#000000"><g transform="translate(502.918483, 121.571602)"><g/></g></g><g fill-opacity="1" fill="#000000"><g transform="translate(505.901412, 121.571602)"><g><path d="M 9.078125 -7.085938 C 9.078125 -9.722656 7.53125 -10.441406 6.394531 -10.496094 L 2.257812 -10.496094 C 1.011719 -10.496094 0 -9.484375 0 -8.238281 L 0 0 C 1.246094 0 2.277344 -0.984375 2.257812 -2.230469 L 2.183594 -8.4375 L 2.171875 -10.429688 C 2.183594 -9.15625 3.042969 -8.464844 4.082031 -8.464844 L 5.820312 -8.464844 C 6.394531 -8.464844 6.859375 -8.011719 6.859375 -7.433594 L 6.898438 -0.140625 C 6.886719 -1.398438 5.867188 -2.078125 4.601562 -2.078125 L 2.257812 -2.058594 L 2.257812 0 L 6.898438 -0.0078125 C 8.105469 -0.0078125 9.078125 -1.21875 9.078125 -3.289062 Z M 9.078125 -7.085938"/></g></g></g><g fill-opacity="1" fill="#000000"><g transform="translate(515.454323, 121.571602)"><g><path d="M 2.410156 -10.355469 C 2.429688 -9.105469 3.449219 -8.464844 4.703125 -8.464844 L 7 -8.464844 L 7 -10.503906 L 2.296875 -10.503906 C 1.03125 -10.503906 0 -9.476562 0 -8.199219 L 0 -2.484375 C 0 -1.105469 1.105469 0 2.484375 0 L 6.785156 0 L 6.785156 -2.070312 L 4.542969 -2.070312 C 3.410156 -2.058594 2.484375 -1.144531 2.484375 0 L 2.4375 -5.773438 C 2.703125 -4.867188 3.078125 -4.316406 4.875 -4.316406 L 6.839844 -4.316406 L 6.839844 -6.214844 L 2.4375 -6.214844 Z M 2.410156 -10.355469"/></g></g></g><g fill-opacity="1" fill="#000000"><g transform="translate(522.93051, 121.571602)"><g><path d="M 5.960938 -10.523438 L 3.609375 -10.496094 L 3.609375 -8.265625 L 3.710938 0 C 5.273438 0 6.113281 -1.199219 6.113281 -2.378906 L 6.113281 -10.476562 C 6.113281 -9.210938 7.140625 -8.457031 8.410156 -8.457031 L 9.617188 -8.457031 L 9.589844 -10.523438 Z M 1.191406 -8.457031 C 2.457031 -8.457031 3.609375 -9.230469 3.609375 -10.496094 L 0.0078125 -10.496094 L 0 -8.457031 Z M 1.191406 -8.457031"/></g></g></g><g fill-opacity="1" fill="#000000"><g transform="translate(533.012041, 121.571602)"><g><path d="M 3.484375 -3.496094 L 3.929688 -4.589844 C 4.628906 -6.734375 4.117188 -7.945312 3.941406 -8.636719 L 4.25 -7.90625 C 4.460938 -7.425781 4.808594 -6.046875 5.554688 -3.496094 Z M 2.105469 0 L 3.050781 -2.398438 L 3.46875 -3.4375 C 3.46875 -2.398438 4.308594 -1.558594 5.347656 -1.558594 L 6.234375 -1.558594 C 6.414062 -0.859375 6.753906 0 7.792969 0 L 9.183594 0 L 6.71875 -8.53125 C 6.300781 -9.9375 5.109375 -10.503906 3.65625 -10.503906 L 3.484375 -10.503906 L 0.433594 -2.410156 C 0 -1.246094 0.859375 0 2.105469 0 Z M 2.105469 0"/></g></g></g><g fill-opacity="1" fill="#000000"><g transform="translate(542.65934, 121.571602)"><g><path d="M 2.183594 -3.0625 C 0.964844 -3.003906 0 -1.992188 0 -0.765625 L 0 0 L 2.398438 0 L 2.398438 -10.554688 L 2.296875 -10.554688 C 1.019531 -10.554688 0 -9.523438 0 -8.246094 L 0 -3.0625 L 2.296875 -3.0625 C 2.257812 -3.0625 2.21875 -3.0625 2.183594 -3.0625 Z M 2.183594 -3.0625"/></g></g></g><g fill-opacity="1" fill="#000000"><g transform="translate(545.538423, 121.571602)"><g><path d="M 0 -2.296875 C 0 -1.058594 0.964844 -0.0585938 2.183594 0 L 2.285156 0 C 2.285156 0 2.296875 0 2.296875 0 L 6.632812 0 L 6.632812 -2.070312 L 4.488281 -2.070312 C 3.5625 -2.070312 2.769531 -1.757812 2.398438 -1.046875 L 2.398438 -8.199219 C 2.398438 -9.476562 1.371094 -10.503906 0.105469 -10.503906 L 0 -10.503906 Z M 0 -2.296875"/></g></g></g><g fill-opacity="1" fill="#000000"><g transform="translate(552.64646, 121.571602)"><g><path d="M 2.183594 -10.390625 C 2.183594 -9.125 2.910156 -8.464844 3.949219 -8.464844 L 7.21875 -8.464844 L 7.21875 -10.503906 L 2.183594 -10.503906 C 0.972656 -10.503906 0 -9.523438 0 -8.3125 L 0 -6.339844 C 0 -5.128906 0.972656 -4.15625 2.183594 -4.15625 L 5.035156 -4.15625 L 5.035156 -0.292969 C 5.007812 -1.511719 3.949219 -2.070312 2.910156 -2.070312 L 0.0390625 -2.078125 L 0 0 L 5.140625 0 C 6.414062 0 7.21875 -1.019531 7.21875 -2.296875 L 7.21875 -4.261719 C 7.21875 -5.535156 6.1875 -6.339844 4.921875 -6.339844 L 2.183594 -6.339844 Z M 2.183594 -10.390625"/></g></g></g></svg>