<svg version="1.0" preserveAspectRatio="xMidYMid meet" viewBox="286.31325084364454 302.279040559776 389.8312710911136 118.80000022" zoomAndPan="magnify" xmlns:xlink="http://www.w3.org/1999/xlink" xmlns="http://www.w3.org/2000/svg" style="max-height: 500px" width="389.8312710911136" height="118.80000022"><defs><g/><clipPath id="74aaf30665"><path clip-rule="nonzero" d="M 0.886719 0 L 959.113281 0 L 959.113281 539 L 0.886719 539 Z M 0.886719 0"/></clipPath><clipPath id="cdddf4acea"><path clip-rule="nonzero" d="M 288.089844 305.78125 L 672 305.78125 L 672 417.136719 L 288.089844 417.136719 Z M 288.089844 305.78125"/></clipPath><clipPath id="3c6810be88"><path clip-rule="nonzero" d="M 480 305.78125 L 671.910156 361.457031 L 480 417.136719 L 288.089844 361.457031 Z M 480 305.78125"/></clipPath><clipPath id="4eb5c75581"><path clip-rule="nonzero" d="M 288.089844 305.78125 L 672 305.78125 L 672 417.324219 L 288.089844 417.324219 Z M 288.089844 305.78125"/></clipPath><clipPath id="8dd06d18fd"><path clip-rule="nonzero" d="M 480 305.78125 L 671.90625 361.457031 L 480 417.136719 L 288.089844 361.457031 Z M 480 305.78125"/></clipPath></defs><g clip-path="url(#74aaf30665)"><path fill-rule="nonzero" fill-opacity="1" d="M 0.886719 0 L 959.113281 0 L 959.113281 539 L 0.886719 539 Z M 0.886719 0" fill="transparent"/><path fill-rule="nonzero" fill-opacity="1" d="M 0.886719 0 L 959.113281 0 L 959.113281 539 L 0.886719 539 Z M 0.886719 0" fill="transparent"/></g><g clip-path="url(#cdddf4acea)"><g clip-path="url(#3c6810be88)"><path fill-rule="nonzero" fill-opacity="1" d="M 288.089844 305.78125 L 671.75 305.78125 L 671.75 417.136719 L 288.089844 417.136719 Z M 288.089844 305.78125" fill="#d81414"/></g></g><g clip-path="url(#4eb5c75581)"><g clip-path="url(#8dd06d18fd)"><path stroke-miterlimit="4" stroke-opacity="1" stroke-width="6" stroke="#000000" d="M 256.351528 0.00208716 L 512.700397 74.373941 L 256.351528 148.751013 L -0.00255931 74.373941 Z M 256.351528 0.00208716" stroke-linejoin="miter" fill="none" transform="matrix(0.748614, 0, 0, 0.748614, 288.09176, 305.779688)" stroke-linecap="butt"/></g></g><g fill-opacity="1" fill="#000000"><g transform="translate(316.260972, 230.034062)"><g><path d="M 4.609375 -6.03125 L 4.609375 -5.03125 L 1.984375 -5.03125 L 1.984375 -3.4375 L 4.359375 -3.4375 L 4.359375 -2.453125 L 1.984375 -2.453125 L 1.984375 0 L 0.78125 0 L 0.78125 -6.03125 Z M 4.609375 -6.03125"/></g></g></g><g fill-opacity="1" fill="#000000"><g transform="translate(321.136557, 230.034062)"><g><path d="M 3.296875 0.09375 C 2.734375 0.09375 2.238281 -0.0195312 1.8125 -0.25 C 1.394531 -0.476562 1.066406 -0.820312 0.828125 -1.28125 C 0.585938 -1.75 0.46875 -2.328125 0.46875 -3.015625 C 0.46875 -3.703125 0.585938 -4.273438 0.828125 -4.734375 C 1.066406 -5.203125 1.394531 -5.550781 1.8125 -5.78125 C 2.238281 -6.007812 2.734375 -6.125 3.296875 -6.125 C 3.847656 -6.125 4.332031 -6.007812 4.75 -5.78125 C 5.164062 -5.5625 5.492188 -5.21875 5.734375 -4.75 C 5.972656 -4.28125 6.09375 -3.703125 6.09375 -3.015625 C 6.09375 -2.328125 5.972656 -1.75 5.734375 -1.28125 C 5.492188 -0.820312 5.164062 -0.476562 4.75 -0.25 C 4.332031 -0.0195312 3.847656 0.09375 3.296875 0.09375 Z M 3.296875 -0.953125 C 3.804688 -0.953125 4.191406 -1.113281 4.453125 -1.4375 C 4.722656 -1.769531 4.859375 -2.296875 4.859375 -3.015625 C 4.859375 -3.734375 4.722656 -4.257812 4.453125 -4.59375 C 4.191406 -4.925781 3.804688 -5.09375 3.296875 -5.09375 C 2.773438 -5.09375 2.378906 -4.925781 2.109375 -4.59375 C 1.835938 -4.257812 1.703125 -3.734375 1.703125 -3.015625 C 1.703125 -2.296875 1.835938 -1.769531 2.109375 -1.4375 C 2.378906 -1.113281 2.773438 -0.953125 3.296875 -0.953125 Z M 3.296875 -0.953125"/></g></g></g><g fill-opacity="1" fill="#000000"><g transform="translate(327.707461, 230.034062)"><g><path d="M 0.78125 0 L 0.78125 -6.03125 L 3.203125 -6.03125 C 3.828125 -6.03125 4.296875 -5.882812 4.609375 -5.59375 C 4.929688 -5.3125 5.09375 -4.914062 5.09375 -4.40625 C 5.09375 -4.039062 5 -3.738281 4.8125 -3.5 C 4.632812 -3.269531 4.359375 -3.09375 3.984375 -2.96875 L 3.984375 -2.890625 C 4.171875 -2.804688 4.320312 -2.679688 4.4375 -2.515625 C 4.5625 -2.359375 4.675781 -2.117188 4.78125 -1.796875 L 5.375 0 L 4.15625 0 L 3.5625 -1.796875 C 3.5 -1.984375 3.429688 -2.125 3.359375 -2.21875 C 3.285156 -2.320312 3.1875 -2.394531 3.0625 -2.4375 C 2.945312 -2.488281 2.796875 -2.515625 2.609375 -2.515625 L 1.984375 -2.515625 L 1.984375 0 Z M 3.0625 -3.453125 C 3.632812 -3.453125 3.921875 -3.722656 3.921875 -4.265625 C 3.921875 -4.816406 3.632812 -5.09375 3.0625 -5.09375 L 1.984375 -5.09375 L 1.984375 -3.453125 Z M 3.0625 -3.453125"/></g></g></g><g fill-opacity="1" fill="#000000"><g transform="translate(333.346146, 230.034062)"><g/></g></g><g fill-opacity="1" fill="#000000"><g transform="translate(335.338454, 230.034062)"><g><path d="M 0.78125 0 L 0.78125 -6.03125 L 3.203125 -6.03125 C 3.828125 -6.03125 4.296875 -5.882812 4.609375 -5.59375 C 4.929688 -5.3125 5.09375 -4.914062 5.09375 -4.40625 C 5.09375 -4.039062 5 -3.738281 4.8125 -3.5 C 4.632812 -3.269531 4.359375 -3.09375 3.984375 -2.96875 L 3.984375 -2.890625 C 4.171875 -2.804688 4.320312 -2.679688 4.4375 -2.515625 C 4.5625 -2.359375 4.675781 -2.117188 4.78125 -1.796875 L 5.375 0 L 4.15625 0 L 3.5625 -1.796875 C 3.5 -1.984375 3.429688 -2.125 3.359375 -2.21875 C 3.285156 -2.320312 3.1875 -2.394531 3.0625 -2.4375 C 2.945312 -2.488281 2.796875 -2.515625 2.609375 -2.515625 L 1.984375 -2.515625 L 1.984375 0 Z M 3.0625 -3.453125 C 3.632812 -3.453125 3.921875 -3.722656 3.921875 -4.265625 C 3.921875 -4.816406 3.632812 -5.09375 3.0625 -5.09375 L 1.984375 -5.09375 L 1.984375 -3.453125 Z M 3.0625 -3.453125"/></g></g></g><g fill-opacity="1" fill="#000000"><g transform="translate(340.977139, 230.034062)"><g><path d="M 1.984375 -2.65625 L 1.984375 -1 L 4.859375 -1 L 4.859375 0 L 0.78125 0 L 0.78125 -6.03125 L 4.796875 -6.03125 L 4.796875 -5.03125 L 1.984375 -5.03125 L 1.984375 -3.625 L 4.4375 -3.625 L 4.4375 -2.65625 Z M 1.984375 -2.65625"/></g></g></g><g fill-opacity="1" fill="#000000"><g transform="translate(346.16209, 230.034062)"><g><path d="M 2.9375 0.09375 C 2.425781 0.09375 1.988281 -0.0195312 1.625 -0.25 C 1.257812 -0.488281 0.972656 -0.835938 0.765625 -1.296875 C 0.566406 -1.765625 0.46875 -2.335938 0.46875 -3.015625 C 0.46875 -3.703125 0.585938 -4.273438 0.828125 -4.734375 C 1.066406 -5.203125 1.398438 -5.550781 1.828125 -5.78125 C 2.253906 -6.007812 2.75 -6.125 3.3125 -6.125 C 3.882812 -6.125 4.375 -6.015625 4.78125 -5.796875 C 5.195312 -5.585938 5.484375 -5.269531 5.640625 -4.84375 L 4.78125 -4.3125 L 4.671875 -4.3125 C 4.546875 -4.582031 4.367188 -4.78125 4.140625 -4.90625 C 3.921875 -5.03125 3.644531 -5.09375 3.3125 -5.09375 C 2.789062 -5.09375 2.390625 -4.925781 2.109375 -4.59375 C 1.835938 -4.269531 1.703125 -3.742188 1.703125 -3.015625 C 1.703125 -2.285156 1.828125 -1.753906 2.078125 -1.421875 C 2.335938 -1.097656 2.722656 -0.9375 3.234375 -0.9375 C 3.671875 -0.9375 3.988281 -1.03125 4.1875 -1.21875 C 4.394531 -1.414062 4.5 -1.707031 4.5 -2.09375 L 4.5 -2.359375 L 3.078125 -2.359375 L 3.078125 -3.328125 L 5.6875 -3.328125 L 5.6875 0 L 4.546875 0 L 4.546875 -0.8125 L 4.46875 -0.828125 C 4.34375 -0.535156 4.148438 -0.304688 3.890625 -0.140625 C 3.640625 0.015625 3.320312 0.09375 2.9375 0.09375 Z M 2.9375 0.09375"/></g></g></g><g fill-opacity="1" fill="#000000"><g transform="translate(352.452503, 230.034062)"><g><path d="M 1.984375 0 L 0.78125 0 L 0.78125 -6.03125 L 1.984375 -6.03125 Z M 1.984375 0"/></g></g></g><g fill-opacity="1" fill="#000000"><g transform="translate(355.21616, 230.034062)"><g><path d="M 2.671875 0.09375 C 2.253906 0.09375 1.878906 0.0390625 1.546875 -0.0625 C 1.222656 -0.164062 0.953125 -0.300781 0.734375 -0.46875 C 0.523438 -0.632812 0.363281 -0.820312 0.25 -1.03125 L 0.90625 -1.828125 L 1 -1.828125 C 1.1875 -1.554688 1.414062 -1.335938 1.6875 -1.171875 C 1.96875 -1.015625 2.296875 -0.9375 2.671875 -0.9375 C 2.992188 -0.9375 3.234375 -1.003906 3.390625 -1.140625 C 3.554688 -1.273438 3.640625 -1.460938 3.640625 -1.703125 C 3.640625 -1.847656 3.613281 -1.96875 3.5625 -2.0625 C 3.507812 -2.15625 3.421875 -2.238281 3.296875 -2.3125 C 3.179688 -2.382812 3.019531 -2.441406 2.8125 -2.484375 L 2.03125 -2.671875 C 1.488281 -2.796875 1.082031 -3 0.8125 -3.28125 C 0.550781 -3.570312 0.421875 -3.945312 0.421875 -4.40625 C 0.421875 -4.75 0.503906 -5.046875 0.671875 -5.296875 C 0.847656 -5.554688 1.097656 -5.757812 1.421875 -5.90625 C 1.753906 -6.050781 2.144531 -6.125 2.59375 -6.125 C 3.0625 -6.125 3.457031 -6.0625 3.78125 -5.9375 C 4.113281 -5.8125 4.394531 -5.625 4.625 -5.375 L 4.046875 -4.5625 L 3.9375 -4.5625 C 3.769531 -4.738281 3.570312 -4.875 3.34375 -4.96875 C 3.125 -5.0625 2.875 -5.109375 2.59375 -5.109375 C 2.269531 -5.109375 2.019531 -5.046875 1.84375 -4.921875 C 1.675781 -4.804688 1.59375 -4.648438 1.59375 -4.453125 C 1.59375 -4.265625 1.648438 -4.113281 1.765625 -4 C 1.890625 -3.882812 2.097656 -3.796875 2.390625 -3.734375 L 3.1875 -3.5625 C 3.769531 -3.4375 4.191406 -3.226562 4.453125 -2.9375 C 4.722656 -2.644531 4.859375 -2.257812 4.859375 -1.78125 C 4.859375 -1.40625 4.773438 -1.078125 4.609375 -0.796875 C 4.453125 -0.515625 4.207031 -0.296875 3.875 -0.140625 C 3.550781 0.015625 3.148438 0.09375 2.671875 0.09375 Z M 2.671875 0.09375"/></g></g></g><g fill-opacity="1" fill="#000000"><g transform="translate(360.396986, 230.034062)"><g><path d="M 4.84375 -6.03125 L 4.84375 -5.03125 L 3.09375 -5.03125 L 3.09375 0 L 1.90625 0 L 1.90625 -5.03125 L 0.171875 -5.03125 L 0.171875 -6.03125 Z M 4.84375 -6.03125"/></g></g></g><g fill-opacity="1" fill="#000000"><g transform="translate(365.396317, 230.034062)"><g><path d="M 0.78125 0 L 0.78125 -6.03125 L 3.203125 -6.03125 C 3.828125 -6.03125 4.296875 -5.882812 4.609375 -5.59375 C 4.929688 -5.3125 5.09375 -4.914062 5.09375 -4.40625 C 5.09375 -4.039062 5 -3.738281 4.8125 -3.5 C 4.632812 -3.269531 4.359375 -3.09375 3.984375 -2.96875 L 3.984375 -2.890625 C 4.171875 -2.804688 4.320312 -2.679688 4.4375 -2.515625 C 4.5625 -2.359375 4.675781 -2.117188 4.78125 -1.796875 L 5.375 0 L 4.15625 0 L 3.5625 -1.796875 C 3.5 -1.984375 3.429688 -2.125 3.359375 -2.21875 C 3.285156 -2.320312 3.1875 -2.394531 3.0625 -2.4375 C 2.945312 -2.488281 2.796875 -2.515625 2.609375 -2.515625 L 1.984375 -2.515625 L 1.984375 0 Z M 3.0625 -3.453125 C 3.632812 -3.453125 3.921875 -3.722656 3.921875 -4.265625 C 3.921875 -4.816406 3.632812 -5.09375 3.0625 -5.09375 L 1.984375 -5.09375 L 1.984375 -3.453125 Z M 3.0625 -3.453125"/></g></g></g><g fill-opacity="1" fill="#000000"><g transform="translate(371.035003, 230.034062)"><g><path d="M 5.796875 0 L 4.53125 0 L 4.078125 -1.390625 L 1.765625 -1.390625 L 1.3125 0 L 0.09375 0 L 2.171875 -6.03125 L 3.703125 -6.03125 Z M 2.875 -4.78125 L 2.09375 -2.390625 L 3.75 -2.390625 L 2.96875 -4.78125 Z M 2.875 -4.78125"/></g></g></g><g fill-opacity="1" fill="#000000"><g transform="translate(376.91293, 230.034062)"><g><path d="M 4.84375 -6.03125 L 4.84375 -5.03125 L 3.09375 -5.03125 L 3.09375 0 L 1.90625 0 L 1.90625 -5.03125 L 0.171875 -5.03125 L 0.171875 -6.03125 Z M 4.84375 -6.03125"/></g></g></g><g fill-opacity="1" fill="#000000"><g transform="translate(381.912262, 230.034062)"><g><path d="M 1.984375 0 L 0.78125 0 L 0.78125 -6.03125 L 1.984375 -6.03125 Z M 1.984375 0"/></g></g></g><g fill-opacity="1" fill="#000000"><g transform="translate(384.675918, 230.034062)"><g><path d="M 3.296875 0.09375 C 2.734375 0.09375 2.238281 -0.0195312 1.8125 -0.25 C 1.394531 -0.476562 1.066406 -0.820312 0.828125 -1.28125 C 0.585938 -1.75 0.46875 -2.328125 0.46875 -3.015625 C 0.46875 -3.703125 0.585938 -4.273438 0.828125 -4.734375 C 1.066406 -5.203125 1.394531 -5.550781 1.8125 -5.78125 C 2.238281 -6.007812 2.734375 -6.125 3.296875 -6.125 C 3.847656 -6.125 4.332031 -6.007812 4.75 -5.78125 C 5.164062 -5.5625 5.492188 -5.21875 5.734375 -4.75 C 5.972656 -4.28125 6.09375 -3.703125 6.09375 -3.015625 C 6.09375 -2.328125 5.972656 -1.75 5.734375 -1.28125 C 5.492188 -0.820312 5.164062 -0.476562 4.75 -0.25 C 4.332031 -0.0195312 3.847656 0.09375 3.296875 0.09375 Z M 3.296875 -0.953125 C 3.804688 -0.953125 4.191406 -1.113281 4.453125 -1.4375 C 4.722656 -1.769531 4.859375 -2.296875 4.859375 -3.015625 C 4.859375 -3.734375 4.722656 -4.257812 4.453125 -4.59375 C 4.191406 -4.925781 3.804688 -5.09375 3.296875 -5.09375 C 2.773438 -5.09375 2.378906 -4.925781 2.109375 -4.59375 C 1.835938 -4.257812 1.703125 -3.734375 1.703125 -3.015625 C 1.703125 -2.296875 1.835938 -1.769531 2.109375 -1.4375 C 2.378906 -1.113281 2.773438 -0.953125 3.296875 -0.953125 Z M 3.296875 -0.953125"/></g></g></g><g fill-opacity="1" fill="#000000"><g transform="translate(391.246822, 230.034062)"><g><path d="M 1.9375 0 L 0.78125 0 L 0.78125 -6.03125 L 2.15625 -6.03125 L 4.578125 -2.140625 L 4.6875 -2.15625 L 4.6875 -6.03125 L 5.828125 -6.03125 L 5.828125 0 L 4.609375 0 L 2.046875 -4.15625 L 1.9375 -4.140625 Z M 1.9375 0"/></g></g></g><g fill-opacity="1" fill="#000000"><g transform="translate(397.858975, 230.034062)"><g/></g></g><g fill-opacity="1" fill="#000000"><g transform="translate(399.851278, 230.034062)"><g><path d="M 0.78125 0 L 0.78125 -6.03125 L 3.203125 -6.03125 C 3.828125 -6.03125 4.296875 -5.882812 4.609375 -5.59375 C 4.929688 -5.3125 5.09375 -4.914062 5.09375 -4.40625 C 5.09375 -4.039062 5 -3.738281 4.8125 -3.5 C 4.632812 -3.269531 4.359375 -3.09375 3.984375 -2.96875 L 3.984375 -2.890625 C 4.171875 -2.804688 4.320312 -2.679688 4.4375 -2.515625 C 4.5625 -2.359375 4.675781 -2.117188 4.78125 -1.796875 L 5.375 0 L 4.15625 0 L 3.5625 -1.796875 C 3.5 -1.984375 3.429688 -2.125 3.359375 -2.21875 C 3.285156 -2.320312 3.1875 -2.394531 3.0625 -2.4375 C 2.945312 -2.488281 2.796875 -2.515625 2.609375 -2.515625 L 1.984375 -2.515625 L 1.984375 0 Z M 3.0625 -3.453125 C 3.632812 -3.453125 3.921875 -3.722656 3.921875 -4.265625 C 3.921875 -4.816406 3.632812 -5.09375 3.0625 -5.09375 L 1.984375 -5.09375 L 1.984375 -3.453125 Z M 3.0625 -3.453125"/></g></g></g><g fill-opacity="1" fill="#000000"><g transform="translate(405.489968, 230.034062)"><g><path d="M 1.984375 -2.65625 L 1.984375 -1 L 4.859375 -1 L 4.859375 0 L 0.78125 0 L 0.78125 -6.03125 L 4.796875 -6.03125 L 4.796875 -5.03125 L 1.984375 -5.03125 L 1.984375 -3.625 L 4.4375 -3.625 L 4.4375 -2.65625 Z M 1.984375 -2.65625"/></g></g></g><g fill-opacity="1" fill="#000000"><g transform="translate(410.674914, 230.034062)"><g><path d="M 1.984375 -6.03125 L 1.984375 -1 L 4.6875 -1 L 4.6875 0 L 0.78125 0 L 0.78125 -6.03125 Z M 1.984375 -6.03125"/></g></g></g><g fill-opacity="1" fill="#000000"><g transform="translate(415.558749, 230.034062)"><g><path d="M 5.796875 0 L 4.53125 0 L 4.078125 -1.390625 L 1.765625 -1.390625 L 1.3125 0 L 0.09375 0 L 2.171875 -6.03125 L 3.703125 -6.03125 Z M 2.875 -4.78125 L 2.09375 -2.390625 L 3.75 -2.390625 L 2.96875 -4.78125 Z M 2.875 -4.78125"/></g></g></g><g fill-opacity="1" fill="#000000"><g transform="translate(421.436672, 230.034062)"><g><path d="M 4.84375 -6.03125 L 4.84375 -5.03125 L 3.09375 -5.03125 L 3.09375 0 L 1.90625 0 L 1.90625 -5.03125 L 0.171875 -5.03125 L 0.171875 -6.03125 Z M 4.84375 -6.03125"/></g></g></g><g fill-opacity="1" fill="#000000"><g transform="translate(426.436003, 230.034062)"><g><path d="M 1.984375 -2.65625 L 1.984375 -1 L 4.859375 -1 L 4.859375 0 L 0.78125 0 L 0.78125 -6.03125 L 4.796875 -6.03125 L 4.796875 -5.03125 L 1.984375 -5.03125 L 1.984375 -3.625 L 4.4375 -3.625 L 4.4375 -2.65625 Z M 1.984375 -2.65625"/></g></g></g><g fill-opacity="1" fill="#000000"><g transform="translate(431.620949, 230.034062)"><g><path d="M 2.953125 -6.03125 C 3.929688 -6.03125 4.675781 -5.773438 5.1875 -5.265625 C 5.707031 -4.765625 5.96875 -4.015625 5.96875 -3.015625 C 5.96875 -2.015625 5.707031 -1.257812 5.1875 -0.75 C 4.675781 -0.25 3.929688 0 2.953125 0 L 0.78125 0 L 0.78125 -6.03125 Z M 2.890625 -1 C 3.503906 -1 3.96875 -1.15625 4.28125 -1.46875 C 4.59375 -1.789062 4.75 -2.304688 4.75 -3.015625 C 4.75 -3.722656 4.59375 -4.234375 4.28125 -4.546875 C 3.96875 -4.867188 3.503906 -5.03125 2.890625 -5.03125 L 1.984375 -5.03125 L 1.984375 -1 Z M 2.890625 -1"/></g></g></g><g fill-opacity="1" fill="#000000"><g transform="translate(438.068112, 230.034062)"><g/></g></g><g fill-opacity="1" fill="#000000"><g transform="translate(440.060425, 230.034062)"><g><path d="M 4.796875 1.5 C 4.265625 1.5 3.820312 1.367188 3.46875 1.109375 C 3.125 0.859375 2.890625 0.503906 2.765625 0.046875 C 2.304688 -0.015625 1.90625 -0.164062 1.5625 -0.40625 C 1.21875 -0.65625 0.945312 -1 0.75 -1.4375 C 0.5625 -1.875 0.46875 -2.398438 0.46875 -3.015625 C 0.46875 -3.703125 0.585938 -4.273438 0.828125 -4.734375 C 1.066406 -5.203125 1.394531 -5.550781 1.8125 -5.78125 C 2.238281 -6.007812 2.734375 -6.125 3.296875 -6.125 C 3.847656 -6.125 4.332031 -6.007812 4.75 -5.78125 C 5.164062 -5.5625 5.492188 -5.21875 5.734375 -4.75 C 5.972656 -4.28125 6.09375 -3.703125 6.09375 -3.015625 C 6.09375 -2.109375 5.898438 -1.414062 5.515625 -0.9375 C 5.128906 -0.457031 4.585938 -0.15625 3.890625 -0.03125 L 3.875 0.046875 C 3.957031 0.191406 4.082031 0.300781 4.25 0.375 C 4.414062 0.457031 4.613281 0.5 4.84375 0.5 C 5.019531 0.5 5.179688 0.472656 5.328125 0.421875 L 5.421875 0.453125 L 5.578125 1.375 C 5.492188 1.40625 5.375 1.429688 5.21875 1.453125 C 5.070312 1.484375 4.929688 1.5 4.796875 1.5 Z M 3.296875 -0.953125 C 3.804688 -0.953125 4.191406 -1.113281 4.453125 -1.4375 C 4.722656 -1.769531 4.859375 -2.296875 4.859375 -3.015625 C 4.859375 -3.734375 4.722656 -4.257812 4.453125 -4.59375 C 4.191406 -4.925781 3.804688 -5.09375 3.296875 -5.09375 C 2.773438 -5.09375 2.378906 -4.925781 2.109375 -4.59375 C 1.835938 -4.257812 1.703125 -3.734375 1.703125 -3.015625 C 1.703125 -2.296875 1.835938 -1.769531 2.109375 -1.4375 C 2.378906 -1.113281 2.773438 -0.953125 3.296875 -0.953125 Z M 3.296875 -0.953125"/></g></g></g><g fill-opacity="1" fill="#000000"><g transform="translate(446.631324, 230.034062)"><g><path d="M 3.203125 0.09375 C 2.367188 0.09375 1.75 -0.101562 1.34375 -0.5 C 0.945312 -0.894531 0.75 -1.484375 0.75 -2.265625 L 0.75 -6.03125 L 1.921875 -6.03125 L 1.921875 -2.265625 C 1.921875 -1.828125 2.023438 -1.5 2.234375 -1.28125 C 2.441406 -1.0625 2.765625 -0.953125 3.203125 -0.953125 C 4.054688 -0.953125 4.484375 -1.390625 4.484375 -2.265625 L 4.484375 -6.03125 L 5.65625 -6.03125 L 5.65625 -2.265625 C 5.65625 -1.484375 5.453125 -0.894531 5.046875 -0.5 C 4.648438 -0.101562 4.035156 0.09375 3.203125 0.09375 Z M 3.203125 0.09375"/></g></g></g><g fill-opacity="1" fill="#000000"><g transform="translate(453.024858, 230.034062)"><g><path d="M 1.984375 -2.65625 L 1.984375 -1 L 4.859375 -1 L 4.859375 0 L 0.78125 0 L 0.78125 -6.03125 L 4.796875 -6.03125 L 4.796875 -5.03125 L 1.984375 -5.03125 L 1.984375 -3.625 L 4.4375 -3.625 L 4.4375 -2.65625 Z M 1.984375 -2.65625"/></g></g></g><g fill-opacity="1" fill="#000000"><g transform="translate(458.209814, 230.034062)"><g><path d="M 0.78125 0 L 0.78125 -6.03125 L 3.203125 -6.03125 C 3.828125 -6.03125 4.296875 -5.882812 4.609375 -5.59375 C 4.929688 -5.3125 5.09375 -4.914062 5.09375 -4.40625 C 5.09375 -4.039062 5 -3.738281 4.8125 -3.5 C 4.632812 -3.269531 4.359375 -3.09375 3.984375 -2.96875 L 3.984375 -2.890625 C 4.171875 -2.804688 4.320312 -2.679688 4.4375 -2.515625 C 4.5625 -2.359375 4.675781 -2.117188 4.78125 -1.796875 L 5.375 0 L 4.15625 0 L 3.5625 -1.796875 C 3.5 -1.984375 3.429688 -2.125 3.359375 -2.21875 C 3.285156 -2.320312 3.1875 -2.394531 3.0625 -2.4375 C 2.945312 -2.488281 2.796875 -2.515625 2.609375 -2.515625 L 1.984375 -2.515625 L 1.984375 0 Z M 3.0625 -3.453125 C 3.632812 -3.453125 3.921875 -3.722656 3.921875 -4.265625 C 3.921875 -4.816406 3.632812 -5.09375 3.0625 -5.09375 L 1.984375 -5.09375 L 1.984375 -3.453125 Z M 3.0625 -3.453125"/></g></g></g><g fill-opacity="1" fill="#000000"><g transform="translate(463.848504, 230.034062)"><g><path d="M 3.3125 0 L 2.109375 0 L 2.109375 -2.375 L 0.03125 -6.03125 L 1.3125 -6.03125 L 2.6875 -3.65625 L 2.796875 -3.65625 L 4.140625 -6.03125 L 5.390625 -6.03125 L 3.3125 -2.375 Z M 3.3125 0"/></g></g></g><g fill-opacity="1" fill="#000000"><g transform="translate(469.264442, 230.034062)"><g/></g></g><g fill-opacity="1" fill="#000000"><g transform="translate(471.256755, 230.034062)"><g><path d="M 3.296875 0.09375 C 2.742188 0.09375 2.253906 -0.0195312 1.828125 -0.25 C 1.398438 -0.488281 1.066406 -0.835938 0.828125 -1.296875 C 0.585938 -1.765625 0.46875 -2.335938 0.46875 -3.015625 C 0.46875 -3.691406 0.585938 -4.257812 0.828125 -4.71875 C 1.066406 -5.1875 1.398438 -5.535156 1.828125 -5.765625 C 2.253906 -6.003906 2.742188 -6.125 3.296875 -6.125 C 3.878906 -6.125 4.375 -6.007812 4.78125 -5.78125 C 5.1875 -5.550781 5.472656 -5.207031 5.640625 -4.75 L 4.78125 -4.203125 L 4.671875 -4.21875 C 4.546875 -4.53125 4.367188 -4.753906 4.140625 -4.890625 C 3.921875 -5.023438 3.640625 -5.09375 3.296875 -5.09375 C 2.796875 -5.09375 2.40625 -4.925781 2.125 -4.59375 C 1.84375 -4.257812 1.703125 -3.734375 1.703125 -3.015625 C 1.703125 -2.296875 1.84375 -1.769531 2.125 -1.4375 C 2.40625 -1.101562 2.796875 -0.9375 3.296875 -0.9375 C 4.078125 -0.9375 4.554688 -1.320312 4.734375 -2.09375 L 4.84375 -2.09375 L 5.71875 -1.625 C 5.550781 -1.050781 5.269531 -0.617188 4.875 -0.328125 C 4.476562 -0.046875 3.953125 0.09375 3.296875 0.09375 Z M 3.296875 0.09375"/></g></g></g><g fill-opacity="1" fill="#000000"><g transform="translate(477.171806, 230.034062)"><g><path d="M 3.296875 0.09375 C 2.734375 0.09375 2.238281 -0.0195312 1.8125 -0.25 C 1.394531 -0.476562 1.066406 -0.820312 0.828125 -1.28125 C 0.585938 -1.75 0.46875 -2.328125 0.46875 -3.015625 C 0.46875 -3.703125 0.585938 -4.273438 0.828125 -4.734375 C 1.066406 -5.203125 1.394531 -5.550781 1.8125 -5.78125 C 2.238281 -6.007812 2.734375 -6.125 3.296875 -6.125 C 3.847656 -6.125 4.332031 -6.007812 4.75 -5.78125 C 5.164062 -5.5625 5.492188 -5.21875 5.734375 -4.75 C 5.972656 -4.28125 6.09375 -3.703125 6.09375 -3.015625 C 6.09375 -2.328125 5.972656 -1.75 5.734375 -1.28125 C 5.492188 -0.820312 5.164062 -0.476562 4.75 -0.25 C 4.332031 -0.0195312 3.847656 0.09375 3.296875 0.09375 Z M 3.296875 -0.953125 C 3.804688 -0.953125 4.191406 -1.113281 4.453125 -1.4375 C 4.722656 -1.769531 4.859375 -2.296875 4.859375 -3.015625 C 4.859375 -3.734375 4.722656 -4.257812 4.453125 -4.59375 C 4.191406 -4.925781 3.804688 -5.09375 3.296875 -5.09375 C 2.773438 -5.09375 2.378906 -4.925781 2.109375 -4.59375 C 1.835938 -4.257812 1.703125 -3.734375 1.703125 -3.015625 C 1.703125 -2.296875 1.835938 -1.769531 2.109375 -1.4375 C 2.378906 -1.113281 2.773438 -0.953125 3.296875 -0.953125 Z M 3.296875 -0.953125"/></g></g></g><g fill-opacity="1" fill="#000000"><g transform="translate(483.742714, 230.034062)"><g><path d="M 1.9375 0 L 0.78125 0 L 0.78125 -6.03125 L 2.15625 -6.03125 L 4.578125 -2.140625 L 4.6875 -2.15625 L 4.6875 -6.03125 L 5.828125 -6.03125 L 5.828125 0 L 4.609375 0 L 2.046875 -4.15625 L 1.9375 -4.140625 Z M 1.9375 0"/></g></g></g><g fill-opacity="1" fill="#000000"><g transform="translate(490.354871, 230.034062)"><g><path d="M 4.84375 -6.03125 L 4.84375 -5.03125 L 3.09375 -5.03125 L 3.09375 0 L 1.90625 0 L 1.90625 -5.03125 L 0.171875 -5.03125 L 0.171875 -6.03125 Z M 4.84375 -6.03125"/></g></g></g><g fill-opacity="1" fill="#000000"><g transform="translate(495.354203, 230.034062)"><g><path d="M 5.796875 0 L 4.53125 0 L 4.078125 -1.390625 L 1.765625 -1.390625 L 1.3125 0 L 0.09375 0 L 2.171875 -6.03125 L 3.703125 -6.03125 Z M 2.875 -4.78125 L 2.09375 -2.390625 L 3.75 -2.390625 L 2.96875 -4.78125 Z M 2.875 -4.78125"/></g></g></g><g fill-opacity="1" fill="#000000"><g transform="translate(501.232125, 230.034062)"><g><path d="M 3.296875 0.09375 C 2.742188 0.09375 2.253906 -0.0195312 1.828125 -0.25 C 1.398438 -0.488281 1.066406 -0.835938 0.828125 -1.296875 C 0.585938 -1.765625 0.46875 -2.335938 0.46875 -3.015625 C 0.46875 -3.691406 0.585938 -4.257812 0.828125 -4.71875 C 1.066406 -5.1875 1.398438 -5.535156 1.828125 -5.765625 C 2.253906 -6.003906 2.742188 -6.125 3.296875 -6.125 C 3.878906 -6.125 4.375 -6.007812 4.78125 -5.78125 C 5.1875 -5.550781 5.472656 -5.207031 5.640625 -4.75 L 4.78125 -4.203125 L 4.671875 -4.21875 C 4.546875 -4.53125 4.367188 -4.753906 4.140625 -4.890625 C 3.921875 -5.023438 3.640625 -5.09375 3.296875 -5.09375 C 2.796875 -5.09375 2.40625 -4.925781 2.125 -4.59375 C 1.84375 -4.257812 1.703125 -3.734375 1.703125 -3.015625 C 1.703125 -2.296875 1.84375 -1.769531 2.125 -1.4375 C 2.40625 -1.101562 2.796875 -0.9375 3.296875 -0.9375 C 4.078125 -0.9375 4.554688 -1.320312 4.734375 -2.09375 L 4.84375 -2.09375 L 5.71875 -1.625 C 5.550781 -1.050781 5.269531 -0.617188 4.875 -0.328125 C 4.476562 -0.046875 3.953125 0.09375 3.296875 0.09375 Z M 3.296875 0.09375"/></g></g></g><g fill-opacity="1" fill="#000000"><g transform="translate(507.147167, 230.034062)"><g><path d="M 4.84375 -6.03125 L 4.84375 -5.03125 L 3.09375 -5.03125 L 3.09375 0 L 1.90625 0 L 1.90625 -5.03125 L 0.171875 -5.03125 L 0.171875 -6.03125 Z M 4.84375 -6.03125"/></g></g></g><g fill-opacity="1" fill="#000000"><g transform="translate(512.146498, 230.034062)"><g><path d="M 1.15625 0.03125 C 1.007812 0.03125 0.878906 0.00390625 0.765625 -0.046875 C 0.660156 -0.109375 0.578125 -0.191406 0.515625 -0.296875 C 0.460938 -0.398438 0.4375 -0.519531 0.4375 -0.65625 C 0.4375 -0.78125 0.460938 -0.894531 0.515625 -1 C 0.578125 -1.101562 0.660156 -1.1875 0.765625 -1.25 C 0.878906 -1.3125 1.007812 -1.34375 1.15625 -1.34375 C 1.3125 -1.34375 1.441406 -1.3125 1.546875 -1.25 C 1.660156 -1.195312 1.75 -1.117188 1.8125 -1.015625 C 1.875 -0.910156 1.90625 -0.789062 1.90625 -0.65625 C 1.90625 -0.457031 1.835938 -0.289062 1.703125 -0.15625 C 1.566406 -0.03125 1.382812 0.03125 1.15625 0.03125 Z M 1.15625 -3.21875 C 1.007812 -3.21875 0.878906 -3.242188 0.765625 -3.296875 C 0.660156 -3.359375 0.578125 -3.441406 0.515625 -3.546875 C 0.460938 -3.648438 0.4375 -3.769531 0.4375 -3.90625 C 0.4375 -4.03125 0.460938 -4.144531 0.515625 -4.25 C 0.578125 -4.351562 0.660156 -4.4375 0.765625 -4.5 C 0.878906 -4.5625 1.007812 -4.59375 1.15625 -4.59375 C 1.3125 -4.59375 1.441406 -4.5625 1.546875 -4.5 C 1.660156 -4.445312 1.75 -4.367188 1.8125 -4.265625 C 1.875 -4.160156 1.90625 -4.039062 1.90625 -3.90625 C 1.90625 -3.707031 1.835938 -3.539062 1.703125 -3.40625 C 1.566406 -3.28125 1.382812 -3.21875 1.15625 -3.21875 Z M 1.15625 -3.21875"/></g></g></g><g fill-opacity="1" fill="#000000"><g transform="translate(514.47704, 230.034062)"><g><path d="M 1.984375 -6.03125 L 1.984375 -1 L 4.6875 -1 L 4.6875 0 L 0.78125 0 L 0.78125 -6.03125 Z M 1.984375 -6.03125"/></g></g></g><g fill-opacity="1" fill="#000000"><g transform="translate(519.360876, 230.034062)"><g><path d="M 1.984375 -2.65625 L 1.984375 -1 L 4.859375 -1 L 4.859375 0 L 0.78125 0 L 0.78125 -6.03125 L 4.796875 -6.03125 L 4.796875 -5.03125 L 1.984375 -5.03125 L 1.984375 -3.625 L 4.4375 -3.625 L 4.4375 -2.65625 Z M 1.984375 -2.65625"/></g></g></g><g fill-opacity="1" fill="#000000"><g transform="translate(524.545821, 230.034062)"><g><path d="M 1.984375 -2.65625 L 1.984375 -1 L 4.859375 -1 L 4.859375 0 L 0.78125 0 L 0.78125 -6.03125 L 4.796875 -6.03125 L 4.796875 -5.03125 L 1.984375 -5.03125 L 1.984375 -3.625 L 4.4375 -3.625 L 4.4375 -2.65625 Z M 1.984375 -2.65625"/></g></g></g><g fill-opacity="1" fill="#000000"><g transform="translate(529.730767, 230.034062)"><g><path d="M 1.9375 0 L 0.78125 0 L 0.78125 -6.03125 L 2.15625 -6.03125 L 4.578125 -2.140625 L 4.6875 -2.15625 L 4.6875 -6.03125 L 5.828125 -6.03125 L 5.828125 0 L 4.609375 0 L 2.046875 -4.15625 L 1.9375 -4.140625 Z M 1.9375 0"/></g></g></g><g fill-opacity="1" fill="#000000"><g transform="translate(536.342924, 230.034062)"><g><path d="M 5.796875 0 L 4.53125 0 L 4.078125 -1.390625 L 1.765625 -1.390625 L 1.3125 0 L 0.09375 0 L 2.171875 -6.03125 L 3.703125 -6.03125 Z M 2.875 -4.78125 L 2.09375 -2.390625 L 3.75 -2.390625 L 2.96875 -4.78125 Z M 2.875 -4.78125"/></g></g></g><g fill-opacity="1" fill="#000000"><g transform="translate(542.220846, 230.034062)"><g/></g></g><g fill-opacity="1" fill="#000000"><g transform="translate(544.213159, 230.034062)"><g><path d="M 2.890625 -2.421875 L 0.359375 -2.421875 L 0.359375 -3.4375 L 2.890625 -3.4375 Z M 2.890625 -2.421875"/></g></g></g><g fill-opacity="1" fill="#000000"><g transform="translate(547.46767, 230.034062)"><g/></g></g><g fill-opacity="1" fill="#000000"><g transform="translate(549.459983, 230.034062)"><g><path d="M 2.59375 0.09375 C 2.113281 0.09375 1.707031 0.0195312 1.375 -0.125 C 1.039062 -0.28125 0.789062 -0.492188 0.625 -0.765625 C 0.457031 -1.046875 0.375 -1.375 0.375 -1.75 C 0.375 -2.101562 0.457031 -2.40625 0.625 -2.65625 C 0.800781 -2.914062 1.054688 -3.117188 1.390625 -3.265625 L 1.390625 -3.34375 C 1.148438 -3.488281 0.96875 -3.660156 0.84375 -3.859375 C 0.71875 -4.066406 0.65625 -4.304688 0.65625 -4.578125 C 0.65625 -4.878906 0.726562 -5.144531 0.875 -5.375 C 1.03125 -5.613281 1.253906 -5.796875 1.546875 -5.921875 C 1.835938 -6.054688 2.1875 -6.125 2.59375 -6.125 C 2.988281 -6.125 3.332031 -6.054688 3.625 -5.921875 C 3.914062 -5.796875 4.132812 -5.613281 4.28125 -5.375 C 4.4375 -5.144531 4.515625 -4.878906 4.515625 -4.578125 C 4.515625 -4.304688 4.453125 -4.066406 4.328125 -3.859375 C 4.203125 -3.660156 4.019531 -3.488281 3.78125 -3.34375 L 3.78125 -3.265625 C 4.132812 -3.117188 4.390625 -2.914062 4.546875 -2.65625 C 4.710938 -2.40625 4.796875 -2.101562 4.796875 -1.75 C 4.796875 -1.375 4.710938 -1.046875 4.546875 -0.765625 C 4.378906 -0.492188 4.128906 -0.28125 3.796875 -0.125 C 3.472656 0.0195312 3.070312 0.09375 2.59375 0.09375 Z M 2.59375 -3.6875 C 2.832031 -3.6875 3.019531 -3.75 3.15625 -3.875 C 3.300781 -4.007812 3.375 -4.195312 3.375 -4.4375 C 3.375 -4.664062 3.300781 -4.847656 3.15625 -4.984375 C 3.019531 -5.117188 2.832031 -5.1875 2.59375 -5.1875 C 2.34375 -5.1875 2.144531 -5.117188 2 -4.984375 C 1.863281 -4.859375 1.796875 -4.675781 1.796875 -4.4375 C 1.796875 -4.195312 1.863281 -4.007812 2 -3.875 C 2.144531 -3.75 2.34375 -3.6875 2.59375 -3.6875 Z M 2.59375 -0.921875 C 2.914062 -0.921875 3.160156 -1 3.328125 -1.15625 C 3.503906 -1.320312 3.59375 -1.550781 3.59375 -1.84375 C 3.59375 -2.125 3.503906 -2.34375 3.328125 -2.5 C 3.160156 -2.664062 2.914062 -2.75 2.59375 -2.75 C 2.257812 -2.75 2.003906 -2.664062 1.828125 -2.5 C 1.660156 -2.34375 1.578125 -2.125 1.578125 -1.84375 C 1.578125 -1.550781 1.660156 -1.320312 1.828125 -1.15625 C 2.003906 -1 2.257812 -0.921875 2.59375 -0.921875 Z M 2.59375 -0.921875"/></g></g></g><g fill-opacity="1" fill="#000000"><g transform="translate(554.632568, 230.034062)"><g><path d="M 2.890625 0.09375 C 2.429688 0.09375 2.023438 -0.0078125 1.671875 -0.21875 C 1.316406 -0.4375 1.03125 -0.769531 0.8125 -1.21875 C 0.601562 -1.675781 0.5 -2.253906 0.5 -2.953125 C 0.5 -3.671875 0.609375 -4.265625 0.828125 -4.734375 C 1.054688 -5.210938 1.359375 -5.5625 1.734375 -5.78125 C 2.117188 -6.007812 2.554688 -6.125 3.046875 -6.125 C 3.460938 -6.125 3.816406 -6.0625 4.109375 -5.9375 C 4.398438 -5.820312 4.628906 -5.648438 4.796875 -5.421875 L 4.21875 -4.671875 L 4.109375 -4.671875 C 3.859375 -4.972656 3.503906 -5.125 3.046875 -5.125 C 2.191406 -5.125 1.753906 -4.492188 1.734375 -3.234375 L 1.8125 -3.203125 C 1.957031 -3.460938 2.144531 -3.660156 2.375 -3.796875 C 2.601562 -3.929688 2.894531 -4 3.25 -4 C 3.625 -4 3.945312 -3.921875 4.21875 -3.765625 C 4.488281 -3.609375 4.695312 -3.378906 4.84375 -3.078125 C 4.988281 -2.785156 5.0625 -2.4375 5.0625 -2.03125 C 5.0625 -1.59375 4.972656 -1.210938 4.796875 -0.890625 C 4.617188 -0.578125 4.363281 -0.332031 4.03125 -0.15625 C 3.707031 0.0078125 3.328125 0.09375 2.890625 0.09375 Z M 2.859375 -0.9375 C 3.171875 -0.9375 3.414062 -1.023438 3.59375 -1.203125 C 3.769531 -1.390625 3.859375 -1.648438 3.859375 -1.984375 C 3.859375 -2.304688 3.769531 -2.554688 3.59375 -2.734375 C 3.414062 -2.921875 3.171875 -3.015625 2.859375 -3.015625 C 2.660156 -3.015625 2.484375 -2.972656 2.328125 -2.890625 C 2.171875 -2.804688 2.050781 -2.6875 1.96875 -2.53125 C 1.882812 -2.375 1.84375 -2.191406 1.84375 -1.984375 C 1.84375 -1.660156 1.929688 -1.40625 2.109375 -1.21875 C 2.296875 -1.03125 2.546875 -0.9375 2.859375 -0.9375 Z M 2.859375 -0.9375"/></g></g></g><g fill-opacity="1" fill="#000000"><g transform="translate(560.110384, 230.034062)"><g><path d="M 2.515625 0.09375 C 1.953125 0.09375 1.503906 -0.0195312 1.171875 -0.25 C 0.847656 -0.488281 0.628906 -0.8125 0.515625 -1.21875 L 1.421875 -1.625 L 1.515625 -1.609375 C 1.679688 -1.148438 2.015625 -0.921875 2.515625 -0.921875 C 2.910156 -0.921875 3.207031 -1.082031 3.40625 -1.40625 C 3.613281 -1.738281 3.71875 -2.226562 3.71875 -2.875 L 3.640625 -2.90625 C 3.503906 -2.644531 3.320312 -2.445312 3.09375 -2.3125 C 2.875 -2.175781 2.585938 -2.109375 2.234375 -2.109375 C 1.878906 -2.109375 1.5625 -2.1875 1.28125 -2.34375 C 1.007812 -2.507812 0.796875 -2.738281 0.640625 -3.03125 C 0.492188 -3.320312 0.421875 -3.671875 0.421875 -4.078125 C 0.421875 -4.492188 0.507812 -4.851562 0.6875 -5.15625 C 0.863281 -5.46875 1.113281 -5.707031 1.4375 -5.875 C 1.757812 -6.039062 2.140625 -6.125 2.578125 -6.125 C 3.316406 -6.125 3.894531 -5.882812 4.3125 -5.40625 C 4.738281 -4.9375 4.953125 -4.175781 4.953125 -3.125 C 4.953125 -2.40625 4.851562 -1.804688 4.65625 -1.328125 C 4.457031 -0.847656 4.175781 -0.488281 3.8125 -0.25 C 3.457031 -0.0195312 3.023438 0.09375 2.515625 0.09375 Z M 2.609375 -3.09375 C 2.910156 -3.09375 3.148438 -3.179688 3.328125 -3.359375 C 3.515625 -3.535156 3.609375 -3.78125 3.609375 -4.09375 C 3.609375 -4.40625 3.519531 -4.648438 3.34375 -4.828125 C 3.164062 -5.015625 2.921875 -5.109375 2.609375 -5.109375 C 2.296875 -5.109375 2.050781 -5.019531 1.875 -4.84375 C 1.707031 -4.664062 1.625 -4.414062 1.625 -4.09375 C 1.625 -3.769531 1.707031 -3.519531 1.875 -3.34375 C 2.050781 -3.175781 2.296875 -3.09375 2.609375 -3.09375 Z M 2.609375 -3.09375"/></g></g></g><g fill-opacity="1" fill="#000000"><g transform="translate(565.563441, 230.034062)"><g><path d="M 0.3125 0 L 0.3125 -0.984375 L 1.78125 -0.984375 L 1.78125 -4.75 L 1.6875 -4.765625 C 1.476562 -4.671875 1.269531 -4.59375 1.0625 -4.53125 C 0.863281 -4.476562 0.640625 -4.429688 0.390625 -4.390625 L 0.390625 -5.421875 C 1.054688 -5.554688 1.597656 -5.757812 2.015625 -6.03125 L 2.953125 -6.03125 L 2.953125 -0.984375 L 4.25 -0.984375 L 4.25 0 Z M 0.3125 0"/></g></g></g><g fill-opacity="1" fill="#000000"><g transform="translate(570.014171, 230.034062)"><g><path d="M 2.515625 0.09375 C 1.953125 0.09375 1.503906 -0.0195312 1.171875 -0.25 C 0.847656 -0.488281 0.628906 -0.8125 0.515625 -1.21875 L 1.421875 -1.625 L 1.515625 -1.609375 C 1.679688 -1.148438 2.015625 -0.921875 2.515625 -0.921875 C 2.910156 -0.921875 3.207031 -1.082031 3.40625 -1.40625 C 3.613281 -1.738281 3.71875 -2.226562 3.71875 -2.875 L 3.640625 -2.90625 C 3.503906 -2.644531 3.320312 -2.445312 3.09375 -2.3125 C 2.875 -2.175781 2.585938 -2.109375 2.234375 -2.109375 C 1.878906 -2.109375 1.5625 -2.1875 1.28125 -2.34375 C 1.007812 -2.507812 0.796875 -2.738281 0.640625 -3.03125 C 0.492188 -3.320312 0.421875 -3.671875 0.421875 -4.078125 C 0.421875 -4.492188 0.507812 -4.851562 0.6875 -5.15625 C 0.863281 -5.46875 1.113281 -5.707031 1.4375 -5.875 C 1.757812 -6.039062 2.140625 -6.125 2.578125 -6.125 C 3.316406 -6.125 3.894531 -5.882812 4.3125 -5.40625 C 4.738281 -4.9375 4.953125 -4.175781 4.953125 -3.125 C 4.953125 -2.40625 4.851562 -1.804688 4.65625 -1.328125 C 4.457031 -0.847656 4.175781 -0.488281 3.8125 -0.25 C 3.457031 -0.0195312 3.023438 0.09375 2.515625 0.09375 Z M 2.609375 -3.09375 C 2.910156 -3.09375 3.148438 -3.179688 3.328125 -3.359375 C 3.515625 -3.535156 3.609375 -3.78125 3.609375 -4.09375 C 3.609375 -4.40625 3.519531 -4.648438 3.34375 -4.828125 C 3.164062 -5.015625 2.921875 -5.109375 2.609375 -5.109375 C 2.296875 -5.109375 2.050781 -5.019531 1.875 -4.84375 C 1.707031 -4.664062 1.625 -4.414062 1.625 -4.09375 C 1.625 -3.769531 1.707031 -3.519531 1.875 -3.34375 C 2.050781 -3.175781 2.296875 -3.09375 2.609375 -3.09375 Z M 2.609375 -3.09375"/></g></g></g><g fill-opacity="1" fill="#000000"><g transform="translate(575.467247, 230.034062)"><g><path d="M 2.515625 0.09375 C 1.953125 0.09375 1.503906 -0.0195312 1.171875 -0.25 C 0.847656 -0.488281 0.628906 -0.8125 0.515625 -1.21875 L 1.421875 -1.625 L 1.515625 -1.609375 C 1.679688 -1.148438 2.015625 -0.921875 2.515625 -0.921875 C 2.910156 -0.921875 3.207031 -1.082031 3.40625 -1.40625 C 3.613281 -1.738281 3.71875 -2.226562 3.71875 -2.875 L 3.640625 -2.90625 C 3.503906 -2.644531 3.320312 -2.445312 3.09375 -2.3125 C 2.875 -2.175781 2.585938 -2.109375 2.234375 -2.109375 C 1.878906 -2.109375 1.5625 -2.1875 1.28125 -2.34375 C 1.007812 -2.507812 0.796875 -2.738281 0.640625 -3.03125 C 0.492188 -3.320312 0.421875 -3.671875 0.421875 -4.078125 C 0.421875 -4.492188 0.507812 -4.851562 0.6875 -5.15625 C 0.863281 -5.46875 1.113281 -5.707031 1.4375 -5.875 C 1.757812 -6.039062 2.140625 -6.125 2.578125 -6.125 C 3.316406 -6.125 3.894531 -5.882812 4.3125 -5.40625 C 4.738281 -4.9375 4.953125 -4.175781 4.953125 -3.125 C 4.953125 -2.40625 4.851562 -1.804688 4.65625 -1.328125 C 4.457031 -0.847656 4.175781 -0.488281 3.8125 -0.25 C 3.457031 -0.0195312 3.023438 0.09375 2.515625 0.09375 Z M 2.609375 -3.09375 C 2.910156 -3.09375 3.148438 -3.179688 3.328125 -3.359375 C 3.515625 -3.535156 3.609375 -3.78125 3.609375 -4.09375 C 3.609375 -4.40625 3.519531 -4.648438 3.34375 -4.828125 C 3.164062 -5.015625 2.921875 -5.109375 2.609375 -5.109375 C 2.296875 -5.109375 2.050781 -5.019531 1.875 -4.84375 C 1.707031 -4.664062 1.625 -4.414062 1.625 -4.09375 C 1.625 -3.769531 1.707031 -3.519531 1.875 -3.34375 C 2.050781 -3.175781 2.296875 -3.09375 2.609375 -3.09375 Z M 2.609375 -3.09375"/></g></g></g><g fill-opacity="1" fill="#000000"><g transform="translate(580.920303, 230.034062)"><g><path d="M 2.515625 0.09375 C 1.953125 0.09375 1.503906 -0.0195312 1.171875 -0.25 C 0.847656 -0.488281 0.628906 -0.8125 0.515625 -1.21875 L 1.421875 -1.625 L 1.515625 -1.609375 C 1.679688 -1.148438 2.015625 -0.921875 2.515625 -0.921875 C 2.910156 -0.921875 3.207031 -1.082031 3.40625 -1.40625 C 3.613281 -1.738281 3.71875 -2.226562 3.71875 -2.875 L 3.640625 -2.90625 C 3.503906 -2.644531 3.320312 -2.445312 3.09375 -2.3125 C 2.875 -2.175781 2.585938 -2.109375 2.234375 -2.109375 C 1.878906 -2.109375 1.5625 -2.1875 1.28125 -2.34375 C 1.007812 -2.507812 0.796875 -2.738281 0.640625 -3.03125 C 0.492188 -3.320312 0.421875 -3.671875 0.421875 -4.078125 C 0.421875 -4.492188 0.507812 -4.851562 0.6875 -5.15625 C 0.863281 -5.46875 1.113281 -5.707031 1.4375 -5.875 C 1.757812 -6.039062 2.140625 -6.125 2.578125 -6.125 C 3.316406 -6.125 3.894531 -5.882812 4.3125 -5.40625 C 4.738281 -4.9375 4.953125 -4.175781 4.953125 -3.125 C 4.953125 -2.40625 4.851562 -1.804688 4.65625 -1.328125 C 4.457031 -0.847656 4.175781 -0.488281 3.8125 -0.25 C 3.457031 -0.0195312 3.023438 0.09375 2.515625 0.09375 Z M 2.609375 -3.09375 C 2.910156 -3.09375 3.148438 -3.179688 3.328125 -3.359375 C 3.515625 -3.535156 3.609375 -3.78125 3.609375 -4.09375 C 3.609375 -4.40625 3.519531 -4.648438 3.34375 -4.828125 C 3.164062 -5.015625 2.921875 -5.109375 2.609375 -5.109375 C 2.296875 -5.109375 2.050781 -5.019531 1.875 -4.84375 C 1.707031 -4.664062 1.625 -4.414062 1.625 -4.09375 C 1.625 -3.769531 1.707031 -3.519531 1.875 -3.34375 C 2.050781 -3.175781 2.296875 -3.09375 2.609375 -3.09375 Z M 2.609375 -3.09375"/></g></g></g><g fill-opacity="1" fill="#000000"><g transform="translate(586.37336, 230.034062)"><g><path d="M 0.3125 0 L 0.3125 -0.984375 L 1.78125 -0.984375 L 1.78125 -4.75 L 1.6875 -4.765625 C 1.476562 -4.671875 1.269531 -4.59375 1.0625 -4.53125 C 0.863281 -4.476562 0.640625 -4.429688 0.390625 -4.390625 L 0.390625 -5.421875 C 1.054688 -5.554688 1.597656 -5.757812 2.015625 -6.03125 L 2.953125 -6.03125 L 2.953125 -0.984375 L 4.25 -0.984375 L 4.25 0 Z M 0.3125 0"/></g></g></g><g fill-opacity="1" fill="#000000"><g transform="translate(590.82409, 230.034062)"><g><path d="M 2.59375 0.09375 C 2.113281 0.09375 1.707031 0.0195312 1.375 -0.125 C 1.039062 -0.28125 0.789062 -0.492188 0.625 -0.765625 C 0.457031 -1.046875 0.375 -1.375 0.375 -1.75 C 0.375 -2.101562 0.457031 -2.40625 0.625 -2.65625 C 0.800781 -2.914062 1.054688 -3.117188 1.390625 -3.265625 L 1.390625 -3.34375 C 1.148438 -3.488281 0.96875 -3.660156 0.84375 -3.859375 C 0.71875 -4.066406 0.65625 -4.304688 0.65625 -4.578125 C 0.65625 -4.878906 0.726562 -5.144531 0.875 -5.375 C 1.03125 -5.613281 1.253906 -5.796875 1.546875 -5.921875 C 1.835938 -6.054688 2.1875 -6.125 2.59375 -6.125 C 2.988281 -6.125 3.332031 -6.054688 3.625 -5.921875 C 3.914062 -5.796875 4.132812 -5.613281 4.28125 -5.375 C 4.4375 -5.144531 4.515625 -4.878906 4.515625 -4.578125 C 4.515625 -4.304688 4.453125 -4.066406 4.328125 -3.859375 C 4.203125 -3.660156 4.019531 -3.488281 3.78125 -3.34375 L 3.78125 -3.265625 C 4.132812 -3.117188 4.390625 -2.914062 4.546875 -2.65625 C 4.710938 -2.40625 4.796875 -2.101562 4.796875 -1.75 C 4.796875 -1.375 4.710938 -1.046875 4.546875 -0.765625 C 4.378906 -0.492188 4.128906 -0.28125 3.796875 -0.125 C 3.472656 0.0195312 3.070312 0.09375 2.59375 0.09375 Z M 2.59375 -3.6875 C 2.832031 -3.6875 3.019531 -3.75 3.15625 -3.875 C 3.300781 -4.007812 3.375 -4.195312 3.375 -4.4375 C 3.375 -4.664062 3.300781 -4.847656 3.15625 -4.984375 C 3.019531 -5.117188 2.832031 -5.1875 2.59375 -5.1875 C 2.34375 -5.1875 2.144531 -5.117188 2 -4.984375 C 1.863281 -4.859375 1.796875 -4.675781 1.796875 -4.4375 C 1.796875 -4.195312 1.863281 -4.007812 2 -3.875 C 2.144531 -3.75 2.34375 -3.6875 2.59375 -3.6875 Z M 2.59375 -0.921875 C 2.914062 -0.921875 3.160156 -1 3.328125 -1.15625 C 3.503906 -1.320312 3.59375 -1.550781 3.59375 -1.84375 C 3.59375 -2.125 3.503906 -2.34375 3.328125 -2.5 C 3.160156 -2.664062 2.914062 -2.75 2.59375 -2.75 C 2.257812 -2.75 2.003906 -2.664062 1.828125 -2.5 C 1.660156 -2.34375 1.578125 -2.125 1.578125 -1.84375 C 1.578125 -1.550781 1.660156 -1.320312 1.828125 -1.15625 C 2.003906 -1 2.257812 -0.921875 2.59375 -0.921875 Z M 2.59375 -0.921875"/></g></g></g><g fill-opacity="1" fill="#000000"><g transform="translate(595.996656, 230.034062)"><g><path d="M 2.515625 0.09375 C 1.953125 0.09375 1.503906 -0.0195312 1.171875 -0.25 C 0.847656 -0.488281 0.628906 -0.8125 0.515625 -1.21875 L 1.421875 -1.625 L 1.515625 -1.609375 C 1.679688 -1.148438 2.015625 -0.921875 2.515625 -0.921875 C 2.910156 -0.921875 3.207031 -1.082031 3.40625 -1.40625 C 3.613281 -1.738281 3.71875 -2.226562 3.71875 -2.875 L 3.640625 -2.90625 C 3.503906 -2.644531 3.320312 -2.445312 3.09375 -2.3125 C 2.875 -2.175781 2.585938 -2.109375 2.234375 -2.109375 C 1.878906 -2.109375 1.5625 -2.1875 1.28125 -2.34375 C 1.007812 -2.507812 0.796875 -2.738281 0.640625 -3.03125 C 0.492188 -3.320312 0.421875 -3.671875 0.421875 -4.078125 C 0.421875 -4.492188 0.507812 -4.851562 0.6875 -5.15625 C 0.863281 -5.46875 1.113281 -5.707031 1.4375 -5.875 C 1.757812 -6.039062 2.140625 -6.125 2.578125 -6.125 C 3.316406 -6.125 3.894531 -5.882812 4.3125 -5.40625 C 4.738281 -4.9375 4.953125 -4.175781 4.953125 -3.125 C 4.953125 -2.40625 4.851562 -1.804688 4.65625 -1.328125 C 4.457031 -0.847656 4.175781 -0.488281 3.8125 -0.25 C 3.457031 -0.0195312 3.023438 0.09375 2.515625 0.09375 Z M 2.609375 -3.09375 C 2.910156 -3.09375 3.148438 -3.179688 3.328125 -3.359375 C 3.515625 -3.535156 3.609375 -3.78125 3.609375 -4.09375 C 3.609375 -4.40625 3.519531 -4.648438 3.34375 -4.828125 C 3.164062 -5.015625 2.921875 -5.109375 2.609375 -5.109375 C 2.296875 -5.109375 2.050781 -5.019531 1.875 -4.84375 C 1.707031 -4.664062 1.625 -4.414062 1.625 -4.09375 C 1.625 -3.769531 1.707031 -3.519531 1.875 -3.34375 C 2.050781 -3.175781 2.296875 -3.09375 2.609375 -3.09375 Z M 2.609375 -3.09375"/></g></g></g></svg>