<svg style="max-height: 500px" xmlns="http://www.w3.org/2000/svg" xmlns:xlink="http://www.w3.org/1999/xlink" zoomAndPan="magnify" viewBox="300.6128411580131 342.60710463445764 68.47907169498549 92.53440017136" preserveAspectRatio="xMidYMid meet" version="1.0" width="68.47907169498549" height="92.53440017136"><defs><g/><clipPath id="15e2fa0361"><path d="M 0.886719 0 L 959.113281 0 L 959.113281 539 L 0.886719 539 Z M 0.886719 0" clip-rule="nonzero"/></clipPath><clipPath id="9f0b10a178"><path d="M 330 343.382812 L 354 343.382812 L 354 390 L 330 390 Z M 330 343.382812" clip-rule="nonzero"/></clipPath><clipPath id="136a552dfe"><path d="M 334 343.382812 L 353 343.382812 L 353 383 L 334 383 Z M 334 343.382812" clip-rule="nonzero"/></clipPath><clipPath id="ef30d26fcc"><path d="M 313 387 L 337 387 L 337 434.714844 L 313 434.714844 Z M 313 387" clip-rule="nonzero"/></clipPath><clipPath id="83d3fbec35"><path d="M 313 388 L 336 388 L 336 434.714844 L 313 434.714844 Z M 313 388" clip-rule="nonzero"/></clipPath><clipPath id="5c46c15024"><path d="M 352 369 L 367.597656 369 L 367.597656 378.304688 L 352 378.304688 Z M 352 369" clip-rule="nonzero"/></clipPath><clipPath id="5026abf311"><path d="M 303.214844 390 L 314 390 L 314 397 L 303.214844 397 Z M 303.214844 390" clip-rule="nonzero"/></clipPath><clipPath id="cc9ff28056"><path d="M 303.214844 399 L 317 399 L 317 412 L 303.214844 412 Z M 303.214844 399" clip-rule="nonzero"/></clipPath><clipPath id="2828dc58d5"><path d="M 303.214844 383 L 326 383 L 326 387 L 303.214844 387 Z M 303.214844 383" clip-rule="nonzero"/></clipPath></defs><g clip-path="url(#15e2fa0361)"><path fill="transparent" d="M 0.886719 0 L 959.113281 0 L 959.113281 539 L 0.886719 539 Z M 0.886719 0" fill-opacity="1" fill-rule="nonzero"/><path fill="transparent" d="M 0.886719 0 L 959.113281 0 L 959.113281 539 L 0.886719 539 Z M 0.886719 0" fill-opacity="1" fill-rule="nonzero"/></g><g clip-path="url(#9f0b10a178)"><path fill="#000000" d="M 346.910156 343.449219 L 343.242188 350.179688 L 346.761719 351.101562 L 347.359375 351.261719 L 346.976562 351.742188 L 341.832031 358.203125 L 345.585938 359.089844 L 346.101562 359.210938 L 345.847656 359.671875 L 340.753906 368.898438 L 342.253906 369.375 L 342.742188 369.527344 L 342.480469 369.964844 L 339.351562 375.1875 L 343.863281 369.074219 L 342.359375 368.667969 L 341.777344 368.507812 L 342.144531 368.03125 L 349.640625 358.382812 L 347.101562 357.625 L 346.511719 357.449219 L 346.914062 356.980469 L 352.269531 350.726562 L 348.488281 349.183594 L 348.015625 348.992188 L 348.3125 348.578125 L 352 343.449219 L 352.992188 343.449219 L 349.265625 348.636719 L 353.085938 350.199219 L 353.601562 350.410156 L 353.242188 350.828125 L 347.925781 357.03125 L 350.433594 357.78125 L 350.996094 357.949219 L 350.632812 358.410156 L 343.148438 368.046875 L 344.640625 368.453125 L 345.207031 368.605469 L 344.859375 369.078125 L 335.035156 382.386719 L 330.070312 389.109375 L 334.367188 381.941406 L 341.527344 369.988281 L 340.042969 369.519531 L 339.574219 369.371094 L 339.8125 368.941406 L 344.886719 359.75 L 341.03125 358.84375 L 340.414062 358.695312 L 340.808594 358.203125 L 345.960938 351.722656 L 342.542969 350.828125 L 342.050781 350.699219 L 342.292969 350.25 L 345.996094 343.449219 L 346.910156 343.449219" fill-opacity="1" fill-rule="evenodd"/></g><g clip-path="url(#136a552dfe)"><path fill="#ffe100" d="M 346.453125 343.449219 L 342.644531 350.4375 L 346.660156 351.492188 L 341.121094 358.449219 L 345.492188 359.480469 L 340.164062 369.136719 L 342.136719 369.757812 L 334.710938 382.148438 L 344.535156 368.839844 L 342.464844 368.277344 L 350.316406 358.164062 L 347.21875 357.242188 L 352.9375 350.566406 L 348.640625 348.8125 L 352.496094 343.449219 L 346.453125 343.449219" fill-opacity="1" fill-rule="evenodd"/></g><g clip-path="url(#ef30d26fcc)"><path fill="#000000" d="M 319.910156 434.648438 L 323.757812 426.363281 L 320.15625 425.433594 L 319.574219 425.285156 L 319.933594 424.804688 L 324.742188 418.375 L 320.921875 417.484375 L 320.417969 417.367188 L 320.652344 416.910156 L 331.246094 396.339844 L 317.59375 418.082031 L 320.230469 418.859375 L 320.804688 419.027344 L 320.429688 419.492188 L 314.828125 426.425781 L 318.667969 427.1875 L 319.265625 427.304688 L 318.925781 427.804688 L 314.292969 434.648438 L 313.320312 434.648438 L 317.917969 427.855469 L 314.023438 427.082031 L 313.371094 426.953125 L 313.785156 426.4375 L 319.425781 419.457031 L 316.859375 418.703125 L 316.351562 418.554688 L 316.632812 418.105469 L 335.566406 387.949219 L 336.261719 388.34375 L 321.605469 416.820312 L 325.527344 417.730469 L 326.125 417.871094 L 325.757812 418.363281 L 320.9375 424.808594 L 324.425781 425.710938 L 324.890625 425.828125 L 324.6875 426.265625 L 320.796875 434.648438 L 319.910156 434.648438" fill-opacity="1" fill-rule="evenodd"/></g><g clip-path="url(#83d3fbec35)"><path fill="#ffe100" d="M 320.351562 434.648438 L 324.324219 426.097656 L 320.257812 425.046875 L 325.433594 418.121094 L 321.011719 417.09375 L 335.90625 388.160156 L 316.96875 418.316406 L 320.117188 419.242188 L 314.097656 426.6875 L 318.59375 427.582031 L 313.804688 434.648438 L 320.351562 434.648438" fill-opacity="1" fill-rule="evenodd"/></g><path fill="#000000" d="M 344.042969 344.949219 L 340.566406 350.511719 L 344.34375 351.917969 L 338.890625 359.101562 L 343.410156 360.402344 L 339.222656 367.476562 L 341.832031 361.226562 L 336.195312 359.753906 L 342.15625 352.46875 L 338.675781 351.269531 L 344.042969 344.949219" fill-opacity="1" fill-rule="evenodd"/><path fill="#000000" d="M 323.273438 424.367188 L 327.710938 416.976562 L 323.699219 415.609375 L 331.207031 400.292969 L 326.621094 413.835938 L 330.8125 415.34375 L 323.273438 424.367188" fill-opacity="1" fill-rule="evenodd"/><path fill="#000000" d="M 315.804688 377.640625 L 315.34375 377.308594 L 312.957031 375.558594 L 315.722656 376.609375 C 316.304688 376.828125 316.863281 377.046875 317.425781 377.265625 C 320.9375 378.636719 324.65625 380.089844 325.792969 379.25 C 326.394531 378.808594 326.339844 377.667969 325.960938 376.1875 C 325.550781 374.585938 324.742188 372.621094 323.929688 370.695312 L 322.839844 368.117188 L 324.609375 370.285156 C 324.976562 370.734375 325.296875 371.148438 325.621094 371.5625 C 327.402344 373.847656 329.203125 376.160156 330.882812 375.453125 C 332.558594 374.746094 333.414062 369.886719 334.050781 366.28125 C 334.199219 365.4375 334.335938 364.664062 334.476562 363.984375 L 335.347656 359.828125 L 335.273438 364.074219 C 335.230469 366.394531 335.273438 370.160156 335.742188 372.9375 C 336.035156 374.671875 336.464844 375.980469 337.101562 376.175781 C 337.765625 376.378906 339.453125 375.457031 341.449219 374.09375 C 344.59375 371.945312 348.398438 368.714844 350.382812 366.929688 L 354.636719 363.097656 L 350.960938 367.484375 C 349.066406 369.742188 346.253906 373.523438 344.597656 376.644531 C 343.503906 378.710938 342.914062 380.4375 343.46875 381.101562 C 344.671875 382.53125 351.160156 381.769531 356.109375 381.1875 C 357.316406 381.046875 358.4375 380.914062 359.417969 380.824219 L 362.871094 380.511719 L 359.582031 381.605469 C 358.816406 381.859375 357.914062 382.128906 356.914062 382.429688 C 352.640625 383.710938 346.582031 385.53125 346.183594 387.25 C 345.824219 388.800781 349.8125 390.210938 353.367188 391.46875 C 354.351562 391.816406 355.300781 392.15625 356.144531 392.492188 L 358.902344 393.59375 L 355.949219 393.261719 C 354.800781 393.132812 353.386719 392.8125 351.902344 392.476562 C 348.195312 391.632812 344.050781 390.6875 343.195312 392.53125 C 342.226562 394.617188 346.15625 397.621094 348.75 399.597656 C 349.410156 400.101562 349.988281 400.546875 350.386719 400.894531 L 352.328125 402.601562 L 349.960938 401.566406 C 349.28125 401.269531 348.3125 400.734375 347.222656 400.136719 C 344.355469 398.5625 340.605469 396.503906 339.804688 397.246094 C 338.910156 398.082031 340.296875 402.878906 341.515625 407.09375 C 341.871094 408.328125 342.214844 409.515625 342.476562 410.523438 L 343.191406 413.292969 L 341.742188 410.828125 C 341.167969 409.851562 340.574219 408.636719 339.960938 407.375 C 338.355469 404.070312 336.585938 400.4375 334.957031 400.585938 C 333.253906 400.742188 332.234375 404.304688 331.246094 407.765625 C 330.917969 408.902344 330.597656 410.027344 330.234375 411.066406 L 329.128906 414.25 L 329.457031 410.898438 C 329.539062 410.050781 329.710938 408.984375 329.898438 407.832031 C 330.492188 404.167969 331.238281 399.566406 329.71875 398.902344 C 328.164062 398.226562 321.71875 405.257812 317.191406 410.203125 C 315.84375 411.675781 314.65625 412.96875 313.820312 413.816406 L 311.101562 416.5625 L 313.195312 413.316406 C 313.945312 412.15625 315.128906 410.484375 316.449219 408.617188 C 320.125 403.421875 324.898438 396.675781 324.167969 395.933594 C 323.4375 395.191406 318.296875 397.695312 314.085938 399.746094 C 312.359375 400.585938 310.785156 401.351562 309.683594 401.796875 L 305.851562 403.351562 L 309.3125 401.089844 C 310.046875 400.609375 311.136719 399.96875 312.371094 399.246094 C 316.390625 396.886719 321.96875 393.613281 321.808594 392.054688 C 321.621094 390.261719 316.9375 388.992188 313.15625 387.96875 C 312.660156 387.832031 312.179688 387.703125 311.632812 387.550781 L 308.699219 386.722656 L 311.746094 386.761719 C 312.199219 386.769531 312.6875 386.78125 313.210938 386.792969 C 316.824219 386.886719 321.953125 387.015625 322.707031 385.207031 C 323.515625 383.269531 318.636719 379.707031 315.804688 377.640625" fill-opacity="1" fill-rule="evenodd"/><path fill="#ed1210" d="M 315.582031 376.984375 C 318.402344 379.046875 324.058594 383.007812 323.078125 385.359375 C 322.097656 387.710938 315.359375 387.207031 311.742188 387.164062 C 315.761719 388.292969 321.964844 389.664062 322.207031 392.011719 C 322.453125 394.363281 312.792969 399.292969 309.53125 401.425781 C 313.351562 399.878906 323.148438 394.328125 324.453125 395.652344 C 325.761719 396.976562 316.390625 409.109375 313.535156 413.535156 C 317.28125 409.746094 327.53125 397.511719 329.878906 398.535156 C 332.230469 399.558594 330.210938 407.34375 329.855469 410.9375 C 331.304688 406.773438 332.316406 400.425781 334.921875 400.1875 C 337.527344 399.949219 339.988281 407.0625 342.085938 410.625 C 340.882812 405.972656 338.152344 398.238281 339.53125 396.953125 C 340.914062 395.667969 347.664062 400.121094 350.121094 401.199219 C 348.09375 399.417969 341.457031 395.316406 342.828125 392.363281 C 344.199219 389.414062 351.890625 392.402344 355.996094 392.863281 C 352.046875 391.285156 345.238281 389.558594 345.792969 387.160156 C 346.347656 384.761719 355.636719 382.492188 359.457031 381.222656 C 354.632812 381.660156 344.828125 383.339844 343.160156 381.359375 C 341.496094 379.375 347.414062 371.089844 350.652344 367.226562 C 347.347656 370.203125 339 377.175781 336.984375 376.558594 C 334.964844 375.941406 334.800781 367.96875 334.871094 364.066406 C 334.148438 367.53125 333.347656 374.847656 331.035156 375.824219 C 328.726562 376.796875 326.5 373.242188 324.296875 370.539062 C 325.933594 374.417969 327.554688 378.453125 326.03125 379.574219 C 324.507812 380.695312 319.613281 378.511719 315.582031 376.984375" fill-opacity="1" fill-rule="evenodd"/><path fill="#000000" d="M 326.917969 360.777344 C 326.625 359.773438 325.515625 360.085938 325.875 361.292969 L 332.96875 383.511719 L 326.917969 360.777344" fill-opacity="1" fill-rule="evenodd"/><path fill="#000000" d="M 365.652344 394.0625 C 366.660156 394.351562 367.097656 392.722656 365.886719 392.378906 L 350.769531 389.269531 L 365.652344 394.0625" fill-opacity="1" fill-rule="evenodd"/><path fill="#f58214" d="M 332.175781 400.296875 C 332.820312 397.960938 333.492188 394.574219 334.40625 394.527344 C 335.175781 394.488281 336.871094 397.339844 337.8125 399.785156 C 337 397.074219 336.121094 393.773438 336.824219 393.121094 C 337.433594 392.550781 343.234375 396.773438 345.21875 397.941406 C 343.9375 396.566406 337.878906 392.078125 338.730469 390.25 C 339.265625 389.09375 342.660156 389.183594 345.148438 389.472656 C 343.214844 388.917969 340.449219 387.683594 340.617188 386.972656 C 340.769531 386.304688 344.855469 384.320312 346.144531 384.023438 C 345.003906 383.921875 340.269531 385.507812 339.089844 383.96875 C 337.988281 382.535156 345.277344 373.289062 346.339844 371.929688 C 345.089844 372.929688 337.621094 381.042969 335.492188 380.683594 C 334.148438 380.457031 334.191406 375.304688 334.03125 374.0625 C 333.703125 375.503906 333.132812 380.714844 332.347656 381 C 331.566406 381.28125 329.449219 378.976562 328.828125 377.800781 C 329.238281 379.339844 329.996094 382.160156 329.109375 382.984375 C 328.3125 383.730469 321.640625 380.429688 319.945312 379.386719 C 321.917969 380.910156 327.199219 385.222656 326.707031 386.40625 C 326.335938 387.296875 323.515625 387.589844 321.738281 387.851562 C 324.128906 388.367188 327.410156 387.785156 327.492188 389.476562 C 327.519531 390.050781 324.382812 392.941406 322.960938 393.871094 C 323.714844 393.441406 328.296875 391.152344 328.71875 391.578125 C 329.445312 392.3125 320.085938 405.035156 318.605469 407.125 C 320.664062 404.84375 329.628906 394.527344 331.230469 395.164062 C 332.34375 395.605469 332.078125 398.128906 332.175781 400.296875" fill-opacity="1" fill-rule="evenodd"/><path fill="#000000" d="M 312.988281 395.257812 C 311.070312 395.703125 310.871094 393.667969 312.613281 393.390625 L 330.824219 388.765625 L 312.988281 395.257812" fill-opacity="1" fill-rule="evenodd"/><path fill="#fdb913" d="M 331.105469 381.945312 C 331.851562 383.730469 332.191406 384.945312 331.730469 385.863281 C 331.269531 386.78125 329.6875 387.242188 328.53125 387.625 C 330.082031 387.625 331.628906 387.894531 332.25 388.800781 C 332.953125 389.828125 332.941406 392.03125 332.648438 394.757812 C 333.242188 391.988281 333.992188 389.664062 335.117188 388.738281 C 335.890625 388.101562 337.949219 388.148438 339.085938 388.339844 C 338.085938 387.703125 336.953125 386.753906 336.632812 385.738281 C 336.308594 384.714844 339.773438 379.84375 340.796875 378.257812 C 339.75 379.488281 335.738281 384 334.328125 384.195312 C 333.082031 384.367188 331.949219 383.378906 331.105469 381.945312" fill-opacity="1" fill-rule="evenodd"/><path fill="#000000" d="M 325.277344 382.226562 L 332.957031 397.996094 L 339.859375 397.84375 L 343.523438 377.136719 L 336.117188 378.835938 L 335.390625 389.683594 L 331.742188 378.167969 L 325.277344 382.226562" fill-opacity="1" fill-rule="evenodd"/><path fill="#000000" d="M 325.648438 382.332031 L 333.132812 397.703125 L 339.617188 397.558594 L 343.164062 377.515625 L 336.390625 379.066406 L 335.675781 389.703125 C 335.667969 389.839844 335.5625 389.953125 335.425781 389.96875 C 335.289062 389.984375 335.15625 389.902344 335.117188 389.769531 L 331.578125 378.609375 Z M 332.957031 398.28125 C 332.84375 398.28125 332.746094 398.21875 332.695312 398.121094 L 325.019531 382.351562 C 324.957031 382.21875 325 382.0625 325.125 381.984375 L 331.589844 377.925781 C 331.664062 377.878906 331.757812 377.867188 331.839844 377.898438 C 331.925781 377.929688 331.988281 377.996094 332.015625 378.082031 L 335.203125 388.144531 L 335.828125 378.816406 C 335.835938 378.691406 335.929688 378.585938 336.050781 378.554688 L 343.460938 376.855469 C 343.554688 376.835938 343.652344 376.863281 343.722656 376.929688 C 343.792969 376.996094 343.824219 377.09375 343.808594 377.1875 L 340.140625 397.894531 C 340.117188 398.027344 340.003906 398.125 339.863281 398.128906 L 332.960938 398.28125 C 332.960938 398.28125 332.957031 398.28125 332.957031 398.28125" fill-opacity="1" fill-rule="nonzero"/><path fill="#ffe100" d="M 326.304688 381.054688 L 333.980469 396.824219 L 340.886719 396.671875 L 344.550781 375.964844 L 337.144531 377.664062 L 336.417969 388.511719 L 332.769531 376.996094 L 326.304688 381.054688" fill-opacity="1" fill-rule="evenodd"/><path fill="#000000" d="M 326.675781 381.160156 L 334.160156 396.53125 L 340.644531 396.390625 L 344.191406 376.34375 L 337.414062 377.898438 L 336.703125 388.53125 C 336.695312 388.671875 336.589844 388.78125 336.449219 388.800781 C 336.3125 388.816406 336.183594 388.730469 336.140625 388.601562 L 332.605469 377.4375 Z M 333.980469 397.109375 C 333.871094 397.109375 333.769531 397.046875 333.722656 396.949219 L 326.046875 381.179688 C 325.980469 381.046875 326.027344 380.890625 326.152344 380.8125 L 332.613281 376.753906 C 332.691406 376.707031 332.785156 376.695312 332.867188 376.726562 C 332.949219 376.757812 333.015625 376.824219 333.042969 376.910156 L 336.230469 386.976562 L 336.855469 377.644531 C 336.863281 377.519531 336.953125 377.414062 337.078125 377.386719 L 344.488281 375.6875 C 344.578125 375.664062 344.679688 375.691406 344.75 375.757812 C 344.816406 375.824219 344.851562 375.921875 344.835938 376.015625 L 341.167969 396.722656 C 341.144531 396.855469 341.027344 396.957031 340.890625 396.957031 L 333.988281 397.109375 C 333.984375 397.109375 333.984375 397.109375 333.980469 397.109375" fill-opacity="1" fill-rule="nonzero"/><path fill="#000000" d="M 350.464844 381.472656 C 350.824219 380.183594 348.984375 378.792969 347.746094 379.984375 C 346.46875 381.210938 347.472656 382.515625 348.808594 383.011719 C 350.742188 383.730469 353.9375 384.0625 354.578125 387.824219 C 355.425781 392.789062 352.035156 396.035156 346.714844 396.832031 C 345.03125 397.085938 342.386719 396.382812 340.980469 395.203125 L 343.117188 389.554688 C 343.714844 390.3125 345.613281 391.128906 346.6875 390.96875 C 348.855469 390.644531 349.535156 389.417969 348.265625 388.328125 C 346.382812 386.710938 342.53125 385.984375 342.054688 382.910156 C 341.449219 379.050781 343.621094 376.601562 346.367188 375.292969 C 350.1875 373.464844 354.632812 376.140625 354.742188 379.566406 L 350.464844 381.472656" fill-opacity="1" fill-rule="evenodd"/><path fill="#000000" d="M 341.21875 395.136719 C 342.367188 396.039062 344.339844 396.683594 345.972656 396.683594 C 346.230469 396.683594 346.46875 396.664062 346.683594 396.632812 C 349.648438 396.1875 351.996094 394.957031 353.296875 393.160156 C 354.363281 391.6875 354.730469 389.902344 354.378906 387.859375 C 353.859375 384.804688 351.570312 384.097656 349.730469 383.527344 C 349.378906 383.417969 349.046875 383.316406 348.738281 383.199219 C 347.804688 382.855469 347.132812 382.195312 346.988281 381.480469 C 346.902344 381.082031 346.945312 380.476562 347.605469 379.839844 C 347.953125 379.507812 348.371094 379.332031 348.816406 379.332031 C 349.394531 379.332031 349.980469 379.632812 350.351562 380.121094 C 350.589844 380.433594 350.714844 380.792969 350.710938 381.144531 L 354.53125 379.4375 C 354.367188 376.964844 351.855469 374.898438 348.96875 374.898438 C 348.09375 374.898438 347.246094 375.09375 346.453125 375.472656 C 344.589844 376.363281 341.566406 378.507812 342.253906 382.878906 C 342.5625 384.875 344.378906 385.839844 346.132812 386.773438 C 346.980469 387.222656 347.78125 387.644531 348.394531 388.175781 C 348.972656 388.671875 349.210938 389.234375 349.058594 389.757812 C 348.855469 390.460938 348.003906 390.972656 346.71875 391.167969 C 346.617188 391.183594 346.507812 391.1875 346.390625 391.1875 C 345.382812 391.1875 343.925781 390.59375 343.191406 389.925781 Z M 345.972656 397.085938 C 344.199219 397.085938 342.042969 396.355469 340.847656 395.355469 C 340.78125 395.300781 340.761719 395.210938 340.789062 395.128906 L 342.929688 389.484375 C 342.957031 389.417969 343.015625 389.367188 343.085938 389.355469 C 343.160156 389.34375 343.230469 389.375 343.277344 389.429688 C 343.796875 390.089844 345.398438 390.789062 346.390625 390.789062 C 346.488281 390.789062 346.578125 390.78125 346.65625 390.769531 C 347.761719 390.605469 348.515625 390.183594 348.671875 389.648438 C 348.777344 389.28125 348.585938 388.867188 348.132812 388.480469 C 347.550781 387.980469 346.769531 387.566406 345.945312 387.125 C 344.1875 386.191406 342.195312 385.136719 341.855469 382.941406 C 341.128906 378.3125 344.316406 376.046875 346.277344 375.109375 C 347.128906 374.703125 348.03125 374.496094 348.96875 374.496094 C 352.121094 374.496094 354.855469 376.816406 354.941406 379.558594 C 354.945312 379.640625 354.898438 379.714844 354.824219 379.75 L 350.546875 381.65625 C 350.476562 381.691406 350.394531 381.675781 350.332031 381.625 C 350.273438 381.574219 350.25 381.496094 350.269531 381.421875 C 350.367188 381.078125 350.28125 380.691406 350.027344 380.363281 C 349.734375 379.972656 349.269531 379.730469 348.816406 379.730469 C 348.476562 379.730469 348.152344 379.871094 347.882812 380.128906 C 347.460938 380.539062 347.289062 380.964844 347.378906 381.398438 C 347.5 381.96875 348.085938 382.527344 348.878906 382.824219 C 349.175781 382.933594 349.503906 383.035156 349.851562 383.144531 C 351.796875 383.746094 354.214844 384.492188 354.777344 387.789062 C 355.140625 389.917969 354.742188 391.855469 353.625 393.398438 C 352.238281 395.308594 349.859375 396.5625 346.746094 397.03125 C 346.507812 397.066406 346.25 397.085938 345.972656 397.085938" fill-opacity="1" fill-rule="nonzero"/><g clip-path="url(#5c46c15024)"><path fill="#000000" d="M 364.992188 370.359375 L 364.269531 372.171875 L 367.597656 373.8125 L 363.609375 374.375 L 362.507812 378.257812 L 360.847656 374.789062 L 352.023438 376.628906 L 359.726562 372.484375 L 358.066406 369.097656 L 362.054688 371.074219 L 365.386719 369.367188 L 364.992188 370.359375" fill-opacity="1" fill-rule="evenodd"/></g><path fill="#ffffff" d="M 364.617188 370.210938 L 363.761719 372.367188 L 366.253906 373.597656 L 363.292969 374.015625 L 362.410156 377.128906 L 361.070312 374.332031 L 354.648438 375.671875 L 360.257812 372.65625 L 358.945312 369.984375 L 362.058594 371.523438 L 364.617188 370.210938" fill-opacity="1" fill-rule="evenodd"/><g clip-path="url(#5026abf311)"><path fill="#000000" d="M 305.464844 394.578125 L 303.582031 393.691406 L 306.0625 392.984375 L 307.121094 390.136719 L 307.878906 392.585938 L 313.835938 391.007812 L 308.417969 394.308594 L 309.203125 396.773438 L 306.863281 395.375 L 304.5625 396.992188 L 305.464844 394.578125" fill-opacity="1" fill-rule="evenodd"/></g><path fill="#ffffff" d="M 304.722656 393.785156 L 305.972656 394.371094 L 305.394531 395.917969 L 306.84375 394.894531 L 308.496094 395.886719 L 307.9375 394.132812 L 311.265625 392.105469 L 307.605469 393.074219 L 307.085938 391.382812 L 306.367188 393.316406 L 304.722656 393.785156" fill-opacity="1" fill-rule="evenodd"/><path fill="#000000" d="M 317.214844 358.203125 L 318.238281 355.628906 L 319.386719 358.863281 L 323.292969 360.046875 L 320.054688 361.265625 L 322.597656 368.910156 L 317.84375 362.105469 L 314.558594 363.375 L 316.265625 360.097656 L 313.953125 357.207031 L 317.214844 358.203125" fill-opacity="1" fill-rule="evenodd"/><path fill="#ffffff" d="M 318.21875 356.769531 L 317.449219 358.695312 L 315.074219 357.96875 L 316.742188 360.050781 L 315.40625 362.617188 L 317.992188 361.621094 L 321.347656 366.417969 L 319.550781 361.023438 L 322.046875 360.089844 L 319.074219 359.1875 L 318.21875 356.769531" fill-opacity="1" fill-rule="evenodd"/><path fill="#ffe100" d="M 351.449219 380.351562 C 351.8125 379.0625 349.96875 377.667969 348.730469 378.863281 C 347.453125 380.089844 348.457031 381.390625 349.792969 381.890625 C 351.726562 382.609375 354.921875 382.9375 355.5625 386.703125 C 356.410156 391.664062 353.019531 394.910156 347.699219 395.707031 C 346.011719 395.960938 343.371094 395.257812 341.960938 394.078125 L 344.101562 388.433594 C 344.699219 389.1875 346.597656 390.003906 347.671875 389.84375 C 349.839844 389.519531 350.519531 388.292969 349.25 387.203125 C 347.367188 385.589844 343.519531 384.863281 343.035156 381.789062 C 342.433594 377.925781 344.605469 375.480469 347.347656 374.167969 C 351.171875 372.339844 355.617188 375.019531 355.726562 378.441406 L 351.449219 380.351562" fill-opacity="1" fill-rule="evenodd"/><path fill="#000000" d="M 342.304688 393.984375 C 343.449219 394.855469 345.363281 395.472656 346.960938 395.472656 C 347.207031 395.472656 347.445312 395.457031 347.65625 395.425781 C 350.59375 394.984375 352.921875 393.765625 354.210938 391.988281 C 355.265625 390.535156 355.625 388.769531 355.28125 386.75 C 354.769531 383.746094 352.601562 383.078125 350.691406 382.488281 C 350.335938 382.378906 350 382.273438 349.691406 382.15625 C 348.734375 381.800781 348.039062 381.117188 347.886719 380.375 C 347.796875 379.957031 347.839844 379.316406 348.527344 378.65625 C 348.890625 378.304688 349.332031 378.121094 349.800781 378.121094 C 350.402344 378.121094 351.015625 378.4375 351.402344 378.945312 C 351.625 379.234375 351.75 379.5625 351.777344 379.890625 L 355.425781 378.261719 C 355.230469 375.859375 352.773438 373.863281 349.953125 373.863281 C 349.089844 373.863281 348.257812 374.050781 347.472656 374.425781 C 345.632812 375.308594 342.644531 377.429688 343.320312 381.742188 C 343.628906 383.695312 345.421875 384.648438 347.160156 385.570312 C 348.007812 386.023438 348.8125 386.449219 349.4375 386.984375 C 350.042969 387.507812 350.285156 388.101562 350.125 388.660156 C 349.914062 389.394531 349.035156 389.929688 347.714844 390.128906 C 346.742188 390.273438 345.082031 389.675781 344.214844 388.949219 Z M 346.960938 396.046875 C 345.164062 396.046875 342.988281 395.3125 341.777344 394.296875 C 341.683594 394.21875 341.648438 394.089844 341.691406 393.976562 L 343.832031 388.332031 C 343.871094 388.234375 343.957031 388.164062 344.058594 388.148438 C 344.164062 388.132812 344.265625 388.171875 344.328125 388.253906 C 344.789062 388.835938 346.316406 389.578125 347.375 389.578125 C 347.464844 389.578125 347.550781 389.570312 347.628906 389.558594 C 348.683594 389.402344 349.429688 388.996094 349.574219 388.5 C 349.667969 388.167969 349.488281 387.789062 349.0625 387.421875 C 348.484375 386.929688 347.710938 386.515625 346.886719 386.078125 C 345.113281 385.136719 343.101562 384.070312 342.753906 381.832031 C 342.019531 377.148438 345.242188 374.859375 347.226562 373.910156 C 348.085938 373.496094 349.003906 373.289062 349.953125 373.289062 C 353.148438 373.289062 355.925781 375.644531 356.011719 378.433594 C 356.015625 378.550781 355.949219 378.65625 355.84375 378.703125 L 351.566406 380.613281 C 351.464844 380.660156 351.347656 380.640625 351.261719 380.570312 C 351.175781 380.496094 351.144531 380.382812 351.171875 380.273438 C 351.261719 379.957031 351.179688 379.597656 350.945312 379.292969 C 350.664062 378.921875 350.226562 378.695312 349.800781 378.695312 C 349.480469 378.695312 349.1875 378.820312 348.929688 379.070312 C 348.527344 379.457031 348.367188 379.855469 348.449219 380.257812 C 348.5625 380.800781 349.128906 381.335938 349.894531 381.621094 C 350.1875 381.730469 350.515625 381.832031 350.863281 381.9375 C 352.722656 382.515625 355.277344 383.304688 355.847656 386.652344 C 356.214844 388.800781 355.808594 390.765625 354.675781 392.324219 C 353.277344 394.253906 350.878906 395.523438 347.742188 395.992188 C 347.5 396.03125 347.238281 396.046875 346.960938 396.046875" fill-opacity="1" fill-rule="nonzero"/><path fill="#ffe100" d="M 349.660156 371.433594 L 356.519531 363.347656 L 359.894531 364.246094 Z M 349.660156 371.433594" fill-opacity="1" fill-rule="evenodd"/><path fill="#000000" d="M 356.59375 363.578125 L 350.828125 370.363281 L 359.425781 364.332031 Z M 349.660156 371.632812 C 349.605469 371.632812 349.550781 371.609375 349.511719 371.566406 C 349.445312 371.492188 349.441406 371.378906 349.507812 371.300781 L 356.367188 363.21875 C 356.417969 363.160156 356.496094 363.136719 356.574219 363.15625 L 359.945312 364.054688 C 360.019531 364.074219 360.078125 364.136719 360.09375 364.210938 C 360.105469 364.289062 360.074219 364.367188 360.011719 364.414062 L 349.777344 371.597656 C 349.742188 371.621094 349.703125 371.632812 349.660156 371.632812" fill-opacity="1" fill-rule="nonzero"/><g clip-path="url(#cc9ff28056)"><path fill="#ffe100" d="M 316.035156 399.949219 L 303.441406 407.355469 L 304.339844 411.625 C 304.339844 411.625 315.921875 399.949219 316.035156 399.949219" fill-opacity="1" fill-rule="evenodd"/><path fill="#000000" d="M 303.667969 407.457031 L 304.460938 411.214844 C 306.011719 409.652344 312.035156 403.589844 314.671875 400.984375 Z M 304.339844 411.824219 C 304.320312 411.824219 304.304688 411.820312 304.285156 411.816406 C 304.214844 411.796875 304.160156 411.734375 304.144531 411.664062 L 303.246094 407.398438 C 303.226562 407.3125 303.265625 407.226562 303.339844 407.183594 L 315.933594 399.773438 C 316.054688 399.710938 316.199219 399.777344 316.230469 399.894531 C 316.253906 399.980469 316.214844 400.074219 316.140625 400.121094 C 315.703125 400.472656 307.589844 408.632812 304.484375 411.765625 C 304.445312 411.804688 304.394531 411.824219 304.339844 411.824219" fill-opacity="1" fill-rule="nonzero"/></g><path fill="#ffe100" d="M 337.851562 405.898438 L 342.015625 415.550781 L 340.441406 415.777344 Z M 337.851562 405.898438" fill-opacity="1" fill-rule="evenodd"/><path fill="#000000" d="M 338.722656 408.421875 L 340.589844 415.550781 L 341.726562 415.390625 Z M 340.441406 415.976562 C 340.347656 415.976562 340.269531 415.917969 340.246094 415.828125 L 337.65625 405.949219 C 337.632812 405.847656 337.6875 405.742188 337.789062 405.707031 C 337.886719 405.671875 337.996094 405.722656 338.039062 405.816406 L 342.199219 415.472656 C 342.222656 415.53125 342.21875 415.59375 342.1875 415.652344 C 342.160156 415.703125 342.105469 415.742188 342.042969 415.75 L 340.46875 415.976562 C 340.457031 415.976562 340.449219 415.976562 340.441406 415.976562" fill-opacity="1" fill-rule="nonzero"/><path fill="#ffe100" d="M 320.757812 376.933594 L 307.488281 369.300781 L 308.503906 366.042969 Z M 320.757812 376.933594" fill-opacity="1" fill-rule="evenodd"/><path fill="#000000" d="M 307.730469 369.207031 L 319.160156 375.78125 L 308.601562 366.402344 Z M 320.757812 377.136719 C 320.726562 377.136719 320.691406 377.125 320.660156 377.109375 L 307.386719 369.472656 C 307.308594 369.425781 307.269531 369.328125 307.296875 369.238281 L 308.308594 365.984375 C 308.328125 365.917969 308.382812 365.867188 308.449219 365.851562 C 308.511719 365.832031 308.585938 365.847656 308.636719 365.894531 L 320.871094 376.765625 C 320.929688 376.800781 320.964844 376.863281 320.964844 376.933594 C 320.964844 377.042969 320.875 377.136719 320.761719 377.136719 C 320.761719 377.132812 320.761719 377.136719 320.757812 377.136719" fill-opacity="1" fill-rule="nonzero"/><path fill="#ffe100" d="M 348.535156 397.703125 L 359.558594 404.773438 L 359.332031 402.082031 Z M 348.535156 397.703125" fill-opacity="1" fill-rule="evenodd"/><path fill="#000000" d="M 350.46875 398.703125 L 359.324219 404.382812 L 359.140625 402.21875 Z M 359.558594 404.976562 C 359.519531 404.976562 359.480469 404.964844 359.449219 404.945312 L 348.425781 397.871094 C 348.339844 397.816406 348.308594 397.703125 348.355469 397.609375 C 348.40625 397.519531 348.515625 397.476562 348.613281 397.515625 L 359.40625 401.894531 C 359.476562 401.921875 359.527344 401.988281 359.53125 402.0625 L 359.757812 404.757812 C 359.761719 404.835938 359.726562 404.90625 359.660156 404.945312 C 359.628906 404.964844 359.59375 404.976562 359.558594 404.976562" fill-opacity="1" fill-rule="nonzero"/><path fill="#000000" d="M 341.113281 400.285156 L 348.199219 419.03125 L 349.324219 416.675781 Z M 341.113281 400.285156" fill-opacity="1" fill-rule="evenodd"/><g clip-path="url(#2828dc58d5)"><path fill="#000000" d="M 304.316406 384.675781 C 303.371094 384.566406 303.480469 383.53125 304.613281 383.664062 L 325.597656 386.585938 L 304.316406 384.675781" fill-opacity="1" fill-rule="evenodd"/></g><g fill="#000000" fill-opacity="1"><g transform="translate(288.611402, 288.066552)"><g><path d="M 2.285156 -14.023438 C 1.929688 -14.042969 1.59375 -14.003906 1.382812 -13.855469 C 1.027344 -13.605469 1.007812 -13.039062 1.007812 -12.765625 L 1.007812 -12.386719 C 1.027344 -11.96875 1.070312 -11.738281 1.070312 -11.527344 C 1.070312 -11.488281 1.070312 -11.296875 1.070312 -11.257812 L 1.046875 -10.730469 C 1.027344 -10.398438 1.007812 -10.230469 1.007812 -10.0625 C 0.964844 -9.539062 1.027344 -9.558594 1.027344 -9.035156 L 1.027344 -8.53125 C 1.027344 -7.714844 0.984375 -7.546875 0.984375 -6.980469 C 0.984375 -6.601562 1.007812 -6.265625 1.027344 -5.804688 C 1.089844 -4.882812 0.984375 -4.382812 1.007812 -3.753906 L 1.027344 -2.640625 C 1.027344 -2.429688 1.027344 -2.199219 1.027344 -1.992188 C 1.027344 -1.84375 1.046875 -1.699219 1.046875 -1.550781 L 1.089844 -0.648438 C 1.089844 -0.523438 1.171875 -0.378906 1.214844 -0.292969 C 1.445312 0.105469 1.992188 -0.0195312 2.285156 -0.0195312 L 2.660156 -0.0195312 C 2.828125 -0.0195312 2.996094 -0.0195312 3.164062 -0.0195312 C 3.355469 -0.0195312 3.5625 0 3.753906 0 L 5.996094 0 C 6.476562 0 6.9375 -0.0429688 7.421875 -0.0429688 C 7.945312 -0.0429688 8.46875 0 8.992188 0 L 9.410156 0 C 10.1875 0 10.0625 -1.027344 10.0625 -1.90625 C 10.0625 -2.199219 10.0625 -2.578125 9.871094 -2.765625 C 9.769531 -2.871094 9.515625 -3.039062 8.910156 -3.019531 C 8.65625 -3.019531 8.382812 -2.976562 8.132812 -2.976562 C 7.652344 -2.976562 7.148438 -3.019531 6.664062 -2.996094 C 6.433594 -2.976562 6.035156 -2.957031 5.386719 -3.019531 L 5.007812 -3.058594 C 4.90625 -3.082031 4.738281 -3.101562 4.613281 -3.207031 C 4.484375 -3.3125 4.464844 -3.457031 4.445312 -3.5625 C 4.402344 -3.773438 4.402344 -4.148438 4.402344 -4.214844 L 4.402344 -4.945312 C 4.402344 -5.09375 4.402344 -5.28125 4.632812 -5.597656 C 4.757812 -5.742188 4.945312 -5.765625 5.03125 -5.765625 L 5.847656 -5.703125 C 6.476562 -5.660156 7.714844 -5.597656 8.300781 -5.597656 C 8.613281 -5.597656 8.929688 -5.597656 9.242188 -5.765625 C 9.371094 -5.828125 9.496094 -5.933594 9.539062 -6.164062 C 9.558594 -6.289062 9.601562 -6.730469 9.601562 -6.894531 L 9.601562 -7.820312 C 9.601562 -8.175781 9.539062 -8.40625 9.433594 -8.511719 C 9.285156 -8.65625 8.886719 -8.71875 8.699219 -8.71875 C 8.511719 -8.71875 8.195312 -8.65625 7.820312 -8.679688 L 7.484375 -8.699219 C 7.273438 -8.71875 7.421875 -8.742188 7.148438 -8.742188 C 6.8125 -8.742188 6.644531 -8.71875 6.394531 -8.71875 L 5.574219 -8.699219 C 5.261719 -8.699219 4.800781 -8.71875 4.570312 -9.011719 C 4.445312 -9.179688 4.421875 -9.371094 4.421875 -9.496094 C 4.421875 -9.578125 4.421875 -9.664062 4.421875 -9.746094 C 4.421875 -9.832031 4.402344 -9.894531 4.402344 -9.976562 L 4.382812 -10.207031 C 4.359375 -10.375 4.359375 -10.667969 4.570312 -10.878906 C 4.738281 -11.046875 5.050781 -11.152344 5.449219 -11.128906 L 8.574219 -11.003906 C 8.992188 -10.984375 9.140625 -11.109375 9.179688 -11.152344 C 9.328125 -11.296875 9.347656 -11.589844 9.371094 -11.78125 L 9.453125 -12.261719 C 9.472656 -12.410156 9.515625 -12.492188 9.539062 -12.746094 C 9.539062 -13.039062 9.558594 -12.996094 9.558594 -13.101562 C 9.558594 -13.414062 9.515625 -13.605469 9.410156 -13.75 C 9.265625 -13.980469 9.117188 -13.960938 8.972656 -13.960938 L 8.214844 -13.917969 C 7.921875 -13.898438 7.523438 -13.960938 7.148438 -13.980469 C 7.023438 -13.980469 6.894531 -13.980469 6.769531 -13.980469 C 5.996094 -13.980469 5.199219 -13.917969 4.421875 -13.9375 Z M 2.285156 -14.023438"/></g></g></g><g fill="#000000" fill-opacity="1"><g transform="translate(299.364533, 288.066552)"><g><path d="M 3.984375 -13.246094 C 3.898438 -13.394531 3.773438 -13.625 3.5625 -13.8125 C 3.25 -14.066406 2.976562 -14.066406 2.746094 -14.066406 L 1.761719 -14.023438 C 1.171875 -14.003906 1.238281 -14.085938 0.648438 -14.085938 C 0.480469 -14.085938 0.378906 -14.023438 0.3125 -13.980469 C 0.25 -13.917969 0.167969 -13.835938 0.167969 -13.644531 C 0.167969 -13.394531 0.480469 -12.890625 0.566406 -12.765625 L 1.277344 -11.613281 C 1.488281 -11.277344 1.488281 -11.066406 1.800781 -10.523438 C 2.054688 -10.0625 2.429688 -9.558594 2.660156 -9.035156 L 2.746094 -8.84375 C 3.355469 -7.503906 3.6875 -7.273438 3.6875 -7.042969 C 3.6875 -6.832031 3.605469 -6.730469 3.542969 -6.664062 C 3.332031 -6.414062 2.976562 -5.890625 2.851562 -5.660156 L 1.488281 -3.226562 C 1.171875 -2.683594 0.921875 -2.347656 0.777344 -2.160156 C -0.0195312 -1.109375 -0.1875 -0.648438 -0.1875 -0.441406 C -0.1875 -0.292969 -0.105469 -0.210938 -0.0429688 -0.148438 C 0.0625 -0.0429688 0.148438 0 0.417969 0.0195312 C 0.460938 0.0195312 0.523438 0.0195312 0.566406 0.0195312 C 0.648438 0.0195312 0.753906 0 0.839844 0 L 1.488281 0.0195312 C 1.71875 0.0195312 1.929688 0 2.160156 0 C 2.265625 0 2.367188 0 2.472656 0 C 2.726562 0 2.933594 0.0429688 3.164062 -0.0625 C 3.355469 -0.148438 3.4375 -0.273438 3.5625 -0.480469 C 3.625 -0.609375 3.6875 -0.710938 3.753906 -0.839844 C 3.878906 -1.070312 4.003906 -1.300781 4.128906 -1.53125 L 4.382812 -1.992188 C 4.589844 -2.367188 4.570312 -2.453125 4.863281 -2.976562 C 5.050781 -3.332031 5.15625 -3.480469 5.21875 -3.585938 C 5.304688 -3.753906 5.449219 -4.109375 5.679688 -3.917969 C 5.703125 -3.898438 5.785156 -3.816406 5.804688 -3.792969 C 5.847656 -3.753906 5.847656 -3.6875 5.867188 -3.648438 C 5.890625 -3.585938 5.933594 -3.519531 5.972656 -3.480469 C 6.394531 -2.914062 6.265625 -2.976562 6.433594 -2.703125 L 7.253906 -1.40625 C 7.316406 -1.300781 7.378906 -1.171875 7.441406 -1.046875 C 7.484375 -0.984375 7.503906 -0.921875 7.546875 -0.859375 C 7.671875 -0.648438 7.671875 -0.648438 7.734375 -0.523438 C 7.882812 -0.273438 7.945312 -0.230469 8.070312 -0.125 C 8.175781 -0.0429688 8.28125 0.0625 8.488281 0.0625 L 10.019531 0.0195312 C 10.25 0.0195312 10.0625 0.0625 10.648438 0.0820312 C 10.691406 0.0820312 10.710938 0.0820312 10.753906 0.0820312 C 11.445312 0.0820312 11.464844 -0.25 11.464844 -0.3125 C 11.464844 -0.609375 11.027344 -1.109375 10.859375 -1.339844 C 10.523438 -1.824219 10.835938 -1.363281 10.039062 -2.726562 L 8.511719 -5.386719 C 8.089844 -6.101562 8.28125 -5.867188 7.984375 -6.183594 C 7.796875 -6.394531 7.566406 -6.75 7.546875 -6.855469 C 7.546875 -6.875 7.546875 -6.894531 7.546875 -6.917969 C 7.566406 -7.105469 7.589844 -7.230469 7.691406 -7.378906 C 7.714844 -7.421875 7.753906 -7.460938 7.777344 -7.503906 C 7.777344 -7.523438 7.796875 -7.523438 7.796875 -7.546875 C 7.902344 -7.753906 8.050781 -7.839844 8.363281 -8.320312 C 8.992188 -9.242188 8.699219 -8.949219 9.097656 -9.515625 L 9.601562 -10.230469 C 9.621094 -10.269531 9.640625 -10.292969 9.664062 -10.332031 C 9.683594 -10.355469 9.703125 -10.375 9.726562 -10.398438 C 9.832031 -10.5 9.894531 -10.667969 10.355469 -11.425781 C 10.628906 -11.863281 10.605469 -11.820312 10.773438 -12.050781 C 10.921875 -12.261719 10.921875 -12.304688 10.984375 -12.386719 C 11.152344 -12.660156 11.320312 -12.765625 11.570312 -13.289062 C 11.632812 -13.414062 11.632812 -13.457031 11.632812 -13.5625 C 11.632812 -13.644531 11.632812 -13.6875 11.589844 -13.792969 C 11.550781 -13.898438 11.464844 -14.023438 11.214844 -14.023438 L 10.269531 -14.003906 C 10.230469 -14.003906 10.207031 -14.023438 10.167969 -14.023438 C 10.144531 -14.023438 10.125 -14.023438 10.101562 -14.023438 L 9.515625 -14.042969 C 8.59375 -14.085938 8.804688 -14.003906 8.425781 -14.003906 C 8.34375 -14.003906 8.320312 -14.023438 8.195312 -13.960938 C 8.050781 -13.898438 7.964844 -13.8125 7.882812 -13.6875 C 7.859375 -13.644531 7.820312 -13.605469 7.796875 -13.5625 C 7.753906 -13.519531 7.714844 -13.457031 7.691406 -13.414062 C 7.652344 -13.332031 7.628906 -13.226562 7.523438 -13.015625 C 7.421875 -12.808594 7.335938 -12.703125 7.230469 -12.554688 C 7.191406 -12.492188 7.148438 -12.449219 7.105469 -12.386719 C 6.875 -12.074219 6.75 -11.695312 6.539062 -11.382812 L 6.289062 -11.003906 C 6.203125 -10.878906 6.121094 -10.710938 5.972656 -10.523438 C 5.933594 -10.480469 5.890625 -10.417969 5.742188 -10.417969 C 5.636719 -10.417969 5.535156 -10.480469 5.34375 -10.730469 C 4.945312 -11.277344 4.882812 -11.488281 4.777344 -11.71875 C 4.589844 -12.136719 4.589844 -11.96875 4.359375 -12.449219 Z M 3.984375 -13.246094"/></g></g></g><g fill="#000000" fill-opacity="1"><g transform="translate(310.78843, 288.066552)"><g><path d="M 1.089844 -10 C 1.089844 -9.117188 1.132812 -9.179688 1.132812 -7.964844 C 1.132812 -7.734375 1.109375 -7.484375 1.109375 -7.253906 C 1.089844 -6.792969 1.070312 -6.351562 1.070312 -5.890625 C 1.070312 -5.574219 1.070312 -5.242188 1.070312 -4.925781 C 1.070312 -4.675781 1.070312 -4.402344 1.046875 -4.148438 C 1.027344 -3.960938 1.007812 -3.792969 1.007812 -3.605469 L 1.007812 -0.859375 C 1.007812 -0.0429688 1.089844 0 1.339844 0 L 1.46875 0 C 1.949219 0 2.074219 -0.0820312 2.347656 -0.0625 L 2.535156 -0.0429688 C 2.746094 -0.0195312 3.289062 0.0195312 3.457031 0.0195312 C 3.917969 0.0195312 4.023438 -0.0195312 4.128906 -0.125 C 4.253906 -0.230469 4.339844 -0.398438 4.316406 -0.878906 L 4.296875 -1.46875 C 4.277344 -2.011719 4.234375 -2.179688 4.234375 -2.578125 L 4.234375 -2.683594 C 4.234375 -2.933594 4.253906 -3.332031 4.675781 -3.585938 C 4.96875 -3.753906 5.492188 -3.773438 5.742188 -3.753906 L 6.121094 -3.730469 C 6.226562 -3.730469 6.351562 -3.710938 6.457031 -3.6875 C 6.601562 -3.667969 6.769531 -3.648438 6.917969 -3.648438 C 7.546875 -3.648438 8.46875 -3.6875 9.453125 -4.148438 C 10.460938 -4.632812 11.027344 -5.261719 11.320312 -5.742188 C 11.988281 -6.832031 12.050781 -8.28125 12.050781 -9.011719 C 12.050781 -9.726562 12.011719 -10.144531 11.863281 -10.5625 C 11.757812 -10.878906 11.570312 -11.257812 11.382812 -11.570312 C 11.046875 -12.117188 10.859375 -12.261719 10.230469 -12.746094 C 8.65625 -13.9375 6.496094 -14.066406 5.472656 -14.023438 L 3.835938 -13.960938 C 2.035156 -13.898438 1.53125 -13.75 1.277344 -13.519531 C 1.152344 -13.394531 0.984375 -13.144531 0.984375 -12.679688 C 0.984375 -11.949219 1.089844 -11.78125 1.089844 -11.339844 Z M 4.421875 -9.9375 C 4.421875 -10.144531 4.445312 -10.542969 4.714844 -10.878906 C 5.007812 -11.234375 5.722656 -11.234375 5.910156 -11.234375 C 7.210938 -11.277344 7.882812 -10.859375 8.089844 -10.710938 C 8.53125 -10.417969 8.59375 -10.1875 8.699219 -9.9375 C 8.804688 -9.640625 8.949219 -9.308594 8.949219 -8.949219 C 8.949219 -8.050781 8.65625 -7.714844 8.34375 -7.335938 C 8.132812 -7.085938 7.984375 -6.917969 7.546875 -6.75 C 7.125 -6.601562 6.769531 -6.5625 6.371094 -6.5625 C 5.597656 -6.5625 4.96875 -6.664062 4.675781 -7.167969 C 4.484375 -7.484375 4.359375 -8.152344 4.382812 -8.65625 Z M 4.421875 -9.9375"/></g></g></g><g fill="#000000" fill-opacity="1"><g transform="translate(323.02981, 288.066552)"><g><path d="M 1.007812 -11.296875 C 1.027344 -10.480469 1.007812 -9.683594 1.007812 -8.867188 C 1.007812 -8.511719 1.027344 -8.132812 1.027344 -7.777344 L 1.046875 -6.917969 C 1.046875 -6.5625 1.007812 -6.203125 1.007812 -5.847656 C 1.007812 -5.722656 1.007812 -5.574219 1.007812 -5.449219 C 1.027344 -4.90625 1.070312 -4.613281 1.070312 -4.214844 L 1.070312 -3.5 C 1.070312 -3.3125 1.046875 -3.144531 1.046875 -2.957031 C 1.027344 -2.640625 1.046875 -2.304688 1.046875 -1.992188 C 1.046875 -1.613281 1.007812 -1.257812 1.007812 -0.878906 C 1.007812 -0.710938 1.027344 -0.480469 1.257812 -0.230469 C 1.59375 0.125 1.886719 0 2.304688 0 L 2.640625 0 C 3.082031 0 3.542969 0.0625 4.171875 0.0429688 C 4.421875 0.0195312 5.03125 -0.0195312 5.722656 0 L 6.476562 0.0195312 L 7.945312 0.0195312 C 8.71875 0.0195312 8.40625 0.0625 8.742188 0.0625 C 8.929688 0.0625 9.117188 0.0195312 9.222656 -0.0625 C 9.410156 -0.1875 9.390625 -0.417969 9.390625 -0.585938 C 9.347656 -1.550781 9.390625 -1.425781 9.390625 -1.800781 L 9.390625 -2.496094 C 9.390625 -2.828125 9.328125 -3.019531 9.265625 -3.101562 C 9.203125 -3.164062 9.078125 -3.269531 8.804688 -3.269531 C 8.488281 -3.269531 8.59375 -3.25 8.113281 -3.25 L 5.136719 -3.269531 C 5.007812 -3.269531 4.675781 -3.289062 4.527344 -3.6875 C 4.402344 -4.046875 4.359375 -5.40625 4.359375 -5.828125 L 4.359375 -6.183594 C 4.359375 -6.414062 4.382812 -6.539062 4.421875 -6.875 C 4.445312 -7.378906 4.464844 -7.652344 4.464844 -7.839844 C 4.464844 -8.238281 4.445312 -8.636719 4.421875 -9.035156 C 4.402344 -9.433594 4.382812 -9.832031 4.382812 -10.230469 C 4.382812 -10.648438 4.421875 -11.066406 4.421875 -11.488281 C 4.421875 -11.84375 4.382812 -12.21875 4.402344 -12.578125 L 4.445312 -13.078125 C 4.464844 -13.289062 4.527344 -13.605469 4.316406 -13.835938 C 4.148438 -14.023438 3.941406 -14.023438 3.773438 -14.023438 L 2.621094 -14.023438 C 2.160156 -14.023438 1.53125 -14.148438 1.214844 -13.855469 C 1.089844 -13.75 1.007812 -13.5625 0.984375 -13.308594 C 0.984375 -13.207031 0.984375 -12.679688 0.984375 -12.449219 Z M 1.007812 -11.296875"/></g></g></g><g fill="#000000" fill-opacity="1"><g transform="translate(332.588148, 288.066552)"><g><path d="M 3.289062 -0.964844 C 4.507812 -0.0195312 5.679688 0.125 7.210938 0.125 C 7.859375 0.125 9.371094 0.105469 10.960938 -1.046875 C 11.78125 -1.636719 13.5 -3.355469 13.5625 -6.519531 C 13.605469 -8.363281 13.375 -9.078125 13.246094 -9.410156 C 13.015625 -10.019531 12.679688 -10.816406 12.285156 -11.402344 C 12.050781 -11.738281 11.234375 -12.785156 9.914062 -13.4375 C 9.410156 -13.6875 8.40625 -14.148438 6.980469 -14.148438 C 6.015625 -14.148438 4.339844 -13.75 3.417969 -13.101562 C 3.1875 -12.933594 2.765625 -12.597656 2.222656 -11.90625 C 1.65625 -11.191406 1.070312 -10.230469 0.816406 -9.410156 C 0.691406 -9.011719 0.398438 -7.839844 0.398438 -7 C 0.398438 -6.625 0.566406 -5.113281 0.648438 -4.714844 C 0.816406 -3.835938 1.171875 -3.289062 1.59375 -2.640625 C 2.136719 -1.78125 2.199219 -1.800781 2.726562 -1.40625 Z M 10.3125 -6.75 C 10.3125 -5.953125 10 -4.945312 9.472656 -4.277344 C 9.160156 -3.878906 8.382812 -3.039062 7.125 -3.039062 C 6.078125 -3.039062 4.90625 -3.5 4.316406 -4.464844 C 3.773438 -5.34375 3.625 -6.289062 3.625 -7.105469 C 3.625 -8.257812 4.109375 -9.433594 4.945312 -10.125 C 5.511719 -10.585938 5.828125 -10.585938 6.140625 -10.667969 C 6.414062 -10.730469 6.582031 -10.816406 7.042969 -10.816406 C 8.320312 -10.816406 9.347656 -9.957031 9.808594 -9.140625 C 10.1875 -8.488281 10.3125 -7.503906 10.3125 -6.75 Z M 10.3125 -6.75"/></g></g></g><g fill="#000000" fill-opacity="1"><g transform="translate(346.548348, 288.066552)"><g><path d="M 7.671875 -12.679688 C 7.691406 -13.351562 7.691406 -13.5625 7.421875 -13.730469 C 6.980469 -14.003906 5.972656 -14.023438 5.40625 -14.023438 C 3.039062 -14.023438 1.738281 -13.519531 1.132812 -12.746094 C 0.839844 -12.386719 0.460938 -11.632812 0.460938 -10.5 C 0.460938 -8.886719 1.320312 -7.902344 1.65625 -7.589844 L 2.074219 -7.210938 C 2.265625 -7.042969 2.429688 -6.875 2.621094 -6.707031 C 2.765625 -6.582031 2.894531 -6.433594 3.039062 -6.308594 C 3.25 -6.121094 3.480469 -5.933594 3.835938 -5.660156 C 4.085938 -5.449219 4.296875 -5.28125 4.507812 -4.945312 C 4.613281 -4.777344 4.714844 -4.570312 4.714844 -4.296875 C 4.714844 -4.085938 4.613281 -3.816406 4.527344 -3.6875 C 4.191406 -3.144531 3.519531 -3.144531 3.226562 -3.144531 C 2.894531 -3.144531 2.808594 -3.164062 2.597656 -3.207031 C 2.390625 -3.25 1.507812 -3.394531 1.300781 -3.394531 C 1.132812 -3.394531 0.839844 -3.332031 0.710938 -3.226562 C 0.609375 -3.144531 0.566406 -2.976562 0.566406 -2.808594 C 0.566406 -2.515625 0.648438 -2.597656 0.609375 -1.382812 L 0.585938 -0.796875 C 0.585938 -0.609375 0.691406 -0.417969 0.777344 -0.335938 C 1.257812 0.125 2.660156 0.0625 3.332031 0.0625 C 4.90625 0.0625 5.617188 -0.210938 6.140625 -0.523438 C 6.9375 -1.007812 8.152344 -1.992188 8.152344 -4.109375 C 8.152344 -4.632812 8.070312 -5.472656 7.734375 -6.121094 C 7.230469 -7.085938 6.433594 -7.691406 5.867188 -8.132812 L 5.386719 -8.511719 C 4.527344 -9.179688 4.359375 -9.390625 4.296875 -9.472656 C 4.046875 -9.808594 4.003906 -10 4.003906 -10.167969 C 4.003906 -10.332031 4.046875 -10.542969 4.234375 -10.730469 C 4.484375 -11.003906 4.84375 -11.066406 5.28125 -11.066406 C 5.449219 -11.066406 5.636719 -11.046875 5.867188 -11.027344 C 6.246094 -10.984375 6.644531 -10.921875 7.023438 -10.921875 C 7.0625 -10.921875 7.085938 -10.921875 7.125 -10.921875 C 7.253906 -10.921875 7.441406 -10.941406 7.546875 -11.046875 C 7.652344 -11.171875 7.671875 -11.402344 7.671875 -11.488281 C 7.671875 -11.84375 7.628906 -11.78125 7.652344 -12.15625 Z M 7.671875 -12.679688"/></g></g></g><g fill="#000000" fill-opacity="1"><g transform="translate(355.163425, 288.066552)"><g><path d="M 1.109375 -9.472656 L 1.171875 -7.652344 L 1.195312 -3.917969 C 1.195312 -3.605469 1.171875 -1.949219 1.152344 -1.425781 L 1.132812 -1.027344 C 1.132812 -0.941406 1.132812 -0.964844 1.132812 -0.796875 C 1.109375 -0.671875 1.109375 -0.671875 1.109375 -0.609375 C 1.109375 -0.546875 1.109375 -0.335938 1.214844 -0.1875 C 1.257812 -0.125 1.40625 0 1.570312 0 L 3.125 0 C 3.667969 0 3.710938 0.0195312 4.023438 0.0195312 C 4.277344 0.0195312 4.339844 0 4.421875 -0.105469 C 4.632812 -0.355469 4.546875 -0.546875 4.546875 -1.027344 L 4.546875 -1.488281 C 4.546875 -1.59375 4.546875 -1.636719 4.546875 -1.800781 C 4.527344 -1.84375 4.527344 -1.90625 4.527344 -1.949219 C 4.527344 -2.222656 4.546875 -2.496094 4.546875 -2.765625 L 4.546875 -5.597656 C 4.546875 -5.953125 4.527344 -6.183594 4.527344 -6.769531 C 4.527344 -7.566406 4.527344 -7.902344 4.527344 -8.382812 L 4.546875 -9.601562 C 4.546875 -9.894531 4.484375 -10.167969 4.484375 -10.4375 C 4.484375 -10.5625 4.507812 -10.667969 4.507812 -10.796875 L 4.527344 -11.695312 C 4.546875 -12.15625 4.570312 -12.535156 4.570312 -12.910156 C 4.570312 -13.332031 4.464844 -14.023438 3.710938 -14.023438 L 1.90625 -14.003906 C 1.738281 -14.003906 1.570312 -13.960938 1.363281 -13.792969 C 1.046875 -13.539062 1.046875 -13.207031 1.046875 -13.078125 L 1.070312 -12.722656 C 1.089844 -12.535156 1.109375 -12.347656 1.132812 -12.15625 C 1.152344 -12.011719 1.152344 -11.84375 1.152344 -11.695312 C 1.152344 -11.589844 1.171875 -11.488281 1.171875 -11.382812 C 1.171875 -11.128906 1.132812 -10.859375 1.132812 -10.605469 Z M 1.109375 -9.472656"/></g></g></g><g fill="#000000" fill-opacity="1"><g transform="translate(360.781043, 288.066552)"><g><path d="M 3.4375 -12.535156 C 3.25 -13.332031 3.226562 -13.582031 3.125 -13.730469 C 2.976562 -13.9375 2.703125 -13.980469 2.472656 -13.980469 C 1.78125 -13.980469 2.054688 -13.917969 1.71875 -13.9375 L 0.734375 -13.980469 C 0.523438 -13.980469 0.335938 -14.003906 0.167969 -13.875 C -0.0195312 -13.730469 -0.0429688 -13.476562 -0.0429688 -13.332031 C -0.0429688 -13.207031 -0.0195312 -12.679688 0.167969 -11.90625 L 0.566406 -10.3125 C 0.902344 -8.929688 0.902344 -8.761719 1.007812 -8.113281 C 1.488281 -5.199219 1.53125 -6.265625 1.992188 -3.710938 L 2.265625 -2.222656 C 2.328125 -1.90625 2.683594 -0.25 3.144531 -0.0195312 C 3.355469 0.0820312 4.570312 0.125 4.988281 0.105469 L 6.140625 0.0625 C 6.769531 0.0429688 7.167969 -0.0429688 7.335938 -0.25 C 7.441406 -0.398438 7.652344 -1.046875 7.714844 -1.300781 L 8.113281 -2.703125 C 8.425781 -3.792969 8.28125 -3.773438 8.46875 -4.527344 C 8.53125 -4.738281 8.550781 -4.738281 8.59375 -5.03125 C 8.65625 -5.429688 8.59375 -5.074219 8.78125 -5.785156 L 9.011719 -6.601562 C 9.140625 -7.085938 9.410156 -8.152344 9.515625 -8.679688 C 9.726562 -9.683594 9.472656 -8.71875 10 -11.046875 L 10.292969 -12.367188 C 10.417969 -12.953125 10.480469 -13.121094 10.480469 -13.414062 C 10.480469 -13.582031 10.480469 -13.730469 10.332031 -13.855469 C 10.1875 -14.003906 10 -14.003906 9.832031 -14.003906 C 9.832031 -14.003906 9.808594 -14.003906 9.808594 -14.003906 C 9.746094 -14.003906 9.664062 -14.003906 9.601562 -14.003906 C 9.433594 -14.003906 9.371094 -13.960938 9.097656 -13.980469 L 8.488281 -14.023438 C 8.132812 -14.042969 7.628906 -14.148438 7.355469 -13.835938 C 7.253906 -13.707031 7.191406 -13.539062 7.167969 -13.394531 C 7.125 -13.207031 7.125 -13.121094 7.0625 -12.890625 L 6.855469 -12.117188 C 6.707031 -11.570312 6.832031 -11.339844 6.664062 -10.898438 C 6.644531 -10.859375 6.625 -10.816406 6.625 -10.773438 C 6.625 -10.730469 6.601562 -10.710938 6.601562 -10.667969 L 6.394531 -9.789062 C 6.265625 -9.285156 6.183594 -8.78125 6.058594 -8.28125 C 6.015625 -8.132812 5.972656 -7.964844 5.953125 -7.820312 C 5.910156 -7.546875 5.867188 -7.125 5.765625 -6.707031 L 5.535156 -5.742188 C 5.429688 -5.324219 5.34375 -4.988281 5.199219 -4.988281 C 4.988281 -4.988281 4.945312 -5.386719 4.882812 -5.679688 C 4.820312 -5.996094 4.777344 -6.246094 4.675781 -6.625 L 4.507812 -7.292969 C 4.253906 -8.300781 4.546875 -7.484375 4.253906 -8.761719 C 4.109375 -9.371094 4.066406 -9.285156 4.003906 -9.578125 C 3.6875 -11.613281 3.6875 -11.425781 3.625 -11.71875 Z M 3.4375 -12.535156"/></g></g></g><g fill="#000000" fill-opacity="1"><g transform="translate(371.198796, 288.066552)"><g><path d="M 2.285156 -14.023438 C 1.929688 -14.042969 1.59375 -14.003906 1.382812 -13.855469 C 1.027344 -13.605469 1.007812 -13.039062 1.007812 -12.765625 L 1.007812 -12.386719 C 1.027344 -11.96875 1.070312 -11.738281 1.070312 -11.527344 C 1.070312 -11.488281 1.070312 -11.296875 1.070312 -11.257812 L 1.046875 -10.730469 C 1.027344 -10.398438 1.007812 -10.230469 1.007812 -10.0625 C 0.964844 -9.539062 1.027344 -9.558594 1.027344 -9.035156 L 1.027344 -8.53125 C 1.027344 -7.714844 0.984375 -7.546875 0.984375 -6.980469 C 0.984375 -6.601562 1.007812 -6.265625 1.027344 -5.804688 C 1.089844 -4.882812 0.984375 -4.382812 1.007812 -3.753906 L 1.027344 -2.640625 C 1.027344 -2.429688 1.027344 -2.199219 1.027344 -1.992188 C 1.027344 -1.84375 1.046875 -1.699219 1.046875 -1.550781 L 1.089844 -0.648438 C 1.089844 -0.523438 1.171875 -0.378906 1.214844 -0.292969 C 1.445312 0.105469 1.992188 -0.0195312 2.285156 -0.0195312 L 2.660156 -0.0195312 C 2.828125 -0.0195312 2.996094 -0.0195312 3.164062 -0.0195312 C 3.355469 -0.0195312 3.5625 0 3.753906 0 L 5.996094 0 C 6.476562 0 6.9375 -0.0429688 7.421875 -0.0429688 C 7.945312 -0.0429688 8.46875 0 8.992188 0 L 9.410156 0 C 10.1875 0 10.0625 -1.027344 10.0625 -1.90625 C 10.0625 -2.199219 10.0625 -2.578125 9.871094 -2.765625 C 9.769531 -2.871094 9.515625 -3.039062 8.910156 -3.019531 C 8.65625 -3.019531 8.382812 -2.976562 8.132812 -2.976562 C 7.652344 -2.976562 7.148438 -3.019531 6.664062 -2.996094 C 6.433594 -2.976562 6.035156 -2.957031 5.386719 -3.019531 L 5.007812 -3.058594 C 4.90625 -3.082031 4.738281 -3.101562 4.613281 -3.207031 C 4.484375 -3.3125 4.464844 -3.457031 4.445312 -3.5625 C 4.402344 -3.773438 4.402344 -4.148438 4.402344 -4.214844 L 4.402344 -4.945312 C 4.402344 -5.09375 4.402344 -5.28125 4.632812 -5.597656 C 4.757812 -5.742188 4.945312 -5.765625 5.03125 -5.765625 L 5.847656 -5.703125 C 6.476562 -5.660156 7.714844 -5.597656 8.300781 -5.597656 C 8.613281 -5.597656 8.929688 -5.597656 9.242188 -5.765625 C 9.371094 -5.828125 9.496094 -5.933594 9.539062 -6.164062 C 9.558594 -6.289062 9.601562 -6.730469 9.601562 -6.894531 L 9.601562 -7.820312 C 9.601562 -8.175781 9.539062 -8.40625 9.433594 -8.511719 C 9.285156 -8.65625 8.886719 -8.71875 8.699219 -8.71875 C 8.511719 -8.71875 8.195312 -8.65625 7.820312 -8.679688 L 7.484375 -8.699219 C 7.273438 -8.71875 7.421875 -8.742188 7.148438 -8.742188 C 6.8125 -8.742188 6.644531 -8.71875 6.394531 -8.71875 L 5.574219 -8.699219 C 5.261719 -8.699219 4.800781 -8.71875 4.570312 -9.011719 C 4.445312 -9.179688 4.421875 -9.371094 4.421875 -9.496094 C 4.421875 -9.578125 4.421875 -9.664062 4.421875 -9.746094 C 4.421875 -9.832031 4.402344 -9.894531 4.402344 -9.976562 L 4.382812 -10.207031 C 4.359375 -10.375 4.359375 -10.667969 4.570312 -10.878906 C 4.738281 -11.046875 5.050781 -11.152344 5.449219 -11.128906 L 8.574219 -11.003906 C 8.992188 -10.984375 9.140625 -11.109375 9.179688 -11.152344 C 9.328125 -11.296875 9.347656 -11.589844 9.371094 -11.78125 L 9.453125 -12.261719 C 9.472656 -12.410156 9.515625 -12.492188 9.539062 -12.746094 C 9.539062 -13.039062 9.558594 -12.996094 9.558594 -13.101562 C 9.558594 -13.414062 9.515625 -13.605469 9.410156 -13.75 C 9.265625 -13.980469 9.117188 -13.960938 8.972656 -13.960938 L 8.214844 -13.917969 C 7.921875 -13.898438 7.523438 -13.960938 7.148438 -13.980469 C 7.023438 -13.980469 6.894531 -13.980469 6.769531 -13.980469 C 5.996094 -13.980469 5.199219 -13.917969 4.421875 -13.9375 Z M 2.285156 -14.023438"/></g></g></g><g fill="#000000" fill-opacity="1"><g transform="translate(294.869344, 309.027734)"><g><path d="M 2.746094 -13.980469 C 2.160156 -13.980469 2.578125 -14.023438 2.074219 -14.023438 C 1.699219 -14.023438 1.40625 -13.875 1.277344 -13.773438 C 1.027344 -13.5625 1.027344 -13.078125 1.027344 -12.847656 C 1.027344 -12.429688 1.070312 -12.03125 1.070312 -11.613281 C 1.070312 -10.941406 0.984375 -10.25 1.027344 -9.578125 L 1.070312 -8.867188 C 1.089844 -8.40625 1.027344 -7.652344 1.007812 -7.335938 C 1.007812 -7.210938 1.007812 -7.105469 1.007812 -6.980469 C 1.027344 -6.601562 1.070312 -6.246094 1.070312 -5.910156 C 1.070312 -5.828125 1.046875 -5.742188 1.046875 -5.660156 C 1.027344 -5.511719 1.007812 -5.34375 1.007812 -5.199219 L 0.984375 -4.613281 C 0.964844 -3.960938 1.007812 -3.480469 1.007812 -2.558594 C 1.007812 -2.160156 0.984375 -1.78125 0.984375 -1.382812 C 0.984375 -0.964844 0.984375 -0.378906 1.363281 -0.125 C 1.425781 -0.0820312 1.613281 0 2.410156 0 L 5.867188 0 C 8.363281 0 10.375 -0.753906 11.675781 -2.578125 C 12.261719 -3.394531 12.933594 -4.800781 12.933594 -6.394531 C 12.933594 -8.40625 12.703125 -9.957031 11.171875 -11.738281 C 10.3125 -12.746094 9.453125 -13.183594 8.40625 -13.539062 L 7.796875 -13.75 C 6.917969 -14.042969 6.058594 -13.980469 5.429688 -13.980469 Z M 6.183594 -3.101562 C 5.386719 -3.101562 4.714844 -3.207031 4.445312 -3.753906 C 4.402344 -3.835938 4.359375 -3.984375 4.339844 -4.570312 C 4.339844 -4.738281 4.339844 -4.90625 4.339844 -5.074219 C 4.339844 -5.535156 4.339844 -5.996094 4.316406 -6.457031 L 4.296875 -7.292969 L 4.359375 -8.71875 C 4.382812 -9.347656 4.359375 -9.871094 4.675781 -10.230469 C 4.96875 -10.585938 5.574219 -10.605469 5.890625 -10.585938 C 7.421875 -10.648438 8.53125 -9.832031 9.078125 -9.054688 C 9.371094 -8.636719 9.703125 -7.921875 9.703125 -6.664062 C 9.703125 -6.121094 9.640625 -5.660156 9.222656 -4.714844 C 9.011719 -4.253906 8.804688 -3.835938 8.027344 -3.480469 C 7.714844 -3.332031 7 -3.101562 6.625 -3.101562 Z M 6.183594 -3.101562"/></g></g></g><g fill="#000000" fill-opacity="1"><g transform="translate(308.179751, 309.027734)"><g><path d="M 2.285156 -14.023438 C 1.929688 -14.042969 1.59375 -14.003906 1.382812 -13.855469 C 1.027344 -13.605469 1.007812 -13.039062 1.007812 -12.765625 L 1.007812 -12.386719 C 1.027344 -11.96875 1.070312 -11.738281 1.070312 -11.527344 C 1.070312 -11.488281 1.070312 -11.296875 1.070312 -11.257812 L 1.046875 -10.730469 C 1.027344 -10.398438 1.007812 -10.230469 1.007812 -10.0625 C 0.964844 -9.539062 1.027344 -9.558594 1.027344 -9.035156 L 1.027344 -8.53125 C 1.027344 -7.714844 0.984375 -7.546875 0.984375 -6.980469 C 0.984375 -6.601562 1.007812 -6.265625 1.027344 -5.804688 C 1.089844 -4.882812 0.984375 -4.382812 1.007812 -3.753906 L 1.027344 -2.640625 C 1.027344 -2.429688 1.027344 -2.199219 1.027344 -1.992188 C 1.027344 -1.84375 1.046875 -1.699219 1.046875 -1.550781 L 1.089844 -0.648438 C 1.089844 -0.523438 1.171875 -0.378906 1.214844 -0.292969 C 1.445312 0.105469 1.992188 -0.0195312 2.285156 -0.0195312 L 2.660156 -0.0195312 C 2.828125 -0.0195312 2.996094 -0.0195312 3.164062 -0.0195312 C 3.355469 -0.0195312 3.5625 0 3.753906 0 L 5.996094 0 C 6.476562 0 6.9375 -0.0429688 7.421875 -0.0429688 C 7.945312 -0.0429688 8.46875 0 8.992188 0 L 9.410156 0 C 10.1875 0 10.0625 -1.027344 10.0625 -1.90625 C 10.0625 -2.199219 10.0625 -2.578125 9.871094 -2.765625 C 9.769531 -2.871094 9.515625 -3.039062 8.910156 -3.019531 C 8.65625 -3.019531 8.382812 -2.976562 8.132812 -2.976562 C 7.652344 -2.976562 7.148438 -3.019531 6.664062 -2.996094 C 6.433594 -2.976562 6.035156 -2.957031 5.386719 -3.019531 L 5.007812 -3.058594 C 4.90625 -3.082031 4.738281 -3.101562 4.613281 -3.207031 C 4.484375 -3.3125 4.464844 -3.457031 4.445312 -3.5625 C 4.402344 -3.773438 4.402344 -4.148438 4.402344 -4.214844 L 4.402344 -4.945312 C 4.402344 -5.09375 4.402344 -5.28125 4.632812 -5.597656 C 4.757812 -5.742188 4.945312 -5.765625 5.03125 -5.765625 L 5.847656 -5.703125 C 6.476562 -5.660156 7.714844 -5.597656 8.300781 -5.597656 C 8.613281 -5.597656 8.929688 -5.597656 9.242188 -5.765625 C 9.371094 -5.828125 9.496094 -5.933594 9.539062 -6.164062 C 9.558594 -6.289062 9.601562 -6.730469 9.601562 -6.894531 L 9.601562 -7.820312 C 9.601562 -8.175781 9.539062 -8.40625 9.433594 -8.511719 C 9.285156 -8.65625 8.886719 -8.71875 8.699219 -8.71875 C 8.511719 -8.71875 8.195312 -8.65625 7.820312 -8.679688 L 7.484375 -8.699219 C 7.273438 -8.71875 7.421875 -8.742188 7.148438 -8.742188 C 6.8125 -8.742188 6.644531 -8.71875 6.394531 -8.71875 L 5.574219 -8.699219 C 5.261719 -8.699219 4.800781 -8.71875 4.570312 -9.011719 C 4.445312 -9.179688 4.421875 -9.371094 4.421875 -9.496094 C 4.421875 -9.578125 4.421875 -9.664062 4.421875 -9.746094 C 4.421875 -9.832031 4.402344 -9.894531 4.402344 -9.976562 L 4.382812 -10.207031 C 4.359375 -10.375 4.359375 -10.667969 4.570312 -10.878906 C 4.738281 -11.046875 5.050781 -11.152344 5.449219 -11.128906 L 8.574219 -11.003906 C 8.992188 -10.984375 9.140625 -11.109375 9.179688 -11.152344 C 9.328125 -11.296875 9.347656 -11.589844 9.371094 -11.78125 L 9.453125 -12.261719 C 9.472656 -12.410156 9.515625 -12.492188 9.539062 -12.746094 C 9.539062 -13.039062 9.558594 -12.996094 9.558594 -13.101562 C 9.558594 -13.414062 9.515625 -13.605469 9.410156 -13.75 C 9.265625 -13.980469 9.117188 -13.960938 8.972656 -13.960938 L 8.214844 -13.917969 C 7.921875 -13.898438 7.523438 -13.960938 7.148438 -13.980469 C 7.023438 -13.980469 6.894531 -13.980469 6.769531 -13.980469 C 5.996094 -13.980469 5.199219 -13.917969 4.421875 -13.9375 Z M 2.285156 -14.023438"/></g></g></g><g fill="#000000" fill-opacity="1"><g transform="translate(318.932882, 309.027734)"><g><path d="M 7.589844 0.0195312 C 7.734375 0.0195312 7.882812 0 8.027344 0 C 8.113281 0 8.175781 0 8.257812 0 C 8.761719 0 9.558594 -0.25 10.019531 -0.503906 C 10.417969 -0.710938 10.941406 -1.152344 11.234375 -2.011719 C 11.382812 -2.429688 11.550781 -3.226562 11.550781 -3.816406 C 11.550781 -4.214844 11.445312 -4.589844 11.359375 -5.074219 C 11.296875 -5.40625 11.257812 -5.636719 11.066406 -5.933594 C 10.667969 -6.539062 10.25 -6.75 10.125 -6.8125 C 9.957031 -6.894531 9.808594 -6.980469 9.808594 -7.042969 C 9.808594 -7.085938 9.894531 -7.191406 9.9375 -7.210938 C 10.167969 -7.398438 10.207031 -7.378906 10.417969 -7.589844 C 10.648438 -7.796875 10.835938 -8.089844 10.960938 -8.320312 C 11.128906 -8.65625 11.339844 -9.558594 11.339844 -10.125 C 11.339844 -10.355469 11.320312 -10.898438 10.921875 -11.757812 C 10.753906 -12.136719 10.355469 -12.828125 9.410156 -13.351562 C 8.550781 -13.835938 7.292969 -14.023438 6.457031 -14.023438 C 5.722656 -14.023438 5.597656 -13.960938 5.199219 -13.980469 L 4.359375 -14.023438 L 3.6875 -14.003906 C 3.144531 -14.023438 2.894531 -14.066406 2.640625 -14.066406 L 1.96875 -14.066406 C 1.59375 -14.066406 1.445312 -14.003906 1.382812 -13.960938 C 1.171875 -13.835938 1.152344 -13.5625 1.152344 -13.289062 L 1.152344 -11.570312 C 1.152344 -11.046875 1.109375 -11.191406 1.089844 -10.375 C 1.089844 -10.167969 1.089844 -9.976562 1.089844 -9.769531 C 1.109375 -9.390625 1.109375 -9.035156 1.109375 -8.65625 C 1.109375 -8.488281 1.027344 -8.214844 1.070312 -7.691406 C 1.089844 -7.378906 1.089844 -6.730469 1.089844 -6.203125 C 1.089844 -5.804688 1.007812 -5.386719 1.007812 -4.988281 C 1.007812 -4.421875 1.046875 -3.835938 1.046875 -3.269531 C 1.046875 -2.933594 0.984375 -2.367188 0.984375 -1.949219 C 0.984375 -0.964844 1.070312 -0.585938 1.238281 -0.3125 C 1.46875 0.0195312 1.738281 0.0195312 2.117188 0.0195312 L 2.789062 0.0195312 C 3.585938 0.0195312 4.382812 0.0625 5.175781 0.0625 C 5.472656 0.0625 5.785156 0.0429688 6.078125 0.0429688 Z M 6.582031 -5.765625 C 7.105469 -5.742188 7.691406 -5.511719 7.945312 -5.199219 C 8.113281 -4.988281 8.238281 -4.632812 8.238281 -4.214844 C 8.238281 -3.835938 8.113281 -3.542969 7.964844 -3.332031 C 7.609375 -2.871094 7 -2.828125 6.289062 -2.828125 L 5.765625 -2.828125 C 5.367188 -2.828125 4.445312 -2.789062 4.296875 -3.164062 C 4.277344 -3.25 4.277344 -3.355469 4.277344 -3.480469 C 4.277344 -3.625 4.253906 -3.816406 4.234375 -4.148438 L 4.214844 -4.546875 C 4.191406 -4.90625 4.339844 -5.492188 4.738281 -5.679688 C 4.945312 -5.765625 5.472656 -5.785156 5.636719 -5.785156 Z M 5.910156 -8.867188 C 5.199219 -8.910156 4.84375 -8.910156 4.675781 -9.054688 C 4.507812 -9.203125 4.484375 -9.472656 4.464844 -9.640625 C 4.445312 -9.871094 4.402344 -10.0625 4.402344 -10.230469 C 4.402344 -10.480469 4.445312 -10.921875 4.613281 -11.066406 C 4.84375 -11.296875 5.324219 -11.296875 5.449219 -11.296875 C 5.910156 -11.296875 6.539062 -11.257812 6.960938 -11.152344 C 7.191406 -11.089844 7.523438 -10.984375 7.734375 -10.730469 C 7.882812 -10.5625 7.964844 -10.292969 7.964844 -9.957031 C 7.964844 -9.496094 7.753906 -9.203125 7.398438 -9.035156 C 7.148438 -8.929688 6.707031 -8.824219 6.371094 -8.84375 Z M 5.910156 -8.867188"/></g></g></g><g fill="#000000" fill-opacity="1"><g transform="translate(331.006573, 309.027734)"><g><path d="M 4.714844 -14.042969 C 4.003906 -14.042969 4.046875 -13.980469 3.753906 -13.980469 C 3.5625 -13.980469 3.417969 -14.023438 3.144531 -13.792969 C 2.660156 -13.394531 2.597656 -12.910156 2.453125 -12.09375 C 2.011719 -9.769531 1.65625 -8.742188 1.277344 -7.0625 C 1.238281 -6.917969 1.132812 -6.433594 1.109375 -6.289062 C 0.941406 -5.535156 0.984375 -5.511719 0.902344 -5.199219 C 0.796875 -4.820312 0.648438 -4.570312 0.546875 -3.816406 C 0.480469 -3.5 0.480469 -3.25 0.335938 -2.597656 L 0.230469 -2.097656 C 0.1875 -1.867188 0.1875 -1.636719 0.148438 -1.425781 C 0.125 -1.339844 0.105469 -1.277344 0.0820312 -1.195312 C 0.0625 -1.132812 0 -0.734375 0 -0.671875 C 0 -0.523438 0.105469 -0.335938 0.1875 -0.230469 C 0.378906 0 0.546875 -0.0195312 0.878906 0 C 1.40625 0.0429688 1.929688 -0.0429688 2.453125 0 C 2.597656 0 2.746094 0.0195312 2.894531 0.0195312 C 2.933594 0.0195312 3.082031 0 3.125 -0.0429688 C 3.25 -0.148438 3.289062 -0.378906 3.3125 -0.460938 C 3.4375 -1.027344 3.5 -1.300781 3.625 -1.53125 C 3.773438 -1.800781 3.984375 -1.949219 4.234375 -2.035156 C 4.632812 -2.160156 5.511719 -2.199219 6.058594 -2.199219 L 6.601562 -2.199219 C 6.6875 -2.199219 7.316406 -2.136719 7.441406 -2.097656 C 7.523438 -2.074219 7.628906 -1.992188 7.714844 -1.738281 L 8.089844 -0.648438 C 8.152344 -0.480469 8.132812 -0.398438 8.320312 -0.1875 C 8.40625 -0.0820312 8.488281 -0.0195312 8.699219 0.0195312 C 8.910156 0.0625 9.640625 0.0625 9.746094 0.0625 L 10.144531 0.0429688 C 10.667969 0.0195312 10.859375 0.0429688 11.046875 -0.0429688 C 11.152344 -0.0820312 11.296875 -0.1875 11.382812 -0.398438 C 11.527344 -0.777344 11.382812 -1.214844 11.320312 -1.507812 L 10.921875 -3.269531 C 10.878906 -3.4375 10.878906 -3.605469 10.835938 -3.773438 C 10.796875 -4.003906 10.691406 -4.214844 10.648438 -4.445312 L 10.332031 -5.933594 C 10.25 -6.351562 10.0625 -7.023438 9.871094 -8.152344 C 9.808594 -8.550781 9.851562 -8.71875 9.578125 -9.472656 C 9.410156 -9.957031 9.390625 -10.039062 9.347656 -10.332031 C 9.242188 -10.898438 9.160156 -11.171875 9.035156 -11.570312 L 8.84375 -12.21875 C 8.71875 -12.617188 8.679688 -12.871094 8.59375 -13.101562 C 8.511719 -13.308594 8.34375 -13.644531 8.214844 -13.773438 C 7.984375 -14.003906 7.441406 -14.042969 7.210938 -14.042969 C 7.042969 -14.042969 6.855469 -14.023438 6.6875 -14.023438 C 6.414062 -14.023438 6.332031 -14.042969 6.058594 -14.042969 Z M 6.519531 -8.488281 C 6.625 -8.175781 6.582031 -8.070312 6.75 -7.441406 C 6.875 -6.980469 6.9375 -6.792969 6.960938 -6.121094 C 6.960938 -5.890625 6.960938 -5.597656 6.582031 -5.449219 C 6.351562 -5.34375 5.722656 -5.34375 5.511719 -5.34375 C 4.90625 -5.34375 4.652344 -5.574219 4.589844 -5.703125 C 4.527344 -5.804688 4.484375 -6.035156 4.484375 -6.164062 C 4.484375 -6.246094 4.507812 -6.308594 4.507812 -6.394531 C 4.507812 -6.433594 4.507812 -6.476562 4.507812 -6.519531 C 4.507812 -6.75 4.632812 -7.0625 4.714844 -7.589844 C 4.863281 -8.34375 4.84375 -8.363281 4.90625 -8.679688 C 5.113281 -9.894531 5.472656 -10.144531 5.679688 -10.144531 C 5.765625 -10.144531 5.890625 -10.101562 5.953125 -10.039062 C 6.058594 -9.914062 6.164062 -9.578125 6.226562 -9.390625 Z M 6.519531 -8.488281"/></g></g></g><g fill="#000000" fill-opacity="1"><g transform="translate(342.430471, 309.027734)"><g><path d="M 5.175781 -13.9375 C 4.484375 -13.9375 3.792969 -13.980469 3.101562 -13.980469 C 2.726562 -13.980469 2.328125 -13.960938 1.949219 -13.980469 C 1.675781 -14.003906 1.425781 -14.023438 1.152344 -14.023438 C 0.671875 -14.023438 0.398438 -13.855469 0.3125 -13.707031 C 0.230469 -13.5625 0.1875 -12.910156 0.1875 -12.808594 L 0.167969 -12.472656 C 0.148438 -12.21875 0.148438 -11.78125 0.148438 -11.570312 C 0.148438 -11.277344 0.1875 -11.109375 0.25 -11.003906 C 0.335938 -10.859375 0.441406 -10.796875 0.710938 -10.796875 L 1.867188 -10.816406 C 2.011719 -10.816406 2.199219 -10.773438 2.347656 -10.605469 C 2.726562 -10.167969 2.621094 -9.832031 2.621094 -9.371094 L 2.621094 -7.546875 C 2.621094 -7.023438 2.578125 -7.023438 2.597656 -6.601562 C 2.621094 -6.308594 2.621094 -6.289062 2.640625 -6.058594 C 2.640625 -5.972656 2.640625 -5.890625 2.640625 -5.804688 C 2.640625 -5.703125 2.621094 -5.617188 2.621094 -5.511719 C 2.597656 -5.324219 2.621094 -5.113281 2.597656 -4.925781 L 2.535156 -3.792969 C 2.515625 -3.5625 2.535156 -3.332031 2.558594 -3.101562 C 2.578125 -2.703125 2.578125 -2.304688 2.578125 -1.90625 C 2.578125 -1.78125 2.558594 -1.65625 2.558594 -1.53125 C 2.558594 -1.46875 2.558594 -1.382812 2.558594 -1.320312 L 2.535156 -0.648438 C 2.535156 -0.546875 2.578125 -0.378906 2.621094 -0.292969 C 2.746094 -0.0429688 2.914062 0 3.039062 0 L 3.753906 0 C 3.898438 0 4.214844 0.0429688 4.570312 0.0195312 L 5.492188 -0.0429688 C 5.617188 -0.0429688 5.722656 -0.105469 5.828125 -0.210938 C 5.953125 -0.355469 5.996094 -0.523438 5.972656 -1.007812 L 5.910156 -2.265625 C 5.890625 -2.871094 5.890625 -2.976562 5.910156 -3.394531 C 5.953125 -3.984375 5.933594 -4.046875 5.933594 -4.445312 L 5.933594 -5.679688 C 5.933594 -6.140625 5.867188 -6.265625 5.953125 -6.917969 C 6.058594 -7.753906 5.996094 -6.9375 5.996094 -8.46875 L 5.996094 -9.097656 C 5.996094 -10.039062 6.289062 -10.375 6.371094 -10.460938 C 6.6875 -10.773438 7.023438 -10.753906 7.191406 -10.753906 L 8.027344 -10.730469 C 8.132812 -10.730469 8.238281 -10.859375 8.257812 -10.878906 C 8.320312 -10.960938 8.363281 -11.109375 8.363281 -11.214844 C 8.363281 -11.257812 8.363281 -11.320312 8.363281 -11.359375 C 8.363281 -11.527344 8.363281 -11.675781 8.382812 -11.84375 C 8.382812 -11.96875 8.40625 -12.074219 8.40625 -12.199219 L 8.40625 -13.144531 C 8.40625 -13.332031 8.382812 -13.5625 8.195312 -13.75 C 8.089844 -13.835938 7.902344 -13.960938 7.523438 -13.960938 Z M 5.175781 -13.9375"/></g></g></g><g fill="#000000" fill-opacity="1"><g transform="translate(350.982664, 309.027734)"><g><path d="M 2.285156 -14.023438 C 1.929688 -14.042969 1.59375 -14.003906 1.382812 -13.855469 C 1.027344 -13.605469 1.007812 -13.039062 1.007812 -12.765625 L 1.007812 -12.386719 C 1.027344 -11.96875 1.070312 -11.738281 1.070312 -11.527344 C 1.070312 -11.488281 1.070312 -11.296875 1.070312 -11.257812 L 1.046875 -10.730469 C 1.027344 -10.398438 1.007812 -10.230469 1.007812 -10.0625 C 0.964844 -9.539062 1.027344 -9.558594 1.027344 -9.035156 L 1.027344 -8.53125 C 1.027344 -7.714844 0.984375 -7.546875 0.984375 -6.980469 C 0.984375 -6.601562 1.007812 -6.265625 1.027344 -5.804688 C 1.089844 -4.882812 0.984375 -4.382812 1.007812 -3.753906 L 1.027344 -2.640625 C 1.027344 -2.429688 1.027344 -2.199219 1.027344 -1.992188 C 1.027344 -1.84375 1.046875 -1.699219 1.046875 -1.550781 L 1.089844 -0.648438 C 1.089844 -0.523438 1.171875 -0.378906 1.214844 -0.292969 C 1.445312 0.105469 1.992188 -0.0195312 2.285156 -0.0195312 L 2.660156 -0.0195312 C 2.828125 -0.0195312 2.996094 -0.0195312 3.164062 -0.0195312 C 3.355469 -0.0195312 3.5625 0 3.753906 0 L 5.996094 0 C 6.476562 0 6.9375 -0.0429688 7.421875 -0.0429688 C 7.945312 -0.0429688 8.46875 0 8.992188 0 L 9.410156 0 C 10.1875 0 10.0625 -1.027344 10.0625 -1.90625 C 10.0625 -2.199219 10.0625 -2.578125 9.871094 -2.765625 C 9.769531 -2.871094 9.515625 -3.039062 8.910156 -3.019531 C 8.65625 -3.019531 8.382812 -2.976562 8.132812 -2.976562 C 7.652344 -2.976562 7.148438 -3.019531 6.664062 -2.996094 C 6.433594 -2.976562 6.035156 -2.957031 5.386719 -3.019531 L 5.007812 -3.058594 C 4.90625 -3.082031 4.738281 -3.101562 4.613281 -3.207031 C 4.484375 -3.3125 4.464844 -3.457031 4.445312 -3.5625 C 4.402344 -3.773438 4.402344 -4.148438 4.402344 -4.214844 L 4.402344 -4.945312 C 4.402344 -5.09375 4.402344 -5.28125 4.632812 -5.597656 C 4.757812 -5.742188 4.945312 -5.765625 5.03125 -5.765625 L 5.847656 -5.703125 C 6.476562 -5.660156 7.714844 -5.597656 8.300781 -5.597656 C 8.613281 -5.597656 8.929688 -5.597656 9.242188 -5.765625 C 9.371094 -5.828125 9.496094 -5.933594 9.539062 -6.164062 C 9.558594 -6.289062 9.601562 -6.730469 9.601562 -6.894531 L 9.601562 -7.820312 C 9.601562 -8.175781 9.539062 -8.40625 9.433594 -8.511719 C 9.285156 -8.65625 8.886719 -8.71875 8.699219 -8.71875 C 8.511719 -8.71875 8.195312 -8.65625 7.820312 -8.679688 L 7.484375 -8.699219 C 7.273438 -8.71875 7.421875 -8.742188 7.148438 -8.742188 C 6.8125 -8.742188 6.644531 -8.71875 6.394531 -8.71875 L 5.574219 -8.699219 C 5.261719 -8.699219 4.800781 -8.71875 4.570312 -9.011719 C 4.445312 -9.179688 4.421875 -9.371094 4.421875 -9.496094 C 4.421875 -9.578125 4.421875 -9.664062 4.421875 -9.746094 C 4.421875 -9.832031 4.402344 -9.894531 4.402344 -9.976562 L 4.382812 -10.207031 C 4.359375 -10.375 4.359375 -10.667969 4.570312 -10.878906 C 4.738281 -11.046875 5.050781 -11.152344 5.449219 -11.128906 L 8.574219 -11.003906 C 8.992188 -10.984375 9.140625 -11.109375 9.179688 -11.152344 C 9.328125 -11.296875 9.347656 -11.589844 9.371094 -11.78125 L 9.453125 -12.261719 C 9.472656 -12.410156 9.515625 -12.492188 9.539062 -12.746094 C 9.539062 -13.039062 9.558594 -12.996094 9.558594 -13.101562 C 9.558594 -13.414062 9.515625 -13.605469 9.410156 -13.75 C 9.265625 -13.980469 9.117188 -13.960938 8.972656 -13.960938 L 8.214844 -13.917969 C 7.921875 -13.898438 7.523438 -13.960938 7.148438 -13.980469 C 7.023438 -13.980469 6.894531 -13.980469 6.769531 -13.980469 C 5.996094 -13.980469 5.199219 -13.917969 4.421875 -13.9375 Z M 2.285156 -14.023438"/></g></g></g><g fill="#000000" fill-opacity="1"><g transform="translate(361.735795, 309.027734)"><g><path d="M 7.671875 -12.679688 C 7.691406 -13.351562 7.691406 -13.5625 7.421875 -13.730469 C 6.980469 -14.003906 5.972656 -14.023438 5.40625 -14.023438 C 3.039062 -14.023438 1.738281 -13.519531 1.132812 -12.746094 C 0.839844 -12.386719 0.460938 -11.632812 0.460938 -10.5 C 0.460938 -8.886719 1.320312 -7.902344 1.65625 -7.589844 L 2.074219 -7.210938 C 2.265625 -7.042969 2.429688 -6.875 2.621094 -6.707031 C 2.765625 -6.582031 2.894531 -6.433594 3.039062 -6.308594 C 3.25 -6.121094 3.480469 -5.933594 3.835938 -5.660156 C 4.085938 -5.449219 4.296875 -5.28125 4.507812 -4.945312 C 4.613281 -4.777344 4.714844 -4.570312 4.714844 -4.296875 C 4.714844 -4.085938 4.613281 -3.816406 4.527344 -3.6875 C 4.191406 -3.144531 3.519531 -3.144531 3.226562 -3.144531 C 2.894531 -3.144531 2.808594 -3.164062 2.597656 -3.207031 C 2.390625 -3.25 1.507812 -3.394531 1.300781 -3.394531 C 1.132812 -3.394531 0.839844 -3.332031 0.710938 -3.226562 C 0.609375 -3.144531 0.566406 -2.976562 0.566406 -2.808594 C 0.566406 -2.515625 0.648438 -2.597656 0.609375 -1.382812 L 0.585938 -0.796875 C 0.585938 -0.609375 0.691406 -0.417969 0.777344 -0.335938 C 1.257812 0.125 2.660156 0.0625 3.332031 0.0625 C 4.90625 0.0625 5.617188 -0.210938 6.140625 -0.523438 C 6.9375 -1.007812 8.152344 -1.992188 8.152344 -4.109375 C 8.152344 -4.632812 8.070312 -5.472656 7.734375 -6.121094 C 7.230469 -7.085938 6.433594 -7.691406 5.867188 -8.132812 L 5.386719 -8.511719 C 4.527344 -9.179688 4.359375 -9.390625 4.296875 -9.472656 C 4.046875 -9.808594 4.003906 -10 4.003906 -10.167969 C 4.003906 -10.332031 4.046875 -10.542969 4.234375 -10.730469 C 4.484375 -11.003906 4.84375 -11.066406 5.28125 -11.066406 C 5.449219 -11.066406 5.636719 -11.046875 5.867188 -11.027344 C 6.246094 -10.984375 6.644531 -10.921875 7.023438 -10.921875 C 7.0625 -10.921875 7.085938 -10.921875 7.125 -10.921875 C 7.253906 -10.921875 7.441406 -10.941406 7.546875 -11.046875 C 7.652344 -11.171875 7.671875 -11.402344 7.671875 -11.488281 C 7.671875 -11.84375 7.628906 -11.78125 7.652344 -12.15625 Z M 7.671875 -12.679688"/></g></g></g><g fill="#000000" fill-opacity="1"><g transform="translate(370.350872, 309.027734)"><g><path d="M 1.738281 -14.003906 C 1.40625 -13.980469 1.195312 -13.835938 1.089844 -13.582031 C 1.070312 -13.5 1.046875 -13.269531 1.046875 -12.890625 L 1.132812 -11.066406 L 1.277344 -9.640625 L 1.320312 -8.53125 C 1.382812 -7.484375 1.425781 -6.875 1.445312 -6.6875 C 1.46875 -6.351562 1.550781 -5.910156 1.65625 -5.386719 C 1.71875 -4.464844 1.78125 -3.984375 1.800781 -3.917969 C 1.90625 -3.753906 2.117188 -3.667969 2.429688 -3.667969 C 2.851562 -3.667969 3.164062 -3.730469 3.375 -3.835938 C 3.519531 -3.917969 3.605469 -4.171875 3.625 -4.589844 C 3.648438 -4.90625 3.710938 -5.367188 3.816406 -6.015625 L 3.917969 -7 C 3.984375 -7.714844 4.023438 -8.238281 4.023438 -8.574219 C 4.046875 -9.222656 4.046875 -9.558594 4.046875 -9.578125 L 4.171875 -10.648438 L 4.191406 -11.695312 C 4.277344 -12.386719 4.316406 -12.828125 4.316406 -12.996094 C 4.316406 -13.5 4.234375 -13.792969 4.046875 -13.898438 C 3.941406 -13.960938 3.6875 -13.980469 3.289062 -13.980469 C 3.164062 -13.980469 3.019531 -13.980469 2.871094 -14.003906 L 2.683594 -14.003906 L 2.242188 -13.980469 Z M 1.96875 -3.039062 C 1.90625 -3.039062 1.761719 -3.039062 1.53125 -3.019531 C 1.382812 -3.019531 1.257812 -2.957031 1.195312 -2.851562 C 1.195312 -2.828125 1.171875 -2.179688 1.132812 -0.902344 L 1.109375 -0.441406 C 1.109375 -0.25 1.277344 0 1.382812 0 L 3.773438 0 C 3.816406 0 3.878906 0 3.941406 -0.0195312 C 4.023438 -0.0820312 4.085938 -0.25 4.109375 -0.546875 C 4.148438 -1.007812 4.171875 -1.53125 4.171875 -2.136719 L 4.171875 -2.242188 C 4.171875 -2.472656 4.171875 -2.621094 4.148438 -2.683594 C 4.085938 -2.828125 3.984375 -2.933594 3.792969 -2.976562 C 3.792969 -2.976562 2.453125 -3.039062 2.285156 -3.039062 Z M 1.96875 -3.039062"/></g></g></g></svg>