<svg version="1.0" preserveAspectRatio="xMidYMid meet" viewBox="436.0224971878515 151.833960281174 86.38920134983127 93.96000017399999" zoomAndPan="magnify" xmlns:xlink="http://www.w3.org/1999/xlink" xmlns="http://www.w3.org/2000/svg" style="max-height: 500px" width="86.38920134983127" height="93.96000017399999"><defs><clipPath id="d9683eb894"><path clip-rule="nonzero" d="M 0.886719 0 L 959.113281 0 L 959.113281 539 L 0.886719 539 Z M 0.886719 0"/></clipPath><clipPath id="b39a9c2c5f"><path clip-rule="nonzero" d="M 440.261719 156.757812 L 518.753906 156.757812 L 518.753906 241.910156 L 440.261719 241.910156 Z M 440.261719 156.757812"/></clipPath><clipPath id="1d8ba3b729"><path clip-rule="nonzero" d="M 472.800781 159.738281 L 485.953125 159.738281 L 485.953125 174.230469 L 472.800781 174.230469 Z M 472.800781 159.738281"/></clipPath><clipPath id="4e37ddecdc"><path clip-rule="nonzero" d="M 482.996094 160.242188 C 483.304688 161.011719 483.660156 161.765625 483.914062 162.554688 L 483.605469 163.261719 C 484.046875 164.046875 484.269531 164.945312 484.832031 165.660156 C 484.761719 166.304688 484.023438 165.753906 483.6875 167 C 482.730469 166.785156 481.898438 166.804688 481.894531 168.015625 C 481.929688 168.074219 483.082031 168.058594 483.648438 168.480469 C 483 169.078125 483.75 169.492188 483.421875 170.148438 C 482.898438 171.1875 479.167969 169.542969 478.449219 169.101562 C 478.070312 168.875 477.984375 168.371094 477.585938 168.171875 L 477.472656 168.339844 C 477.726562 169.183594 478.4375 169.746094 478.84375 170.5 C 479.394531 171.527344 478.378906 173.582031 479.042969 174.128906 C 479.90625 173.511719 481.238281 171.300781 481.953125 170.992188 C 482.90625 171.042969 482.792969 171.503906 483.660156 170.570312 C 484.925781 170.300781 486.109375 170.816406 487.320312 171.09375 L 487.320312 171.234375 C 486.417969 171.570312 485.578125 172.085938 484.890625 172.757812 L 484.945312 172.886719 C 485.195312 172.785156 486.808594 172.082031 486.867188 172.109375 C 487.972656 170.417969 495.074219 171.765625 496.730469 172.84375 C 497.636719 172.1875 498.53125 171.878906 499.640625 171.699219 L 499.921875 171.898438 L 499.976562 172.785156 C 499.460938 172.957031 498.949219 173.140625 498.425781 173.28125 L 498.324219 173.507812 C 498.726562 173.917969 499.363281 173.640625 499.851562 173.617188 L 500.105469 173.929688 C 500.160156 174.402344 500.304688 174.863281 500.457031 175.3125 C 500.292969 176.113281 498.207031 176.613281 497.507812 176.78125 L 497.40625 177.003906 C 498.175781 177.691406 499.355469 176.636719 500.121094 176.921875 L 500.121094 177.175781 C 498.667969 177.761719 497.109375 178.109375 495.542969 177.910156 L 495.472656 177.769531 C 495.707031 177.394531 496.371094 177.003906 496.023438 176.496094 L 495.796875 176.511719 C 493.714844 178.445312 492.488281 178.925781 489.722656 178.035156 C 488.789062 177.738281 487.886719 177.816406 487.460938 176.679688 C 487.339844 176.355469 487.128906 175.90625 487.347656 175.582031 L 487.09375 175.425781 C 486.632812 175.902344 486.332031 176.507812 485.894531 177.003906 C 485.480469 179.414062 482.753906 182.132812 480.339844 182.3125 C 479.652344 182.777344 478.707031 182.808594 477.925781 182.59375 L 477.882812 182.75 C 478.863281 183.953125 482.441406 183 483.578125 182.253906 C 484.210938 184.320312 481.789062 185.933594 480.933594 187.535156 C 481.269531 188.164062 479.464844 191.195312 479.070312 191.722656 C 479.105469 192.597656 476.601562 193.847656 476.03125 194.503906 C 476.03125 195.3125 475.707031 196.964844 474.957031 197.382812 C 473.144531 196.878906 471.425781 195.351562 469.433594 195.492188 C 469.058594 195.203125 470.226562 193.703125 470.4375 193.402344 L 470.28125 193.234375 C 469.589844 193.464844 469.207031 194.164062 468.601562 194.53125 C 466.730469 195.667969 464.257812 195.042969 462.203125 194.871094 C 462.179688 194.832031 463.429688 192.085938 463.035156 191.132812 C 462.453125 189.734375 463.421875 187.90625 463.078125 187.136719 L 463.160156 186.769531 C 462.59375 185.328125 461.84375 183.929688 461.722656 182.355469 L 461.847656 182.199219 C 462.332031 182.492188 463.21875 184.363281 463.671875 184.964844 C 463.335938 185.859375 463.527344 187.597656 464.601562 187.902344 L 464.671875 187.757812 C 464.457031 187.054688 464.140625 186.367188 464.222656 185.613281 C 465.03125 184.789062 462.921875 182.117188 462.539062 181.226562 L 462.894531 180.71875 L 463.246094 180.800781 C 463.957031 181.949219 464.9375 183.011719 465.960938 183.863281 L 466.101562 183.792969 C 465.878906 183.476562 465.621094 183.152344 465.605469 182.75 C 465.148438 182.125 464.566406 181.464844 464.757812 180.632812 L 465.183594 180.449219 C 466.589844 181.664062 473.46875 184.414062 474.761719 182.523438 C 474.660156 182.1875 474.242188 182.429688 474.082031 182.566406 C 470.789062 182.03125 468.253906 182.4375 466.171875 179.136719 C 465.644531 178.300781 464.917969 176.945312 464.84375 175.960938 L 464.304688 175.847656 C 463.945312 176.179688 464.167969 176.710938 464.277344 177.105469 C 464.117188 177.664062 462.554688 177.511719 462.101562 178.050781 C 458.988281 178.703125 455.757812 178.871094 452.792969 177.699219 L 452.285156 178.09375 C 451.714844 177.988281 451.222656 177.617188 450.628906 177.628906 L 450.503906 177.882812 C 450.925781 178.464844 456.578125 179.8125 457.707031 179.617188 L 457.738281 179.730469 C 456.261719 180.394531 449.6875 180.511719 448.199219 179.628906 C 447.613281 179.75 447.203125 179.3125 446.730469 179.050781 L 446.519531 179.152344 C 446.644531 179.441406 446.875 179.609375 447.015625 179.828125 L 446.972656 179.914062 C 443.257812 180.496094 443.925781 179.90625 443.074219 177.824219 L 443.410156 177.289062 C 443.433594 176.519531 443.378906 175.730469 443.144531 175.003906 C 443.398438 173.898438 444.085938 171.765625 444.78125 170.894531 C 444.96875 170.664062 445.496094 169.9375 445.714844 170.570312 C 445.105469 171.882812 444.484375 173.367188 444.527344 174.832031 C 444.835938 174.484375 445.167969 174.152344 445.515625 173.84375 L 445.757812 173.886719 C 445.949219 173.6875 446.019531 173.367188 446.054688 173.097656 C 447.179688 171.835938 448.3125 172.242188 448.667969 171.980469 C 449.664062 172.097656 450.183594 172.1875 450.773438 173.011719 C 450.488281 174.246094 449.164062 174.746094 448.371094 175.59375 L 448.625 175.804688 C 450.414062 175.835938 451.398438 173.855469 452.890625 173.308594 C 455.789062 172.25 459.058594 171.589844 462.03125 172.800781 L 462.328125 172.601562 C 462.242188 172.289062 461.253906 171.703125 460.972656 171.472656 C 461.652344 168.480469 468.992188 169.761719 470.605469 171.699219 L 470.917969 171.65625 C 470.765625 171.308594 470.578125 170.960938 470.351562 170.65625 C 470.804688 170.644531 471.304688 170.703125 471.679688 170.402344 C 472.746094 170.390625 472.742188 169.789062 473.574219 170.964844 C 474.144531 170.480469 473.59375 167.871094 475.058594 166.507812 C 475.257812 166.664062 476.175781 167.605469 476.46875 167.339844 L 476.570312 167.804688 C 476.039062 168.324219 475.84375 170.390625 476.316406 170.964844 L 476.539062 170.808594 C 476.742188 169.871094 476.992188 168.917969 476.90625 167.945312 C 477.332031 167.808594 476.863281 166.671875 476.808594 166.351562 C 476.464844 166.464844 476.785156 166.933594 476.300781 166.929688 C 475.261719 166.921875 474.519531 164.539062 475.46875 164.066406 C 475.996094 164.363281 476.574219 164.59375 476.921875 165.125 L 477.714844 164.800781 C 477.792969 164.265625 477.859375 163.71875 478.109375 163.234375 C 477.898438 162.441406 477.234375 161.535156 477.898438 160.777344 C 477.730469 159.753906 480.59375 159.972656 480.992188 159.746094 C 481.664062 159.871094 482.371094 159.945312 482.996094 160.242188 Z M 482.996094 160.242188"/></clipPath><clipPath id="7d2b4c9bf0"><path clip-rule="nonzero" d="M 489 223 L 504 223 L 504 241.910156 L 489 241.910156 Z M 489 223"/></clipPath><clipPath id="f33b615ff9"><path clip-rule="nonzero" d="M 440.246094 228 L 452 228 L 452 241.910156 L 440.246094 241.910156 Z M 440.246094 228"/></clipPath></defs><g clip-path="url(#d9683eb894)"><path fill-rule="nonzero" fill-opacity="1" d="M 0.886719 0 L 959.113281 0 L 959.113281 539 L 0.886719 539 Z M 0.886719 0" fill="transparent"/><path fill-rule="nonzero" fill-opacity="1" d="M 0.886719 0 L 959.113281 0 L 959.113281 539 L 0.886719 539 Z M 0.886719 0" fill="transparent"/></g><g clip-path="url(#b39a9c2c5f)"><path fill-rule="nonzero" fill-opacity="1" d="M 465.070312 160.890625 C 465.207031 161.445312 465.070312 161.839844 464.660156 162.074219 C 464.742188 162.453125 464.597656 162.832031 464.335938 163.105469 C 464.496094 163.488281 462.671875 165.777344 462.414062 165.886719 C 461.449219 166.28125 461.046875 165.214844 460.605469 165.125 C 458.929688 165.921875 458.300781 165.59375 457.128906 164.472656 L 455.703125 164.925781 C 455.5625 167.113281 454.28125 170.527344 453.386719 172.546875 L 453.46875 172.632812 C 455.496094 172.167969 457.269531 171.820312 459.347656 171.613281 C 460.203125 170.910156 460.984375 169.828125 462.128906 169.539062 C 463.882812 169.101562 466.042969 168.882812 467.867188 169.214844 C 468.835938 169.394531 471.804688 170.585938 472.585938 169.640625 L 473.40625 168.566406 C 473.363281 167.710938 473.707031 166.839844 473.644531 166.011719 C 473.570312 165.03125 471.109375 160.960938 473.671875 159.042969 C 478.675781 155.292969 485.007812 158.210938 483.519531 160.496094 C 483.820312 161.246094 484.210938 161.964844 484.421875 162.753906 L 484.167969 163.488281 C 485.332031 165.636719 485.707031 165.160156 484.421875 166.621094 L 484.421875 167.464844 C 484.035156 167.808594 484.199219 168.304688 484.210938 168.765625 C 483.746094 168.949219 483.929688 169.53125 483.914062 169.90625 L 484.070312 170.046875 C 485.074219 169.984375 486.734375 170.375 487.671875 170.753906 C 489.785156 171.613281 494.078125 170.183594 496.304688 171.953125 L 496.574219 171.941406 C 497.34375 171.816406 499.5 170.980469 500.234375 170.628906 C 500.519531 170.09375 500.808594 169.097656 501.417969 168.847656 C 503.710938 167.921875 506.652344 168.542969 508.921875 167.832031 C 510.023438 167.488281 511.214844 164.953125 512.523438 164.460938 C 513.234375 164.648438 516.132812 162.125 517.722656 164.445312 C 518.105469 165.003906 517.628906 165.46875 517.949219 165.886719 C 518.589844 166.722656 518.828125 166.996094 518.5 168.085938 C 518.671875 168.40625 518.761719 169.214844 518.753906 169.582031 C 518.726562 170.664062 518.855469 172.445312 517.90625 173.140625 C 516.769531 173.96875 515.140625 172.519531 514.273438 173.109375 C 513.753906 173.46875 513.101562 173.609375 512.46875 173.617188 C 512.003906 173.625 511.285156 173.085938 510.855469 173.464844 C 509.007812 175.105469 506.21875 178.691406 503.453125 178.855469 C 502.820312 178.890625 502.015625 178.003906 501.589844 177.597656 C 498.695312 178.574219 493.816406 179.175781 490.78125 179.066406 C 490.503906 179.054688 489.066406 178.9375 488.902344 179.09375 C 488.035156 180.390625 486.523438 181.207031 485.722656 182.367188 C 484.277344 184.460938 484.257812 186.511719 481.625 187.84375 C 480.265625 190.191406 480.273438 192.398438 477.601562 194.167969 C 477.25 194.394531 476.621094 194.488281 476.484375 194.957031 C 476.097656 196.269531 476 197.105469 475.269531 198.359375 C 477.023438 199.757812 483.101562 202.324219 485.808594 203.820312 C 489.320312 205.757812 491.472656 208.804688 492.265625 209.195312 C 493.136719 209.628906 493.84375 210.21875 494.085938 211.226562 C 494.359375 212.367188 493.972656 214.289062 494.015625 215.558594 C 494.132812 219.09375 494.316406 228.984375 495.1875 231.832031 C 495.453125 232.691406 495.992188 233.457031 496.503906 234.1875 C 497.039062 234.375 497.367188 235.003906 497.816406 235.160156 C 499.484375 235.742188 501.765625 236.140625 503.539062 236.207031 L 504.101562 236.714844 C 504.296875 240.351562 500.03125 240.105469 497.476562 240.539062 C 495.800781 240.824219 491.636719 243.140625 490.300781 241.046875 C 490.007812 240.585938 489.816406 240.0625 489.804688 239.507812 C 489.789062 238.382812 490.441406 237.378906 490.371094 236.179688 C 490.246094 233.953125 489.734375 227.300781 488.335938 225.722656 C 488.398438 224.300781 483.601562 219.558594 484.707031 213.300781 C 484.402344 212.882812 483.703125 213.101562 483.265625 213.105469 C 478.339844 213.152344 473.175781 211.496094 468.488281 209.972656 L 468.320312 210.054688 C 466.96875 213.488281 463.203125 218.476562 460.167969 220.570312 C 459.792969 220.828125 459.910156 221.246094 459.6875 221.585938 C 459.214844 222.308594 458.296875 222.65625 457.777344 223.265625 C 457.105469 224.0625 456.871094 225.28125 456.082031 226.1875 C 454.871094 227.582031 453.785156 228.484375 452.296875 229.574219 C 450.863281 230.628906 448.347656 234.167969 446.984375 235.699219 C 448.765625 236.660156 449.792969 234.667969 451.125 235.386719 C 451.667969 235.683594 451.847656 236.40625 451.703125 236.96875 C 451.222656 238.835938 448.476562 239.589844 446.886719 239.902344 L 445.105469 240.257812 C 443.734375 240.550781 442.546875 243 440.445312 241.046875 L 440.261719 239.875 C 440.542969 239.191406 440.460938 238.507812 440.855469 237.84375 C 442.28125 235.441406 444.429688 233.246094 445.714844 230.859375 C 446.722656 228.976562 447.15625 225.046875 448.820312 223.703125 C 450.71875 222.171875 451.375 219.496094 454.21875 219.046875 C 454.355469 218.914062 454.328125 216.96875 454.386719 216.660156 C 454.808594 214.5 456.449219 209.597656 457.808594 207.925781 C 455.164062 203.273438 457.15625 198.679688 460.84375 195.449219 C 462.144531 194.3125 462.015625 190.066406 462.371094 188.15625 C 461.351562 185.742188 460.460938 183.269531 459.8125 180.730469 L 459.671875 180.632812 C 457.144531 180.921875 453.902344 181.351562 451.265625 181.070312 C 450.042969 180.941406 448.757812 180.355469 447.550781 180.308594 C 446.414062 180.265625 445.144531 180.828125 444.019531 180.320312 C 442.519531 179.648438 442.632812 177.511719 442.535156 176.160156 C 443.425781 174.082031 442.214844 173.667969 444.824219 170.117188 L 444.640625 169.652344 C 444.6875 169.386719 444.828125 169.085938 445.09375 168.976562 C 446.542969 166.363281 450.136719 164.066406 450.914062 162.5 C 452.632812 161.664062 454.699219 158.597656 460.179688 156.785156 C 461.292969 156.414062 464.269531 160.015625 465.070312 160.890625" fill="#231f20"/></g><path fill-rule="nonzero" fill-opacity="1" d="M 461.199219 157.769531 C 461.015625 157.789062 460.5 157.9375 460.800781 158.195312 C 461.324219 158.136719 461.5 158.722656 461.847656 158.984375 C 461.863281 160.121094 464.621094 161.175781 463.710938 162.441406 L 463.132812 162.667969 C 462.785156 161.691406 460.847656 159.148438 459.769531 159.367188 C 460.710938 160.042969 462.054688 161.832031 462.539062 162.894531 L 462.144531 163.203125 C 462.253906 163.484375 461.910156 163.691406 461.691406 163.769531 L 461.609375 163.304688 C 461.390625 163.066406 461.089844 162.832031 461.183594 162.46875 C 460.691406 161.808594 460.226562 161.121094 459.671875 160.507812 L 459.417969 160.648438 L 459.445312 160.902344 C 460.058594 161.710938 460.597656 162.574219 461.140625 163.429688 C 460.992188 164.0625 460.347656 164.421875 459.871094 164.785156 C 459.390625 164.734375 458.953125 164.910156 458.515625 165.066406 C 458.183594 164.820312 457.980469 164.453125 457.75 164.121094 L 458.246094 163.570312 C 458.410156 163.730469 458.566406 163.9375 458.65625 164.148438 L 458.808594 164.136719 C 459.085938 163.765625 459.714844 163.605469 459.769531 163.089844 C 458.734375 162.898438 458.640625 162.539062 458.175781 161.695312 L 457.992188 161.664062 C 457.695312 162.050781 458.195312 162.367188 458.117188 162.726562 C 457.8125 164.160156 455.28125 164.148438 454.175781 163.964844 C 453.78125 163.546875 453.167969 163.675781 452.792969 163.175781 C 452.609375 162.933594 452.511719 162.609375 452.269531 162.414062 L 452.027344 162.597656 C 451.953125 164.640625 454.300781 164.199219 454.417969 164.925781 C 454.621094 166.21875 453.058594 169.945312 452.367188 171.007812 C 451.914062 171.710938 446.417969 169.703125 445.671875 169.074219 C 446.042969 167.8125 451.515625 162.386719 452.863281 161.398438 C 453.214844 161.140625 455.46875 159.625 455.503906 159.335938 C 456.53125 158.816406 460.457031 156.894531 461.199219 157.769531" fill="#eec51a"/><path fill-rule="nonzero" fill-opacity="1" d="M 482.289062 158.53125 L 482.601562 158.984375 L 482.148438 159.195312 C 480.546875 158.640625 480.121094 157.710938 478.136719 157.941406 L 478.09375 158.109375 C 478.433594 158.164062 478.785156 158.175781 479.113281 158.292969 L 479.152344 158.40625 C 478.207031 158.394531 477.214844 158.503906 476.386719 159 L 476.753906 159.167969 C 477.839844 158.707031 478.65625 158.539062 479.746094 159.054688 L 479.777344 159.140625 C 479.027344 159.242188 478.121094 159.183594 477.347656 159.253906 L 477.375 159.480469 C 477.632812 159.808594 478.121094 159.640625 478.476562 159.675781 L 478.363281 159.84375 C 477.675781 160.109375 476.917969 160.074219 476.203125 160.183594 L 475.820312 160.679688 L 476.019531 160.902344 C 476.316406 160.933594 476.746094 160.65625 476.964844 160.972656 C 476.816406 161.277344 476.410156 161.28125 476.144531 161.425781 L 476.046875 161.625 C 476.261719 161.789062 476.605469 161.679688 476.824219 161.566406 L 477.035156 161.765625 C 476.59375 162.433594 476.347656 162.199219 475.792969 162.582031 L 475.875 162.765625 C 476.324219 162.765625 476.703125 162.515625 477.121094 162.386719 L 477.5 163.105469 C 477.339844 163.546875 477.386719 164.03125 477.332031 164.488281 L 476.949219 164.644531 C 475.414062 163.230469 474.253906 163.484375 474.773438 165.84375 L 474.589844 166.082031 L 474.195312 165.929688 C 473.789062 164.886719 472.769531 163.183594 472.878906 162.015625 C 473.335938 157.070312 480.046875 156.574219 482.289062 158.53125" fill="#246ebc"/><path fill-rule="nonzero" fill-opacity="1" d="M 464.488281 161.199219 L 464.277344 161.453125 C 464.148438 161.082031 462.132812 159.007812 461.945312 158.800781 L 462.058594 158.546875 C 463.085938 159.183594 463.898438 160.164062 464.488281 161.199219" fill="#eec51a"/><path fill-rule="nonzero" fill-opacity="1" d="M 458.429688 159.5625 C 458.472656 159.703125 458.316406 159.804688 458.21875 159.832031 C 457.328125 160.027344 456.464844 160.269531 455.574219 160.410156 C 455.519531 160.367188 455.53125 160.269531 455.546875 160.226562 C 456.339844 159.875 457.1875 159.621094 458.035156 159.394531 C 458.1875 159.378906 458.359375 159.40625 458.429688 159.5625" fill="#231f20"/><path fill-rule="nonzero" fill-opacity="1" d="M 482.996094 160.242188 C 483.304688 161.011719 483.660156 161.765625 483.914062 162.554688 L 483.605469 163.261719 C 484.046875 164.046875 484.269531 164.945312 484.832031 165.660156 C 484.761719 166.304688 484.023438 165.753906 483.6875 167 C 482.730469 166.785156 481.898438 166.804688 481.894531 168.015625 C 481.929688 168.074219 483.082031 168.058594 483.648438 168.480469 C 483 169.078125 483.75 169.492188 483.421875 170.148438 C 482.898438 171.1875 479.167969 169.542969 478.449219 169.101562 C 478.070312 168.875 477.984375 168.371094 477.585938 168.171875 L 477.472656 168.339844 C 477.726562 169.183594 478.4375 169.746094 478.84375 170.5 C 479.394531 171.527344 478.378906 173.582031 479.042969 174.128906 C 479.90625 173.511719 481.238281 171.300781 481.953125 170.992188 C 482.90625 171.042969 482.792969 171.503906 483.660156 170.570312 C 484.925781 170.300781 486.109375 170.816406 487.320312 171.09375 L 487.320312 171.234375 C 486.417969 171.570312 485.578125 172.085938 484.890625 172.757812 L 484.945312 172.886719 C 485.195312 172.785156 486.808594 172.082031 486.867188 172.109375 C 487.972656 170.417969 495.074219 171.765625 496.730469 172.84375 C 497.636719 172.1875 498.53125 171.878906 499.640625 171.699219 L 499.921875 171.898438 L 499.976562 172.785156 C 499.460938 172.957031 498.949219 173.140625 498.425781 173.28125 L 498.324219 173.507812 C 498.726562 173.917969 499.363281 173.640625 499.851562 173.617188 L 500.105469 173.929688 C 500.160156 174.402344 500.304688 174.863281 500.457031 175.3125 C 500.292969 176.113281 498.207031 176.613281 497.507812 176.78125 L 497.40625 177.003906 C 498.175781 177.691406 499.355469 176.636719 500.121094 176.921875 L 500.121094 177.175781 C 498.667969 177.761719 497.109375 178.109375 495.542969 177.910156 L 495.472656 177.769531 C 495.707031 177.394531 496.371094 177.003906 496.023438 176.496094 L 495.796875 176.511719 C 493.714844 178.445312 492.488281 178.925781 489.722656 178.035156 C 488.789062 177.738281 487.886719 177.816406 487.460938 176.679688 C 487.339844 176.355469 487.128906 175.90625 487.347656 175.582031 L 487.09375 175.425781 C 486.632812 175.902344 486.332031 176.507812 485.894531 177.003906 C 485.480469 179.414062 482.753906 182.132812 480.339844 182.3125 C 479.652344 182.777344 478.707031 182.808594 477.925781 182.59375 L 477.882812 182.75 C 478.863281 183.953125 482.441406 183 483.578125 182.253906 C 484.210938 184.320312 481.789062 185.933594 480.933594 187.535156 C 481.269531 188.164062 479.464844 191.195312 479.070312 191.722656 C 479.105469 192.597656 476.601562 193.847656 476.03125 194.503906 C 476.03125 195.3125 475.707031 196.964844 474.957031 197.382812 C 473.144531 196.878906 471.425781 195.351562 469.433594 195.492188 C 469.058594 195.203125 470.226562 193.703125 470.4375 193.402344 L 470.28125 193.234375 C 469.589844 193.464844 469.207031 194.164062 468.601562 194.53125 C 466.730469 195.667969 464.257812 195.042969 462.203125 194.871094 C 462.179688 194.832031 463.429688 192.085938 463.035156 191.132812 C 462.453125 189.734375 463.421875 187.90625 463.078125 187.136719 L 463.160156 186.769531 C 462.59375 185.328125 461.84375 183.929688 461.722656 182.355469 L 461.847656 182.199219 C 462.332031 182.492188 463.21875 184.363281 463.671875 184.964844 C 463.335938 185.859375 463.527344 187.597656 464.601562 187.902344 L 464.671875 187.757812 C 464.457031 187.054688 464.140625 186.367188 464.222656 185.613281 C 465.03125 184.789062 462.921875 182.117188 462.539062 181.226562 L 462.894531 180.71875 L 463.246094 180.800781 C 463.957031 181.949219 464.9375 183.011719 465.960938 183.863281 L 466.101562 183.792969 C 465.878906 183.476562 465.621094 183.152344 465.605469 182.75 C 465.148438 182.125 464.566406 181.464844 464.757812 180.632812 L 465.183594 180.449219 C 466.589844 181.664062 473.46875 184.414062 474.761719 182.523438 C 474.660156 182.1875 474.242188 182.429688 474.082031 182.566406 C 470.789062 182.03125 468.253906 182.4375 466.171875 179.136719 C 465.644531 178.300781 464.917969 176.945312 464.84375 175.960938 L 464.304688 175.847656 C 463.945312 176.179688 464.167969 176.710938 464.277344 177.105469 C 464.117188 177.664062 462.554688 177.511719 462.101562 178.050781 C 458.988281 178.703125 455.757812 178.871094 452.792969 177.699219 L 452.285156 178.09375 C 451.714844 177.988281 451.222656 177.617188 450.628906 177.628906 L 450.503906 177.882812 C 450.925781 178.464844 456.578125 179.8125 457.707031 179.617188 L 457.738281 179.730469 C 456.261719 180.394531 449.6875 180.511719 448.199219 179.628906 C 447.613281 179.75 447.203125 179.3125 446.730469 179.050781 L 446.519531 179.152344 C 446.644531 179.441406 446.875 179.609375 447.015625 179.828125 L 446.972656 179.914062 C 443.257812 180.496094 443.925781 179.90625 443.074219 177.824219 L 443.410156 177.289062 C 443.433594 176.519531 443.378906 175.730469 443.144531 175.003906 C 443.398438 173.898438 444.085938 171.765625 444.78125 170.894531 C 444.96875 170.664062 445.496094 169.9375 445.714844 170.570312 C 445.105469 171.882812 444.484375 173.367188 444.527344 174.832031 C 444.835938 174.484375 445.167969 174.152344 445.515625 173.84375 L 445.757812 173.886719 C 445.949219 173.6875 446.019531 173.367188 446.054688 173.097656 C 447.179688 171.835938 448.3125 172.242188 448.667969 171.980469 C 449.664062 172.097656 450.183594 172.1875 450.773438 173.011719 C 450.488281 174.246094 449.164062 174.746094 448.371094 175.59375 L 448.625 175.804688 C 450.414062 175.835938 451.398438 173.855469 452.890625 173.308594 C 455.789062 172.25 459.058594 171.589844 462.03125 172.800781 L 462.328125 172.601562 C 462.242188 172.289062 461.253906 171.703125 460.972656 171.472656 C 461.652344 168.480469 468.992188 169.761719 470.605469 171.699219 L 470.917969 171.65625 C 470.765625 171.308594 470.578125 170.960938 470.351562 170.65625 C 470.804688 170.644531 471.304688 170.703125 471.679688 170.402344 C 472.746094 170.390625 472.742188 169.789062 473.574219 170.964844 C 474.144531 170.480469 473.59375 167.871094 475.058594 166.507812 C 475.257812 166.664062 476.175781 167.605469 476.46875 167.339844 L 476.570312 167.804688 C 476.039062 168.324219 475.84375 170.390625 476.316406 170.964844 L 476.539062 170.808594 C 476.742188 169.871094 476.992188 168.917969 476.90625 167.945312 C 477.332031 167.808594 476.863281 166.671875 476.808594 166.351562 C 476.464844 166.464844 476.785156 166.933594 476.300781 166.929688 C 475.261719 166.921875 474.519531 164.539062 475.46875 164.066406 C 475.996094 164.363281 476.574219 164.59375 476.921875 165.125 L 477.714844 164.800781 C 477.792969 164.265625 477.859375 163.71875 478.109375 163.234375 C 477.898438 162.441406 477.234375 161.535156 477.898438 160.777344 C 477.730469 159.753906 480.59375 159.972656 480.992188 159.746094 C 481.664062 159.871094 482.371094 159.945312 482.996094 160.242188" fill="#ee5b27"/><g clip-path="url(#1d8ba3b729)"><g clip-path="url(#4e37ddecdc)"><path fill-rule="evenodd" fill-opacity="1" d="M 478.996094 174.183594 C 476.625 174.464844 474.109375 172.234375 472.878906 169.679688 L 474.40625 165.875 C 473.992188 162.785156 474.8125 162.097656 476.863281 163.816406 C 476.472656 159.175781 478.523438 157.78125 483.011719 159.636719 L 484.695312 162.707031 L 485.90625 165.914062 L 484.695312 167.082031 L 484.339844 170.113281 C 483.3125 170.835938 482.289062 171.105469 481.265625 170.925781 L 478.996094 174.183594" fill="#f4bfd9"/></g></g><path fill-rule="nonzero" fill-opacity="1" d="M 482.6875 162.625 L 482.839844 163.019531 L 482.332031 163.570312 L 482.050781 163.386719 L 482.050781 163.34375 L 480.992188 163.34375 L 481.074219 163.132812 L 481.894531 162.964844 L 481.894531 162.867188 C 481.496094 162.800781 481.035156 162.09375 480.695312 162.683594 L 480.382812 162.582031 L 480.636719 162.175781 C 481.152344 162.003906 482.148438 162.46875 482.6875 162.625" fill="#231f20"/><path fill-rule="nonzero" fill-opacity="1" d="M 475.171875 162.386719 C 475.140625 162.613281 474.386719 163.761719 474.238281 164.023438 C 473.902344 163.4375 474.457031 162.90625 474.746094 162.441406 L 475.171875 162.386719" fill="#231f20"/><path fill-rule="nonzero" fill-opacity="1" d="M 454.105469 162.511719 C 454.035156 162.808594 453.726562 162.9375 453.484375 163.035156 C 453.429688 162.992188 453.398438 162.921875 453.429688 162.867188 C 453.625 162.726562 453.835938 162.175781 454.105469 162.511719" fill="#231f20"/><path fill-rule="nonzero" fill-opacity="1" d="M 463.882812 163.386719 C 463.765625 163.796875 462.742188 164.289062 462.355469 165.25 L 461.777344 165.347656 L 461.425781 164.8125 L 461.507812 164.585938 C 461.980469 164.28125 462.625 164.101562 462.824219 163.515625 L 463.234375 163.402344 C 463.402344 163.472656 463.667969 163.484375 463.726562 163.261719 L 463.882812 163.386719" fill="#eec51a"/><path fill-rule="nonzero" fill-opacity="1" d="M 483.28125 163.980469 C 483.28125 164.050781 483.207031 164.078125 483.152344 164.066406 C 483.027344 164.007812 482.984375 163.867188 482.984375 163.726562 C 483.136719 163.402344 483.292969 163.824219 483.28125 163.980469" fill="#231f20"/><path fill-rule="nonzero" fill-opacity="1" d="M 516.335938 168.441406 C 516.035156 168.273438 515.957031 167.144531 515.898438 166.816406 L 515.363281 166.222656 C 515.460938 165.601562 515.828125 165.046875 515.828125 164.402344 L 515.703125 164.277344 C 515.300781 164.648438 515.535156 165.234375 515.121094 165.492188 C 514.585938 165.488281 514.003906 165.320312 513.5 165.574219 C 513.242188 166.03125 512.589844 166.105469 512.183594 166.4375 C 512.820312 166.574219 515.617188 166.511719 515.617188 167.199219 C 515.617188 168.316406 516.304688 169.367188 516.113281 170.457031 L 515.347656 170.554688 C 514.222656 169.949219 514.433594 169.550781 514.375 168.453125 L 514.21875 168.511719 C 513.785156 168.269531 513.328125 168.035156 512.835938 167.945312 L 512.253906 168.847656 C 512.472656 169.085938 512.675781 169.378906 512.988281 169.5 L 513.058594 169.640625 C 511.996094 173.53125 510.175781 172.160156 508.496094 169.710938 L 508.230469 169.976562 C 508.324219 170.863281 508.742188 171.664062 509.261719 172.378906 C 509.003906 173.320312 506.292969 175.511719 505.488281 176.273438 C 504.820312 176.90625 503.90625 177.460938 503.070312 177.851562 C 502.78125 177.988281 502.398438 177.605469 502.226562 177.402344 C 501.230469 176.246094 500.089844 170.070312 501.84375 169.527344 C 503.929688 168.882812 506.246094 168.625 508.414062 168.398438 C 508.984375 168.863281 509.546875 168.207031 510.121094 168.128906 L 510.261719 167.804688 L 509.894531 167.621094 C 511.144531 164.964844 519.578125 160.273438 516.335938 168.441406" fill="#eec51a"/><path fill-rule="nonzero" fill-opacity="1" d="M 476.214844 165.589844 C 476.257812 165.800781 475.976562 165.898438 476.101562 166.097656 C 476.160156 166.183594 476.285156 166.238281 476.230469 166.351562 C 476.171875 166.394531 476.144531 166.492188 476.058594 166.449219 C 475.917969 165.898438 475.15625 165.449219 475.46875 164.839844 C 475.90625 164.8125 476.046875 165.308594 476.214844 165.589844" fill="#231f20"/><path fill-rule="nonzero" fill-opacity="1" d="M 479.183594 166.691406 L 479.082031 166.773438 C 478.613281 166.292969 478.179688 165.71875 478.222656 165.011719 L 478.449219 164.882812 C 478.617188 165.503906 478.882812 166.121094 479.183594 166.691406" fill="#231f20"/><path fill-rule="nonzero" fill-opacity="1" d="M 483.335938 165.25 C 483.265625 165.5625 482.574219 165.460938 482.898438 165.898438 C 482.925781 165.957031 482.855469 166 482.8125 166 C 482.617188 165.957031 482.644531 165.6875 482.460938 165.632812 C 481.921875 166.027344 481.328125 166.546875 481.359375 167.269531 C 481.300781 167.28125 481.144531 167.324219 481.160156 167.199219 C 481.003906 166.351562 481.796875 165.816406 482.347656 165.335938 C 482.757812 165.589844 482.996094 164.855469 483.335938 165.25" fill="#231f20"/><path fill-rule="nonzero" fill-opacity="1" d="M 453.117188 165.320312 C 452.621094 165.855469 452.042969 166.394531 451.476562 166.84375 C 451.4375 166.84375 451.378906 166.84375 451.378906 166.789062 C 451.734375 166.265625 452.214844 165.773438 452.707031 165.320312 C 452.835938 165.292969 453.046875 165.066406 453.117188 165.320312" fill="#231f20"/><path fill-rule="nonzero" fill-opacity="1" d="M 451.109375 165.589844 C 451.167969 165.660156 451.167969 165.800781 451.054688 165.84375 C 450.546875 166.054688 450.039062 166.253906 449.5 166.394531 C 449.375 166.238281 449.515625 166.027344 449.570312 165.855469 C 450.023438 165.617188 450.617188 165.179688 451.109375 165.589844" fill="#231f20"/><path fill-rule="nonzero" fill-opacity="1" d="M 484.085938 165.714844 C 484.085938 165.785156 484.085938 165.886719 484 165.886719 C 483.773438 165.703125 483.40625 166.253906 483.390625 165.800781 C 483.5625 165.644531 483.914062 165.433594 484.085938 165.714844" fill="#231f20"/><path fill-rule="nonzero" fill-opacity="1" d="M 516.664062 170.175781 L 516.550781 170.117188 L 516.378906 169.117188 C 516.46875 168.917969 517.707031 168.707031 517.3125 166.761719 L 517.566406 166.394531 L 517.808594 166.421875 C 518.75 167.179688 517.613281 169.804688 516.664062 170.175781" fill="#eec51a"/><path fill-rule="nonzero" fill-opacity="1" d="M 453.710938 166.816406 C 453.375 168.261719 452.453125 169.613281 451.140625 170.332031 L 450.996094 170.203125 C 451.132812 169.914062 453.269531 166.75 453.386719 166.675781 L 453.710938 166.816406" fill="#231f20"/><path fill-rule="nonzero" fill-opacity="1" d="M 483.789062 167.351562 L 483.789062 167.679688 C 483.566406 167.820312 483.214844 167.695312 482.996094 167.59375 L 482.320312 167.71875 C 482.382812 166.992188 483.316406 167.242188 483.789062 167.351562" fill="#ffffff"/><path fill-rule="nonzero" fill-opacity="1" d="M 475.355469 168.1875 C 474.976562 168.984375 475.238281 169.917969 475.382812 170.738281 L 475.183594 170.753906 C 474.480469 169.917969 474.4375 168.632812 475.226562 167.847656 L 475.355469 168.1875" fill="#231f20"/><path fill-rule="nonzero" fill-opacity="1" d="M 515.785156 169.863281 L 515.546875 170.160156 C 515.296875 169.992188 514.96875 169.8125 515.023438 169.457031 C 515.210938 169.507812 515.699219 169.660156 515.785156 169.863281" fill="#231f20"/><path fill-rule="nonzero" fill-opacity="1" d="M 518.257812 169.964844 C 518.285156 170.996094 517.878906 171.433594 516.960938 171.839844 C 516.472656 171.800781 515.324219 171.597656 514.941406 171.246094 L 515.011719 170.753906 C 515.796875 171.164062 517.640625 170.539062 518.117188 169.808594 L 518.257812 169.964844" fill="#eec51a"/><path fill-rule="nonzero" fill-opacity="1" d="M 502.464844 170.515625 C 501.933594 171.3125 502.164062 172.355469 502.011719 173.253906 L 501.644531 173.363281 C 501.148438 172.765625 501.40625 170.835938 502.152344 170.414062 L 502.464844 170.515625" fill="#231f20"/><path fill-rule="nonzero" fill-opacity="1" d="M 475.199219 172.125 L 474.972656 172.589844 C 474.597656 172.273438 473.882812 171.636719 473.925781 171.105469 C 474.394531 171.382812 474.820312 171.734375 475.199219 172.125" fill="#231f20"/><path fill-rule="nonzero" fill-opacity="1" d="M 478.023438 171.417969 L 478.136719 172.433594 C 478.09375 172.503906 478.023438 172.476562 477.96875 172.488281 C 477.726562 172.164062 477.796875 171.699219 477.714844 171.320312 C 477.785156 171.105469 478.023438 171.277344 478.023438 171.417969" fill="#231f20"/><path fill-rule="nonzero" fill-opacity="1" d="M 517.582031 172.914062 C 516.691406 172.980469 515.867188 172.632812 515.023438 172.417969 L 514.585938 171.980469 L 514.769531 171.8125 L 516.929688 172.292969 C 517.238281 172.195312 517.507812 172.011719 517.808594 171.898438 C 518.417969 170.996094 517.625 172.84375 517.582031 172.914062" fill="#eec51a"/><path fill-rule="nonzero" fill-opacity="1" d="M 477.203125 172.039062 L 477.882812 174.042969 C 477.867188 174.097656 477.8125 174.183594 477.742188 174.140625 C 477.261719 173.535156 476.964844 172.800781 476.753906 172.039062 C 476.753906 171.941406 476.824219 171.839844 476.90625 171.785156 C 477.050781 171.769531 477.175781 171.925781 477.203125 172.039062" fill="#231f20"/><path fill-rule="nonzero" fill-opacity="1" d="M 477.0625 174.492188 L 477.148438 174.789062 L 476.808594 174.832031 C 475.167969 173.648438 473.488281 173.007812 471.738281 172.082031 L 471.792969 171.910156 C 473.703125 172.410156 475.503906 173.28125 477.0625 174.492188" fill="#231f20"/><path fill-rule="nonzero" fill-opacity="1" d="M 482.8125 172.746094 C 482.804688 172.753906 480.472656 174.566406 480.101562 174.917969 L 479.960938 174.605469 C 480.53125 173.320312 481.382812 172.628906 482.8125 172.746094" fill="#231f20"/><path fill-rule="nonzero" fill-opacity="1" d="M 496.742188 174.226562 C 496.621094 175.101562 494.722656 176.675781 493.929688 177.078125 L 493.449219 177.035156 L 493.324219 176.722656 C 492.148438 176.78125 490.222656 176.90625 489.210938 176.300781 L 489.210938 176.171875 C 491.707031 175.96875 494.554688 175.96875 496.488281 174.097656 L 496.742188 174.226562" fill="#231f20"/><path fill-rule="nonzero" fill-opacity="1" d="M 447.199219 177.316406 L 447.648438 176.808594 L 447.789062 177.003906 C 446.132812 180.644531 442.875 176.945312 443.960938 175.90625 C 445.332031 176.910156 443.613281 178.464844 447.199219 177.316406" fill="#231f20"/><path fill-rule="nonzero" fill-opacity="1" d="M 462.160156 176.144531 C 461.65625 178.214844 457.476562 178.59375 456.054688 177.003906 L 456 176.496094 C 458.164062 177.394531 459.816406 177.5 461.792969 176.074219 L 462.160156 176.144531" fill="#231f20"/><path fill-rule="nonzero" fill-opacity="1" d="M 445.613281 179.222656 L 445.460938 179.6875 C 444.40625 179.980469 443.769531 179.421875 443.707031 178.359375 L 443.960938 178.277344 C 444.425781 178.828125 444.824219 179.351562 445.613281 179.222656" fill="#231f20"/><path fill-rule="nonzero" fill-opacity="1" d="M 450.742188 178.585938 C 450.871094 178.671875 450.800781 178.8125 450.6875 178.882812 C 449.867188 179.445312 448.808594 178.980469 447.917969 178.898438 C 447.777344 178.855469 447.664062 178.757812 447.550781 178.628906 C 447.496094 178.515625 447.59375 178.417969 447.691406 178.359375 L 450.742188 178.585938" fill="#231f20"/><path fill-rule="nonzero" fill-opacity="1" d="M 477.769531 178.769531 C 477.8125 179.660156 477.628906 180.648438 476.753906 181.125 C 476.667969 181.183594 476.597656 181.097656 476.539062 181.042969 C 476.765625 180.335938 477.164062 179.714844 477.386719 179.023438 C 477.515625 178.925781 477.570312 178.671875 477.769531 178.769531" fill="#231f20"/><path fill-rule="nonzero" fill-opacity="1" d="M 470.636719 180.320312 C 470.632812 180.515625 470.609375 180.8125 470.71875 180.984375 L 470.296875 180.957031 L 470.113281 180.308594 L 470.636719 180.320312" fill="#231f20"/><path fill-rule="nonzero" fill-opacity="1" d="M 481.570312 181.011719 C 481.625 181.183594 481.484375 181.324219 481.371094 181.410156 C 481.203125 181.410156 481.089844 181.28125 480.960938 181.183594 C 481.003906 181.011719 480.863281 180.871094 481.019531 180.730469 C 481.160156 180.6875 481.273438 180.464844 481.457031 180.589844 L 481.570312 181.011719" fill="#231f20"/><path fill-rule="nonzero" fill-opacity="1" d="M 478.941406 186.375 L 479 186.644531 C 478.726562 187.128906 477.226562 186.742188 477.078125 186.25 L 476.160156 185.417969 C 475.75 185.4375 474.894531 186.601562 473.996094 186.730469 C 473.617188 186.46875 472.257812 187.1875 471.523438 187.054688 L 471.539062 186.882812 C 473.199219 186.667969 474.785156 185.882812 475.722656 184.457031 L 476.132812 184.34375 C 476.6875 185.070312 478 186.191406 478.941406 186.375" fill="#231f20"/><path fill-rule="nonzero" fill-opacity="1" d="M 482.050781 185.21875 C 481.796875 185.8125 481.1875 186.078125 480.609375 186.164062 C 480.355469 186.207031 480.128906 186.066406 480 185.894531 L 480.042969 185.796875 C 480.765625 185.585938 481.511719 185.277344 481.910156 184.542969 C 482.234375 184.511719 482.078125 185.023438 482.050781 185.21875" fill="#231f20"/><path fill-rule="nonzero" fill-opacity="1" d="M 469.675781 185.035156 C 469.3125 186.011719 467.324219 185.648438 466.734375 185.121094 L 466.734375 185.050781 C 467.636719 185.066406 468.75 185.664062 469.519531 184.9375 L 469.675781 185.035156" fill="#231f20"/><path fill-rule="nonzero" fill-opacity="1" d="M 468.980469 186.914062 L 469.023438 187.167969 L 468.417969 187.773438 C 467.402344 187.96875 466.382812 187.558594 465.789062 186.714844 L 465.789062 186.375 C 466.195312 186.125 467.132812 187.550781 468.980469 186.914062" fill="#231f20"/><path fill-rule="nonzero" fill-opacity="1" d="M 477.769531 188.777344 C 477.609375 188.929688 477.210938 190.808594 476.5 191.625 L 476.316406 191.386719 C 475.535156 191.609375 474.640625 191.925781 473.855469 191.554688 L 474.097656 191.300781 C 476.675781 190.6875 477.613281 190.589844 477.347656 187.421875 C 477.863281 187.667969 477.773438 188.300781 477.769531 188.777344" fill="#231f20"/><path fill-rule="nonzero" fill-opacity="1" d="M 470.75 188.15625 C 470.636719 189.085938 470.410156 189.996094 470.253906 190.921875 C 469.625 190.917969 469.472656 192.453125 468.234375 192.417969 L 468.007812 192.21875 C 468.140625 192.003906 468.421875 191.882812 468.65625 191.824219 C 469.226562 191.203125 469.699219 190.464844 469.84375 189.621094 C 470.363281 189.308594 470.28125 188.671875 470.4375 188.167969 L 470.75 188.15625" fill="#231f20"/><path fill-rule="nonzero" fill-opacity="1" d="M 467.808594 188.691406 C 467.601562 189.570312 465.824219 189.746094 465.464844 188.929688 L 465.589844 188.746094 C 466.480469 188.875 466.925781 188.777344 467.808594 188.691406" fill="#231f20"/><path fill-rule="nonzero" fill-opacity="1" d="M 478.222656 191.542969 C 478.363281 190.5625 478.957031 189.722656 479.113281 188.746094 L 479.28125 188.703125 C 479.476562 189.300781 478.769531 191.273438 478.222656 191.542969" fill="#231f20"/><path fill-rule="nonzero" fill-opacity="1" d="M 475.171875 193.292969 C 475.058594 193.953125 474.675781 194.660156 474.027344 195.011719 C 473.96875 195.011719 473.855469 194.929688 473.871094 194.84375 C 474.097656 194.292969 474.519531 193.828125 474.660156 193.25 C 474.761719 193.007812 475.140625 193.023438 475.171875 193.292969" fill="#231f20"/><path fill-rule="nonzero" fill-opacity="1" d="M 473.164062 197.269531 C 473.28125 197.351562 473.136719 197.589844 473.007812 197.523438 C 469.351562 196.425781 466.128906 196.453125 462.371094 196.28125 C 462.152344 196.058594 461.847656 196.496094 461.707031 196.15625 L 461.792969 195.691406 C 462.125 195.457031 462.515625 195.800781 462.835938 195.550781 C 464.855469 195.058594 471.289062 196.3125 473.164062 197.269531" fill="#eec51a"/><path fill-rule="nonzero" fill-opacity="1" d="M 489.804688 225.199219 C 488.835938 224.769531 489.070312 224.839844 488.40625 223.84375 C 488.566406 223.359375 487.960938 222.980469 487.757812 222.585938 C 485.691406 218.613281 485.640625 219.058594 485.554688 214.5 L 485.792969 214.628906 C 486.164062 215.347656 485.949219 217.511719 486.386719 218.664062 C 487.15625 219.269531 488.660156 223.164062 490.46875 222.347656 C 491.019531 222.425781 491.828125 222.601562 492.152344 221.996094 C 492.164062 221.679688 492.613281 221.226562 492.222656 220.980469 C 491.863281 221.195312 491.886719 221.726562 491.386719 221.742188 C 489.054688 221.8125 485.664062 218.074219 487.925781 217.296875 C 487.78125 215.515625 486.285156 214.28125 486.359375 211.890625 C 485.914062 211.65625 485.609375 212.199219 485.1875 212.160156 C 483.949219 212.046875 482.734375 212.257812 481.457031 212.257812 C 481.199219 211.996094 478.703125 212.027344 477.96875 211.691406 C 477.644531 211.875 474.175781 210.917969 473.855469 210.847656 C 473.832031 210.558594 475.066406 210.691406 474.351562 210.308594 C 474.074219 210.164062 472.59375 210.234375 472.160156 210.183594 C 469.640625 209.894531 467.757812 208.828125 465.4375 208.011719 C 463.234375 208.933594 460.332031 207.742188 458.570312 206.414062 C 455.71875 204.269531 458.152344 198.359375 460.761719 196.648438 C 462.851562 196.839844 464.902344 196.769531 467.019531 196.988281 C 469.183594 197.210938 470.523438 197.421875 472.613281 198.144531 C 475.359375 199.097656 487.34375 204.324219 489.085938 206.667969 C 489.886719 207.75 491.105469 209.125 492.320312 209.773438 C 492.679688 209.964844 493.199219 210.214844 493.324219 210.648438 C 493.589844 211.570312 493.4375 217.144531 493.523438 218.847656 C 493.734375 223.054688 493.648438 223.382812 489.804688 225.199219" fill="#ee5b27"/><path fill-rule="nonzero" fill-opacity="1" d="M 459.785156 198.992188 C 459.449219 201.25 459.339844 201.867188 460.167969 204.074219 L 459.191406 203.113281 C 458.976562 201.769531 458.683594 200.089844 459.617188 198.9375 L 459.785156 198.992188" fill="#231f20"/><path fill-rule="nonzero" fill-opacity="1" d="M 471.101562 206.246094 C 471.175781 207.695312 466.523438 207.675781 465.621094 207.601562 L 465.253906 207.332031 L 465.535156 207.035156 C 467.308594 206.804688 469.273438 206.945312 470.875 206.019531 L 471.101562 206.246094" fill="#231f20"/><path fill-rule="nonzero" fill-opacity="1" d="M 486.078125 210.675781 C 485.496094 211.644531 477.769531 211.476562 476.539062 211.058594 L 476.230469 210.523438 L 476.328125 210.453125 C 477.417969 210.609375 478.523438 210.566406 479.621094 210.550781 L 479.675781 210.382812 C 478.734375 209.757812 474.328125 207.988281 473.925781 207.164062 L 474.125 206.882812 C 477.773438 207.878906 478.992188 209.445312 483.914062 210.199219 C 484.644531 210.308594 485.386719 210.410156 486.078125 210.675781" fill="#231f20"/><path fill-rule="nonzero" fill-opacity="1" d="M 465.960938 211.101562 C 464.5625 215.734375 462.5 215.339844 459.574219 218.085938 L 459.6875 218.328125 C 460.660156 218.285156 461.410156 217.621094 462.230469 217.183594 C 462.007812 217.679688 458.53125 221.097656 458.035156 221.386719 L 457.890625 221.714844 C 458.164062 221.773438 458.480469 221.660156 458.726562 221.542969 L 458.753906 221.570312 C 458.265625 222.441406 457.542969 222.234375 457.144531 223.421875 C 456.828125 224.351562 454.398438 227.886719 453.429688 227.726562 C 451.300781 228.652344 450.945312 229.980469 448.710938 228.148438 C 448.621094 226.699219 448.535156 227.183594 449.046875 225.777344 L 449.175781 225.777344 C 449.609375 229.613281 449.742188 223.410156 452.269531 221.839844 L 454.246094 220.613281 C 454.464844 220.488281 455.808594 220.726562 456.125 220.429688 L 456.265625 220.230469 L 455.617188 219.554688 L 455.929688 219.414062 C 456.082031 219.621094 456.414062 219.929688 456.691406 219.75 C 456.941406 219.777344 457.4375 219.765625 457.496094 219.441406 C 455.4375 217.359375 456.910156 214.320312 457.863281 212.03125 C 458.300781 211.722656 458.640625 210.941406 459.09375 210.761719 C 461.183594 209.933594 463.921875 210.398438 465.960938 211.101562" fill="#ee5b27"/><path fill-rule="nonzero" fill-opacity="1" d="M 490.695312 213.089844 C 490.742188 213.6875 489.945312 213.789062 489.550781 214.585938 C 489.027344 214.507812 489.371094 213.839844 489.199219 213.527344 C 488.84375 212.882812 487.675781 212.550781 487.816406 211.652344 L 488.027344 211.480469 C 488.964844 211.941406 489.539062 213.003906 490.695312 213.089844" fill="#231f20"/><path fill-rule="nonzero" fill-opacity="1" d="M 491.628906 213.851562 C 491.65625 214.769531 491.867188 215.628906 492.09375 216.464844 C 492.109375 216.519531 492.039062 216.546875 491.980469 216.5625 C 491.402344 215.855469 491.277344 214.855469 491.359375 213.894531 C 491.386719 213.769531 491.574219 213.738281 491.628906 213.851562" fill="#231f20"/><g clip-path="url(#7d2b4c9bf0)"><path fill-rule="nonzero" fill-opacity="1" d="M 493.859375 223.433594 C 493.898438 227.492188 493.824219 233.050781 497.476562 235.628906 C 498.363281 236.253906 503.351562 236.382812 503.511719 236.6875 C 505.183594 239.859375 496.769531 239.472656 494.636719 241.003906 C 494.335938 241.222656 491.402344 241.277344 491.105469 241.117188 C 490.648438 240.871094 490.328125 240.121094 490.316406 239.621094 C 490.285156 238.339844 491.097656 237.191406 491.023438 235.78125 C 490.925781 233.980469 489.519531 227.019531 490.0625 226.03125 C 491.324219 225.242188 492.902344 224.628906 493.707031 223.25 L 493.859375 223.433594" fill="#eec51a"/></g><path fill-rule="nonzero" fill-opacity="1" d="M 455.6875 224.195312 C 455.6875 225.828125 452.1875 227.980469 450.671875 227.46875 L 450.660156 227.203125 C 452.148438 226.457031 453.617188 226.523438 454.65625 224.875 C 454.859375 224.554688 454.964844 224.1875 455.335938 224.011719 L 455.6875 224.195312" fill="#231f20"/><path fill-rule="nonzero" fill-opacity="1" d="M 491.742188 232.972656 L 491.316406 233.058594 L 491.191406 232.832031 C 491.523438 230.964844 491.101562 229.097656 490.78125 227.257812 L 491.035156 226.792969 C 492.027344 227.449219 492.082031 231.859375 491.742188 232.972656" fill="#231f20"/><g clip-path="url(#f33b615ff9)"><path fill-rule="nonzero" fill-opacity="1" d="M 447.777344 228.105469 C 448.601562 229.15625 449.898438 229.445312 451.097656 229.855469 L 451.183594 229.996094 C 450.34375 230.882812 445.910156 235.246094 445.828125 236.785156 C 446.167969 236.867188 446.15625 236.042969 446.519531 236.472656 C 446.953125 236.992188 447.207031 237.15625 447.902344 237.207031 L 447.960938 237.023438 C 447.691406 236.792969 447.289062 236.757812 447.070312 236.460938 C 447.652344 236.367188 451.007812 235.769531 451.167969 235.925781 C 451.414062 236.160156 451.386719 236.542969 451.253906 236.828125 C 449.996094 239.507812 445.238281 238.90625 444.257812 239.902344 C 442.933594 241.257812 443.09375 240.617188 441.800781 241.117188 C 441.398438 240.921875 440.730469 240.691406 440.699219 240.15625 C 440.605469 238.601562 443.457031 234.710938 444.527344 233.511719 C 446.035156 231.824219 447.121094 228.707031 447.664062 228.089844 L 447.777344 228.105469" fill="#eec51a"/></g><path fill-rule="nonzero" fill-opacity="1" d="M 446.378906 232.972656 L 446.195312 232.832031 C 446.214844 232.617188 447.644531 230.347656 447.875 230.011719 C 447.941406 229.917969 448.351562 229.476562 448.414062 229.800781 C 448.558594 230.578125 446.933594 232.480469 446.378906 232.972656" fill="#231f20"/><path fill-rule="nonzero" fill-opacity="1" d="M 494.269531 238.210938 L 494.355469 238.40625 L 493.648438 238.589844 C 492.386719 238.046875 492.128906 237.265625 492.25 235.964844 L 492.492188 235.683594 C 492.941406 235.75 492.132812 238.210938 494.269531 238.210938" fill="#231f20"/><path fill-rule="nonzero" fill-opacity="1" d="M 443.242188 238.929688 C 443.269531 239.027344 443.367188 239.128906 443.480469 239.140625 C 443.738281 239.085938 443.960938 238.957031 444.160156 238.773438 C 444.273438 238.734375 444.34375 238.84375 444.398438 238.914062 C 444.386719 239.183594 444.074219 239.410156 443.847656 239.523438 C 443.695312 239.59375 443.46875 239.664062 443.296875 239.566406 C 442.875 239.253906 442.875 238.746094 442.917969 238.265625 C 442.960938 238.210938 443.03125 238.195312 443.085938 238.210938 C 443.269531 238.394531 443.171875 238.703125 443.242188 238.929688" fill="#231f20"/></svg>